<?xml version="1.0" encoding="UTF-8" standalone="no"?>
<svg
   xmlns:dc="http://purl.org/dc/elements/1.1/"
   xmlns:cc="http://creativecommons.org/ns#"
   xmlns:rdf="http://www.w3.org/1999/02/22-rdf-syntax-ns#"
   xmlns:svg="http://www.w3.org/2000/svg"
   xmlns="http://www.w3.org/2000/svg"
   xmlns:sodipodi="http://sodipodi.sourceforge.net/DTD/sodipodi-0.dtd"
   xmlns:inkscape="http://www.inkscape.org/namespaces/inkscape"
   version="1.1"
   width="3.4594798cm"
   height="1.42748cm"
   viewBox="0 0 13620 5620.0001"
   id="svg254"
   sodipodi:docname="ADM-CS-SECC_multipart_power.svg"
   inkscape:version="1.0 (4035a4fb49, 2020-05-01)">
  <metadata
     id="metadata260">
    <rdf:RDF>
      <cc:Work
         rdf:about="">
        <dc:format>image/svg+xml</dc:format>
        <dc:type
           rdf:resource="http://purl.org/dc/dcmitype/StillImage" />
      </cc:Work>
    </rdf:RDF>
  </metadata>
  <defs
     id="defs258" />
  <sodipodi:namedview
     inkscape:document-rotation="0"
     pagecolor="#ffffff"
     bordercolor="#666666"
     borderopacity="1"
     objecttolerance="10"
     gridtolerance="10"
     guidetolerance="10"
     inkscape:pageopacity="0"
     inkscape:pageshadow="2"
     inkscape:window-width="1920"
     inkscape:window-height="1017"
     id="namedview256"
     showgrid="false"
     inkscape:zoom="2.1862141"
     inkscape:cx="53.423998"
     inkscape:cy="-80.402817"
     inkscape:window-x="1912"
     inkscape:window-y="-8"
     inkscape:window-maximized="1"
     inkscape:current-layer="svg254" />
  <title
     id="title2">SVG Picture created as ADM-CS-SECC_multipart_power.svg date 2020/09/04 15:59:27 </title>
  <desc
     id="desc4">Picture generated by Eeschema-SVG </desc>
  <g
     transform="translate(-2700,-17190)"
     style="fill:#000000;fill-opacity:1;stroke:#000000;stroke-linecap:round;stroke-linejoin:round;stroke-opacity:1"
     id="g6" />
  <g
     transform="translate(-2700,-17190)"
     style="fill:#840000;fill-opacity:0;stroke:#840000;stroke-width:-10;stroke-linecap:round;stroke-linejoin:round;stroke-opacity:1"
     id="g8" />
  <g
     transform="translate(-2700,-17190)"
     style="fill:#ffffc2;fill-opacity:0;stroke:#ffffc2;stroke-width:-10;stroke-linecap:round;stroke-linejoin:round;stroke-opacity:1"
     id="g10" />
  <g
     transform="translate(-2700,-17190)"
     style="fill:#ffffc2;fill-opacity:0.6;stroke:#ffffc2;stroke-width:0;stroke-linecap:round;stroke-linejoin:round;stroke-opacity:1"
     id="g14">
    <rect
       x="2760"
       y="17250"
       width="10500"
       height="5500"
       rx="0"
       id="rect12" />
  </g>
  <g
     transform="translate(-2700,-17190)"
     style="fill:#840000;fill-opacity:0.6;stroke:#840000;stroke-width:0;stroke-linecap:round;stroke-linejoin:round;stroke-opacity:1"
     id="g16" />
  <g
     transform="translate(-2700,-17190)"
     style="fill:#840000;fill-opacity:0;stroke:#840000;stroke-width:120;stroke-linecap:round;stroke-linejoin:round;stroke-opacity:1"
     id="g20">
    <rect
       x="2760"
       y="17250"
       width="10500"
       height="5500"
       rx="0"
       id="rect18" />
  </g>
  <g
     transform="translate(-2700,-17190)"
     style="fill:#840000;fill-opacity:0;stroke:#840000;stroke-width:80;stroke-linecap:round;stroke-linejoin:round;stroke-opacity:1"
     id="g40">
    <g
       transform="rotate(-90,4270,19750)"
       id="g24">
      <text
         x="4270"
         y="20000"
         textLength="2730"
         font-size="660px"
         lengthAdjust="spacingAndGlyphs"
         text-anchor="middle"
         opacity="0"
         id="text22">POWER</text>
    </g>
    <path
       d="m 4490,20950 -500,-60 v -190 l 30,-50 20,-20 50,-20 70,10 50,30 20,30 20,50 v 190"
       id="path26" />
    <path
       d="m 3990,20290 v -90 l 30,-50 40,-40 100,-10 160,20 100,30 50,60 20,50 v 90 l -20,50 -50,40 -100,10 -160,-20 -100,-30 -40,-60 -30,-50"
       id="path28" />
    <path
       d="m 3990,19910 500,-60 -360,-140 360,-50 -500,-180"
       id="path30" />
    <path
       d="m 4230,19320 v -170"
       id="path32" />
    <path
       d="m 4490,19120 v 230 l -500,-60 v -240"
       id="path34" />
    <path
       d="m 4490,18620 -240,130"
       id="path36" />
    <path
       d="m 4490,18900 -500,-60 v -190 l 30,-50 20,-20 50,-20 70,10 50,30 20,30 20,50 v 190"
       id="path38" />
  </g>
  <g
     transform="translate(-2700,-17190)"
     style="fill:#840000;fill-opacity:0;stroke:#840000;stroke-width:120;stroke-linecap:round;stroke-linejoin:round;stroke-opacity:1"
     id="g46">
    <rect
       x="2760"
       y="17250"
       width="10500"
       height="5500"
       rx="0"
       id="rect42" />
    <path
       d="m 13260,19250 h 3000"
       id="path44" />
  </g>
  <g
     transform="translate(-2700,-17190)"
     style="fill:#008484;fill-opacity:0;stroke:#008484;stroke-width:120;stroke-linecap:round;stroke-linejoin:round;stroke-opacity:1"
     id="g50">
    <text
       x="13060"
       y="19500"
       textLength="2600"
       font-size="660px"
       lengthAdjust="spacingAndGlyphs"
       text-anchor="end"
       opacity="0"
       id="text48">24V_IN</text>
  </g>
  <g
     transform="translate(-2700,-17190)"
     style="fill:#008484;fill-opacity:0;stroke:#008484;stroke-width:80;stroke-linecap:round;stroke-linejoin:round;stroke-opacity:1"
     id="g66">
    <path
       d="m 10590,19020 20,-20 50,-30 h 120 l 40,30 30,20 20,50 v 40 l -20,80 -290,280 h 310"
       id="path52" />
    <path
       d="m 11300,19140 v 330"
       id="path54" />
    <path
       d="m 11180,18950 -120,350 h 310"
       id="path56" />
    <path
       d="m 11490,18970 170,500 160,-500"
       id="path58" />
    <path
       d="m 11870,19520 h 380"
       id="path60" />
    <path
       d="m 12370,19470 v -500"
       id="path62" />
    <path
       d="m 12610,19470 v -500 l 290,500 v -500"
       id="path64" />
  </g>
  <g
     transform="translate(-2700,-17190)"
     style="fill:#008484;fill-opacity:0;stroke:#008484;stroke-width:120;stroke-linecap:round;stroke-linejoin:round;stroke-opacity:1"
     id="g68" />
  <g
     transform="translate(-2700,-17190)"
     style="fill:#840000;fill-opacity:0;stroke:#840000;stroke-width:120;stroke-linecap:round;stroke-linejoin:round;stroke-opacity:1"
     id="g72">
    <text
       x="14760"
       y="19120"
       textLength="2510"
       font-size="520px"
       lengthAdjust="spacingAndGlyphs"
       text-anchor="middle"
       opacity="0"
       id="text70">CON4-8</text>
  </g>
  <g
     transform="translate(-2700,-17190)"
     style="fill:#840000;fill-opacity:0;stroke:#840000;stroke-width:70;stroke-linecap:round;stroke-linejoin:round;stroke-opacity:1"
     id="g88">
    <path
       d="m 13850,19060 -10,20 -60,20 h -40 l -50,-20 -40,-40 -20,-40 -20,-70 v -60 l 20,-70 20,-40 40,-30 50,-20 h 40 l 60,20 10,10"
       id="path74" />
    <path
       d="m 14100,18710 h 70 l 40,20 30,30 20,80 v 130 l -20,70 -30,40 -40,20 h -70 l -40,-20 -40,-40 -20,-70 v -130 l 20,-80 40,-30 40,-20"
       id="path76" />
    <path
       d="m 14430,19100 v -390 l 220,390 v -390"
       id="path78" />
    <path
       d="m 15010,18840 v 260"
       id="path80" />
    <path
       d="m 14910,18690 -90,280 h 240"
       id="path82" />
    <path
       d="m 15210,18950 h 300"
       id="path84" />
    <path
       d="m 15750,18870 -40,-10 -20,-20 -20,-40 v -20 l 20,-40 20,-10 40,-20 h 70 l 40,20 20,10 20,40 v 20 l -20,40 -20,20 -40,10 h -70 l -40,20 -20,20 -20,40 v 70 l 20,40 20,20 40,20 h 70 l 40,-20 20,-20 20,-40 v -70 l -20,-40 -20,-20 -40,-20"
       id="path86" />
  </g>
  <g
     transform="translate(-2700,-17190)"
     style="fill:#840000;fill-opacity:0;stroke:#840000;stroke-width:120;stroke-linecap:round;stroke-linejoin:round;stroke-opacity:1"
     id="g92">
    <path
       d="m 13260,20750 h 3000"
       id="path90" />
  </g>
  <g
     transform="translate(-2700,-17190)"
     style="fill:#008484;fill-opacity:0;stroke:#008484;stroke-width:120;stroke-linecap:round;stroke-linejoin:round;stroke-opacity:1"
     id="g96">
    <text
       x="13060"
       y="21000"
       textLength="4520"
       font-size="660px"
       lengthAdjust="spacingAndGlyphs"
       text-anchor="end"
       opacity="0"
       id="text94">POWER_GND</text>
  </g>
  <g
     transform="translate(-2700,-17190)"
     style="fill:#008484;fill-opacity:0;stroke:#008484;stroke-width:80;stroke-linecap:round;stroke-linejoin:round;stroke-opacity:1"
     id="g120">
    <path
       d="m 8680,20970 v -500 h 190 l 50,30 20,20 30,50 v 70 l -30,50 -20,20 -50,20 h -190"
       id="path98" />
    <path
       d="m 9280,20470 h 90 l 50,30 50,40 20,100 v 160 l -20,100 -50,50 -50,20 h -90 l -50,-20 -50,-50 -20,-100 v -160 l 20,-100 50,-40 50,-30"
       id="path100" />
    <path
       d="m 9660,20470 120,500 90,-360 100,360 120,-500"
       id="path102" />
    <path
       d="m 10280,20710 h 160"
       id="path104" />
    <path
       d="m 10520,20970 h -240 v -500 h 240"
       id="path106" />
    <path
       d="m 11020,20970 -170,-240"
       id="path108" />
    <path
       d="m 10730,20970 v -500 h 190 l 50,30 20,20 30,50 v 70 l -30,50 -20,20 -50,20 h -190"
       id="path110" />
    <path
       d="m 11110,21020 h 380"
       id="path112" />
    <path
       d="m 11870,20500 -50,-30 h -70 l -70,30 -50,40 -20,50 -20,100 v 70 l 20,90 20,50 50,50 70,20 h 50 l 70,-20 30,-30 v -160 h -100"
       id="path114" />
    <path
       d="m 12110,20970 v -500 l 290,500 v -500"
       id="path116" />
    <path
       d="m 12630,20970 v -500 h 120 l 70,30 50,40 30,50 20,100 v 70 l -20,90 -30,50 -50,50 -70,20 h -120"
       id="path118" />
  </g>
  <g
     transform="translate(-2700,-17190)"
     style="fill:#008484;fill-opacity:0;stroke:#008484;stroke-width:120;stroke-linecap:round;stroke-linejoin:round;stroke-opacity:1"
     id="g122" />
  <g
     transform="translate(-2700,-17190)"
     style="fill:#840000;fill-opacity:0;stroke:#840000;stroke-width:120;stroke-linecap:round;stroke-linejoin:round;stroke-opacity:1"
     id="g126">
    <text
       x="14760"
       y="20620"
       textLength="2510"
       font-size="520px"
       lengthAdjust="spacingAndGlyphs"
       text-anchor="middle"
       opacity="0"
       id="text124">CON4-9</text>
  </g>
  <g
     transform="translate(-2700,-17190)"
     style="fill:#840000;fill-opacity:0;stroke:#840000;stroke-width:70;stroke-linecap:round;stroke-linejoin:round;stroke-opacity:1"
     id="g142">
    <path
       d="m 13850,20560 -10,20 -60,20 h -40 l -50,-20 -40,-40 -20,-40 -20,-70 v -60 l 20,-70 20,-40 40,-30 50,-20 h 40 l 60,20 10,10"
       id="path128" />
    <path
       d="m 14100,20210 h 70 l 40,20 30,30 20,80 v 130 l -20,70 -30,40 -40,20 h -70 l -40,-20 -40,-40 -20,-70 v -130 l 20,-80 40,-30 40,-20"
       id="path130" />
    <path
       d="m 14430,20600 v -390 l 220,390 v -390"
       id="path132" />
    <path
       d="m 15010,20340 v 260"
       id="path134" />
    <path
       d="m 14910,20190 -90,280 h 240"
       id="path136" />
    <path
       d="m 15210,20450 h 300"
       id="path138" />
    <path
       d="m 15710,20600 h 80 l 30,-20 20,-20 40,-60 20,-70 v -150 l -20,-40 -20,-10 -40,-20 h -70 l -40,20 -20,10 -20,40 v 90 l 20,40 20,20 40,20 h 70 l 40,-20 20,-20 20,-40"
       id="path140" />
  </g>
  <g
     transform="translate(-2700,-17190)"
     style="fill:#840000;fill-opacity:0;stroke:#840000;stroke-width:120;stroke-linecap:round;stroke-linejoin:round;stroke-opacity:1"
     id="g144" />
  <g
     transform="translate(-2700,-17190)"
     style="fill:#840084;fill-opacity:0;stroke:#840084;stroke-width:120;stroke-linecap:round;stroke-linejoin:round;stroke-opacity:1"
     id="g146" />
  <g
     transform="translate(-2700,-17190)"
     style="fill:#008484;fill-opacity:0;stroke:#008484;stroke-width:120;stroke-linecap:round;stroke-linejoin:round;stroke-opacity:1"
     id="g148" />
</svg>
