<?xml version="1.0" encoding="UTF-8" standalone="no"?>
<svg
   xmlns:dc="http://purl.org/dc/elements/1.1/"
   xmlns:cc="http://creativecommons.org/ns#"
   xmlns:rdf="http://www.w3.org/1999/02/22-rdf-syntax-ns#"
   xmlns:svg="http://www.w3.org/2000/svg"
   xmlns="http://www.w3.org/2000/svg"
   xmlns:sodipodi="http://sodipodi.sourceforge.net/DTD/sodipodi-0.dtd"
   xmlns:inkscape="http://www.inkscape.org/namespaces/inkscape"
   version="1.1"
   width="3.4594798cm"
   height="3.8404799cm"
   viewBox="0 0 13620 15120"
   id="svg718"
   sodipodi:docname="ADM-CS-SECC_multipart_CCS_A.svg"
   inkscape:version="1.0 (4035a4fb49, 2020-05-01)">
  <metadata
     id="metadata724">
    <rdf:RDF>
      <cc:Work
         rdf:about="">
        <dc:format>image/svg+xml</dc:format>
        <dc:type
           rdf:resource="http://purl.org/dc/dcmitype/StillImage" />
        <dc:title>SVG Picture created as ADM-CS-SECC_multipart_CCS_A.svg date 2020/09/04 16:01:37 </dc:title>
      </cc:Work>
    </rdf:RDF>
  </metadata>
  <defs
     id="defs722" />
  <sodipodi:namedview
     inkscape:document-rotation="0"
     pagecolor="#ffffff"
     bordercolor="#666666"
     borderopacity="1"
     objecttolerance="10"
     gridtolerance="10"
     guidetolerance="10"
     inkscape:pageopacity="0"
     inkscape:pageshadow="2"
     inkscape:window-width="1219"
     inkscape:window-height="1010"
     id="namedview720"
     showgrid="false"
     inkscape:zoom="2.1862141"
     inkscape:cx="53.423998"
     inkscape:cy="104.36893"
     inkscape:window-x="0"
     inkscape:window-y="0"
     inkscape:window-maximized="0"
     inkscape:current-layer="svg718" />
  <title
     id="title2">SVG Picture created as ADM-CS-SECC_multipart_CCS_A.svg date 2020/09/04 16:01:37 </title>
  <desc
     id="desc4">Picture generated by Eeschema-SVG </desc>
  <g
     transform="translate(-2700,-13190)"
     style="fill:#000000;fill-opacity:1;stroke:#000000;stroke-linecap:round;stroke-linejoin:round;stroke-opacity:1"
     id="g6" />
  <g
     transform="translate(-2700,-13190)"
     style="fill:#840000;fill-opacity:0;stroke:#840000;stroke-width:-10;stroke-linecap:round;stroke-linejoin:round;stroke-opacity:1"
     id="g8" />
  <g
     transform="translate(-2700,-13190)"
     style="fill:#ffffc2;fill-opacity:0;stroke:#ffffc2;stroke-width:-10;stroke-linecap:round;stroke-linejoin:round;stroke-opacity:1"
     id="g10" />
  <g
     transform="translate(-2700,-13190)"
     style="fill:#ffffc2;fill-opacity:0.6;stroke:#ffffc2;stroke-width:0;stroke-linecap:round;stroke-linejoin:round;stroke-opacity:1"
     id="g14">
    <rect
       x="2760"
       y="13250"
       width="10500"
       height="15000"
       rx="0"
       id="rect12" />
  </g>
  <g
     transform="translate(-2700,-13190)"
     style="fill:#840000;fill-opacity:0.6;stroke:#840000;stroke-width:0;stroke-linecap:round;stroke-linejoin:round;stroke-opacity:1"
     id="g16" />
  <g
     transform="translate(-2700,-13190)"
     style="fill:#840000;fill-opacity:0;stroke:#840000;stroke-width:120;stroke-linecap:round;stroke-linejoin:round;stroke-opacity:1"
     id="g20">
    <rect
       x="2760"
       y="13250"
       width="10500"
       height="15000"
       rx="0"
       id="rect18" />
  </g>
  <g
     transform="translate(-2700,-13190)"
     style="fill:#840000;fill-opacity:0;stroke:#840000;stroke-width:100;stroke-linecap:round;stroke-linejoin:round;stroke-opacity:1"
     id="g74">
    <g
       transform="rotate(-90,4280,20250)"
       id="g24">
      <text
         x="4280"
         y="20550"
         textLength="10550"
         font-size="800px"
         lengthAdjust="spacingAndGlyphs"
         text-anchor="middle"
         opacity="0"
         id="text22">CCS A INTERFACE (DC)</text>
    </g>
    <path
       d="m 4490,24980 30,30 30,90 v 60 l -30,80 -60,50 -60,20 -110,20 -90,-10 -110,-40 -60,-40 -50,-60 -30,-90 v -60 l 30,-80 20,-30"
       id="path26" />
    <path
       d="m 4490,24380 30,30 30,90 v 60 l -30,80 -60,50 -60,20 -110,20 -90,-10 -110,-40 -60,-40 -50,-60 -30,-90 v -60 l 30,-80 20,-30"
       id="path28" />
    <path
       d="m 4520,24160 30,-80 v -150 l -30,-60 -30,-30 -60,-40 h -50 l -60,20 -30,20 -30,60 -30,110 -30,50 -20,30 -60,20 -60,-10 -60,-40 -20,-30 -30,-60 v -140 l 30,-80"
       id="path30" />
    <path
       d="m 4380,23110 v -280"
       id="path32" />
    <path
       d="m 4550,23190 -600,-280 600,-120"
       id="path34" />
    <path
       d="m 4550,22130 -600,-70"
       id="path36" />
    <path
       d="m 4550,21850 -600,-80 600,-270 -600,-70"
       id="path38" />
    <path
       d="m 3950,21230 v -340"
       id="path40" />
    <path
       d="m 4550,21130 -600,-70"
       id="path42" />
    <path
       d="m 4230,20720 v -200"
       id="path44" />
    <path
       d="m 4550,20480 v 280 l -600,-70 v -290"
       id="path46" />
    <path
       d="m 4550,19880 -290,160"
       id="path48" />
    <path
       d="m 4550,20220 -600,-80 v -230 l 30,-50 20,-20 60,-30 90,20 50,30 30,30 30,60 v 230"
       id="path50" />
    <path
       d="m 4230,19380 v 200"
       id="path52" />
    <path
       d="m 4550,19620 -600,-80 v -280"
       id="path54" />
    <path
       d="m 4380,19110 v -280"
       id="path56" />
    <path
       d="m 4550,19190 -600,-280 600,-120"
       id="path58" />
    <path
       d="m 4490,18240 30,30 30,90 v 60 l -30,80 -60,50 -60,20 -110,20 -90,-10 -110,-50 -60,-30 -50,-70 -30,-90 v -50 l 30,-90 20,-20"
       id="path60" />
    <path
       d="m 4230,17950 v -200"
       id="path62" />
    <path
       d="m 4550,17700 v 290 l -600,-80 v -280"
       id="path64" />
    <path
       d="m 4780,16850 -30,20 -90,50 -60,20 -80,20 -140,10 -120,-20 -140,-40 -90,-40 -50,-40 -90,-70 -30,-30"
       id="path66" />
    <path
       d="m 4550,16590 -600,-80 v -140 l 30,-80 50,-50 60,-20 110,-20 90,10 110,50 60,30 60,70 30,90 v 140"
       id="path68" />
    <path
       d="m 4490,15640 30,30 30,90 v 60 l -30,80 -60,50 -60,20 -110,20 -90,-10 -110,-50 -60,-30 -50,-70 -30,-90 v -50 l 30,-90 20,-20"
       id="path70" />
    <path
       d="m 4780,15480 -30,-40 -90,-60 -60,-40 -80,-40 -140,-50 -120,-10 -140,10 -90,20 -50,20 -90,50 -30,20"
       id="path72" />
  </g>
  <g
     transform="translate(-2700,-13190)"
     style="fill:#840000;fill-opacity:0;stroke:#840000;stroke-width:120;stroke-linecap:round;stroke-linejoin:round;stroke-opacity:1"
     id="g80">
    <rect
       x="2760"
       y="13250"
       width="10500"
       height="15000"
       rx="0"
       id="rect76" />
    <path
       d="m 13260,14250 h 3000"
       id="path78" />
  </g>
  <g
     transform="translate(-2700,-13190)"
     style="fill:#008484;fill-opacity:0;stroke:#008484;stroke-width:120;stroke-linecap:round;stroke-linejoin:round;stroke-opacity:1"
     id="g84">
    <text
       x="13060"
       y="14500"
       textLength="4100"
       font-size="660px"
       lengthAdjust="spacingAndGlyphs"
       text-anchor="end"
       opacity="0"
       id="text82">EVSE_CP_A</text>
  </g>
  <g
     transform="translate(-2700,-13190)"
     style="fill:#008484;fill-opacity:0;stroke:#008484;stroke-width:80;stroke-linecap:round;stroke-linejoin:round;stroke-opacity:1"
     id="g110">
    <path
       d="m 9130,14210 h 170"
       id="path86" />
    <path
       d="m 9370,14470 h -240 v -500 h 240"
       id="path88" />
    <path
       d="m 9520,13970 160,500 170,-500"
       id="path90" />
    <path
       d="m 9990,14450 70,20 h 120 l 50,-20 20,-30 30,-40 v -50 l -30,-50 -20,-20 -50,-30 -90,-20 -50,-20 -20,-30 -30,-50 v -40 l 30,-50 20,-20 50,-30 h 120 l 70,30"
       id="path92" />
    <path
       d="m 10490,14210 h 170"
       id="path94" />
    <path
       d="m 10730,14470 h -240 v -500 h 240"
       id="path96" />
    <path
       d="m 10820,14520 h 390"
       id="path98" />
    <path
       d="m 11610,14420 -20,30 -70,20 h -50 l -70,-20 -50,-50 -30,-50 -20,-90 v -70 l 20,-100 30,-50 50,-40 70,-30 h 50 l 70,30 20,20"
       id="path100" />
    <path
       d="m 11820,14470 v -500 h 200 l 40,30 30,20 20,50 v 70 l -20,50 -30,20 -40,20 h -200"
       id="path102" />
    <path
       d="m 12210,14520 h 380"
       id="path104" />
    <path
       d="m 12680,14330 h 240"
       id="path106" />
    <path
       d="m 12630,14470 170,-500 170,500"
       id="path108" />
  </g>
  <g
     transform="translate(-2700,-13190)"
     style="fill:#008484;fill-opacity:0;stroke:#008484;stroke-width:120;stroke-linecap:round;stroke-linejoin:round;stroke-opacity:1"
     id="g112" />
  <g
     transform="translate(-2700,-13190)"
     style="fill:#840000;fill-opacity:0;stroke:#840000;stroke-width:120;stroke-linecap:round;stroke-linejoin:round;stroke-opacity:1"
     id="g116">
    <text
       x="14760"
       y="14120"
       textLength="2510"
       font-size="520px"
       lengthAdjust="spacingAndGlyphs"
       text-anchor="middle"
       opacity="0"
       id="text114">CON1-1</text>
  </g>
  <g
     transform="translate(-2700,-13190)"
     style="fill:#840000;fill-opacity:0;stroke:#840000;stroke-width:70;stroke-linecap:round;stroke-linejoin:round;stroke-opacity:1"
     id="g134">
    <path
       d="m 13850,14060 -10,20 -60,20 h -40 l -50,-20 -40,-40 -20,-40 -20,-70 v -60 l 20,-70 20,-40 40,-30 50,-20 h 40 l 60,20 10,10"
       id="path118" />
    <path
       d="m 14100,13710 h 70 l 40,20 30,30 20,80 v 130 l -20,70 -30,40 -40,20 h -70 l -40,-20 -40,-40 -20,-70 v -130 l 20,-80 40,-30 40,-20"
       id="path120" />
    <path
       d="m 14430,14100 v -390 l 220,390 v -390"
       id="path122" />
    <path
       d="m 15040,14100 h -220"
       id="path124" />
    <path
       d="m 14930,14100 v -390 l -40,50 -30,40 -40,20"
       id="path126" />
    <path
       d="m 15210,13950 h 300"
       id="path128" />
    <path
       d="m 15900,14100 h -230"
       id="path130" />
    <path
       d="m 15790,14100 v -390 l -40,50 -40,40 -40,20"
       id="path132" />
  </g>
  <g
     transform="translate(-2700,-13190)"
     style="fill:#840000;fill-opacity:0;stroke:#840000;stroke-width:120;stroke-linecap:round;stroke-linejoin:round;stroke-opacity:1"
     id="g138">
    <path
       d="m 13260,15750 h 3000"
       id="path136" />
  </g>
  <g
     transform="translate(-2700,-13190)"
     style="fill:#008484;fill-opacity:0;stroke:#008484;stroke-width:120;stroke-linecap:round;stroke-linejoin:round;stroke-opacity:1"
     id="g142">
    <text
       x="13060"
       y="16000"
       textLength="4070"
       font-size="660px"
       lengthAdjust="spacingAndGlyphs"
       text-anchor="end"
       opacity="0"
       id="text140">EVSE_PP_A</text>
  </g>
  <g
     transform="translate(-2700,-13190)"
     style="fill:#008484;fill-opacity:0;stroke:#008484;stroke-width:80;stroke-linecap:round;stroke-linejoin:round;stroke-opacity:1"
     id="g168">
    <path
       d="m 9130,15710 h 170"
       id="path144" />
    <path
       d="m 9370,15970 h -240 v -500 h 240"
       id="path146" />
    <path
       d="m 9520,15470 160,500 170,-500"
       id="path148" />
    <path
       d="m 9990,15950 70,20 h 120 l 50,-20 20,-30 30,-40 v -50 l -30,-50 -20,-20 -50,-30 -90,-20 -50,-20 -20,-30 -30,-50 v -40 l 30,-50 20,-20 50,-30 h 120 l 70,30"
       id="path150" />
    <path
       d="m 10490,15710 h 170"
       id="path152" />
    <path
       d="m 10730,15970 h -240 v -500 h 240"
       id="path154" />
    <path
       d="m 10820,16020 h 390"
       id="path156" />
    <path
       d="m 11320,15970 v -500 h 200 l 40,30 30,20 20,50 v 70 l -20,50 -30,20 -40,20 h -200"
       id="path158" />
    <path
       d="m 11820,15970 v -500 h 200 l 40,30 30,20 20,50 v 70 l -20,50 -30,20 -40,20 h -200"
       id="path160" />
    <path
       d="m 12210,16020 h 380"
       id="path162" />
    <path
       d="m 12680,15830 h 240"
       id="path164" />
    <path
       d="m 12630,15970 170,-500 170,500"
       id="path166" />
  </g>
  <g
     transform="translate(-2700,-13190)"
     style="fill:#008484;fill-opacity:0;stroke:#008484;stroke-width:120;stroke-linecap:round;stroke-linejoin:round;stroke-opacity:1"
     id="g170" />
  <g
     transform="translate(-2700,-13190)"
     style="fill:#840000;fill-opacity:0;stroke:#840000;stroke-width:120;stroke-linecap:round;stroke-linejoin:round;stroke-opacity:1"
     id="g174">
    <text
       x="14760"
       y="15620"
       textLength="2510"
       font-size="520px"
       lengthAdjust="spacingAndGlyphs"
       text-anchor="middle"
       opacity="0"
       id="text172">CON1-2</text>
  </g>
  <g
     transform="translate(-2700,-13190)"
     style="fill:#840000;fill-opacity:0;stroke:#840000;stroke-width:70;stroke-linecap:round;stroke-linejoin:round;stroke-opacity:1"
     id="g190">
    <path
       d="m 13850,15560 -10,20 -60,20 h -40 l -50,-20 -40,-40 -20,-40 -20,-70 v -60 l 20,-70 20,-40 40,-30 50,-20 h 40 l 60,20 10,10"
       id="path176" />
    <path
       d="m 14100,15210 h 70 l 40,20 30,30 20,80 v 130 l -20,70 -30,40 -40,20 h -70 l -40,-20 -40,-40 -20,-70 v -130 l 20,-80 40,-30 40,-20"
       id="path178" />
    <path
       d="m 14430,15600 v -390 l 220,390 v -390"
       id="path180" />
    <path
       d="m 15040,15600 h -220"
       id="path182" />
    <path
       d="m 14930,15600 v -390 l -40,50 -30,40 -40,20"
       id="path184" />
    <path
       d="m 15210,15450 h 300"
       id="path186" />
    <path
       d="m 15670,15240 20,-10 40,-20 h 90 l 40,20 20,10 20,40 v 40 l -20,50 -220,230 h 240"
       id="path188" />
  </g>
  <g
     transform="translate(-2700,-13190)"
     style="fill:#840000;fill-opacity:0;stroke:#840000;stroke-width:120;stroke-linecap:round;stroke-linejoin:round;stroke-opacity:1"
     id="g194">
    <path
       d="m 13260,17250 h 3000"
       id="path192" />
  </g>
  <g
     transform="translate(-2700,-13190)"
     style="fill:#008484;fill-opacity:0;stroke:#008484;stroke-width:120;stroke-linecap:round;stroke-linejoin:round;stroke-opacity:1"
     id="g198">
    <text
       x="13060"
       y="17500"
       textLength="4260"
       font-size="660px"
       lengthAdjust="spacingAndGlyphs"
       text-anchor="end"
       opacity="0"
       id="text196">CCS_A_GND</text>
  </g>
  <g
     transform="translate(-2700,-13190)"
     style="fill:#008484;fill-opacity:0;stroke:#008484;stroke-width:80;stroke-linecap:round;stroke-linejoin:round;stroke-opacity:1"
     id="g220">
    <path
       d="m 9230,17420 -20,30 -80,20 h -40 l -70,-20 -50,-50 -30,-50 -20,-90 v -70 l 20,-100 30,-50 50,-40 70,-30 h 40 l 80,30 20,20"
       id="path200" />
    <path
       d="m 9730,17420 -20,30 -80,20 h -40 l -70,-20 -50,-50 -30,-50 -20,-90 v -70 l 20,-100 30,-50 50,-40 70,-30 h 40 l 80,30 20,20"
       id="path202" />
    <path
       d="m 9920,17450 70,20 h 120 l 50,-20 20,-30 30,-40 v -50 l -30,-50 -20,-20 -50,-30 -90,-20 -50,-20 -30,-30 -20,-50 v -40 l 20,-50 30,-20 50,-30 h 110 l 80,30"
       id="path204" />
    <path
       d="m 10300,17520 h 380"
       id="path206" />
    <path
       d="m 10780,17330 h 240"
       id="path208" />
    <path
       d="m 10730,17470 170,-500 160,500"
       id="path210" />
    <path
       d="m 11110,17520 h 380"
       id="path212" />
    <path
       d="m 11870,17000 -50,-30 h -70 l -70,30 -50,40 -20,50 -20,100 v 70 l 20,90 20,50 50,50 70,20 h 50 l 70,-20 30,-30 v -160 h -100"
       id="path214" />
    <path
       d="m 12110,17470 v -500 l 290,500 v -500"
       id="path216" />
    <path
       d="m 12630,17470 v -500 h 120 l 70,30 50,40 30,50 20,100 v 70 l -20,90 -30,50 -50,50 -70,20 h -120"
       id="path218" />
  </g>
  <g
     transform="translate(-2700,-13190)"
     style="fill:#008484;fill-opacity:0;stroke:#008484;stroke-width:120;stroke-linecap:round;stroke-linejoin:round;stroke-opacity:1"
     id="g222" />
  <g
     transform="translate(-2700,-13190)"
     style="fill:#840000;fill-opacity:0;stroke:#840000;stroke-width:120;stroke-linecap:round;stroke-linejoin:round;stroke-opacity:1"
     id="g226">
    <text
       x="14760"
       y="17120"
       textLength="2510"
       font-size="520px"
       lengthAdjust="spacingAndGlyphs"
       text-anchor="middle"
       opacity="0"
       id="text224">CON1-3</text>
  </g>
  <g
     transform="translate(-2700,-13190)"
     style="fill:#840000;fill-opacity:0;stroke:#840000;stroke-width:70;stroke-linecap:round;stroke-linejoin:round;stroke-opacity:1"
     id="g242">
    <path
       d="m 13850,17060 -10,20 -60,20 h -40 l -50,-20 -40,-40 -20,-40 -20,-70 v -60 l 20,-70 20,-40 40,-30 50,-20 h 40 l 60,20 10,10"
       id="path228" />
    <path
       d="m 14100,16710 h 70 l 40,20 30,30 20,80 v 130 l -20,70 -30,40 -40,20 h -70 l -40,-20 -40,-40 -20,-70 v -130 l 20,-80 40,-30 40,-20"
       id="path230" />
    <path
       d="m 14430,17100 v -390 l 220,390 v -390"
       id="path232" />
    <path
       d="m 15040,17100 h -220"
       id="path234" />
    <path
       d="m 14930,17100 v -390 l -40,50 -30,40 -40,20"
       id="path236" />
    <path
       d="m 15210,16950 h 300"
       id="path238" />
    <path
       d="m 15660,16710 h 240 l -130,150 h 50 l 40,10 20,20 20,40 v 90 l -20,40 -20,20 -40,20 h -110 l -40,-20 -10,-20"
       id="path240" />
  </g>
  <g
     transform="translate(-2700,-13190)"
     style="fill:#840000;fill-opacity:0;stroke:#840000;stroke-width:120;stroke-linecap:round;stroke-linejoin:round;stroke-opacity:1"
     id="g246">
    <path
       d="m 13260,19250 h 3000"
       id="path244" />
  </g>
  <g
     transform="translate(-2700,-13190)"
     style="fill:#008484;fill-opacity:0;stroke:#008484;stroke-width:120;stroke-linecap:round;stroke-linejoin:round;stroke-opacity:1"
     id="g250">
    <text
       x="13060"
       y="19500"
       textLength="4740"
       font-size="660px"
       lengthAdjust="spacingAndGlyphs"
       text-anchor="end"
       opacity="0"
       id="text248">PT1000_CH1</text>
  </g>
  <g
     transform="translate(-2700,-13190)"
     style="fill:#008484;fill-opacity:0;stroke:#008484;stroke-width:80;stroke-linecap:round;stroke-linejoin:round;stroke-opacity:1"
     id="g282">
    <path
       d="m 8470,19470 v -500 h 190 l 50,30 20,20 20,50 v 70 l -20,50 -20,20 -50,20 h -190"
       id="path252" />
    <path
       d="m 8900,18970 h 280"
       id="path254" />
    <path
       d="m 9040,19470 v -500"
       id="path256" />
    <path
       d="M 9610,19470 H 9320"
       id="path258" />
    <path
       d="m 9470,19470 v -500 l -50,70 -50,50 -50,20"
       id="path260" />
    <path
       d="m 9920,18970 h 50 l 40,30 30,20 20,50 30,90 v 120 l -30,100 -20,40 -30,30 -40,20 h -50 l -50,-20 -20,-30 -30,-40 -20,-100 v -120 l 20,-90 30,-50 20,-20 50,-30"
       id="path262" />
    <path
       d="m 10400,18970 h 40 l 50,30 30,20 20,50 20,90 v 120 l -20,100 -20,40 -30,30 -50,20 h -40 l -50,-20 -30,-30 -20,-40 -20,-100 v -120 l 20,-90 20,-50 30,-20 50,-30"
       id="path264" />
    <path
       d="m 10870,18970 h 50 l 50,30 20,20 30,50 20,90 v 120 l -20,100 -30,40 -20,30 -50,20 h -50 l -50,-20 -20,-30 -20,-40 -30,-100 v -120 l 30,-90 20,-50 20,-20 50,-30"
       id="path266" />
    <path
       d="m 11130,19520 h 390"
       id="path268" />
    <path
       d="m 11920,19420 -20,30 -80,20 h -40 l -70,-20 -50,-50 -30,-50 -20,-90 v -70 l 20,-100 30,-50 50,-40 70,-30 h 40 l 80,30 20,20"
       id="path270" />
    <path
       d="m 12130,19470 v -500"
       id="path272" />
    <path
       d="m 12130,19210 h 290"
       id="path274" />
    <path
       d="m 12420,19470 v -500"
       id="path276" />
    <path
       d="m 12920,19470 h -290"
       id="path278" />
    <path
       d="m 12780,19470 v -500 l -50,70 -50,50 -50,20"
       id="path280" />
  </g>
  <g
     transform="translate(-2700,-13190)"
     style="fill:#008484;fill-opacity:0;stroke:#008484;stroke-width:120;stroke-linecap:round;stroke-linejoin:round;stroke-opacity:1"
     id="g284" />
  <g
     transform="translate(-2700,-13190)"
     style="fill:#840000;fill-opacity:0;stroke:#840000;stroke-width:120;stroke-linecap:round;stroke-linejoin:round;stroke-opacity:1"
     id="g288">
    <text
       x="14760"
       y="19120"
       textLength="2510"
       font-size="520px"
       lengthAdjust="spacingAndGlyphs"
       text-anchor="middle"
       opacity="0"
       id="text286">CON2-1</text>
  </g>
  <g
     transform="translate(-2700,-13190)"
     style="fill:#840000;fill-opacity:0;stroke:#840000;stroke-width:70;stroke-linecap:round;stroke-linejoin:round;stroke-opacity:1"
     id="g304">
    <path
       d="m 13850,19060 -10,20 -60,20 h -40 l -50,-20 -40,-40 -20,-40 -20,-70 v -60 l 20,-70 20,-40 40,-30 50,-20 h 40 l 60,20 10,10"
       id="path290" />
    <path
       d="m 14100,18710 h 70 l 40,20 30,30 20,80 v 130 l -20,70 -30,40 -40,20 h -70 l -40,-20 -40,-40 -20,-70 v -130 l 20,-80 40,-30 40,-20"
       id="path292" />
    <path
       d="m 14430,19100 v -390 l 220,390 v -390"
       id="path294" />
    <path
       d="m 14820,18740 20,-10 40,-20 h 90 l 40,20 10,10 20,40 v 40 l -20,50 -220,230 h 240"
       id="path296" />
    <path
       d="m 15210,18950 h 300"
       id="path298" />
    <path
       d="m 15900,19100 h -230"
       id="path300" />
    <path
       d="m 15790,19100 v -390 l -40,50 -40,40 -40,20"
       id="path302" />
  </g>
  <g
     transform="translate(-2700,-13190)"
     style="fill:#840000;fill-opacity:0;stroke:#840000;stroke-width:120;stroke-linecap:round;stroke-linejoin:round;stroke-opacity:1"
     id="g308">
    <path
       d="m 13260,20750 h 3000"
       id="path306" />
  </g>
  <g
     transform="translate(-2700,-13190)"
     style="fill:#008484;fill-opacity:0;stroke:#008484;stroke-width:120;stroke-linecap:round;stroke-linejoin:round;stroke-opacity:1"
     id="g312">
    <text
       x="13060"
       y="21000"
       textLength="6640"
       font-size="660px"
       lengthAdjust="spacingAndGlyphs"
       text-anchor="end"
       opacity="0"
       id="text310">PT1000_CH1_GND</text>
  </g>
  <g
     transform="translate(-2700,-13190)"
     style="fill:#008484;fill-opacity:0;stroke:#008484;stroke-width:80;stroke-linecap:round;stroke-linejoin:round;stroke-opacity:1"
     id="g352">
    <path
       d="m 6560,20970 v -500 h 190 l 50,30 20,20 30,50 v 70 l -30,50 -20,20 -50,20 h -190"
       id="path314" />
    <path
       d="m 6990,20470 h 290"
       id="path316" />
    <path
       d="m 7130,20970 v -500"
       id="path318" />
    <path
       d="M 7710,20970 H 7420"
       id="path320" />
    <path
       d="m 7560,20970 v -500 l -40,70 -50,50 -50,20"
       id="path322" />
    <path
       d="m 8020,20470 h 40 l 50,30 20,20 30,50 20,90 v 120 l -20,100 -30,40 -20,30 -50,20 h -40 l -50,-20 -30,-30 -20,-40 -20,-100 v -120 l 20,-90 20,-50 30,-20 50,-30"
       id="path324" />
    <path
       d="m 8490,20470 h 50 l 50,30 20,20 20,50 30,90 v 120 l -30,100 -20,40 -20,30 -50,20 h -50 l -50,-20 -20,-30 -20,-40 -30,-100 v -120 l 30,-90 20,-50 20,-20 50,-30"
       id="path326" />
    <path
       d="m 8970,20470 h 50 l 40,30 30,20 20,50 20,90 v 120 l -20,100 -20,40 -30,30 -40,20 h -50 l -50,-20 -20,-30 -30,-40 -20,-100 v -120 l 20,-90 30,-50 20,-20 50,-30"
       id="path328" />
    <path
       d="m 9230,21020 h 380"
       id="path330" />
    <path
       d="m 10020,20920 -30,30 -70,20 h -50 l -70,-20 -50,-50 -20,-50 -20,-90 v -70 l 20,-100 20,-50 50,-40 70,-30 h 50 l 70,30 30,20"
       id="path332" />
    <path
       d="m 10230,20970 v -500"
       id="path334" />
    <path
       d="m 10230,20710 h 290"
       id="path336" />
    <path
       d="m 10520,20970 v -500"
       id="path338" />
    <path
       d="m 11020,20970 h -290"
       id="path340" />
    <path
       d="m 10870,20970 v -500 l -50,70 -40,50 -50,20"
       id="path342" />
    <path
       d="m 11110,21020 h 380"
       id="path344" />
    <path
       d="m 11870,20500 -50,-30 h -70 l -70,30 -50,40 -20,50 -20,100 v 70 l 20,90 20,50 50,50 70,20 h 50 l 70,-20 30,-30 v -160 h -100"
       id="path346" />
    <path
       d="m 12110,20970 v -500 l 290,500 v -500"
       id="path348" />
    <path
       d="m 12630,20970 v -500 h 120 l 70,30 50,40 30,50 20,100 v 70 l -20,90 -30,50 -50,50 -70,20 h -120"
       id="path350" />
  </g>
  <g
     transform="translate(-2700,-13190)"
     style="fill:#008484;fill-opacity:0;stroke:#008484;stroke-width:120;stroke-linecap:round;stroke-linejoin:round;stroke-opacity:1"
     id="g354" />
  <g
     transform="translate(-2700,-13190)"
     style="fill:#840000;fill-opacity:0;stroke:#840000;stroke-width:120;stroke-linecap:round;stroke-linejoin:round;stroke-opacity:1"
     id="g358">
    <text
       x="14760"
       y="20620"
       textLength="2510"
       font-size="520px"
       lengthAdjust="spacingAndGlyphs"
       text-anchor="middle"
       opacity="0"
       id="text356">CON2-2</text>
  </g>
  <g
     transform="translate(-2700,-13190)"
     style="fill:#840000;fill-opacity:0;stroke:#840000;stroke-width:70;stroke-linecap:round;stroke-linejoin:round;stroke-opacity:1"
     id="g372">
    <path
       d="m 13850,20560 -10,20 -60,20 h -40 l -50,-20 -40,-40 -20,-40 -20,-70 v -60 l 20,-70 20,-40 40,-30 50,-20 h 40 l 60,20 10,10"
       id="path360" />
    <path
       d="m 14100,20210 h 70 l 40,20 30,30 20,80 v 130 l -20,70 -30,40 -40,20 h -70 l -40,-20 -40,-40 -20,-70 v -130 l 20,-80 40,-30 40,-20"
       id="path362" />
    <path
       d="m 14430,20600 v -390 l 220,390 v -390"
       id="path364" />
    <path
       d="m 14820,20240 20,-10 40,-20 h 90 l 40,20 10,10 20,40 v 40 l -20,50 -220,230 h 240"
       id="path366" />
    <path
       d="m 15210,20450 h 300"
       id="path368" />
    <path
       d="m 15670,20240 20,-10 40,-20 h 90 l 40,20 20,10 20,40 v 40 l -20,50 -220,230 h 240"
       id="path370" />
  </g>
  <g
     transform="translate(-2700,-13190)"
     style="fill:#840000;fill-opacity:0;stroke:#840000;stroke-width:120;stroke-linecap:round;stroke-linejoin:round;stroke-opacity:1"
     id="g376">
    <path
       d="m 13260,22250 h 3000"
       id="path374" />
  </g>
  <g
     transform="translate(-2700,-13190)"
     style="fill:#008484;fill-opacity:0;stroke:#008484;stroke-width:120;stroke-linecap:round;stroke-linejoin:round;stroke-opacity:1"
     id="g380">
    <text
       x="13060"
       y="22500"
       textLength="4740"
       font-size="660px"
       lengthAdjust="spacingAndGlyphs"
       text-anchor="end"
       opacity="0"
       id="text378">PT1000_CH2</text>
  </g>
  <g
     transform="translate(-2700,-13190)"
     style="fill:#008484;fill-opacity:0;stroke:#008484;stroke-width:80;stroke-linecap:round;stroke-linejoin:round;stroke-opacity:1"
     id="g410">
    <path
       d="m 8470,22470 v -500 h 190 l 50,30 20,20 20,50 v 70 l -20,50 -20,20 -50,20 h -190"
       id="path382" />
    <path
       d="m 8900,21970 h 280"
       id="path384" />
    <path
       d="m 9040,22470 v -500"
       id="path386" />
    <path
       d="M 9610,22470 H 9320"
       id="path388" />
    <path
       d="m 9470,22470 v -500 l -50,70 -50,50 -50,20"
       id="path390" />
    <path
       d="m 9920,21970 h 50 l 40,30 30,20 20,50 30,90 v 120 l -30,100 -20,40 -30,30 -40,20 h -50 l -50,-20 -20,-30 -30,-40 -20,-100 v -120 l 20,-90 30,-50 20,-20 50,-30"
       id="path392" />
    <path
       d="m 10400,21970 h 40 l 50,30 30,20 20,50 20,90 v 120 l -20,100 -20,40 -30,30 -50,20 h -40 l -50,-20 -30,-30 -20,-40 -20,-100 v -120 l 20,-90 20,-50 30,-20 50,-30"
       id="path394" />
    <path
       d="m 10870,21970 h 50 l 50,30 20,20 30,50 20,90 v 120 l -20,100 -30,40 -20,30 -50,20 h -50 l -50,-20 -20,-30 -20,-40 -30,-100 v -120 l 30,-90 20,-50 20,-20 50,-30"
       id="path396" />
    <path
       d="m 11130,22520 h 390"
       id="path398" />
    <path
       d="m 11920,22420 -20,30 -80,20 h -40 l -70,-20 -50,-50 -30,-50 -20,-90 v -70 l 20,-100 30,-50 50,-40 70,-30 h 40 l 80,30 20,20"
       id="path400" />
    <path
       d="m 12130,22470 v -500"
       id="path402" />
    <path
       d="m 12130,22210 h 290"
       id="path404" />
    <path
       d="m 12420,22470 v -500"
       id="path406" />
    <path
       d="m 12630,22020 30,-20 50,-30 h 110 l 50,30 30,20 20,50 v 40 l -20,80 -290,280 h 310"
       id="path408" />
  </g>
  <g
     transform="translate(-2700,-13190)"
     style="fill:#008484;fill-opacity:0;stroke:#008484;stroke-width:120;stroke-linecap:round;stroke-linejoin:round;stroke-opacity:1"
     id="g412" />
  <g
     transform="translate(-2700,-13190)"
     style="fill:#840000;fill-opacity:0;stroke:#840000;stroke-width:120;stroke-linecap:round;stroke-linejoin:round;stroke-opacity:1"
     id="g416">
    <text
       x="14760"
       y="22120"
       textLength="2510"
       font-size="520px"
       lengthAdjust="spacingAndGlyphs"
       text-anchor="middle"
       opacity="0"
       id="text414">CON2-3</text>
  </g>
  <g
     transform="translate(-2700,-13190)"
     style="fill:#840000;fill-opacity:0;stroke:#840000;stroke-width:70;stroke-linecap:round;stroke-linejoin:round;stroke-opacity:1"
     id="g430">
    <path
       d="m 13850,22060 -10,20 -60,20 h -40 l -50,-20 -40,-40 -20,-40 -20,-70 v -60 l 20,-70 20,-40 40,-30 50,-20 h 40 l 60,20 10,10"
       id="path418" />
    <path
       d="m 14100,21710 h 70 l 40,20 30,30 20,80 v 130 l -20,70 -30,40 -40,20 h -70 l -40,-20 -40,-40 -20,-70 v -130 l 20,-80 40,-30 40,-20"
       id="path420" />
    <path
       d="m 14430,22100 v -390 l 220,390 v -390"
       id="path422" />
    <path
       d="m 14820,21740 20,-10 40,-20 h 90 l 40,20 10,10 20,40 v 40 l -20,50 -220,230 h 240"
       id="path424" />
    <path
       d="m 15210,21950 h 300"
       id="path426" />
    <path
       d="m 15660,21710 h 240 l -130,150 h 50 l 40,10 20,20 20,40 v 90 l -20,40 -20,20 -40,20 h -110 l -40,-20 -10,-20"
       id="path428" />
  </g>
  <g
     transform="translate(-2700,-13190)"
     style="fill:#840000;fill-opacity:0;stroke:#840000;stroke-width:120;stroke-linecap:round;stroke-linejoin:round;stroke-opacity:1"
     id="g434">
    <path
       d="m 13260,23750 h 3000"
       id="path432" />
  </g>
  <g
     transform="translate(-2700,-13190)"
     style="fill:#008484;fill-opacity:0;stroke:#008484;stroke-width:120;stroke-linecap:round;stroke-linejoin:round;stroke-opacity:1"
     id="g438">
    <text
       x="13060"
       y="24000"
       textLength="6640"
       font-size="660px"
       lengthAdjust="spacingAndGlyphs"
       text-anchor="end"
       opacity="0"
       id="text436">PT1000_CH2_GND</text>
  </g>
  <g
     transform="translate(-2700,-13190)"
     style="fill:#008484;fill-opacity:0;stroke:#008484;stroke-width:80;stroke-linecap:round;stroke-linejoin:round;stroke-opacity:1"
     id="g476">
    <path
       d="m 6560,23970 v -500 h 190 l 50,30 20,20 30,50 v 70 l -30,50 -20,20 -50,20 h -190"
       id="path440" />
    <path
       d="m 6990,23470 h 290"
       id="path442" />
    <path
       d="m 7130,23970 v -500"
       id="path444" />
    <path
       d="M 7710,23970 H 7420"
       id="path446" />
    <path
       d="m 7560,23970 v -500 l -40,70 -50,50 -50,20"
       id="path448" />
    <path
       d="m 8020,23470 h 40 l 50,30 20,20 30,50 20,90 v 120 l -20,100 -30,40 -20,30 -50,20 h -40 l -50,-20 -30,-30 -20,-40 -20,-100 v -120 l 20,-90 20,-50 30,-20 50,-30"
       id="path450" />
    <path
       d="m 8490,23470 h 50 l 50,30 20,20 20,50 30,90 v 120 l -30,100 -20,40 -20,30 -50,20 h -50 l -50,-20 -20,-30 -20,-40 -30,-100 v -120 l 30,-90 20,-50 20,-20 50,-30"
       id="path452" />
    <path
       d="m 8970,23470 h 50 l 40,30 30,20 20,50 20,90 v 120 l -20,100 -20,40 -30,30 -40,20 h -50 l -50,-20 -20,-30 -30,-40 -20,-100 v -120 l 20,-90 30,-50 20,-20 50,-30"
       id="path454" />
    <path
       d="m 9230,24020 h 380"
       id="path456" />
    <path
       d="m 10020,23920 -30,30 -70,20 h -50 l -70,-20 -50,-50 -20,-50 -20,-90 v -70 l 20,-100 20,-50 50,-40 70,-30 h 50 l 70,30 30,20"
       id="path458" />
    <path
       d="m 10230,23970 v -500"
       id="path460" />
    <path
       d="m 10230,23710 h 290"
       id="path462" />
    <path
       d="m 10520,23970 v -500"
       id="path464" />
    <path
       d="m 10730,23520 20,-20 50,-30 h 120 l 50,30 20,20 30,50 v 40 l -30,80 -280,280 h 310"
       id="path466" />
    <path
       d="m 11110,24020 h 380"
       id="path468" />
    <path
       d="m 11870,23500 -50,-30 h -70 l -70,30 -50,40 -20,50 -20,100 v 70 l 20,90 20,50 50,50 70,20 h 50 l 70,-20 30,-30 v -160 h -100"
       id="path470" />
    <path
       d="m 12110,23970 v -500 l 290,500 v -500"
       id="path472" />
    <path
       d="m 12630,23970 v -500 h 120 l 70,30 50,40 30,50 20,100 v 70 l -20,90 -30,50 -50,50 -70,20 h -120"
       id="path474" />
  </g>
  <g
     transform="translate(-2700,-13190)"
     style="fill:#008484;fill-opacity:0;stroke:#008484;stroke-width:120;stroke-linecap:round;stroke-linejoin:round;stroke-opacity:1"
     id="g478" />
  <g
     transform="translate(-2700,-13190)"
     style="fill:#840000;fill-opacity:0;stroke:#840000;stroke-width:120;stroke-linecap:round;stroke-linejoin:round;stroke-opacity:1"
     id="g482">
    <text
       x="14760"
       y="23620"
       textLength="2510"
       font-size="520px"
       lengthAdjust="spacingAndGlyphs"
       text-anchor="middle"
       opacity="0"
       id="text480">CON2-4</text>
  </g>
  <g
     transform="translate(-2700,-13190)"
     style="fill:#840000;fill-opacity:0;stroke:#840000;stroke-width:70;stroke-linecap:round;stroke-linejoin:round;stroke-opacity:1"
     id="g498">
    <path
       d="m 13850,23560 -10,20 -60,20 h -40 l -50,-20 -40,-40 -20,-40 -20,-70 v -60 l 20,-70 20,-40 40,-30 50,-20 h 40 l 60,20 10,10"
       id="path484" />
    <path
       d="m 14100,23210 h 70 l 40,20 30,30 20,80 v 130 l -20,70 -30,40 -40,20 h -70 l -40,-20 -40,-40 -20,-70 v -130 l 20,-80 40,-30 40,-20"
       id="path486" />
    <path
       d="m 14430,23600 v -390 l 220,390 v -390"
       id="path488" />
    <path
       d="m 14820,23240 20,-10 40,-20 h 90 l 40,20 10,10 20,40 v 40 l -20,50 -220,230 h 240"
       id="path490" />
    <path
       d="m 15210,23450 h 300"
       id="path492" />
    <path
       d="m 15860,23340 v 260"
       id="path494" />
    <path
       d="m 15770,23190 -100,280 h 250"
       id="path496" />
  </g>
  <g
     transform="translate(-2700,-13190)"
     style="fill:#840000;fill-opacity:0;stroke:#840000;stroke-width:120;stroke-linecap:round;stroke-linejoin:round;stroke-opacity:1"
     id="g502">
    <path
       d="m 13260,27250 h 3000"
       id="path500" />
  </g>
  <g
     transform="translate(-2700,-13190)"
     style="fill:#008484;fill-opacity:0;stroke:#008484;stroke-width:120;stroke-linecap:round;stroke-linejoin:round;stroke-opacity:1"
     id="g506">
    <text
       x="13060"
       y="27500"
       textLength="4260"
       font-size="660px"
       lengthAdjust="spacingAndGlyphs"
       text-anchor="end"
       opacity="0"
       id="text504">RELAY_COM</text>
  </g>
  <g
     transform="translate(-2700,-13190)"
     style="fill:#008484;fill-opacity:0;stroke:#008484;stroke-width:80;stroke-linecap:round;stroke-linejoin:round;stroke-opacity:1"
     id="g534">
    <path
       d="m 9230,27470 -170,-240"
       id="path508" />
    <path
       d="m 8940,27470 v -500 h 190 l 50,30 30,20 20,50 v 70 l -20,50 -30,20 -50,20 h -190"
       id="path510" />
    <path
       d="m 9440,27210 h 170"
       id="path512" />
    <path
       d="m 9680,27470 h -240 v -500 h 240"
       id="path514" />
    <path
       d="m 10130,27470 h -230 v -500"
       id="path516" />
    <path
       d="m 10280,27330 h 240"
       id="path518" />
    <path
       d="m 10230,27470 170,-500 160,500"
       id="path520" />
    <path
       d="m 10820,27230 v 240"
       id="path522" />
    <path
       d="m 10660,26970 160,260 170,-260"
       id="path524" />
    <path
       d="m 11040,27520 h 380"
       id="path526" />
    <path
       d="m 11820,27420 -20,30 -70,20 h -50 l -70,-20 -50,-50 -20,-50 -20,-90 v -70 l 20,-100 20,-50 50,-40 70,-30 h 50 l 70,30 20,20"
       id="path528" />
    <path
       d="m 12130,26970 h 100 l 50,30 40,40 30,100 v 160 l -30,100 -40,50 -50,20 h -100 l -40,-20 -50,-50 -20,-100 v -160 l 20,-100 50,-40 40,-30"
       id="path530" />
    <path
       d="m 12560,27470 v -500 l 170,360 170,-360 v 500"
       id="path532" />
  </g>
  <g
     transform="translate(-2700,-13190)"
     style="fill:#008484;fill-opacity:0;stroke:#008484;stroke-width:120;stroke-linecap:round;stroke-linejoin:round;stroke-opacity:1"
     id="g536" />
  <g
     transform="translate(-2700,-13190)"
     style="fill:#840000;fill-opacity:0;stroke:#840000;stroke-width:120;stroke-linecap:round;stroke-linejoin:round;stroke-opacity:1"
     id="g540">
    <text
       x="14760"
       y="27120"
       textLength="2510"
       font-size="520px"
       lengthAdjust="spacingAndGlyphs"
       text-anchor="middle"
       opacity="0"
       id="text538">CON4-2</text>
  </g>
  <g
     transform="translate(-2700,-13190)"
     style="fill:#840000;fill-opacity:0;stroke:#840000;stroke-width:70;stroke-linecap:round;stroke-linejoin:round;stroke-opacity:1"
     id="g556">
    <path
       d="m 13850,27060 -10,20 -60,20 h -40 l -50,-20 -40,-40 -20,-40 -20,-70 v -60 l 20,-70 20,-40 40,-30 50,-20 h 40 l 60,20 10,10"
       id="path542" />
    <path
       d="m 14100,26710 h 70 l 40,20 30,30 20,80 v 130 l -20,70 -30,40 -40,20 h -70 l -40,-20 -40,-40 -20,-70 v -130 l 20,-80 40,-30 40,-20"
       id="path544" />
    <path
       d="m 14430,27100 v -390 l 220,390 v -390"
       id="path546" />
    <path
       d="m 15010,26840 v 260"
       id="path548" />
    <path
       d="m 14910,26690 -90,280 h 240"
       id="path550" />
    <path
       d="m 15210,26950 h 300"
       id="path552" />
    <path
       d="m 15670,26740 20,-10 40,-20 h 90 l 40,20 20,10 20,40 v 40 l -20,50 -220,230 h 240"
       id="path554" />
  </g>
  <g
     transform="translate(-2700,-13190)"
     style="fill:#840000;fill-opacity:0;stroke:#840000;stroke-width:120;stroke-linecap:round;stroke-linejoin:round;stroke-opacity:1"
     id="g560">
    <path
       d="m 13260,25750 h 3000"
       id="path558" />
  </g>
  <g
     transform="translate(-2700,-13190)"
     style="fill:#008484;fill-opacity:0;stroke:#008484;stroke-width:120;stroke-linecap:round;stroke-linejoin:round;stroke-opacity:1"
     id="g564">
    <text
       x="13060"
       y="26000"
       textLength="3710"
       font-size="660px"
       lengthAdjust="spacingAndGlyphs"
       text-anchor="end"
       opacity="0"
       id="text562">RELAY_NO</text>
  </g>
  <g
     transform="translate(-2700,-13190)"
     style="fill:#008484;fill-opacity:0;stroke:#008484;stroke-width:80;stroke-linecap:round;stroke-linejoin:round;stroke-opacity:1"
     id="g590">
    <path
       d="m 9780,25970 -170,-240"
       id="path566" />
    <path
       d="m 9490,25970 v -500 h 190 l 50,30 20,20 30,50 v 70 l -30,50 -20,20 -50,20 h -190"
       id="path568" />
    <path
       d="m 9990,25710 h 170"
       id="path570" />
    <path
       d="m 10230,25970 h -240 v -500 h 240"
       id="path572" />
    <path
       d="m 10680,25970 h -240 v -500"
       id="path574" />
    <path
       d="m 10820,25830 h 240"
       id="path576" />
    <path
       d="m 10780,25970 160,-500 170,500"
       id="path578" />
    <path
       d="m 11370,25730 v 240"
       id="path580" />
    <path
       d="m 11210,25470 160,260 170,-260"
       id="path582" />
    <path
       d="m 11590,26020 h 380"
       id="path584" />
    <path
       d="m 12090,25970 v -500 l 280,500 v -500"
       id="path586" />
    <path
       d="m 12710,25470 h 90 l 50,30 50,40 20,100 v 160 l -20,100 -50,50 -50,20 h -90 l -50,-20 -50,-50 -20,-100 v -160 l 20,-100 50,-40 50,-30"
       id="path588" />
  </g>
  <g
     transform="translate(-2700,-13190)"
     style="fill:#008484;fill-opacity:0;stroke:#008484;stroke-width:120;stroke-linecap:round;stroke-linejoin:round;stroke-opacity:1"
     id="g592" />
  <g
     transform="translate(-2700,-13190)"
     style="fill:#840000;fill-opacity:0;stroke:#840000;stroke-width:120;stroke-linecap:round;stroke-linejoin:round;stroke-opacity:1"
     id="g596">
    <text
       x="14760"
       y="25620"
       textLength="2510"
       font-size="520px"
       lengthAdjust="spacingAndGlyphs"
       text-anchor="middle"
       opacity="0"
       id="text594">CON4-3</text>
  </g>
  <g
     transform="translate(-2700,-13190)"
     style="fill:#840000;fill-opacity:0;stroke:#840000;stroke-width:70;stroke-linecap:round;stroke-linejoin:round;stroke-opacity:1"
     id="g612">
    <path
       d="m 13850,25560 -10,20 -60,20 h -40 l -50,-20 -40,-40 -20,-40 -20,-70 v -60 l 20,-70 20,-40 40,-30 50,-20 h 40 l 60,20 10,10"
       id="path598" />
    <path
       d="m 14100,25210 h 70 l 40,20 30,30 20,80 v 130 l -20,70 -30,40 -40,20 h -70 l -40,-20 -40,-40 -20,-70 v -130 l 20,-80 40,-30 40,-20"
       id="path600" />
    <path
       d="m 14430,25600 v -390 l 220,390 v -390"
       id="path602" />
    <path
       d="m 15010,25340 v 260"
       id="path604" />
    <path
       d="m 14910,25190 -90,280 h 240"
       id="path606" />
    <path
       d="m 15210,25450 h 300"
       id="path608" />
    <path
       d="m 15660,25210 h 240 l -130,150 h 50 l 40,10 20,20 20,40 v 90 l -20,40 -20,20 -40,20 h -110 l -40,-20 -10,-20"
       id="path610" />
  </g>
  <g
     transform="translate(-2700,-13190)"
     style="fill:#840000;fill-opacity:0;stroke:#840000;stroke-width:120;stroke-linecap:round;stroke-linejoin:round;stroke-opacity:1"
     id="g614" />
  <g
     transform="translate(-2700,-13190)"
     style="fill:#840084;fill-opacity:0;stroke:#840084;stroke-width:120;stroke-linecap:round;stroke-linejoin:round;stroke-opacity:1"
     id="g616" />
  <g
     transform="translate(-2700,-13190)"
     style="fill:#008484;fill-opacity:0;stroke:#008484;stroke-width:120;stroke-linecap:round;stroke-linejoin:round;stroke-opacity:1"
     id="g618" />
</svg>
