<?xml version="1.0" encoding="UTF-8" standalone="no"?>
<svg
   version="1.1"
   width="10.81532cm"
   height="6.9926195cm"
   viewBox="0 0 42580 27529.999"
   id="svg758"
   xmlns="http://www.w3.org/2000/svg"
   xmlns:svg="http://www.w3.org/2000/svg">
  <defs
     id="defs762" />
  <title
     id="title2">SVG Picture created as AFE_inverter_3ph-AFE_inverter_3ph.svg date 2021/12/17 14:16:56 </title>
  <desc
     id="desc4">Picture generated by Eeschema-SVG </desc>
  <g
     style="fill:#000000;fill-opacity:1;stroke:#000000;stroke-linecap:round;stroke-linejoin:round;stroke-opacity:1"
     id="g6"
     transform="translate(-28960,-13010)" />
  <g
     style="fill:#000000;fill-opacity:0;stroke:#000000;stroke-width:0;stroke-linecap:round;stroke-linejoin:round;stroke-opacity:1"
     id="g68"
     transform="translate(-28960,-13010)">
    <g
       id="g8" />
    <g
       style="fill:#840000;fill-opacity:0;stroke:#840000;stroke-width:0;stroke-linecap:round;stroke-linejoin:round;stroke-opacity:1"
       id="g10" />
    <g
       style="fill:#ffffc2;fill-opacity:0;stroke:#ffffc2;stroke-width:0;stroke-linecap:round;stroke-linejoin:round;stroke-opacity:1"
       id="g12" />
    <g
       style="fill:#ffffc2;fill-opacity:0.6;stroke:#ffffc2;stroke-width:0;stroke-linecap:round;stroke-linejoin:round;stroke-opacity:1"
       id="g16">
      <rect
         x="29000"
         y="16000"
         width="7000"
         height="5000"
         rx="0"
         id="rect14" />
    </g>
    <g
       style="fill:#840000;fill-opacity:0.6;stroke:#840000;stroke-width:0;stroke-linecap:round;stroke-linejoin:round;stroke-opacity:1"
       id="g18" />
    <g
       style="fill:#840000;fill-opacity:0;stroke:#840000;stroke-width:80;stroke-linecap:round;stroke-linejoin:round;stroke-opacity:1"
       id="g26">
      <rect
         x="29000"
         y="16000"
         width="7000"
         height="5000"
         rx="0"
         id="rect20" />
      <rect
         x="29000"
         y="16000"
         width="7000"
         height="5000"
         rx="0"
         id="rect22" />
      <path
         d="m 36000,17500 h 1000"
         id="path24" />
    </g>
    <g
       style="fill:#008484;fill-opacity:0;stroke:#008484;stroke-width:80;stroke-linecap:round;stroke-linejoin:round;stroke-opacity:1"
       id="g34">
      <text
         x="35800"
         y="17890"
         textLength="1060"
         font-size="1050px"
         lengthAdjust="spacingAndGlyphs"
         text-anchor="end"
         opacity="0"
         id="text28">+</text>
      <path
         d="m 34970,17550 h 600"
         id="path30" />
      <path
         d="m 35270,17850 v -600"
         id="path32" />
    </g>
    <g
       style="fill:#840000;fill-opacity:0;stroke:#840000;stroke-width:80;stroke-linecap:round;stroke-linejoin:round;stroke-opacity:1"
       id="g38">
      <path
         d="m 36000,19500 h 1000"
         id="path36" />
    </g>
    <g
       style="fill:#008484;fill-opacity:0;stroke:#008484;stroke-width:80;stroke-linecap:round;stroke-linejoin:round;stroke-opacity:1"
       id="g66">
      <text
         x="35800"
         y="19890"
         textLength="1060"
         font-size="1050px"
         lengthAdjust="spacingAndGlyphs"
         text-anchor="end"
         opacity="0"
         id="text40">-</text>
      <path
         d="m 34970,19550 h 600"
         id="path42" />
      <text
         x="33080"
         y="15530"
         textLength="3010"
         font-size="660px"
         lengthAdjust="spacingAndGlyphs"
         text-anchor="middle"
         opacity="0"
         id="text44">load_AC</text>
      <path
         d="m 31800,15500 -50,-20 -20,-50 v -430"
         id="path46" />
      <path
         d="m 32060,15500 -40,-20 -30,-30 -20,-40 v -150 l 20,-40 30,-30 40,-20 h 70 l 50,20 30,30 20,40 v 150 l -20,40 -30,30 -50,20 h -70"
         id="path48" />
      <path
         d="m 32660,15500 v -260 l -30,-50 -40,-20 h -100 l -50,20"
         id="path50" />
      <path
         d="m 32660,15480 -50,20 h -120 l -50,-20 -20,-50 v -50 l 20,-50 50,-20 h 120 l 50,-20"
         id="path52" />
      <path
         d="m 33110,15500 v -500"
         id="path54" />
      <path
         d="m 33110,15480 -50,20 h -90 l -50,-20 -20,-30 -30,-40 v -150 l 30,-40 20,-30 50,-20 h 90 l 50,20"
         id="path56" />
      <path
         d="m 33230,15550 h 380"
         id="path58" />
      <path
         d="m 33710,15360 h 230"
         id="path60" />
      <path
         d="m 33660,15500 170,-500 160,500"
         id="path62" />
      <path
         d="m 34440,15450 -20,30 -70,20 h -50 l -70,-20 -50,-50 -20,-50 -30,-90 v -70 l 30,-100 20,-50 50,-40 70,-30 h 50 l 70,30 20,20"
         id="path64" />
    </g>
  </g>
  <g
     style="fill:#008484;fill-opacity:0;stroke:#008484;stroke-width:0;stroke-linecap:round;stroke-linejoin:round;stroke-opacity:1"
     id="g208"
     transform="translate(-28960,-13010)">
    <g
       id="g70" />
    <g
       style="fill:#840000;fill-opacity:0;stroke:#840000;stroke-width:0;stroke-linecap:round;stroke-linejoin:round;stroke-opacity:1"
       id="g72" />
    <g
       style="fill:#ffffc2;fill-opacity:0;stroke:#ffffc2;stroke-width:0;stroke-linecap:round;stroke-linejoin:round;stroke-opacity:1"
       id="g74" />
    <g
       style="fill:#ffffc2;fill-opacity:0.6;stroke:#ffffc2;stroke-width:0;stroke-linecap:round;stroke-linejoin:round;stroke-opacity:1"
       id="g78">
      <rect
         x="46000"
         y="22000"
         width="11500"
         height="7000"
         rx="0"
         id="rect76" />
    </g>
    <g
       style="fill:#840000;fill-opacity:0.6;stroke:#840000;stroke-width:0;stroke-linecap:round;stroke-linejoin:round;stroke-opacity:1"
       id="g80" />
    <g
       style="fill:#840000;fill-opacity:0;stroke:#840000;stroke-width:80;stroke-linecap:round;stroke-linejoin:round;stroke-opacity:1"
       id="g102">
      <rect
         x="46000"
         y="22000"
         width="11500"
         height="7000"
         rx="0"
         id="rect82" />
      <path
         d="m 48401.6,23749.3 a 280,280 0 0 0 496.8,0"
         id="path84" />
      <path
         d="m 49403.1,23748.5 a 290,290 0 0 0 -506.2,0"
         id="path86" />
      <rect
         x="46000"
         y="22000"
         width="11500"
         height="7000"
         rx="0"
         id="rect88" />
      <path
         style="fill:none;fill-opacity:0;stroke:#840000;stroke-width:80;stroke-linecap:round;stroke-linejoin:round;stroke-opacity:1"
         d="m 48400,24250 h 1000"
         id="path90" />
      <path
         style="fill:none;fill-opacity:0;stroke:#840000;stroke-width:80;stroke-linecap:round;stroke-linejoin:round;stroke-opacity:1"
         d="m 54000,26800 h 1000"
         id="path92" />
      <path
         style="fill:none;fill-opacity:0;stroke:#840000;stroke-width:80;stroke-linecap:round;stroke-linejoin:round;stroke-opacity:1"
         d="m 54000,26300 h 200"
         id="path94" />
      <path
         style="fill:none;fill-opacity:0;stroke:#840000;stroke-width:80;stroke-linecap:round;stroke-linejoin:round;stroke-opacity:1"
         d="m 54400,26300 h 200"
         id="path96" />
      <path
         style="fill:none;fill-opacity:0;stroke:#840000;stroke-width:80;stroke-linecap:round;stroke-linejoin:round;stroke-opacity:1"
         d="m 54800,26300 h 200"
         id="path98" />
      <path
         d="M 46000,27500 H 45000"
         id="path100" />
    </g>
    <g
       style="fill:#008484;fill-opacity:0;stroke:#008484;stroke-width:80;stroke-linecap:round;stroke-linejoin:round;stroke-opacity:1"
       id="g112">
      <text
         x="46200"
         y="27750"
         textLength="1700"
         font-size="660px"
         lengthAdjust="spacingAndGlyphs"
         text-anchor="start"
         opacity="0"
         id="text104">DC-</text>
      <path
         d="m 46350,27720 v -500 h 120 l 70,30 50,40 30,50 20,100 v 70 l -20,90 -30,50 -50,50 -70,20 h -120"
         id="path106" />
      <path
         d="m 47140,27670 -20,30 -80,20 h -40 l -70,-20 -50,-50 -30,-50 -20,-90 v -70 l 20,-100 30,-50 50,-40 70,-30 h 40 l 80,30 20,20"
         id="path108" />
      <path
         d="m 47350,27530 h 390"
         id="path110" />
    </g>
    <g
       style="fill:#840000;fill-opacity:0;stroke:#840000;stroke-width:80;stroke-linecap:round;stroke-linejoin:round;stroke-opacity:1"
       id="g116">
      <path
         d="M 46000,22500 H 45000"
         id="path114" />
    </g>
    <g
       style="fill:#008484;fill-opacity:0;stroke:#008484;stroke-width:80;stroke-linecap:round;stroke-linejoin:round;stroke-opacity:1"
       id="g126">
      <text
         x="46200"
         y="22750"
         textLength="960"
         font-size="660px"
         lengthAdjust="spacingAndGlyphs"
         text-anchor="start"
         opacity="0"
         id="text118">L1</text>
      <path
         d="m 46590,22720 h -240 v -500"
         id="path120" />
      <path
         d="m 47020,22720 h -280"
         id="path122" />
      <path
         d="m 46880,22720 v -500 l -50,70 -50,50 -40,20"
         id="path124" />
    </g>
    <g
       style="fill:#840000;fill-opacity:0;stroke:#840000;stroke-width:80;stroke-linecap:round;stroke-linejoin:round;stroke-opacity:1"
       id="g130">
      <path
         d="M 46000,24000 H 45000"
         id="path128" />
    </g>
    <g
       style="fill:#008484;fill-opacity:0;stroke:#008484;stroke-width:80;stroke-linecap:round;stroke-linejoin:round;stroke-opacity:1"
       id="g138">
      <text
         x="46200"
         y="24250"
         textLength="960"
         font-size="660px"
         lengthAdjust="spacingAndGlyphs"
         text-anchor="start"
         opacity="0"
         id="text132">L2</text>
      <path
         d="m 46590,24220 h -240 v -500"
         id="path134" />
      <path
         d="m 46740,23770 20,-20 50,-30 h 120 l 40,30 30,20 20,50 v 40 l -20,80 -290,280 h 310"
         id="path136" />
    </g>
    <g
       style="fill:#840000;fill-opacity:0;stroke:#840000;stroke-width:80;stroke-linecap:round;stroke-linejoin:round;stroke-opacity:1"
       id="g142">
      <path
         d="M 46000,25500 H 45000"
         id="path140" />
    </g>
    <g
       style="fill:#008484;fill-opacity:0;stroke:#008484;stroke-width:80;stroke-linecap:round;stroke-linejoin:round;stroke-opacity:1"
       id="g150">
      <text
         x="46200"
         y="25750"
         textLength="960"
         font-size="660px"
         lengthAdjust="spacingAndGlyphs"
         text-anchor="start"
         opacity="0"
         id="text144">L3</text>
      <path
         d="m 46590,25720 h -240 v -500"
         id="path146" />
      <path
         d="m 46710,25220 h 310 l -170,190 h 80 l 40,30 30,20 20,50 v 120 l -20,40 -30,30 -40,20 h -150 l -40,-20 -30,-30"
         id="path148" />
    </g>
    <g
       style="fill:#840000;fill-opacity:0;stroke:#840000;stroke-width:80;stroke-linecap:round;stroke-linejoin:round;stroke-opacity:1"
       id="g154">
      <path
         d="m 57500,27500 h 1000"
         id="path152" />
    </g>
    <g
       style="fill:#008484;fill-opacity:0;stroke:#008484;stroke-width:80;stroke-linecap:round;stroke-linejoin:round;stroke-opacity:1"
       id="g164">
      <text
         x="57300"
         y="27750"
         textLength="1700"
         font-size="660px"
         lengthAdjust="spacingAndGlyphs"
         text-anchor="end"
         opacity="0"
         id="text156">DC-</text>
      <path
         d="m 55760,27720 v -500 h 110 l 80,30 40,40 30,50 20,100 v 70 l -20,90 -30,50 -40,50 -80,20 h -110"
         id="path158" />
      <path
         d="m 56540,27670 -20,30 -70,20 h -50 l -70,-20 -50,-50 -20,-50 -30,-90 v -70 l 30,-100 20,-50 50,-40 70,-30 h 50 l 70,30 20,20"
         id="path160" />
      <path
         d="m 56760,27530 h 380"
         id="path162" />
    </g>
    <g
       style="fill:#840000;fill-opacity:0;stroke:#840000;stroke-width:80;stroke-linecap:round;stroke-linejoin:round;stroke-opacity:1"
       id="g168">
      <path
         d="m 57500,25500 h 1000"
         id="path166" />
    </g>
    <g
       style="fill:#008484;fill-opacity:0;stroke:#008484;stroke-width:80;stroke-linecap:round;stroke-linejoin:round;stroke-opacity:1"
       id="g206">
      <text
         x="57300"
         y="25750"
         textLength="1700"
         font-size="660px"
         lengthAdjust="spacingAndGlyphs"
         text-anchor="end"
         opacity="0"
         id="text170">DC+</text>
      <path
         d="m 55760,25720 v -500 h 110 l 80,30 40,40 30,50 20,100 v 70 l -20,90 -30,50 -40,50 -80,20 h -110"
         id="path172" />
      <path
         d="m 56540,25670 -20,30 -70,20 h -50 l -70,-20 -50,-50 -20,-50 -30,-90 v -70 l 30,-100 20,-50 50,-40 70,-30 h 50 l 70,30 20,20"
         id="path174" />
      <path
         d="m 56760,25530 h 380"
         id="path176" />
      <path
         d="m 56950,25720 v -380"
         id="path178" />
      <text
         x="51750"
         y="21550"
         textLength="5770"
         font-size="660px"
         lengthAdjust="spacingAndGlyphs"
         text-anchor="middle"
         opacity="0"
         id="text180">ADM-PC-BP25</text>
      <path
         d="m 49000,21380 h 230"
         id="path182" />
      <path
         d="m 48950,21520 160,-500 170,500"
         id="path184" />
      <path
         d="m 49450,21520 v -500 h 120 l 70,30 50,40 20,50 20,100 v 70 l -20,90 -20,50 -50,50 -70,20 h -120"
         id="path186" />
      <path
         d="m 49950,21520 v -500 l 160,360 170,-360 v 500"
         id="path188" />
      <path
         d="m 50520,21330 h 380"
         id="path190" />
      <path
         d="m 51140,21520 v -500 h 190 l 50,30 20,20 20,50 v 70 l -20,50 -20,20 -50,20 h -190"
         id="path192" />
      <path
         d="m 51920,21470 -20,30 -70,20 h -50 l -70,-20 -50,-50 -20,-50 -30,-90 v -70 l 30,-100 20,-50 50,-40 70,-30 h 50 l 70,30 20,20"
         id="path194" />
      <path
         d="m 52140,21330 h 380"
         id="path196" />
      <path
         d="m 52920,21260 80,20 20,30 20,40 v 80 l -20,40 -20,30 -50,20 h -190 v -500 h 160 l 50,30 30,20 20,50 v 40 l -20,50 -30,30 -50,20 h -160"
         id="path198" />
      <path
         d="m 53260,21520 v -500 h 190 l 50,30 20,20 20,50 v 70 l -20,50 -20,20 -50,20 h -190"
         id="path200" />
      <path
         d="m 53730,21070 30,-20 40,-30 h 120 l 50,30 30,20 20,50 v 40 l -20,80 -290,280 h 310"
         id="path202" />
      <path
         d="m 54470,21020 h -240 l -20,240 20,-20 50,-30 h 120 l 50,30 20,20 30,50 v 120 l -30,40 -20,30 -50,20 h -120 l -50,-20 -20,-30"
         id="path204" />
    </g>
  </g>
  <g
     style="fill:#008484;fill-opacity:0;stroke:#008484;stroke-width:0;stroke-linecap:round;stroke-linejoin:round;stroke-opacity:1"
     id="g314"
     transform="translate(-28960,-13010)">
    <g
       id="g210" />
    <g
       style="fill:#840000;fill-opacity:0;stroke:#840000;stroke-width:0;stroke-linecap:round;stroke-linejoin:round;stroke-opacity:1"
       id="g212" />
    <g
       style="fill:#ffffc2;fill-opacity:0;stroke:#ffffc2;stroke-width:0;stroke-linecap:round;stroke-linejoin:round;stroke-opacity:1"
       id="g214" />
    <g
       style="fill:#ffffc2;fill-opacity:0.6;stroke:#ffffc2;stroke-width:0;stroke-linecap:round;stroke-linejoin:round;stroke-opacity:1"
       id="g218">
      <rect
         x="64500"
         y="24000"
         width="7000"
         height="5000"
         rx="0"
         id="rect216" />
    </g>
    <g
       style="fill:#840000;fill-opacity:0.6;stroke:#840000;stroke-width:0;stroke-linecap:round;stroke-linejoin:round;stroke-opacity:1"
       id="g220" />
    <g
       style="fill:#840000;fill-opacity:0;stroke:#840000;stroke-width:80;stroke-linecap:round;stroke-linejoin:round;stroke-opacity:1"
       id="g242">
      <rect
         x="64500"
         y="24000"
         width="7000"
         height="5000"
         rx="0"
         id="rect222" />
      <rect
         x="64500"
         y="24000"
         width="7000"
         height="5000"
         rx="0"
         id="rect224" />
      <path
         style="fill:none;fill-opacity:0;stroke:#840000;stroke-width:80;stroke-linecap:round;stroke-linejoin:round;stroke-opacity:1"
         d="m 69500,26500 h 400"
         id="path226" />
      <path
         style="fill:none;fill-opacity:0;stroke:#840000;stroke-width:80;stroke-linecap:round;stroke-linejoin:round;stroke-opacity:1"
         d="m 69100,26000 v 1000"
         id="path228" />
      <path
         style="fill:none;fill-opacity:0;stroke:#840000;stroke-width:80;stroke-linecap:round;stroke-linejoin:round;stroke-opacity:1"
         d="m 68600,26500 h 300"
         id="path230" />
      <path
         style="fill:none;fill-opacity:0;stroke:#840000;stroke-width:80;stroke-linecap:round;stroke-linejoin:round;stroke-opacity:1"
         d="m 68100,26500 h 300"
         id="path232" />
      <path
         style="fill:none;fill-opacity:0;stroke:#840000;stroke-width:80;stroke-linecap:round;stroke-linejoin:round;stroke-opacity:1"
         d="m 67600,26500 h 300"
         id="path234" />
      <path
         style="fill:none;fill-opacity:0;stroke:#840000;stroke-width:80;stroke-linecap:round;stroke-linejoin:round;stroke-opacity:1"
         d="m 67600,25600 v 1800"
         id="path236" />
      <path
         style="fill:none;fill-opacity:0;stroke:#840000;stroke-width:80;stroke-linecap:round;stroke-linejoin:round;stroke-opacity:1"
         d="m 67200,26500 h -400"
         id="path238" />
      <path
         style="fill:none;fill-opacity:0;stroke:#840000;stroke-width:80;stroke-linecap:round;stroke-linejoin:round;stroke-opacity:1"
         d="m 67200,26000 v 1100"
         id="path240" />
    </g>
    <g
       style="fill:#840000;fill-opacity:0;stroke:#840000;stroke-width:60;stroke-linecap:round;stroke-linejoin:round;stroke-opacity:1"
       id="g246">
      <path
         style="fill:none;fill-opacity:0;stroke:#840000;stroke-width:60;stroke-linecap:round;stroke-linejoin:round;stroke-opacity:1"
         d="m 69500,25600 v 1790"
         id="path244" />
    </g>
    <g
       style="fill:#840000;fill-opacity:0;stroke:#840000;stroke-width:80;stroke-linecap:round;stroke-linejoin:round;stroke-opacity:1"
       id="g250">
      <path
         d="M 64500,25500 H 63500"
         id="path248" />
    </g>
    <g
       style="fill:#008484;fill-opacity:0;stroke:#008484;stroke-width:80;stroke-linecap:round;stroke-linejoin:round;stroke-opacity:1"
       id="g258">
      <text
         x="64700"
         y="25890"
         textLength="1060"
         font-size="1050px"
         lengthAdjust="spacingAndGlyphs"
         text-anchor="start"
         opacity="0"
         id="text252">+</text>
      <path
         d="m 64920,25550 h 610"
         id="path254" />
      <path
         d="m 65220,25850 v -600"
         id="path256" />
    </g>
    <g
       style="fill:#840000;fill-opacity:0;stroke:#840000;stroke-width:80;stroke-linecap:round;stroke-linejoin:round;stroke-opacity:1"
       id="g262">
      <path
         d="M 64500,27500 H 63500"
         id="path260" />
    </g>
    <g
       style="fill:#008484;fill-opacity:0;stroke:#008484;stroke-width:80;stroke-linecap:round;stroke-linejoin:round;stroke-opacity:1"
       id="g312">
      <text
         x="64700"
         y="27890"
         textLength="1060"
         font-size="1050px"
         lengthAdjust="spacingAndGlyphs"
         text-anchor="start"
         opacity="0"
         id="text264">-</text>
      <path
         d="m 64920,27550 h 610"
         id="path266" />
      <text
         x="67410"
         y="23530"
         textLength="4410"
         font-size="660px"
         lengthAdjust="spacingAndGlyphs"
         text-anchor="middle"
         opacity="0"
         id="text268">batterypack</text>
      <path
         d="m 65360,23500 v -500"
         id="path270" />
      <path
         d="m 65360,23190 50,-20 h 90 l 50,20 20,30 30,40 v 150 l -30,40 -20,30 -50,20 h -90 l -50,-20"
         id="path272" />
      <path
         d="m 66020,23500 v -260 l -20,-50 -50,-20 h -90 l -50,20"
         id="path274" />
      <path
         d="m 66020,23480 -40,20 h -120 l -50,-20 -20,-50 v -50 l 20,-50 50,-20 h 120 l 40,-20"
         id="path276" />
      <path
         d="m 66190,23170 h 190"
         id="path278" />
      <path
         d="m 66260,23000 v 430 l 30,50 40,20 h 50"
         id="path280" />
      <path
         d="m 66480,23170 h 190"
         id="path282" />
      <path
         d="m 66550,23000 v 430 l 20,50 50,20 h 50"
         id="path284" />
      <path
         d="m 67020,23480 -40,20 h -100 l -50,-20 -20,-50 v -190 l 20,-50 50,-20 h 100 l 40,20 30,50 v 50 l -240,40"
         id="path286" />
      <path
         d="m 67260,23500 v -330"
         id="path288" />
      <path
         d="m 67260,23260 30,-40 20,-30 50,-20 h 50"
         id="path290" />
      <path
         d="m 67520,23170 120,330"
         id="path292" />
      <path
         d="m 67760,23170 -120,330 -40,120 -30,20 -50,30"
         id="path294" />
      <path
         d="m 67950,23170 v 500"
         id="path296" />
      <path
         d="m 67950,23190 50,-20 h 100 l 40,20 30,30 20,40 v 150 l -20,40 -30,30 -40,20 h -100 l -50,-20"
         id="path298" />
      <path
         d="m 68620,23500 v -260 l -20,-50 -50,-20 h -100 l -40,20"
         id="path300" />
      <path
         d="m 68620,23480 -50,20 h -120 l -40,-20 -30,-50 v -50 l 30,-50 40,-20 h 120 l 50,-20"
         id="path302" />
      <path
         d="m 69070,23480 -50,20 h -90 l -50,-20 -20,-30 -30,-40 v -150 l 30,-40 20,-30 50,-20 h 90 l 50,20"
         id="path304" />
      <path
         d="m 69290,23500 v -500"
         id="path306" />
      <path
         d="m 69330,23310 150,190"
         id="path308" />
      <path
         d="m 69480,23170 -190,190"
         id="path310" />
    </g>
  </g>
  <g
     style="fill:#008484;fill-opacity:0;stroke:#008484;stroke-width:0;stroke-linecap:round;stroke-linejoin:round;stroke-opacity:1"
     id="g376"
     transform="translate(-28960,-13010)">
    <g
       id="g316" />
    <g
       style="fill:#840000;fill-opacity:0;stroke:#840000;stroke-width:0;stroke-linecap:round;stroke-linejoin:round;stroke-opacity:1"
       id="g318" />
    <g
       style="fill:#ffffc2;fill-opacity:0;stroke:#ffffc2;stroke-width:0;stroke-linecap:round;stroke-linejoin:round;stroke-opacity:1"
       id="g320" />
    <g
       style="fill:#ffffc2;fill-opacity:0.6;stroke:#ffffc2;stroke-width:0;stroke-linecap:round;stroke-linejoin:round;stroke-opacity:1"
       id="g324">
      <rect
         x="29000"
         y="22500"
         width="7000"
         height="5000"
         rx="0"
         id="rect322" />
    </g>
    <g
       style="fill:#840000;fill-opacity:0.6;stroke:#840000;stroke-width:0;stroke-linecap:round;stroke-linejoin:round;stroke-opacity:1"
       id="g326" />
    <g
       style="fill:#840000;fill-opacity:0;stroke:#840000;stroke-width:80;stroke-linecap:round;stroke-linejoin:round;stroke-opacity:1"
       id="g334">
      <rect
         x="29000"
         y="22500"
         width="7000"
         height="5000"
         rx="0"
         id="rect328" />
      <rect
         x="29000"
         y="22500"
         width="7000"
         height="5000"
         rx="0"
         id="rect330" />
      <path
         d="m 36000,24000 h 1000"
         id="path332" />
    </g>
    <g
       style="fill:#008484;fill-opacity:0;stroke:#008484;stroke-width:80;stroke-linecap:round;stroke-linejoin:round;stroke-opacity:1"
       id="g342">
      <text
         x="35800"
         y="24390"
         textLength="1060"
         font-size="1050px"
         lengthAdjust="spacingAndGlyphs"
         text-anchor="end"
         opacity="0"
         id="text336">+</text>
      <path
         d="m 34970,24050 h 600"
         id="path338" />
      <path
         d="m 35270,24350 v -600"
         id="path340" />
    </g>
    <g
       style="fill:#840000;fill-opacity:0;stroke:#840000;stroke-width:80;stroke-linecap:round;stroke-linejoin:round;stroke-opacity:1"
       id="g346">
      <path
         d="m 36000,26000 h 1000"
         id="path344" />
    </g>
    <g
       style="fill:#008484;fill-opacity:0;stroke:#008484;stroke-width:80;stroke-linecap:round;stroke-linejoin:round;stroke-opacity:1"
       id="g374">
      <text
         x="35800"
         y="26390"
         textLength="1060"
         font-size="1050px"
         lengthAdjust="spacingAndGlyphs"
         text-anchor="end"
         opacity="0"
         id="text348">-</text>
      <path
         d="m 34970,26050 h 600"
         id="path350" />
      <text
         x="33080"
         y="22030"
         textLength="3010"
         font-size="660px"
         lengthAdjust="spacingAndGlyphs"
         text-anchor="middle"
         opacity="0"
         id="text352">load_AC</text>
      <path
         d="m 31800,22000 -50,-20 -20,-50 v -430"
         id="path354" />
      <path
         d="m 32060,22000 -40,-20 -30,-30 -20,-40 v -150 l 20,-40 30,-30 40,-20 h 70 l 50,20 30,30 20,40 v 150 l -20,40 -30,30 -50,20 h -70"
         id="path356" />
      <path
         d="m 32660,22000 v -260 l -30,-50 -40,-20 h -100 l -50,20"
         id="path358" />
      <path
         d="m 32660,21980 -50,20 h -120 l -50,-20 -20,-50 v -50 l 20,-50 50,-20 h 120 l 50,-20"
         id="path360" />
      <path
         d="m 33110,22000 v -500"
         id="path362" />
      <path
         d="m 33110,21980 -50,20 h -90 l -50,-20 -20,-30 -30,-40 v -150 l 30,-40 20,-30 50,-20 h 90 l 50,20"
         id="path364" />
      <path
         d="m 33230,22050 h 380"
         id="path366" />
      <path
         d="m 33710,21860 h 230"
         id="path368" />
      <path
         d="m 33660,22000 170,-500 160,500"
         id="path370" />
      <path
         d="m 34440,21950 -20,30 -70,20 h -50 l -70,-20 -50,-50 -20,-50 -30,-90 v -70 l 30,-100 20,-50 50,-40 70,-30 h 50 l 70,30 20,20"
         id="path372" />
    </g>
  </g>
  <g
     style="fill:#008484;fill-opacity:0;stroke:#008484;stroke-width:0;stroke-linecap:round;stroke-linejoin:round;stroke-opacity:1"
     id="g438"
     transform="translate(-28960,-13010)">
    <g
       id="g378" />
    <g
       style="fill:#840000;fill-opacity:0;stroke:#840000;stroke-width:0;stroke-linecap:round;stroke-linejoin:round;stroke-opacity:1"
       id="g380" />
    <g
       style="fill:#ffffc2;fill-opacity:0;stroke:#ffffc2;stroke-width:0;stroke-linecap:round;stroke-linejoin:round;stroke-opacity:1"
       id="g382" />
    <g
       style="fill:#ffffc2;fill-opacity:0.6;stroke:#ffffc2;stroke-width:0;stroke-linecap:round;stroke-linejoin:round;stroke-opacity:1"
       id="g386">
      <rect
         x="29000"
         y="29000"
         width="7000"
         height="5000"
         rx="0"
         id="rect384" />
    </g>
    <g
       style="fill:#840000;fill-opacity:0.6;stroke:#840000;stroke-width:0;stroke-linecap:round;stroke-linejoin:round;stroke-opacity:1"
       id="g388" />
    <g
       style="fill:#840000;fill-opacity:0;stroke:#840000;stroke-width:80;stroke-linecap:round;stroke-linejoin:round;stroke-opacity:1"
       id="g396">
      <rect
         x="29000"
         y="29000"
         width="7000"
         height="5000"
         rx="0"
         id="rect390" />
      <rect
         x="29000"
         y="29000"
         width="7000"
         height="5000"
         rx="0"
         id="rect392" />
      <path
         d="m 36000,30500 h 1000"
         id="path394" />
    </g>
    <g
       style="fill:#008484;fill-opacity:0;stroke:#008484;stroke-width:80;stroke-linecap:round;stroke-linejoin:round;stroke-opacity:1"
       id="g404">
      <text
         x="35800"
         y="30890"
         textLength="1060"
         font-size="1050px"
         lengthAdjust="spacingAndGlyphs"
         text-anchor="end"
         opacity="0"
         id="text398">+</text>
      <path
         d="m 34970,30550 h 600"
         id="path400" />
      <path
         d="m 35270,30850 v -600"
         id="path402" />
    </g>
    <g
       style="fill:#840000;fill-opacity:0;stroke:#840000;stroke-width:80;stroke-linecap:round;stroke-linejoin:round;stroke-opacity:1"
       id="g408">
      <path
         d="m 36000,32500 h 1000"
         id="path406" />
    </g>
    <g
       style="fill:#008484;fill-opacity:0;stroke:#008484;stroke-width:80;stroke-linecap:round;stroke-linejoin:round;stroke-opacity:1"
       id="g436">
      <text
         x="35800"
         y="32890"
         textLength="1060"
         font-size="1050px"
         lengthAdjust="spacingAndGlyphs"
         text-anchor="end"
         opacity="0"
         id="text410">-</text>
      <path
         d="m 34970,32550 h 600"
         id="path412" />
      <text
         x="33080"
         y="28530"
         textLength="3010"
         font-size="660px"
         lengthAdjust="spacingAndGlyphs"
         text-anchor="middle"
         opacity="0"
         id="text414">load_AC</text>
      <path
         d="m 31800,28500 -50,-20 -20,-50 v -430"
         id="path416" />
      <path
         d="m 32060,28500 -40,-20 -30,-30 -20,-40 v -150 l 20,-40 30,-30 40,-20 h 70 l 50,20 30,30 20,40 v 150 l -20,40 -30,30 -50,20 h -70"
         id="path418" />
      <path
         d="m 32660,28500 v -260 l -30,-50 -40,-20 h -100 l -50,20"
         id="path420" />
      <path
         d="m 32660,28480 -50,20 h -120 l -50,-20 -20,-50 v -50 l 20,-50 50,-20 h 120 l 50,-20"
         id="path422" />
      <path
         d="m 33110,28500 v -500"
         id="path424" />
      <path
         d="m 33110,28480 -50,20 h -90 l -50,-20 -20,-30 -30,-40 v -150 l 30,-40 20,-30 50,-20 h 90 l 50,20"
         id="path426" />
      <path
         d="m 33230,28550 h 380"
         id="path428" />
      <path
         d="m 33710,28360 h 230"
         id="path430" />
      <path
         d="m 33660,28500 170,-500 160,500"
         id="path432" />
      <path
         d="m 34440,28450 -20,30 -70,20 h -50 l -70,-20 -50,-50 -20,-50 -30,-90 v -70 l 30,-100 20,-50 50,-40 70,-30 h 50 l 70,30 20,20"
         id="path434" />
    </g>
  </g>
  <g
     style="fill:#008484;fill-opacity:0;stroke:#008484;stroke-width:0;stroke-linecap:round;stroke-linejoin:round;stroke-opacity:1"
     id="g500"
     transform="translate(-28960,-13010)">
    <g
       id="g440" />
    <g
       style="fill:#840000;fill-opacity:0;stroke:#840000;stroke-width:0;stroke-linecap:round;stroke-linejoin:round;stroke-opacity:1"
       id="g442" />
    <g
       style="fill:#ffffc2;fill-opacity:0;stroke:#ffffc2;stroke-width:0;stroke-linecap:round;stroke-linejoin:round;stroke-opacity:1"
       id="g444" />
    <g
       style="fill:#ffffc2;fill-opacity:0.6;stroke:#ffffc2;stroke-width:0;stroke-linecap:round;stroke-linejoin:round;stroke-opacity:1"
       id="g448">
      <rect
         x="29000"
         y="35500"
         width="7000"
         height="5000"
         rx="0"
         id="rect446" />
    </g>
    <g
       style="fill:#840000;fill-opacity:0.6;stroke:#840000;stroke-width:0;stroke-linecap:round;stroke-linejoin:round;stroke-opacity:1"
       id="g450" />
    <g
       style="fill:#840000;fill-opacity:0;stroke:#840000;stroke-width:80;stroke-linecap:round;stroke-linejoin:round;stroke-opacity:1"
       id="g458">
      <rect
         x="29000"
         y="35500"
         width="7000"
         height="5000"
         rx="0"
         id="rect452" />
      <rect
         x="29000"
         y="35500"
         width="7000"
         height="5000"
         rx="0"
         id="rect454" />
      <path
         d="m 36000,37000 h 1000"
         id="path456" />
    </g>
    <g
       style="fill:#008484;fill-opacity:0;stroke:#008484;stroke-width:80;stroke-linecap:round;stroke-linejoin:round;stroke-opacity:1"
       id="g466">
      <text
         x="35800"
         y="37390"
         textLength="1060"
         font-size="1050px"
         lengthAdjust="spacingAndGlyphs"
         text-anchor="end"
         opacity="0"
         id="text460">+</text>
      <path
         d="m 34970,37050 h 600"
         id="path462" />
      <path
         d="m 35270,37350 v -600"
         id="path464" />
    </g>
    <g
       style="fill:#840000;fill-opacity:0;stroke:#840000;stroke-width:80;stroke-linecap:round;stroke-linejoin:round;stroke-opacity:1"
       id="g470">
      <path
         d="m 36000,39000 h 1000"
         id="path468" />
    </g>
    <g
       style="fill:#008484;fill-opacity:0;stroke:#008484;stroke-width:80;stroke-linecap:round;stroke-linejoin:round;stroke-opacity:1"
       id="g498">
      <text
         x="35800"
         y="39390"
         textLength="1060"
         font-size="1050px"
         lengthAdjust="spacingAndGlyphs"
         text-anchor="end"
         opacity="0"
         id="text472">-</text>
      <path
         d="m 34970,39050 h 600"
         id="path474" />
      <text
         x="33080"
         y="35030"
         textLength="3010"
         font-size="660px"
         lengthAdjust="spacingAndGlyphs"
         text-anchor="middle"
         opacity="0"
         id="text476">load_AC</text>
      <path
         d="m 31800,35000 -50,-20 -20,-50 v -430"
         id="path478" />
      <path
         d="m 32060,35000 -40,-20 -30,-30 -20,-40 v -150 l 20,-40 30,-30 40,-20 h 70 l 50,20 30,30 20,40 v 150 l -20,40 -30,30 -50,20 h -70"
         id="path480" />
      <path
         d="m 32660,35000 v -260 l -30,-50 -40,-20 h -100 l -50,20"
         id="path482" />
      <path
         d="m 32660,34980 -50,20 h -120 l -50,-20 -20,-50 v -50 l 20,-50 50,-20 h 120 l 50,-20"
         id="path484" />
      <path
         d="m 33110,35000 v -500"
         id="path486" />
      <path
         d="m 33110,34980 -50,20 h -90 l -50,-20 -20,-30 -30,-40 v -150 l 30,-40 20,-30 50,-20 h 90 l 50,20"
         id="path488" />
      <path
         d="m 33230,35050 h 380"
         id="path490" />
      <path
         d="m 33710,34860 h 230"
         id="path492" />
      <path
         d="m 33660,35000 170,-500 160,500"
         id="path494" />
      <path
         d="m 34440,34950 -20,30 -70,20 h -50 l -70,-20 -50,-50 -20,-50 -30,-90 v -70 l 30,-100 20,-50 50,-40 70,-30 h 50 l 70,30 20,20"
         id="path496" />
    </g>
  </g>
  <g
     style="fill:#008484;fill-opacity:0;stroke:#008484;stroke-width:60;stroke-linecap:round;stroke-linejoin:round;stroke-opacity:1"
     id="g502"
     transform="translate(-28960,-13010)" />
  <g
     style="fill:#008400;fill-opacity:0;stroke:#008400;stroke-width:60;stroke-linecap:round;stroke-linejoin:round;stroke-opacity:1"
     id="g538"
     transform="translate(-28960,-13010)">
    <path
       d="m 37000,32500 h 2500"
       id="path504" />
    <path
       d="M 43000,37000 V 30500"
       id="path506" />
    <path
       d="m 37000,37000 h 6000"
       id="path508" />
    <path
       d="M 43000,17500 H 37000"
       id="path510" />
    <path
       d="M 43000,22500 V 17500"
       id="path512" />
    <path
       d="M 45000,22500 H 43000"
       id="path514" />
    <path
       d="m 43000,25500 h 2000"
       id="path516" />
    <path
       d="m 43000,25500 v 5000"
       id="path518" />
    <path
       d="M 45000,24000 H 37000"
       id="path520" />
    <path
       d="m 37000,30500 h 6000"
       id="path522" />
    <path
       d="m 37000,39000 h 6000"
       id="path524" />
    <path
       d="M 39500,32500 V 26000"
       id="path526" />
    <path
       d="M 39500,26000 H 37000"
       id="path528" />
    <path
       d="m 39500,19500 v 6500"
       id="path530" />
    <path
       d="m 37000,19500 h 2500"
       id="path532" />
    <path
       d="m 58500,27500 h 5000"
       id="path534" />
    <path
       d="M 63500,25500 H 58500"
       id="path536" />
  </g>
  <g
     style="fill:#008400;fill-opacity:0;stroke:#008400;stroke-width:80;stroke-linecap:round;stroke-linejoin:round;stroke-opacity:1"
     id="g540"
     transform="translate(-28960,-13010)" />
  <g
     style="fill:#0000c2;fill-opacity:0;stroke:#0000c2;stroke-width:80;stroke-linecap:round;stroke-linejoin:round;stroke-opacity:1"
     id="g742"
     transform="translate(-28960,-13010)">
    <text
       x="44000"
       y="38610"
       textLength="14640"
       font-size="1050px"
       lengthAdjust="spacingAndGlyphs"
       text-anchor="start"
       opacity="0"
       id="text542">Neutral generated by a</text>
    <path
       d="m 44220,38570 v -790 l 450,790 v -790"
       id="path544" />
    <path
       d="m 45350,38530 -70,40 h -150 l -80,-40 -40,-80 v -300 l 40,-70 80,-40 h 150 l 70,40 40,70 v 80 l -380,70"
       id="path546" />
    <path
       d="m 46070,38040 v 530"
       id="path548" />
    <path
       d="m 45730,38040 v 410 l 40,80 70,40 h 110 l 80,-40 40,-40"
       id="path550" />
    <path
       d="m 46330,38040 h 300"
       id="path552" />
    <path
       d="m 46440,37780 v 670 l 40,80 80,40 h 70"
       id="path554" />
    <path
       d="m 46890,38570 v -530"
       id="path556" />
    <path
       d="m 46890,38190 40,-70 40,-40 70,-40 h 80"
       id="path558" />
    <path
       d="m 47720,38570 v -420 l -40,-70 -70,-40 h -150 l -80,40"
       id="path560" />
    <path
       d="m 47720,38530 -70,40 h -190 l -80,-40 -30,-80 v -70 l 30,-80 80,-30 h 190 l 70,-40"
       id="path562" />
    <path
       d="m 48210,38570 -70,-40 -40,-80 v -670"
       id="path564" />
    <path
       d="m 49450,38040 v 640 l -40,80 -30,30 -80,40 h -110 l -80,-40"
       id="path566" />
    <path
       d="m 49450,38530 -70,40 h -150 l -80,-40 -40,-40 -30,-70 v -230 l 30,-70 40,-40 80,-40 h 150 l 70,40"
       id="path568" />
    <path
       d="m 50130,38530 -80,40 h -150 l -70,-40 -40,-80 v -300 l 40,-70 70,-40 h 150 l 80,40 40,70 v 80 l -380,70"
       id="path570" />
    <path
       d="m 50510,38040 v 530"
       id="path572" />
    <path
       d="m 50510,38120 30,-40 80,-40 h 110 l 80,40 30,70 v 420"
       id="path574" />
    <path
       d="m 51520,38530 -70,40 h -150 l -80,-40 -40,-80 v -300 l 40,-70 80,-40 h 150 l 70,40 40,70 v 80 l -380,70"
       id="path576" />
    <path
       d="m 51900,38570 v -530"
       id="path578" />
    <path
       d="m 51900,38190 40,-70 30,-40 80,-40 h 70"
       id="path580" />
    <path
       d="m 52730,38570 v -420 l -40,-70 -80,-40 h -150 l -70,40"
       id="path582" />
    <path
       d="m 52730,38530 -80,40 h -190 l -70,-40 -40,-80 v -70 l 40,-80 70,-30 h 190 l 80,-40"
       id="path584" />
    <path
       d="m 52990,38040 h 300"
       id="path586" />
    <path
       d="m 53100,37780 v 670 l 40,80 70,40 h 80"
       id="path588" />
    <path
       d="m 53850,38530 -70,40 h -150 l -80,-40 -30,-80 v -300 l 30,-70 80,-40 h 150 l 70,40 40,70 v 80 l -370,70"
       id="path590" />
    <path
       d="m 54570,38570 v -790"
       id="path592" />
    <path
       d="m 54570,38530 -80,40 h -150 l -70,-40 -40,-40 -40,-70 v -230 l 40,-70 40,-40 70,-40 h 150 l 80,40"
       id="path594" />
    <path
       d="m 55550,38570 v -790"
       id="path596" />
    <path
       d="m 55550,38080 70,-40 h 150 l 80,40 40,40 30,70 v 230 l -30,70 -40,40 -80,40 h -150 l -70,-40"
       id="path598" />
    <path
       d="m 56190,38040 180,530"
       id="path600" />
    <path
       d="m 56560,38040 -190,530 -70,190 -40,30 -70,40"
       id="path602" />
    <path
       d="m 57800,38570 v -420 l -30,-70 -80,-40 h -150 l -70,40"
       id="path604" />
    <path
       d="m 57800,38530 -70,40 h -190 l -70,-40 -40,-80 v -70 l 40,-80 70,-30 h 190 l 70,-40"
       id="path606" />
    <text
       x="44000"
       y="39880"
       textLength="13810"
       font-size="1050px"
       lengthAdjust="spacingAndGlyphs"
       text-anchor="start"
       opacity="0"
       id="text608">second ADM-PC-BP25</text>
    <path
       d="m 44190,39800 70,40 h 150 l 80,-40 30,-80 v -30 l -30,-80 -80,-40 h -110 l -80,-30 -30,-80 v -40 l 30,-70 80,-40 h 110 l 80,40"
       id="path610" />
    <path
       d="m 45160,39800 -70,40 h -150 l -80,-40 -30,-80 v -300 l 30,-70 80,-40 h 150 l 70,40 40,70 v 80 l -370,70"
       id="path612" />
    <path
       d="m 45880,39800 -80,40 h -150 l -70,-40 -40,-40 -40,-70 v -230 l 40,-70 40,-40 70,-40 h 150 l 80,40"
       id="path614" />
    <path
       d="m 46330,39840 -80,-40 -30,-40 -40,-70 v -230 l 40,-70 30,-40 80,-40 h 110 l 80,40 40,40 30,70 v 230 l -30,70 -40,40 -80,40 h -110"
       id="path616" />
    <path
       d="m 46930,39310 v 530"
       id="path618" />
    <path
       d="m 46930,39390 40,-40 70,-40 h 120 l 70,40 40,70 v 420"
       id="path620" />
    <path
       d="m 47990,39840 v -790"
       id="path622" />
    <path
       d="m 47990,39800 -80,40 h -150 l -80,-40 -30,-40 -40,-70 v -230 l 40,-70 30,-40 80,-40 h 150 l 80,40"
       id="path624" />
    <path
       d="m 48930,39610 h 370"
       id="path626" />
    <path
       d="m 48850,39840 260,-790 270,790"
       id="path628" />
    <path
       d="m 49640,39840 v -790 h 190 l 110,40 80,70 30,80 40,150 v 110 l -40,150 -30,70 -80,80 -110,40 h -190"
       id="path630" />
    <path
       d="m 50430,39840 v -790 l 260,560 270,-560 v 790"
       id="path632" />
    <path
       d="m 51330,39540 h 610"
       id="path634" />
    <path
       d="m 52310,39840 v -790 h 300 l 80,40 40,30 30,80 v 110 l -30,80 -40,30 -80,40 h -300"
       id="path636" />
    <path
       d="m 53550,39760 -30,40 -120,40 h -70 l -120,-40 -70,-80 -40,-70 -40,-150 v -110 l 40,-150 40,-80 70,-70 120,-40 h 70 l 120,40 30,30"
       id="path638" />
    <path
       d="m 53890,39540 h 600"
       id="path640" />
    <path
       d="m 55130,39420 120,40 30,40 40,70 v 120 l -40,70 -30,40 -80,40 h -300 v -790 h 260 l 80,40 40,30 30,80 v 70 l -30,80 -40,40 -80,30 h -260"
       id="path642" />
    <path
       d="m 55660,39840 v -790 h 300 l 80,40 30,30 40,80 v 110 l -40,80 -30,30 -80,40 h -300"
       id="path644" />
    <path
       d="m 56410,39120 40,-30 70,-40 h 190 l 80,40 40,30 30,80 v 70 l -30,120 -460,450 h 490"
       id="path646" />
    <path
       d="m 57580,39050 h -380 l -40,370 40,-30 80,-40 h 190 l 70,40 40,30 40,80 v 190 l -40,70 -40,40 -70,40 h -190 l -80,-40 -40,-40"
       id="path648" />
    <text
       x="36500"
       y="13880"
       textLength="25400"
       font-size="1050px"
       lengthAdjust="spacingAndGlyphs"
       text-anchor="start"
       opacity="0"
       id="text650">ADM-PC-BP25 in Inverter 3-phase mode</text>
    <path
       d="m 36690,13610 h 370"
       id="path652" />
    <path
       d="m 36610,13840 260,-790 270,790"
       id="path654" />
    <path
       d="m 37400,13840 v -790 h 190 l 110,40 80,70 30,80 40,150 v 110 l -40,150 -30,70 -80,80 -110,40 h -190"
       id="path656" />
    <path
       d="m 38190,13840 v -790 l 260,560 270,-560 v 790"
       id="path658" />
    <path
       d="m 39090,13540 h 610"
       id="path660" />
    <path
       d="m 40070,13840 v -790 h 300 l 80,40 40,30 30,80 v 110 l -30,80 -40,30 -80,40 h -300"
       id="path662" />
    <path
       d="m 41310,13760 -30,40 -120,40 h -70 l -120,-40 -70,-80 -40,-70 -40,-150 v -110 l 40,-150 40,-80 70,-70 120,-40 h 70 l 120,40 30,30"
       id="path664" />
    <path
       d="m 41650,13540 h 600"
       id="path666" />
    <path
       d="m 42890,13420 120,40 30,40 40,70 v 120 l -40,70 -30,40 -80,40 h -300 v -790 h 260 l 80,40 40,30 30,80 v 70 l -30,80 -40,40 -80,30 h -260"
       id="path668" />
    <path
       d="m 43420,13840 v -790 h 300 l 80,40 30,30 40,80 v 110 l -40,80 -30,30 -80,40 h -300"
       id="path670" />
    <path
       d="m 44170,13120 40,-30 70,-40 h 190 l 80,40 40,30 30,80 v 70 l -30,120 -460,450 h 490"
       id="path672" />
    <path
       d="m 45340,13050 h -380 l -40,370 40,-30 80,-40 h 190 l 70,40 40,30 40,80 v 190 l -40,70 -40,40 -70,40 h -190 l -80,-40 -40,-40"
       id="path674" />
    <path
       d="m 46320,13840 v -530"
       id="path676" />
    <path
       d="m 46320,13050 -40,40 40,30 30,-30 -30,-40 v 70"
       id="path678" />
    <path
       d="m 46690,13310 v 530"
       id="path680" />
    <path
       d="m 46690,13390 40,-40 80,-40 h 110 l 70,40 40,70 v 420"
       id="path682" />
    <path
       d="m 48010,13840 v -790"
       id="path684" />
    <path
       d="m 48390,13310 v 530"
       id="path686" />
    <path
       d="m 48390,13390 30,-40 80,-40 h 110 l 80,40 30,70 v 420"
       id="path688" />
    <path
       d="m 49020,13310 190,530 190,-530"
       id="path690" />
    <path
       d="m 50000,13800 -70,40 h -150 l -80,-40 -40,-80 v -300 l 40,-70 80,-40 h 150 l 70,40 40,70 v 80 l -380,70"
       id="path692" />
    <path
       d="m 50380,13840 v -530"
       id="path694" />
    <path
       d="m 50380,13460 40,-70 30,-40 80,-40 h 70"
       id="path696" />
    <path
       d="m 50760,13310 h 300"
       id="path698" />
    <path
       d="m 50870,13050 v 670 l 40,80 70,40 h 80"
       id="path700" />
    <path
       d="m 51620,13800 -70,40 h -160 l -70,-40 -40,-80 v -300 l 40,-70 70,-40 h 160 l 70,40 40,70 v 80 l -380,70"
       id="path702" />
    <path
       d="m 52000,13840 v -530"
       id="path704" />
    <path
       d="m 52000,13460 30,-70 40,-40 80,-40 h 70"
       id="path706" />
    <path
       d="m 53010,13050 h 490 l -260,300 h 110 l 80,40 30,30 40,80 v 190 l -40,70 -30,40 -80,40 h -220 l -80,-40 -40,-40"
       id="path708" />
    <path
       d="m 53840,13540 h 600"
       id="path710" />
    <path
       d="m 54820,13310 v 790"
       id="path712" />
    <path
       d="m 54820,13350 70,-40 h 150 l 80,40 40,40 30,70 v 230 l -30,70 -40,40 -80,40 h -150 l -70,-40"
       id="path714" />
    <path
       d="m 55530,13840 v -790"
       id="path716" />
    <path
       d="m 55870,13840 v -420 l -40,-70 -70,-40 h -110 l -80,40 -40,40"
       id="path718" />
    <path
       d="m 56590,13840 v -420 l -40,-70 -80,-40 h -150 l -70,40"
       id="path720" />
    <path
       d="m 56590,13800 -80,40 h -190 l -70,-40 -40,-80 v -70 l 40,-80 70,-30 h 190 l 80,-40"
       id="path722" />
    <path
       d="m 56920,13800 80,40 h 150 l 80,-40 30,-80 v -30 l -30,-80 -80,-40 h -110 l -80,-30 -40,-80 v -40 l 40,-70 80,-40 h 110 l 80,40"
       id="path724" />
    <path
       d="m 57900,13800 -70,40 h -150 l -80,-40 -40,-80 v -300 l 40,-70 80,-40 h 150 l 70,40 40,70 v 80 l -380,70"
       id="path726" />
    <path
       d="m 58880,13840 v -530"
       id="path728" />
    <path
       d="m 58880,13390 40,-40 70,-40 h 120 l 70,40 40,70 v 420"
       id="path730" />
    <path
       d="m 59220,13420 40,-70 70,-40 h 120 l 70,40 40,70 v 420"
       id="path732" />
    <path
       d="m 60050,13840 -80,-40 -40,-40 -30,-70 v -230 l 30,-70 40,-40 80,-40 h 110 l 80,40 30,40 40,70 v 230 l -40,70 -30,40 -80,40 h -110"
       id="path734" />
    <path
       d="m 60990,13840 v -790"
       id="path736" />
    <path
       d="m 60990,13800 -80,40 h -150 l -70,-40 -40,-40 -40,-70 v -230 l 40,-70 40,-40 70,-40 h 150 l 80,40"
       id="path738" />
    <path
       d="m 61660,13800 -70,40 h -150 l -80,-40 -30,-80 v -300 l 30,-70 80,-40 h 150 l 70,40 40,70 v 80 l -370,70"
       id="path740" />
  </g>
  <g
     style="fill:#0000c2;fill-opacity:0;stroke:#0000c2;stroke-width:0;stroke-linecap:round;stroke-linejoin:round;stroke-opacity:1"
     id="g744"
     transform="translate(-28960,-13010)" />
  <g
     style="fill:#008400;fill-opacity:0;stroke:#008400;stroke-width:0;stroke-linecap:round;stroke-linejoin:round;stroke-opacity:1"
     id="g746"
     transform="translate(-28960,-13010)" />
  <g
     style="fill:#008400;fill-opacity:1;stroke:#008400;stroke-width:100;stroke-linecap:round;stroke-linejoin:round;stroke-opacity:1"
     id="g750"
     transform="translate(-28960,-13010)">
    <circle
       cx="43000"
       cy="30500"
       r="200"
       id="circle748" />
  </g>
  <g
     style="fill:#008400;fill-opacity:1;stroke:#008400;stroke-width:0;stroke-linecap:round;stroke-linejoin:round;stroke-opacity:1"
     id="g752"
     transform="translate(-28960,-13010)" />
  <g
     style="fill:#008400;fill-opacity:1;stroke:#008400;stroke-width:100;stroke-linecap:round;stroke-linejoin:round;stroke-opacity:1"
     id="g756"
     transform="translate(-28960,-13010)">
    <circle
       cx="39500"
       cy="26000"
       r="200"
       id="circle754" />
  </g>
</svg>
