<?xml version="1.0" encoding="UTF-8"?>
<!DOCTYPE svg PUBLIC "-//W3C//DTD SVG 1.1//EN" "http://www.w3.org/Graphics/SVG/1.1/DTD/svg11.dtd">
<svg width="171mm" height="95mm" viewBox="0 0 17100 9500" version="1.1" xmlns="http://www.w3.org/2000/svg" xmlns:xlink="http://www.w3.org/1999/xlink" stroke-width="28.222" stroke-linejoin="round" xml:space="preserve">
 <path fill="rgb(255,255,255)" stroke="none" d="M 8573,9519 L 0,9519 0,0 17145,0 17145,9519 8573,9519 Z"/>
 <path fill="none" stroke="rgb(179,179,179)" stroke-linejoin="round" d="M 9104,7726 L 1975,7726 1975,1516 16234,1516 16234,7726 9104,7726 Z"/>
 <path fill="none" stroke="rgb(179,179,179)" stroke-linejoin="round" d="M 1975,1515 L 1975,7725"/>
 <path fill="none" stroke="rgb(179,179,179)" stroke-linejoin="round" d="M 3399,1515 L 3399,7725"/>
 <path fill="none" stroke="rgb(179,179,179)" stroke-linejoin="round" d="M 4824,1515 L 4824,7725"/>
 <path fill="none" stroke="rgb(179,179,179)" stroke-linejoin="round" d="M 6248,1515 L 6248,7725"/>
 <path fill="none" stroke="rgb(179,179,179)" stroke-linejoin="round" d="M 7673,1515 L 7673,7725"/>
 <path fill="none" stroke="rgb(179,179,179)" stroke-linejoin="round" d="M 9096,1515 L 9096,7725"/>
 <path fill="none" stroke="rgb(179,179,179)" stroke-linejoin="round" d="M 10521,1515 L 10521,7725"/>
 <path fill="none" stroke="rgb(179,179,179)" stroke-linejoin="round" d="M 11946,1515 L 11946,7725"/>
 <path fill="none" stroke="rgb(179,179,179)" stroke-linejoin="round" d="M 13370,1515 L 13370,7725"/>
 <path fill="none" stroke="rgb(179,179,179)" stroke-linejoin="round" d="M 14795,1515 L 14795,7725"/>
 <path fill="none" stroke="rgb(179,179,179)" stroke-linejoin="round" d="M 16219,1515 L 16219,7725"/>
 <path fill="none" stroke="rgb(179,179,179)" stroke-linejoin="round" d="M 16233,7725 L 1975,7725"/>
 <path fill="none" stroke="rgb(179,179,179)" stroke-linejoin="round" d="M 16233,6689 L 1975,6689"/>
 <path fill="none" stroke="rgb(179,179,179)" stroke-linejoin="round" d="M 16233,5654 L 1975,5654"/>
 <path fill="none" stroke="rgb(179,179,179)" stroke-linejoin="round" d="M 16233,4620 L 1975,4620"/>
 <path fill="none" stroke="rgb(179,179,179)" stroke-linejoin="round" d="M 16233,3585 L 1975,3585"/>
 <path fill="none" stroke="rgb(179,179,179)" stroke-linejoin="round" d="M 16233,2550 L 1975,2550"/>
 <path fill="none" stroke="rgb(179,179,179)" stroke-linejoin="round" d="M 16233,1515 L 1975,1515"/>
 <path fill="none" stroke="rgb(179,179,179)" stroke-linejoin="round" d="M 1975,7875 L 1975,7725"/>
 <path fill="none" stroke="rgb(179,179,179)" stroke-linejoin="round" d="M 1975,7875 L 1975,7725"/>
 <path fill="none" stroke="rgb(179,179,179)" stroke-linejoin="round" d="M 3399,7875 L 3399,7725"/>
 <path fill="none" stroke="rgb(179,179,179)" stroke-linejoin="round" d="M 3399,7875 L 3399,7725"/>
 <path fill="none" stroke="rgb(179,179,179)" stroke-linejoin="round" d="M 4824,7875 L 4824,7725"/>
 <path fill="none" stroke="rgb(179,179,179)" stroke-linejoin="round" d="M 4824,7875 L 4824,7725"/>
 <path fill="none" stroke="rgb(179,179,179)" stroke-linejoin="round" d="M 6248,7875 L 6248,7725"/>
 <path fill="none" stroke="rgb(179,179,179)" stroke-linejoin="round" d="M 6248,7875 L 6248,7725"/>
 <path fill="none" stroke="rgb(179,179,179)" stroke-linejoin="round" d="M 7673,7875 L 7673,7725"/>
 <path fill="none" stroke="rgb(179,179,179)" stroke-linejoin="round" d="M 7673,7875 L 7673,7725"/>
 <path fill="none" stroke="rgb(179,179,179)" stroke-linejoin="round" d="M 9096,7875 L 9096,7725"/>
 <path fill="none" stroke="rgb(179,179,179)" stroke-linejoin="round" d="M 9096,7875 L 9096,7725"/>
 <path fill="none" stroke="rgb(179,179,179)" stroke-linejoin="round" d="M 10521,7875 L 10521,7725"/>
 <path fill="none" stroke="rgb(179,179,179)" stroke-linejoin="round" d="M 10521,7875 L 10521,7725"/>
 <path fill="none" stroke="rgb(179,179,179)" stroke-linejoin="round" d="M 11946,7875 L 11946,7725"/>
 <path fill="none" stroke="rgb(179,179,179)" stroke-linejoin="round" d="M 11946,7875 L 11946,7725"/>
 <path fill="none" stroke="rgb(179,179,179)" stroke-linejoin="round" d="M 13370,7875 L 13370,7725"/>
 <path fill="none" stroke="rgb(179,179,179)" stroke-linejoin="round" d="M 13370,7875 L 13370,7725"/>
 <path fill="none" stroke="rgb(179,179,179)" stroke-linejoin="round" d="M 14795,7875 L 14795,7725"/>
 <path fill="none" stroke="rgb(179,179,179)" stroke-linejoin="round" d="M 14795,7875 L 14795,7725"/>
 <path fill="none" stroke="rgb(179,179,179)" stroke-linejoin="round" d="M 16219,7875 L 16219,7725"/>
 <path fill="none" stroke="rgb(179,179,179)" stroke-linejoin="round" d="M 16219,7875 L 16219,7725"/>
 <path fill="none" stroke="rgb(179,179,179)" stroke-linejoin="round" d="M 1975,7725 L 16233,7725"/>
 <path fill="none" stroke="rgb(179,179,179)" stroke-linejoin="round" d="M 1825,7725 L 1975,7725"/>
 <path fill="none" stroke="rgb(179,179,179)" stroke-linejoin="round" d="M 1825,7725 L 1975,7725"/>
 <path fill="none" stroke="rgb(179,179,179)" stroke-linejoin="round" d="M 1825,6689 L 1975,6689"/>
 <path fill="none" stroke="rgb(179,179,179)" stroke-linejoin="round" d="M 1825,6689 L 1975,6689"/>
 <path fill="none" stroke="rgb(179,179,179)" stroke-linejoin="round" d="M 1825,5654 L 1975,5654"/>
 <path fill="none" stroke="rgb(179,179,179)" stroke-linejoin="round" d="M 1825,5654 L 1975,5654"/>
 <path fill="none" stroke="rgb(179,179,179)" stroke-linejoin="round" d="M 1825,4620 L 1975,4620"/>
 <path fill="none" stroke="rgb(179,179,179)" stroke-linejoin="round" d="M 1825,4620 L 1975,4620"/>
 <path fill="none" stroke="rgb(179,179,179)" stroke-linejoin="round" d="M 1825,3585 L 1975,3585"/>
 <path fill="none" stroke="rgb(179,179,179)" stroke-linejoin="round" d="M 1825,3585 L 1975,3585"/>
 <path fill="none" stroke="rgb(179,179,179)" stroke-linejoin="round" d="M 1825,2550 L 1975,2550"/>
 <path fill="none" stroke="rgb(179,179,179)" stroke-linejoin="round" d="M 1825,2550 L 1975,2550"/>
 <path fill="none" stroke="rgb(179,179,179)" stroke-linejoin="round" d="M 1825,1515 L 1975,1515"/>
 <path fill="none" stroke="rgb(179,179,179)" stroke-linejoin="round" d="M 1825,1515 L 1975,1515"/>
 <path fill="none" stroke="rgb(179,179,179)" stroke-linejoin="round" d="M 1975,7725 L 1975,1515"/>
 <path fill="none" stroke="rgb(0,69,134)" stroke-width="80" stroke-linejoin="round" d="M 1975,2550 L 2331,2550 2687,2550 3043,2550 3399,2550 3755,2550 4111,2550 4468,2550 4824,2550 5180,2550 5536,2550 5892,2550 6248,2550 6604,2550 6961,2550 7317,2550 7673,2550 8029,2550 8385,2550 8740,2550 9096,2550 9453,2796 9809,3020 10165,3225 10521,3412 10877,3585 11233,3744 11589,3892 11946,4028 12302,4156 12658,4275 13014,4386 13370,4491 13726,4589 14082,4681 14439,4767 14795,4849 15151,4927 15507,5000 15863,5070 16219,5137 16221,7725"/>
 <text class="TextShape"><tspan class="TextParagraph" font-family="Liberation Sans, sans-serif" font-size="353px" font-weight="400"><tspan class="TextPosition" x="1878" y="8293"><tspan fill="rgb(0,0,0)" stroke="none">0</tspan></tspan></tspan></text>
 <text class="TextShape"><tspan class="TextParagraph" font-family="Liberation Sans, sans-serif" font-size="353px" font-weight="400"><tspan class="TextPosition" x="3108" y="8293"><tspan fill="rgb(0,0,0)" stroke="none">100</tspan></tspan></tspan></text>
 <text class="TextShape"><tspan class="TextParagraph" font-family="Liberation Sans, sans-serif" font-size="353px" font-weight="400"><tspan class="TextPosition" x="4533" y="8293"><tspan fill="rgb(0,0,0)" stroke="none">200</tspan></tspan></tspan></text>
 <text class="TextShape"><tspan class="TextParagraph" font-family="Liberation Sans, sans-serif" font-size="353px" font-weight="400"><tspan class="TextPosition" x="5957" y="8293"><tspan fill="rgb(0,0,0)" stroke="none">300</tspan></tspan></tspan></text>
 <text class="TextShape"><tspan class="TextParagraph" font-family="Liberation Sans, sans-serif" font-size="353px" font-weight="400"><tspan class="TextPosition" x="7382" y="8293"><tspan fill="rgb(0,0,0)" stroke="none">400</tspan></tspan></tspan></text>
 <text class="TextShape"><tspan class="TextParagraph" font-family="Liberation Sans, sans-serif" font-size="353px" font-weight="400"><tspan class="TextPosition" x="8806" y="8293"><tspan fill="rgb(0,0,0)" stroke="none">500</tspan></tspan></tspan></text>
 <text class="TextShape"><tspan class="TextParagraph" font-family="Liberation Sans, sans-serif" font-size="353px" font-weight="400"><tspan class="TextPosition" x="10231" y="8293"><tspan fill="rgb(0,0,0)" stroke="none">600</tspan></tspan></tspan></text>
 <text class="TextShape"><tspan class="TextParagraph" font-family="Liberation Sans, sans-serif" font-size="353px" font-weight="400"><tspan class="TextPosition" x="11656" y="8293"><tspan fill="rgb(0,0,0)" stroke="none">700</tspan></tspan></tspan></text>
 <text class="TextShape"><tspan class="TextParagraph" font-family="Liberation Sans, sans-serif" font-size="353px" font-weight="400"><tspan class="TextPosition" x="13080" y="8293"><tspan fill="rgb(0,0,0)" stroke="none">800</tspan></tspan></tspan></text>
 <text class="TextShape"><tspan class="TextParagraph" font-family="Liberation Sans, sans-serif" font-size="353px" font-weight="400"><tspan class="TextPosition" x="14505" y="8293"><tspan fill="rgb(0,0,0)" stroke="none">900</tspan></tspan></tspan></text>
 <text class="TextShape"><tspan class="TextParagraph" font-family="Liberation Sans, sans-serif" font-size="353px" font-weight="400"><tspan class="TextPosition" x="15832" y="8293"><tspan fill="rgb(0,0,0)" stroke="none">1000</tspan></tspan></tspan></text>
 <text class="TextShape"><tspan class="TextParagraph" font-family="Liberation Sans, sans-serif" font-size="353px" font-weight="400"><tspan class="TextPosition" x="1531" y="7850"><tspan fill="rgb(0,0,0)" stroke="none">0</tspan></tspan></tspan></text>
 <text class="TextShape"><tspan class="TextParagraph" font-family="Liberation Sans, sans-serif" font-size="353px" font-weight="400"><tspan class="TextPosition" x="1337" y="6814"><tspan fill="rgb(0,0,0)" stroke="none">20</tspan></tspan></tspan></text>
 <text class="TextShape"><tspan class="TextParagraph" font-family="Liberation Sans, sans-serif" font-size="353px" font-weight="400"><tspan class="TextPosition" x="1337" y="5779"><tspan fill="rgb(0,0,0)" stroke="none">40</tspan></tspan></tspan></text>
 <text class="TextShape"><tspan class="TextParagraph" font-family="Liberation Sans, sans-serif" font-size="353px" font-weight="400"><tspan class="TextPosition" x="1337" y="4744"><tspan fill="rgb(0,0,0)" stroke="none">60</tspan></tspan></tspan></text>
 <text class="TextShape"><tspan class="TextParagraph" font-family="Liberation Sans, sans-serif" font-size="353px" font-weight="400"><tspan class="TextPosition" x="1337" y="3709"><tspan fill="rgb(0,0,0)" stroke="none">80</tspan></tspan></tspan></text>
 <text class="TextShape"><tspan class="TextParagraph" font-family="Liberation Sans, sans-serif" font-size="353px" font-weight="400"><tspan class="TextPosition" x="1143" y="2674"><tspan fill="rgb(0,0,0)" stroke="none">100</tspan></tspan></tspan></text>
 <text class="TextShape"><tspan class="TextParagraph" font-family="Liberation Sans, sans-serif" font-size="353px" font-weight="400"><tspan class="TextPosition" x="1143" y="1639"><tspan fill="rgb(0,0,0)" stroke="none">120</tspan></tspan></tspan></text>
 <text class="TextShape"><tspan class="TextParagraph" font-family="Liberation Sans, sans-serif" font-size="459px" font-weight="400"><tspan class="TextPosition" x="4595" y="887"><tspan fill="rgb(0,0,0)" stroke="none">Power envelope - ADM-PC-BP25-VA01</tspan></tspan></tspan></text>
 <text class="TextShape"><tspan class="TextParagraph" font-family="Liberation Sans, sans-serif" font-size="318px" font-weight="400"><tspan class="TextPosition" x="8276" y="8934"><tspan fill="rgb(0,0,0)" stroke="none">Voltage (V)</tspan></tspan></tspan></text>
 <text class="TextShape" transform="rotate(-90 828 5627)"><tspan class="TextParagraph" font-family="Liberation Sans, sans-serif" font-size="318px" font-weight="400"><tspan class="TextPosition" x="828" y="5627"><tspan fill="rgb(0,0,0)" stroke="none">Current (A)</tspan></tspan></tspan></text>
</svg>