<?xml version="1.0" encoding="UTF-8" standalone="no"?>
<svg
   xmlns:dc="http://purl.org/dc/elements/1.1/"
   xmlns:cc="http://creativecommons.org/ns#"
   xmlns:rdf="http://www.w3.org/1999/02/22-rdf-syntax-ns#"
   xmlns:svg="http://www.w3.org/2000/svg"
   xmlns="http://www.w3.org/2000/svg"
   xmlns:sodipodi="http://sodipodi.sourceforge.net/DTD/sodipodi-0.dtd"
   xmlns:inkscape="http://www.inkscape.org/namespaces/inkscape"
   inkscape:version="1.0 (4035a4fb49, 2020-05-01)"
   sodipodi:docname="ADM-CS-EVCC_multipart_LEDs.svg"
   id="svg304"
   viewBox="0 0 12619.999 6619.9997"
   height="1.6814799cm"
   width="3.2054799cm"
   version="1.1">
  <metadata
     id="metadata310">
    <rdf:RDF>
      <cc:Work
         rdf:about="">
        <dc:format>image/svg+xml</dc:format>
        <dc:type
           rdf:resource="http://purl.org/dc/dcmitype/StillImage" />
      </cc:Work>
    </rdf:RDF>
  </metadata>
  <defs
     id="defs308" />
  <sodipodi:namedview
     inkscape:current-layer="svg304"
     inkscape:window-maximized="0"
     inkscape:window-y="0"
     inkscape:window-x="0"
     inkscape:cy="-34.593882"
     inkscape:cx="48.624001"
     inkscape:zoom="5.002354"
     showgrid="false"
     id="namedview306"
     inkscape:window-height="480"
     inkscape:window-width="705"
     inkscape:pageshadow="2"
     inkscape:pageopacity="0"
     guidetolerance="10"
     gridtolerance="10"
     objecttolerance="10"
     borderopacity="1"
     bordercolor="#666666"
     pagecolor="#ffffff" />
  <title
     id="title2">SVG Picture created as ADM-CS-EVCC_multipart_LEDs.svg date 2020/09/04 16:19:15 </title>
  <desc
     id="desc4">Picture generated by Eeschema-SVG </desc>
  <g
     transform="translate(-2600,-5790)"
     id="g6"
     style="fill:#000000;fill-opacity:1;stroke:#000000;stroke-linecap:round;stroke-linejoin:round;stroke-opacity:1" />
  <g
     transform="translate(-2600,-5790)"
     id="g8"
     style="fill:#840000;fill-opacity:0;stroke:#840000;stroke-width:-10;stroke-linecap:round;stroke-linejoin:round;stroke-opacity:1" />
  <g
     transform="translate(-2600,-5790)"
     id="g10"
     style="fill:#ffffc2;fill-opacity:0;stroke:#ffffc2;stroke-width:-10;stroke-linecap:round;stroke-linejoin:round;stroke-opacity:1" />
  <g
     transform="translate(-2600,-5790)"
     id="g14"
     style="fill:#ffffc2;fill-opacity:0.6;stroke:#ffffc2;stroke-width:0;stroke-linecap:round;stroke-linejoin:round;stroke-opacity:1">
    <rect
       id="rect12"
       rx="0"
       height="6500"
       width="10500"
       y="5850"
       x="2660" />
  </g>
  <g
     transform="translate(-2600,-5790)"
     id="g16"
     style="fill:#840000;fill-opacity:0.6;stroke:#840000;stroke-width:0;stroke-linecap:round;stroke-linejoin:round;stroke-opacity:1" />
  <g
     transform="translate(-2600,-5790)"
     id="g20"
     style="fill:#840000;fill-opacity:0;stroke:#840000;stroke-width:120;stroke-linecap:round;stroke-linejoin:round;stroke-opacity:1">
    <rect
       id="rect18"
       rx="0"
       height="6500"
       width="10500"
       y="5850"
       x="2660" />
  </g>
  <g
     transform="translate(-2600,-5790)"
     id="g36"
     style="fill:#840000;fill-opacity:0;stroke:#840000;stroke-width:100;stroke-linecap:round;stroke-linejoin:round;stroke-opacity:1">
    <g
       id="g24"
       transform="rotate(-90,3680,8850)">
      <text
         id="text22"
         opacity="0"
         text-anchor="middle"
         lengthAdjust="spacingAndGlyphs"
         font-size="800px"
         textLength="2320"
         y="9150"
         x="3680">LEDs</text>
    </g>
    <path
       id="path26"
       d="m 3950,9530 v 290 l -600,-80" />
    <path
       id="path28"
       d="M 3630,9290 V 9090" />
    <path
       id="path30"
       d="m 3950,9050 v 280 l -600,-70 v -290" />
    <path
       id="path32"
       d="m 3950,8790 -600,-80 v -140 l 30,-80 50,-50 60,-20 110,-20 90,10 110,50 60,30 60,70 30,90 v 140" />
    <path
       id="path34"
       d="m 3920,8210 30,-50 v -110 l -30,-60 -60,-40 h -30 l -50,20 -30,50 v 90 l -30,50 -60,20 h -30 l -50,-40 -30,-60 v -80 l 30,-60" />
  </g>
  <g
     transform="translate(-2600,-5790)"
     id="g42"
     style="fill:#840000;fill-opacity:0;stroke:#840000;stroke-width:120;stroke-linecap:round;stroke-linejoin:round;stroke-opacity:1">
    <rect
       id="rect38"
       rx="0"
       height="6500"
       width="10500"
       y="5850"
       x="2660" />
    <path
       id="path40"
       d="m 13160,6850 h 2000" />
  </g>
  <g
     transform="translate(-2600,-5790)"
     id="g46"
     style="fill:#008484;fill-opacity:0;stroke:#008484;stroke-width:120;stroke-linecap:round;stroke-linejoin:round;stroke-opacity:1">
    <text
       id="text44"
       opacity="0"
       text-anchor="end"
       lengthAdjust="spacingAndGlyphs"
       font-size="660px"
       textLength="1930"
       y="7100"
       x="12960">LED1</text>
  </g>
  <g
     transform="translate(-2600,-5790)"
     id="g60"
     style="fill:#008484;fill-opacity:0;stroke:#008484;stroke-width:80;stroke-linecap:round;stroke-linejoin:round;stroke-opacity:1">
    <path
       id="path48"
       d="m 11440,7070 h -240 v -500" />
    <path
       id="path50"
       d="m 11610,6810 h 160" />
    <path
       id="path52"
       d="m 11840,7070 h -230 v -500 h 230" />
    <path
       id="path54"
       d="m 12060,7070 v -500 h 120 l 70,30 50,40 20,50 20,100 v 70 l -20,90 -20,50 -50,50 -70,20 h -120" />
    <path
       id="path56"
       d="m 12820,7070 h -290" />
    <path
       id="path58"
       d="m 12680,7070 v -500 l -50,70 -50,50 -50,20" />
  </g>
  <g
     transform="translate(-2600,-5790)"
     id="g62"
     style="fill:#008484;fill-opacity:0;stroke:#008484;stroke-width:120;stroke-linecap:round;stroke-linejoin:round;stroke-opacity:1" />
  <g
     transform="translate(-2600,-5790)"
     id="g66"
     style="fill:#840000;fill-opacity:0;stroke:#840000;stroke-width:120;stroke-linecap:round;stroke-linejoin:round;stroke-opacity:1">
    <text
       id="text64"
       opacity="0"
       text-anchor="middle"
       lengthAdjust="spacingAndGlyphs"
       font-size="660px"
       textLength="1530"
       y="6710"
       x="14160">1C1</text>
  </g>
  <g
     transform="translate(-2600,-5790)"
     id="g78"
     style="fill:#840000;fill-opacity:0;stroke:#840000;stroke-width:80;stroke-linecap:round;stroke-linejoin:round;stroke-opacity:1">
    <path
       id="path68"
       d="m 13810,6680 h -290" />
    <path
       id="path70"
       d="m 13670,6680 v -500 l -50,70 -50,50 -50,20" />
    <path
       id="path72"
       d="m 14310,6630 -20,30 -80,20 h -40 l -70,-20 -50,-50 -30,-50 -20,-90 v -70 l 20,-100 30,-50 50,-40 70,-30 h 40 l 80,30 20,20" />
    <path
       id="path74"
       d="m 14790,6680 h -290" />
    <path
       id="path76"
       d="m 14640,6680 v -500 l -40,70 -50,50 -50,20" />
  </g>
  <g
     transform="translate(-2600,-5790)"
     id="g82"
     style="fill:#840000;fill-opacity:0;stroke:#840000;stroke-width:120;stroke-linecap:round;stroke-linejoin:round;stroke-opacity:1">
    <path
       id="path80"
       d="m 13160,11350 h 2000" />
  </g>
  <g
     transform="translate(-2600,-5790)"
     id="g86"
     style="fill:#008484;fill-opacity:0;stroke:#008484;stroke-width:120;stroke-linecap:round;stroke-linejoin:round;stroke-opacity:1">
    <text
       id="text84"
       opacity="0"
       text-anchor="end"
       lengthAdjust="spacingAndGlyphs"
       font-size="660px"
       textLength="3340"
       y="11600"
       x="12960">LED_GND</text>
  </g>
  <g
     transform="translate(-2600,-5790)"
     id="g104"
     style="fill:#008484;fill-opacity:0;stroke:#008484;stroke-width:80;stroke-linecap:round;stroke-linejoin:round;stroke-opacity:1">
    <path
       id="path88"
       d="m 10010,11570 h -240 v -500" />
    <path
       id="path90"
       d="m 10180,11310 h 160" />
    <path
       id="path92"
       d="m 10420,11570 h -240 v -500 h 240" />
    <path
       id="path94"
       d="m 10630,11570 v -500 h 120 l 70,30 50,40 20,50 30,100 v 70 l -30,90 -20,50 -50,50 -70,20 h -120" />
    <path
       id="path96"
       d="m 11010,11620 h 380" />
    <path
       id="path98"
       d="m 11770,11100 -50,-30 h -70 l -70,30 -50,40 -20,50 -20,100 v 70 l 20,90 20,50 50,50 70,20 h 50 l 70,-20 30,-30 v -160 h -100" />
    <path
       id="path100"
       d="m 12010,11570 v -500 l 290,500 v -500" />
    <path
       id="path102"
       d="m 12530,11570 v -500 h 120 l 70,30 50,40 30,50 20,100 v 70 l -20,90 -30,50 -50,50 -70,20 h -120" />
  </g>
  <g
     transform="translate(-2600,-5790)"
     id="g106"
     style="fill:#008484;fill-opacity:0;stroke:#008484;stroke-width:120;stroke-linecap:round;stroke-linejoin:round;stroke-opacity:1" />
  <g
     transform="translate(-2600,-5790)"
     id="g110"
     style="fill:#840000;fill-opacity:0;stroke:#840000;stroke-width:120;stroke-linecap:round;stroke-linejoin:round;stroke-opacity:1">
    <text
       id="text108"
       opacity="0"
       text-anchor="middle"
       lengthAdjust="spacingAndGlyphs"
       font-size="660px"
       textLength="1530"
       y="11210"
       x="14160">1D1</text>
  </g>
  <g
     transform="translate(-2600,-5790)"
     id="g122"
     style="fill:#840000;fill-opacity:0;stroke:#840000;stroke-width:80;stroke-linecap:round;stroke-linejoin:round;stroke-opacity:1">
    <path
       id="path112"
       d="m 13810,11180 h -290" />
    <path
       id="path114"
       d="m 13670,11180 v -500 l -50,70 -50,50 -50,20" />
    <path
       id="path116"
       d="m 14020,11180 v -500 h 120 l 70,30 50,40 30,50 20,100 v 70 l -20,90 -30,50 -50,50 -70,20 h -120" />
    <path
       id="path118"
       d="m 14790,11180 h -290" />
    <path
       id="path120"
       d="m 14640,11180 v -500 l -40,70 -50,50 -50,20" />
  </g>
  <g
     transform="translate(-2600,-5790)"
     id="g126"
     style="fill:#840000;fill-opacity:0;stroke:#840000;stroke-width:120;stroke-linecap:round;stroke-linejoin:round;stroke-opacity:1">
    <path
       id="path124"
       d="m 13160,8350 h 2000" />
  </g>
  <g
     transform="translate(-2600,-5790)"
     id="g130"
     style="fill:#008484;fill-opacity:0;stroke:#008484;stroke-width:120;stroke-linecap:round;stroke-linejoin:round;stroke-opacity:1">
    <text
       id="text128"
       opacity="0"
       text-anchor="end"
       lengthAdjust="spacingAndGlyphs"
       font-size="660px"
       textLength="1910"
       y="8600"
       x="12960">LED2</text>
  </g>
  <g
     transform="translate(-2600,-5790)"
     id="g142"
     style="fill:#008484;fill-opacity:0;stroke:#008484;stroke-width:80;stroke-linecap:round;stroke-linejoin:round;stroke-opacity:1">
    <path
       id="path132"
       d="m 11440,8570 h -240 v -500" />
    <path
       id="path134"
       d="m 11610,8310 h 160" />
    <path
       id="path136"
       d="m 11840,8570 h -230 v -500 h 230" />
    <path
       id="path138"
       d="m 12060,8570 v -500 h 120 l 70,30 50,40 20,50 20,100 v 70 l -20,90 -20,50 -50,50 -70,20 h -120" />
    <path
       id="path140"
       d="m 12530,8120 30,-20 50,-30 h 110 l 50,30 30,20 20,50 v 40 l -20,80 -290,280 h 310" />
  </g>
  <g
     transform="translate(-2600,-5790)"
     id="g144"
     style="fill:#008484;fill-opacity:0;stroke:#008484;stroke-width:120;stroke-linecap:round;stroke-linejoin:round;stroke-opacity:1" />
  <g
     transform="translate(-2600,-5790)"
     id="g148"
     style="fill:#840000;fill-opacity:0;stroke:#840000;stroke-width:120;stroke-linecap:round;stroke-linejoin:round;stroke-opacity:1">
    <text
       id="text146"
       opacity="0"
       text-anchor="middle"
       lengthAdjust="spacingAndGlyphs"
       font-size="660px"
       textLength="1530"
       y="8210"
       x="14160">2C1</text>
  </g>
  <g
     transform="translate(-2600,-5790)"
     id="g158"
     style="fill:#840000;fill-opacity:0;stroke:#840000;stroke-width:80;stroke-linecap:round;stroke-linejoin:round;stroke-opacity:1">
    <path
       id="path150"
       d="m 13520,7730 30,-20 50,-30 h 110 l 50,30 30,20 20,50 v 40 l -20,80 -290,280 h 310" />
    <path
       id="path152"
       d="m 14310,8130 -20,30 -80,20 h -40 l -70,-20 -50,-50 -30,-50 -20,-90 v -70 l 20,-100 30,-50 50,-40 70,-30 h 40 l 80,30 20,20" />
    <path
       id="path154"
       d="m 14790,8180 h -290" />
    <path
       id="path156"
       d="m 14640,8180 v -500 l -40,70 -50,50 -50,20" />
  </g>
  <g
     transform="translate(-2600,-5790)"
     id="g162"
     style="fill:#840000;fill-opacity:0;stroke:#840000;stroke-width:120;stroke-linecap:round;stroke-linejoin:round;stroke-opacity:1">
    <path
       id="path160"
       d="m 13160,9850 h 2000" />
  </g>
  <g
     transform="translate(-2600,-5790)"
     id="g166"
     style="fill:#008484;fill-opacity:0;stroke:#008484;stroke-width:120;stroke-linecap:round;stroke-linejoin:round;stroke-opacity:1">
    <text
       id="text164"
       opacity="0"
       text-anchor="end"
       lengthAdjust="spacingAndGlyphs"
       font-size="660px"
       textLength="1910"
       y="10100"
       x="12960">LED3</text>
  </g>
  <g
     transform="translate(-2600,-5790)"
     id="g178"
     style="fill:#008484;fill-opacity:0;stroke:#008484;stroke-width:80;stroke-linecap:round;stroke-linejoin:round;stroke-opacity:1">
    <path
       id="path168"
       d="m 11440,10070 h -240 v -500" />
    <path
       id="path170"
       d="m 11610,9810 h 160" />
    <path
       id="path172"
       d="m 11840,10070 h -230 v -500 h 230" />
    <path
       id="path174"
       d="m 12060,10070 v -500 h 120 l 70,30 50,40 20,50 20,100 v 70 l -20,90 -20,50 -50,50 -70,20 h -120" />
    <path
       id="path176"
       d="m 12510,9570 h 310 l -170,190 h 70 l 50,30 30,20 20,50 v 120 l -20,40 -30,30 -50,20 h -140 l -50,-20 -20,-30" />
  </g>
  <g
     transform="translate(-2600,-5790)"
     id="g180"
     style="fill:#008484;fill-opacity:0;stroke:#008484;stroke-width:120;stroke-linecap:round;stroke-linejoin:round;stroke-opacity:1" />
  <g
     transform="translate(-2600,-5790)"
     id="g184"
     style="fill:#840000;fill-opacity:0;stroke:#840000;stroke-width:120;stroke-linecap:round;stroke-linejoin:round;stroke-opacity:1">
    <text
       id="text182"
       opacity="0"
       text-anchor="middle"
       lengthAdjust="spacingAndGlyphs"
       font-size="660px"
       textLength="1530"
       y="9710"
       x="14160">3C1</text>
  </g>
  <g
     transform="translate(-2600,-5790)"
     id="g194"
     style="fill:#840000;fill-opacity:0;stroke:#840000;stroke-width:80;stroke-linecap:round;stroke-linejoin:round;stroke-opacity:1">
    <path
       id="path186"
       d="m 13500,9180 h 310 l -170,190 h 70 l 50,30 30,20 20,50 v 120 l -20,40 -30,30 -50,20 h -140 l -50,-20 -20,-30" />
    <path
       id="path188"
       d="m 14310,9630 -20,30 -80,20 h -40 l -70,-20 -50,-50 -30,-50 -20,-90 v -70 l 20,-100 30,-50 50,-40 70,-30 h 40 l 80,30 20,20" />
    <path
       id="path190"
       d="m 14790,9680 h -290" />
    <path
       id="path192"
       d="m 14640,9680 v -500 l -40,70 -50,50 -50,20" />
  </g>
  <g
     transform="translate(-2600,-5790)"
     id="g196"
     style="fill:#840000;fill-opacity:0;stroke:#840000;stroke-width:120;stroke-linecap:round;stroke-linejoin:round;stroke-opacity:1" />
  <g
     transform="translate(-2600,-5790)"
     id="g198"
     style="fill:#840084;fill-opacity:0;stroke:#840084;stroke-width:120;stroke-linecap:round;stroke-linejoin:round;stroke-opacity:1" />
  <g
     transform="translate(-2600,-5790)"
     id="g200"
     style="fill:#008484;fill-opacity:0;stroke:#008484;stroke-width:120;stroke-linecap:round;stroke-linejoin:round;stroke-opacity:1" />
</svg>
