<?xml version="1.0" encoding="UTF-8" standalone="no"?>
<svg
   xmlns:dc="http://purl.org/dc/elements/1.1/"
   xmlns:cc="http://creativecommons.org/ns#"
   xmlns:rdf="http://www.w3.org/1999/02/22-rdf-syntax-ns#"
   xmlns:svg="http://www.w3.org/2000/svg"
   xmlns="http://www.w3.org/2000/svg"
   xmlns:sodipodi="http://sodipodi.sourceforge.net/DTD/sodipodi-0.dtd"
   xmlns:inkscape="http://www.inkscape.org/namespaces/inkscape"
   inkscape:version="1.0 (4035a4fb49, 2020-05-01)"
   sodipodi:docname="ADM-CS-EVCC_multipart_COMM.svg"
   id="svg548"
   viewBox="0 0 12619.999 10119.999"
   height="2.5704799cm"
   width="3.2054799cm"
   version="1.1">
  <metadata
     id="metadata554">
    <rdf:RDF>
      <cc:Work
         rdf:about="">
        <dc:format>image/svg+xml</dc:format>
        <dc:type
           rdf:resource="http://purl.org/dc/dcmitype/StillImage" />
      </cc:Work>
    </rdf:RDF>
  </metadata>
  <defs
     id="defs552" />
  <sodipodi:namedview
     inkscape:current-layer="svg548"
     inkscape:window-maximized="0"
     inkscape:window-y="0"
     inkscape:window-x="0"
     inkscape:cy="-15.393882"
     inkscape:cx="58.224001"
     inkscape:zoom="5.002354"
     showgrid="false"
     id="namedview550"
     inkscape:window-height="480"
     inkscape:window-width="705"
     inkscape:pageshadow="2"
     inkscape:pageopacity="0"
     guidetolerance="10"
     gridtolerance="10"
     objecttolerance="10"
     borderopacity="1"
     bordercolor="#666666"
     pagecolor="#ffffff" />
  <title
     id="title2">SVG Picture created as ADM-CS-EVCC_multipart_COMM.svg date 2020/09/04 16:20:20 </title>
  <desc
     id="desc4">Picture generated by Eeschema-SVG </desc>
  <g
     transform="translate(-1600,-3790)"
     id="g6"
     style="fill:#000000;fill-opacity:1;stroke:#000000;stroke-linecap:round;stroke-linejoin:round;stroke-opacity:1" />
  <g
     transform="translate(-1600,-3790)"
     id="g8"
     style="fill:#840000;fill-opacity:0;stroke:#840000;stroke-width:-10;stroke-linecap:round;stroke-linejoin:round;stroke-opacity:1" />
  <g
     transform="translate(-1600,-3790)"
     id="g10"
     style="fill:#ffffc2;fill-opacity:0;stroke:#ffffc2;stroke-width:-10;stroke-linecap:round;stroke-linejoin:round;stroke-opacity:1" />
  <g
     transform="translate(-1600,-3790)"
     id="g14"
     style="fill:#ffffc2;fill-opacity:0.6;stroke:#ffffc2;stroke-width:0;stroke-linecap:round;stroke-linejoin:round;stroke-opacity:1">
    <rect
       id="rect12"
       rx="0"
       height="10000"
       width="10500"
       y="3850"
       x="1660" />
  </g>
  <g
     transform="translate(-1600,-3790)"
     id="g16"
     style="fill:#840000;fill-opacity:0.6;stroke:#840000;stroke-width:0;stroke-linecap:round;stroke-linejoin:round;stroke-opacity:1" />
  <g
     transform="translate(-1600,-3790)"
     id="g20"
     style="fill:#840000;fill-opacity:0;stroke:#840000;stroke-width:120;stroke-linecap:round;stroke-linejoin:round;stroke-opacity:1">
    <rect
       id="rect18"
       rx="0"
       height="10000"
       width="10500"
       y="3850"
       x="1660" />
  </g>
  <g
     transform="translate(-1600,-3790)"
     id="g56"
     style="fill:#840000;fill-opacity:0;stroke:#840000;stroke-width:100;stroke-linecap:round;stroke-linejoin:round;stroke-opacity:1">
    <g
       id="g24"
       transform="rotate(-90,2680,8850)">
      <text
         id="text22"
         opacity="0"
         text-anchor="middle"
         lengthAdjust="spacingAndGlyphs"
         font-size="800px"
         textLength="7460"
         y="9150"
         x="2680">COMMUNICATION</text>
    </g>
    <path
       id="path26"
       d="m 2890,12040 30,30 30,90 v 60 l -30,80 -60,50 -60,20 -110,20 -90,-10 -110,-50 -60,-30 -60,-70 -20,-90 v -50 l 20,-90 30,-20" />
    <path
       id="path28"
       d="m 2350,11600 v -110 l 30,-60 50,-50 120,-10 200,20 110,50 60,60 30,60 v 120 l -30,50 -60,50 -110,10 -200,-20 -120,-40 -60,-70 -20,-60" />
    <path
       id="path30"
       d="m 2950,11160 -600,-70 430,-150 -430,-250 600,70" />
    <path
       id="path32"
       d="m 2950,10480 -600,-80 430,-150 -430,-250 600,80" />
    <path
       id="path34"
       d="m 2350,9710 480,70 60,-30 30,-20 30,-50 v -120 l -30,-60 -30,-30 -60,-40 -480,-60" />
    <path
       id="path36"
       d="m 2950,9160 -600,-70 600,-270 -600,-80" />
    <path
       id="path38"
       d="m 2950,8530 -600,-70" />
    <path
       id="path40"
       d="m 2890,7900 30,30 30,90 v 60 l -30,80 -60,50 -60,20 -110,10 -90,-10 -110,-40 -60,-40 -50,-60 -30,-90 v -60 l 30,-80 20,-20" />
    <path
       id="path42"
       d="M 2780,7650 V 7370" />
    <path
       id="path44"
       d="m 2950,7730 -600,-270 600,-130" />
    <path
       id="path46"
       d="M 2350,7140 V 6800" />
    <path
       id="path48"
       d="m 2950,7050 -600,-80" />
    <path
       id="path50"
       d="m 2950,6680 -600,-80" />
    <path
       id="path52"
       d="m 2350,6200 v -110 l 30,-60 50,-50 120,-10 200,20 110,50 60,60 30,60 v 120 l -30,50 -60,50 -110,10 -200,-20 -120,-40 -50,-70 -30,-60" />
    <path
       id="path54"
       d="m 2950,5760 -600,-70 600,-270 -600,-80" />
  </g>
  <g
     transform="translate(-1600,-3790)"
     id="g62"
     style="fill:#840000;fill-opacity:0;stroke:#840000;stroke-width:120;stroke-linecap:round;stroke-linejoin:round;stroke-opacity:1">
    <rect
       id="rect58"
       rx="0"
       height="10000"
       width="10500"
       y="3850"
       x="1660" />
    <path
       id="path60"
       d="m 12160,6850 h 2000" />
  </g>
  <g
     transform="translate(-1600,-3790)"
     id="g66"
     style="fill:#008484;fill-opacity:0;stroke:#008484;stroke-width:120;stroke-linecap:round;stroke-linejoin:round;stroke-opacity:1">
    <text
       id="text64"
       opacity="0"
       text-anchor="end"
       lengthAdjust="spacingAndGlyphs"
       font-size="660px"
       textLength="6200"
       y="7100"
       x="11960">CAN_H_CONTROL</text>
  </g>
  <g
     transform="translate(-1600,-3790)"
     id="g104"
     style="fill:#008484;fill-opacity:0;stroke:#008484;stroke-width:80;stroke-linecap:round;stroke-linejoin:round;stroke-opacity:1">
    <path
       id="path68"
       d="m 6220,7020 -20,30 -70,20 h -50 l -70,-20 -50,-50 -20,-50 -20,-90 v -70 l 20,-100 20,-50 50,-40 70,-30 h 50 l 70,30 20,20" />
    <path
       id="path70"
       d="m 6420,6930 h 230" />
    <path
       id="path72"
       d="m 6370,7070 160,-500 170,500" />
    <path
       id="path74"
       d="m 6870,7070 v -500 l 280,500 v -500" />
    <path
       id="path76"
       d="m 7270,7120 h 380" />
    <path
       id="path78"
       d="M 7770,7070 V 6570" />
    <path
       id="path80"
       d="m 7770,6810 h 290" />
    <path
       id="path82"
       d="M 8060,7070 V 6570" />
    <path
       id="path84"
       d="m 8180,7120 h 380" />
    <path
       id="path86"
       d="m 8960,7020 -20,30 -70,20 h -50 l -70,-20 -50,-50 -20,-50 -30,-90 v -70 l 30,-100 20,-50 50,-40 70,-30 h 50 l 70,30 20,20" />
    <path
       id="path88"
       d="m 9270,6570 h 100 l 50,30 40,40 30,100 v 160 l -30,100 -40,50 -50,20 h -100 l -50,-20 -40,-50 -30,-100 v -160 l 30,-100 40,-40 50,-30" />
    <path
       id="path90"
       d="m 9700,7070 v -500 l 290,500 v -500" />
    <path
       id="path92"
       d="m 10150,6570 h 290" />
    <path
       id="path94"
       d="M 10300,7070 V 6570" />
    <path
       id="path96"
       d="m 10890,7070 -170,-240" />
    <path
       id="path98"
       d="m 10610,7070 v -500 h 190 l 40,30 30,20 20,50 v 70 l -20,50 -30,20 -40,20 h -190" />
    <path
       id="path100"
       d="m 11200,6570 h 100 l 40,30 50,40 30,100 v 160 l -30,100 -50,50 -40,20 h -100 l -50,-20 -40,-50 -30,-100 v -160 l 30,-100 40,-40 50,-30" />
    <path
       id="path102"
       d="m 11870,7070 h -240 v -500" />
  </g>
  <g
     transform="translate(-1600,-3790)"
     id="g106"
     style="fill:#008484;fill-opacity:0;stroke:#008484;stroke-width:120;stroke-linecap:round;stroke-linejoin:round;stroke-opacity:1" />
  <g
     transform="translate(-1600,-3790)"
     id="g110"
     style="fill:#840000;fill-opacity:0;stroke:#840000;stroke-width:120;stroke-linecap:round;stroke-linejoin:round;stroke-opacity:1">
    <text
       id="text108"
       opacity="0"
       text-anchor="middle"
       lengthAdjust="spacingAndGlyphs"
       font-size="660px"
       textLength="1460"
       y="6710"
       x="13160">1A1</text>
  </g>
  <g
     transform="translate(-1600,-3790)"
     id="g124"
     style="fill:#840000;fill-opacity:0;stroke:#840000;stroke-width:80;stroke-linecap:round;stroke-linejoin:round;stroke-opacity:1">
    <path
       id="path112"
       d="m 12850,6680 h -290" />
    <path
       id="path114"
       d="m 12700,6680 v -500 l -40,70 -50,50 -50,20" />
    <path
       id="path116"
       d="m 13040,6540 h 230" />
    <path
       id="path118"
       d="m 12990,6680 170,-500 160,500" />
    <path
       id="path120"
       d="m 13750,6680 h -290" />
    <path
       id="path122"
       d="m 13610,6680 v -500 l -50,70 -50,50 -50,20" />
  </g>
  <g
     transform="translate(-1600,-3790)"
     id="g128"
     style="fill:#840000;fill-opacity:0;stroke:#840000;stroke-width:120;stroke-linecap:round;stroke-linejoin:round;stroke-opacity:1">
    <path
       id="path126"
       d="m 12160,11350 h 2000" />
  </g>
  <g
     transform="translate(-1600,-3790)"
     id="g132"
     style="fill:#008484;fill-opacity:0;stroke:#008484;stroke-width:120;stroke-linecap:round;stroke-linejoin:round;stroke-opacity:1">
    <text
       id="text130"
       opacity="0"
       text-anchor="end"
       lengthAdjust="spacingAndGlyphs"
       font-size="660px"
       textLength="4980"
       y="11600"
       x="11960">UNUSED_GND</text>
  </g>
  <g
     transform="translate(-1600,-3790)"
     id="g156"
     style="fill:#008484;fill-opacity:0;stroke:#008484;stroke-width:80;stroke-linecap:round;stroke-linejoin:round;stroke-opacity:1">
    <path
       id="path134"
       d="m 7130,11070 v 410 l 20,40 30,30 40,20 h 100 l 50,-20 20,-30 30,-40 v -410" />
    <path
       id="path136"
       d="m 7650,11570 v -500 l 290,500 v -500" />
    <path
       id="path138"
       d="m 8180,11070 v 410 l 20,40 20,30 50,20 h 100 l 50,-20 20,-30 20,-40 v -410" />
    <path
       id="path140"
       d="m 8680,11550 70,20 h 120 l 50,-20 20,-30 20,-40 v -50 l -20,-50 -20,-20 -50,-30 -100,-20 -50,-20 -20,-30 -20,-50 v -40 l 20,-50 20,-20 50,-30 h 120 l 70,30" />
    <path
       id="path142"
       d="m 9180,11310 h 160" />
    <path
       id="path144"
       d="m 9420,11570 h -240 v -500 h 240" />
    <path
       id="path146"
       d="m 9630,11570 v -500 h 120 l 70,30 50,40 20,50 30,100 v 70 l -30,90 -20,50 -50,50 -70,20 h -120" />
    <path
       id="path148"
       d="m 10010,11620 h 380" />
    <path
       id="path150"
       d="m 10770,11100 -50,-30 h -70 l -70,30 -50,40 -20,50 -20,100 v 70 l 20,90 20,50 50,50 70,20 h 50 l 70,-20 30,-30 v -160 h -100" />
    <path
       id="path152"
       d="m 11010,11570 v -500 l 290,500 v -500" />
    <path
       id="path154"
       d="m 11530,11570 v -500 h 120 l 70,30 50,40 30,50 20,100 v 70 l -20,90 -30,50 -50,50 -70,20 h -120" />
  </g>
  <g
     transform="translate(-1600,-3790)"
     id="g158"
     style="fill:#008484;fill-opacity:0;stroke:#008484;stroke-width:120;stroke-linecap:round;stroke-linejoin:round;stroke-opacity:1" />
  <g
     transform="translate(-1600,-3790)"
     id="g162"
     style="fill:#840000;fill-opacity:0;stroke:#840000;stroke-width:120;stroke-linecap:round;stroke-linejoin:round;stroke-opacity:1">
    <text
       id="text160"
       opacity="0"
       text-anchor="middle"
       lengthAdjust="spacingAndGlyphs"
       font-size="660px"
       textLength="1530"
       y="11210"
       x="13160">1C2</text>
  </g>
  <g
     transform="translate(-1600,-3790)"
     id="g172"
     style="fill:#840000;fill-opacity:0;stroke:#840000;stroke-width:80;stroke-linecap:round;stroke-linejoin:round;stroke-opacity:1">
    <path
       id="path164"
       d="m 12810,11180 h -290" />
    <path
       id="path166"
       d="m 12670,11180 v -500 l -50,70 -50,50 -50,20" />
    <path
       id="path168"
       d="m 13310,11130 -20,30 -80,20 h -40 l -70,-20 -50,-50 -30,-50 -20,-90 v -70 l 20,-100 30,-50 50,-40 70,-30 h 40 l 80,30 20,20" />
    <path
       id="path170"
       d="m 13500,10730 20,-20 50,-30 h 120 l 50,30 20,20 30,50 v 40 l -30,80 -280,280 h 310" />
  </g>
  <g
     transform="translate(-1600,-3790)"
     id="g176"
     style="fill:#840000;fill-opacity:0;stroke:#840000;stroke-width:120;stroke-linecap:round;stroke-linejoin:round;stroke-opacity:1">
    <path
       id="path174"
       d="m 12160,8350 h 2000" />
  </g>
  <g
     transform="translate(-1600,-3790)"
     id="g180"
     style="fill:#008484;fill-opacity:0;stroke:#008484;stroke-width:120;stroke-linecap:round;stroke-linejoin:round;stroke-opacity:1">
    <text
       id="text178"
       opacity="0"
       text-anchor="end"
       lengthAdjust="spacingAndGlyphs"
       font-size="660px"
       textLength="6060"
       y="8600"
       x="11960">CAN_L_CONTROL</text>
  </g>
  <g
     transform="translate(-1600,-3790)"
     id="g214"
     style="fill:#008484;fill-opacity:0;stroke:#008484;stroke-width:80;stroke-linecap:round;stroke-linejoin:round;stroke-opacity:1">
    <path
       id="path182"
       d="m 6340,8520 -20,30 -70,20 h -50 l -70,-20 -50,-50 -20,-50 -30,-90 v -70 l 30,-100 20,-50 50,-40 70,-30 h 50 l 70,30 20,20" />
    <path
       id="path184"
       d="m 6530,8430 h 240" />
    <path
       id="path186"
       d="m 6490,8570 160,-500 170,500" />
    <path
       id="path188"
       d="m 6990,8570 v -500 l 280,500 v -500" />
    <path
       id="path190"
       d="m 7390,8620 h 380" />
    <path
       id="path192"
       d="M 8130,8570 H 7890 V 8070" />
    <path
       id="path194"
       d="m 8180,8620 h 380" />
    <path
       id="path196"
       d="m 8960,8520 -20,30 -70,20 h -50 l -70,-20 -50,-50 -20,-50 -30,-90 v -70 l 30,-100 20,-50 50,-40 70,-30 h 50 l 70,30 20,20" />
    <path
       id="path198"
       d="m 9270,8070 h 100 l 50,30 40,40 30,100 v 160 l -30,100 -40,50 -50,20 h -100 l -50,-20 -40,-50 -30,-100 v -160 l 30,-100 40,-40 50,-30" />
    <path
       id="path200"
       d="m 9700,8570 v -500 l 290,500 v -500" />
    <path
       id="path202"
       d="m 10150,8070 h 290" />
    <path
       id="path204"
       d="M 10300,8570 V 8070" />
    <path
       id="path206"
       d="m 10890,8570 -170,-240" />
    <path
       id="path208"
       d="m 10610,8570 v -500 h 190 l 40,30 30,20 20,50 v 70 l -20,50 -30,20 -40,20 h -190" />
    <path
       id="path210"
       d="m 11200,8070 h 100 l 40,30 50,40 30,100 v 160 l -30,100 -50,50 -40,20 h -100 l -50,-20 -40,-50 -30,-100 v -160 l 30,-100 40,-40 50,-30" />
    <path
       id="path212"
       d="m 11870,8570 h -240 v -500" />
  </g>
  <g
     transform="translate(-1600,-3790)"
     id="g216"
     style="fill:#008484;fill-opacity:0;stroke:#008484;stroke-width:120;stroke-linecap:round;stroke-linejoin:round;stroke-opacity:1" />
  <g
     transform="translate(-1600,-3790)"
     id="g220"
     style="fill:#840000;fill-opacity:0;stroke:#840000;stroke-width:120;stroke-linecap:round;stroke-linejoin:round;stroke-opacity:1">
    <text
       id="text218"
       opacity="0"
       text-anchor="middle"
       lengthAdjust="spacingAndGlyphs"
       font-size="660px"
       textLength="1460"
       y="8210"
       x="13160">2A1</text>
  </g>
  <g
     transform="translate(-1600,-3790)"
     id="g232"
     style="fill:#840000;fill-opacity:0;stroke:#840000;stroke-width:80;stroke-linecap:round;stroke-linejoin:round;stroke-opacity:1">
    <path
       id="path222"
       d="m 12560,7730 20,-20 50,-30 h 120 l 50,30 20,20 30,50 v 40 l -30,80 -280,280 h 310" />
    <path
       id="path224"
       d="m 13040,8040 h 230" />
    <path
       id="path226"
       d="m 12990,8180 170,-500 160,500" />
    <path
       id="path228"
       d="m 13750,8180 h -290" />
    <path
       id="path230"
       d="m 13610,8180 v -500 l -50,70 -50,50 -50,20" />
  </g>
  <g
     transform="translate(-1600,-3790)"
     id="g236"
     style="fill:#840000;fill-opacity:0;stroke:#840000;stroke-width:120;stroke-linecap:round;stroke-linejoin:round;stroke-opacity:1">
    <path
       id="path234"
       d="m 12160,9850 h 2000" />
  </g>
  <g
     transform="translate(-1600,-3790)"
     id="g240"
     style="fill:#008484;fill-opacity:0;stroke:#008484;stroke-width:120;stroke-linecap:round;stroke-linejoin:round;stroke-opacity:1">
    <text
       id="text238"
       opacity="0"
       text-anchor="end"
       lengthAdjust="spacingAndGlyphs"
       font-size="660px"
       textLength="7180"
       y="10100"
       x="11960">CAN_CONTROL_GND</text>
  </g>
  <g
     transform="translate(-1600,-3790)"
     id="g278"
     style="fill:#008484;fill-opacity:0;stroke:#008484;stroke-width:80;stroke-linecap:round;stroke-linejoin:round;stroke-opacity:1">
    <path
       id="path242"
       d="m 5220,10020 -20,30 -70,20 h -50 l -70,-20 -50,-50 -20,-50 -20,-90 v -70 l 20,-100 20,-50 50,-40 70,-30 h 50 l 70,30 20,20" />
    <path
       id="path244"
       d="m 5420,9930 h 230" />
    <path
       id="path246"
       d="m 5370,10070 160,-500 170,500" />
    <path
       id="path248"
       d="m 5870,10070 v -500 l 280,500 v -500" />
    <path
       id="path250"
       d="m 6270,10120 h 380" />
    <path
       id="path252"
       d="m 7060,10020 -30,30 -70,20 h -40 l -80,-20 -40,-50 -30,-50 -20,-90 v -70 l 20,-100 30,-50 40,-40 80,-30 h 40 l 70,30 30,20" />
    <path
       id="path254"
       d="m 7370,9570 h 90 l 50,30 50,40 20,100 v 160 l -20,100 -50,50 -50,20 h -90 l -50,-20 -50,-50 -20,-100 v -160 l 20,-100 50,-40 50,-30" />
    <path
       id="path256"
       d="m 7800,10070 v -500 l 280,500 v -500" />
    <path
       id="path258"
       d="m 8250,9570 h 280" />
    <path
       id="path260"
       d="M 8390,10070 V 9570" />
    <path
       id="path262"
       d="M 8990,10070 8820,9830" />
    <path
       id="path264"
       d="m 8700,10070 v -500 h 190 l 50,30 20,20 30,50 v 70 l -30,50 -20,20 -50,20 h -190" />
    <path
       id="path266"
       d="m 9300,9570 h 90 l 50,30 50,40 20,100 v 160 l -20,100 -50,50 -50,20 h -90 l -50,-20 -50,-50 -20,-100 v -160 l 20,-100 50,-40 50,-30" />
    <path
       id="path268"
       d="M 9960,10070 H 9720 V 9570" />
    <path
       id="path270"
       d="m 10010,10120 h 380" />
    <path
       id="path272"
       d="m 10770,9600 -50,-30 h -70 l -70,30 -50,40 -20,50 -20,100 v 70 l 20,90 20,50 50,50 70,20 h 50 l 70,-20 30,-30 v -160 h -100" />
    <path
       id="path274"
       d="m 11010,10070 v -500 l 290,500 v -500" />
    <path
       id="path276"
       d="m 11530,10070 v -500 h 120 l 70,30 50,40 30,50 20,100 v 70 l -20,90 -30,50 -50,50 -70,20 h -120" />
  </g>
  <g
     transform="translate(-1600,-3790)"
     id="g280"
     style="fill:#008484;fill-opacity:0;stroke:#008484;stroke-width:120;stroke-linecap:round;stroke-linejoin:round;stroke-opacity:1" />
  <g
     transform="translate(-1600,-3790)"
     id="g284"
     style="fill:#840000;fill-opacity:0;stroke:#840000;stroke-width:120;stroke-linecap:round;stroke-linejoin:round;stroke-opacity:1">
    <text
       id="text282"
       opacity="0"
       text-anchor="middle"
       lengthAdjust="spacingAndGlyphs"
       font-size="660px"
       textLength="1460"
       y="9710"
       x="13160">3A1</text>
  </g>
  <g
     transform="translate(-1600,-3790)"
     id="g296"
     style="fill:#840000;fill-opacity:0;stroke:#840000;stroke-width:80;stroke-linecap:round;stroke-linejoin:round;stroke-opacity:1">
    <path
       id="path286"
       d="m 12540,9180 h 310 l -170,190 h 70 l 50,30 20,20 30,50 v 120 l -30,40 -20,30 -50,20 h -140 l -50,-20 -20,-30" />
    <path
       id="path288"
       d="m 13040,9540 h 230" />
    <path
       id="path290"
       d="m 12990,9680 170,-500 160,500" />
    <path
       id="path292"
       d="m 13750,9680 h -290" />
    <path
       id="path294"
       d="m 13610,9680 v -500 l -50,70 -50,50 -50,20" />
  </g>
  <g
     transform="translate(-1600,-3790)"
     id="g300"
     style="fill:#840000;fill-opacity:0;stroke:#840000;stroke-width:120;stroke-linecap:round;stroke-linejoin:round;stroke-opacity:1">
    <path
       id="path298"
       d="m 12160,4850 h 2000" />
  </g>
  <g
     transform="translate(-1600,-3790)"
     id="g304"
     style="fill:#008484;fill-opacity:0;stroke:#008484;stroke-width:120;stroke-linecap:round;stroke-linejoin:round;stroke-opacity:1">
    <text
       id="text302"
       opacity="0"
       text-anchor="end"
       lengthAdjust="spacingAndGlyphs"
       font-size="660px"
       textLength="5250"
       y="5100"
       x="11960">CHARGE_STOP</text>
  </g>
  <g
     transform="translate(-1600,-3790)"
     id="g340"
     style="fill:#008484;fill-opacity:0;stroke:#008484;stroke-width:80;stroke-linecap:round;stroke-linejoin:round;stroke-opacity:1">
    <path
       id="path306"
       d="m 7150,5020 -20,30 -70,20 h -50 l -70,-20 -50,-50 -20,-50 -30,-90 v -70 l 30,-100 20,-50 50,-40 70,-30 h 50 l 70,30 20,20" />
    <path
       id="path308"
       d="M 7370,5070 V 4570" />
    <path
       id="path310"
       d="m 7370,4810 h 280" />
    <path
       id="path312"
       d="M 7650,5070 V 4570" />
    <path
       id="path314"
       d="m 7870,4930 h 240" />
    <path
       id="path316"
       d="m 7820,5070 170,-500 160,500" />
    <path
       id="path318"
       d="M 8610,5070 8440,4830" />
    <path
       id="path320"
       d="m 8320,5070 v -500 h 190 l 50,30 20,20 30,50 v 70 l -30,50 -20,20 -50,20 h -190" />
    <path
       id="path322"
       d="m 9080,4600 -50,-30 h -70 l -70,30 -50,40 -20,50 -20,100 v 70 l 20,90 20,50 50,50 70,20 h 50 l 70,-20 30,-30 v -160 h -100" />
    <path
       id="path324"
       d="m 9320,4810 h 170" />
    <path
       id="path326"
       d="m 9560,5070 h -240 v -500 h 240" />
    <path
       id="path328"
       d="m 9650,5120 h 380" />
    <path
       id="path330"
       d="m 10130,5050 70,20 h 120 l 50,-20 20,-30 30,-40 v -50 l -30,-50 -20,-20 -50,-30 -100,-20 -40,-20 -30,-30 -20,-50 v -40 l 20,-50 30,-20 40,-30 h 120 l 80,30" />
    <path
       id="path332"
       d="m 10560,4570 h 280" />
    <path
       id="path334"
       d="M 10700,5070 V 4570" />
    <path
       id="path336"
       d="m 11110,4570 h 90 l 50,30 50,40 20,100 v 160 l -20,100 -50,50 -50,20 h -90 l -50,-20 -50,-50 -20,-100 v -160 l 20,-100 50,-40 50,-30" />
    <path
       id="path338"
       d="m 11530,5070 v -500 h 190 l 50,30 30,20 20,50 v 70 l -20,50 -30,20 -50,20 h -190" />
  </g>
  <g
     transform="translate(-1600,-3790)"
     id="g342"
     style="fill:#008484;fill-opacity:0;stroke:#008484;stroke-width:120;stroke-linecap:round;stroke-linejoin:round;stroke-opacity:1" />
  <g
     transform="translate(-1600,-3790)"
     id="g346"
     style="fill:#840000;fill-opacity:0;stroke:#840000;stroke-width:120;stroke-linecap:round;stroke-linejoin:round;stroke-opacity:1">
    <text
       id="text344"
       opacity="0"
       text-anchor="middle"
       lengthAdjust="spacingAndGlyphs"
       font-size="660px"
       textLength="1460"
       y="4710"
       x="13160">3F2</text>
  </g>
  <g
     transform="translate(-1600,-3790)"
     id="g356"
     style="fill:#840000;fill-opacity:0;stroke:#840000;stroke-width:80;stroke-linecap:round;stroke-linejoin:round;stroke-opacity:1">
    <path
       id="path348"
       d="m 12540,4180 h 310 l -170,190 h 70 l 50,30 20,20 30,50 v 120 l -30,40 -20,30 -50,20 h -140 l -50,-20 -20,-30" />
    <path
       id="path350"
       d="m 13230,4420 h -170" />
    <path
       id="path352"
       d="m 13060,4680 v -500 h 240" />
    <path
       id="path354"
       d="m 13460,4230 30,-20 50,-30 h 120 l 40,30 30,20 20,50 v 40 l -20,80 -290,280 h 310" />
  </g>
  <g
     transform="translate(-1600,-3790)"
     id="g360"
     style="fill:#840000;fill-opacity:0;stroke:#840000;stroke-width:120;stroke-linecap:round;stroke-linejoin:round;stroke-opacity:1">
    <path
       id="path358"
       d="m 12160,12850 h 2000" />
  </g>
  <g
     transform="translate(-1600,-3790)"
     id="g364"
     style="fill:#008484;fill-opacity:0;stroke:#008484;stroke-width:120;stroke-linecap:round;stroke-linejoin:round;stroke-opacity:1">
    <text
       id="text362"
       opacity="0"
       text-anchor="end"
       lengthAdjust="spacingAndGlyphs"
       font-size="660px"
       textLength="5960"
       y="13100"
       x="11960">ETHERNET_RJ45</text>
  </g>
  <g
     transform="translate(-1600,-3790)"
     id="g412"
     style="fill:#008484;fill-opacity:0;stroke:#008484;stroke-width:80;stroke-linecap:round;stroke-linejoin:round;stroke-opacity:1">
    <path
       id="path366"
       d="m 6150,12810 h 170" />
    <path
       id="path368"
       d="m 6390,13070 h -240 v -500 h 240" />
    <path
       id="path370"
       d="m 6530,12570 h 290" />
    <path
       id="path372"
       d="m 6680,13070 v -500" />
    <path
       id="path374"
       d="m 6990,13070 v -500" />
    <path
       id="path376"
       d="m 6990,12810 h 280" />
    <path
       id="path378"
       d="m 7270,13070 v -500" />
    <path
       id="path380"
       d="m 7510,12810 h 170" />
    <path
       id="path382"
       d="m 7750,13070 h -240 v -500 h 240" />
    <path
       id="path384"
       d="m 8250,13070 -170,-240" />
    <path
       id="path386"
       d="m 7960,13070 v -500 h 190 l 50,30 20,20 30,50 v 70 l -30,50 -20,20 -50,20 h -190" />
    <path
       id="path388"
       d="m 8460,13070 v -500 l 290,500 v -500" />
    <path
       id="path390"
       d="m 8990,12810 h 160" />
    <path
       id="path392"
       d="m 9220,13070 h -230 v -500 h 230" />
    <path
       id="path394"
       d="m 9370,12570 h 280" />
    <path
       id="path396"
       d="m 9510,13070 v -500" />
    <path
       id="path398"
       d="m 9700,13120 h 380" />
    <path
       id="path400"
       d="m 10490,13070 -170,-240" />
    <path
       id="path402"
       d="m 10200,13070 v -500 h 190 l 50,30 20,20 30,50 v 70 l -30,50 -20,20 -50,20 h -190" />
    <path
       id="path404"
       d="m 10840,12570 v 360 l -20,70 -50,50 -70,20 h -50" />
    <path
       id="path406"
       d="m 11300,12740 v 330" />
    <path
       id="path408"
       d="m 11180,12550 -120,350 h 310" />
    <path
       id="path410"
       d="m 11800,12570 h -240 l -30,240 30,-20 50,-30 h 110 l 50,30 30,20 20,50 v 120 l -20,40 -30,30 -50,20 h -110 l -50,-20 -30,-30" />
  </g>
  <g
     transform="translate(-1600,-3790)"
     id="g414"
     style="fill:#008484;fill-opacity:0;stroke:#008484;stroke-width:120;stroke-linecap:round;stroke-linejoin:round;stroke-opacity:1" />
  <g
     transform="translate(-1600,-3790)"
     id="g418"
     style="fill:#840000;fill-opacity:0;stroke:#840000;stroke-width:120;stroke-linecap:round;stroke-linejoin:round;stroke-opacity:1">
    <text
       id="text416"
       opacity="0"
       text-anchor="middle"
       lengthAdjust="spacingAndGlyphs"
       font-size="660px"
       textLength="1440"
       y="12710"
       x="13160">ETH</text>
  </g>
  <g
     transform="translate(-1600,-3790)"
     id="g434"
     style="fill:#840000;fill-opacity:0;stroke:#840000;stroke-width:80;stroke-linecap:round;stroke-linejoin:round;stroke-opacity:1">
    <path
       id="path420"
       d="m 12600,12420 h 160" />
    <path
       id="path422"
       d="m 12830,12680 h -230 v -500 h 230" />
    <path
       id="path424"
       d="m 12980,12180 h 280" />
    <path
       id="path426"
       d="m 13120,12680 v -500" />
    <path
       id="path428"
       d="m 13430,12680 v -500" />
    <path
       id="path430"
       d="m 13430,12420 h 280" />
    <path
       id="path432"
       d="m 13710,12680 v -500" />
  </g>
  <g
     transform="translate(-1600,-3790)"
     id="g436"
     style="fill:#840000;fill-opacity:0;stroke:#840000;stroke-width:120;stroke-linecap:round;stroke-linejoin:round;stroke-opacity:1" />
  <g
     transform="translate(-1600,-3790)"
     id="g438"
     style="fill:#840084;fill-opacity:0;stroke:#840084;stroke-width:120;stroke-linecap:round;stroke-linejoin:round;stroke-opacity:1" />
  <g
     transform="translate(-1600,-3790)"
     id="g440"
     style="fill:#008484;fill-opacity:0;stroke:#008484;stroke-width:120;stroke-linecap:round;stroke-linejoin:round;stroke-opacity:1" />
</svg>
