<?xml version="1.0" standalone="no"?>
<!DOCTYPE svg PUBLIC "-//W3C//DTD SVG 20010904//EN"
 "http://www.w3.org/TR/2001/REC-SVG-20010904/DTD/svg10.dtd">
<svg version="1.0" xmlns="http://www.w3.org/2000/svg"
 width="1305.000000pt" height="137.000000pt" viewBox="0 0 1305.000000 137.000000"
 preserveAspectRatio="xMidYMid meet">

<g transform="translate(0.000000,137.000000) scale(0.100000,-0.100000)"
fill="#000000" stroke="none">
<path d="M30 695 c0 -564 2 -645 15 -645 13 0 15 43 17 308 l3 307 2090 0
2090 0 5 -310 5 -310 3 313 2 312 273 -2 272 -3 5 -310 5 -310 3 313 2 312
1860 0 1860 0 2 -312 3 -313 5 310 5 310 1523 3 1522 2 0 -310 c0 -200 4 -310
10 -310 6 0 10 110 10 310 l0 310 690 0 690 0 0 -310 c0 -200 4 -310 10 -310
7 0 10 222 10 645 l0 645 -6495 0 -6495 0 0 -645z m480 295 l0 -310 -225 0
-225 0 0 310 0 310 225 0 225 0 0 -310z m460 0 l0 -310 -225 0 -225 0 0 310 0
310 225 0 225 0 0 -310z m470 0 l0 -310 -225 0 -225 0 0 310 0 310 225 0 225
0 0 -310z m470 0 l0 -310 -230 0 -230 0 0 310 0 310 230 0 230 0 0 -310z m470
0 l0 -310 -230 0 -230 0 0 310 0 310 230 0 230 0 0 -310z m470 0 l0 -310 -230
0 -230 0 0 310 0 310 230 0 230 0 0 -310z m460 0 l0 -310 -225 0 -225 0 0 310
0 310 225 0 225 0 0 -310z m470 0 l0 -310 -225 0 -225 0 0 310 0 310 225 0
225 0 0 -310z m470 0 l0 -310 -230 0 -230 0 0 310 0 310 230 0 230 0 0 -310z
m560 0 l0 -310 -275 0 -275 0 0 310 0 310 275 0 275 0 0 -310z m460 0 l0 -310
-225 0 -225 0 0 310 0 310 225 0 225 0 0 -310z m470 0 l0 -310 -225 0 -225 0
0 310 0 310 225 0 225 0 0 -310z m470 0 l0 -310 -230 0 -230 0 0 310 0 310
230 0 230 0 0 -310z m470 0 l0 -310 -230 0 -230 0 0 310 0 310 230 0 230 0 0
-310z m460 0 l0 -310 -225 0 -225 0 0 310 0 310 225 0 225 0 0 -310z m470 0
l0 -310 -230 0 -230 0 0 310 0 310 230 0 230 0 0 -310z m460 0 l0 -310 -225 0
-225 0 0 310 0 310 225 0 225 0 0 -310z m470 0 l0 -310 -225 0 -225 0 0 310 0
310 225 0 225 0 0 -310z m470 0 l0 -310 -230 0 -230 0 0 310 0 310 230 0 230
0 0 -310z m370 0 l0 -310 -180 0 -180 0 0 310 0 310 180 0 180 0 0 -310z m370
0 l0 -310 -180 0 -180 0 0 310 0 310 180 0 180 0 0 -310z m370 0 l0 -310 -180
0 -180 0 0 310 0 310 180 0 180 0 0 -310z m370 0 l0 -310 -180 0 -180 0 0 310
0 310 180 0 180 0 0 -310z m370 0 l0 -310 -180 0 -180 0 0 310 0 310 180 0
180 0 0 -310z m370 0 l0 -310 -175 0 -175 0 0 310 0 310 175 0 175 0 0 -310z
m370 0 l0 -310 -175 0 -175 0 0 310 0 310 175 0 175 0 0 -310z m530 0 l0 -310
-255 0 -255 0 0 310 0 310 255 0 255 0 0 -310z m370 0 l0 -310 -180 0 -180 0
0 310 0 310 180 0 180 0 0 -310z m490 0 l0 -310 -240 0 -240 0 0 310 0 310
240 0 240 0 0 -310z"/>
<path d="M196 1031 c-4 -7 -5 -15 -2 -18 9 -9 19 4 14 18 -4 11 -6 11 -12 0z"/>
<path d="M244 1010 c-1 -16 3 -27 7 -24 11 6 12 54 2 54 -5 0 -8 -13 -9 -30z"/>
<path d="M346 1027 c3 -10 9 -15 12 -12 3 3 0 11 -7 18 -10 9 -11 8 -5 -6z"/>
<path d="M290 1015 c0 -8 14 -23 31 -35 18 -14 28 -28 25 -37 -3 -8 -1 -11 4
-8 18 11 11 28 -25 61 -19 17 -35 26 -35 19z"/>
<path d="M292 950 c0 -14 2 -19 5 -12 2 6 2 18 0 25 -3 6 -5 1 -5 -13z"/>
<path d="M190 928 c0 -4 16 -8 35 -8 46 0 46 15 0 16 -19 0 -35 -3 -35 -8z"/>
<path d="M765 1040 c-3 -5 7 -8 25 -7 16 1 30 5 30 10 0 11 -48 9 -55 -3z"/>
<path d="M666 1031 c-4 -7 -5 -15 -2 -18 9 -9 19 4 14 18 -4 11 -6 11 -12 0z"/>
<path d="M715 1016 c0 -13 3 -22 8 -19 4 2 7 13 7 24 0 10 -3 19 -7 19 -5 0
-8 -11 -8 -24z"/>
<path d="M786 975 c-3 -9 -6 -26 -5 -38 1 -16 4 -12 10 12 10 34 6 55 -5 26z"/>
<path d="M660 928 c0 -4 16 -8 35 -8 46 0 46 15 0 16 -19 0 -35 -3 -35 -8z"/>
<path d="M1276 1037 c3 -10 9 -15 12 -12 3 3 0 11 -7 18 -10 9 -11 8 -5 -6z"/>
<path d="M1137 1033 c-10 -9 -9 -23 1 -23 5 0 9 7 9 15 0 17 -1 18 -10 8z"/>
<path d="M1185 1015 c0 -13 3 -21 8 -18 4 2 7 10 7 18 0 8 -3 16 -7 18 -5 3
-8 -5 -8 -18z"/>
<path d="M1230 1021 c-11 -22 -13 -52 -4 -75 12 -31 19 -16 19 39 0 30 -1 55
-2 55 -1 0 -7 -9 -13 -19z"/>
<path d="M1278 983 c7 -12 9 -29 5 -39 -4 -12 -3 -15 5 -10 17 10 15 41 -5 57
-15 13 -15 12 -5 -8z"/>
<path d="M1130 928 c0 -5 13 -8 29 -8 17 0 32 3 34 8 3 4 -10 7 -29 7 -19 0
-34 -3 -34 -7z"/>
<path d="M1705 1040 c-4 -7 3 -8 22 -4 38 9 42 14 10 14 -14 0 -29 -5 -32 -10z"/>
<path d="M1650 1015 c0 -15 4 -24 10 -20 6 3 10 12 10 20 0 8 -4 17 -10 20 -6
4 -10 -5 -10 -20z"/>
<path d="M1739 991 c9 -6 12 -20 9 -40 -5 -36 -3 -39 12 -11 12 23 -2 60 -23
60 -8 0 -8 -3 2 -9z"/>
<path d="M1695 940 c3 -5 8 -10 11 -10 2 0 4 5 4 10 0 6 -5 10 -11 10 -5 0 -7
-4 -4 -10z"/>
<path d="M1600 928 c0 -5 14 -8 30 -8 17 0 30 3 30 8 0 4 -13 7 -30 7 -16 0
-30 -3 -30 -7z"/>
<path d="M2199 1029 c-8 -17 -8 -20 1 -14 9 6 11 -6 9 -44 -2 -28 -1 -51 4
-51 4 0 7 29 7 65 0 36 -2 65 -5 65 -2 0 -9 -10 -16 -21z"/>
<path d="M2118 1011 c-5 -36 -3 -38 11 -13 5 10 6 24 2 31 -6 9 -10 3 -13 -18z"/>
<path d="M2070 928 c0 -5 14 -8 30 -8 17 0 30 3 30 8 0 4 -13 7 -30 7 -16 0
-30 -3 -30 -7z"/>
<path d="M2541 1024 c0 -11 3 -14 6 -6 3 7 2 16 -1 19 -3 4 -6 -2 -5 -13z"/>
<path d="M2589 1012 c-3 -20 -2 -29 4 -23 5 5 7 19 5 32 -3 20 -5 19 -9 -9z"/>
<path d="M2635 1031 c-3 -5 -1 -12 5 -16 5 -3 10 1 10 9 0 18 -6 21 -15 7z"/>
<path d="M2682 1029 c3 -8 1 -23 -4 -34 -9 -20 -9 -20 6 -1 19 23 20 32 5 42
-7 4 -10 1 -7 -7z"/>
<path d="M2692 955 c0 -16 2 -22 5 -12 2 9 2 23 0 30 -3 6 -5 -1 -5 -18z"/>
<path d="M2630 940 c0 -5 5 -10 10 -10 6 0 10 5 10 10 0 6 -4 10 -10 10 -5 0
-10 -4 -10 -10z"/>
<path d="M2540 928 c0 -5 14 -8 30 -8 17 0 30 3 30 8 0 4 -13 7 -30 7 -16 0
-30 -3 -30 -7z"/>
<path d="M3011 1024 c0 -11 3 -14 6 -6 3 7 2 16 -1 19 -3 4 -6 -2 -5 -13z"/>
<path d="M3059 1012 c-3 -20 -2 -29 4 -23 5 5 7 19 5 32 -3 20 -5 19 -9 -9z"/>
<path d="M3097 1033 c-10 -9 -9 -23 1 -23 5 0 9 7 9 15 0 17 -1 18 -10 8z"/>
<path d="M3145 1016 c0 -13 3 -22 8 -19 4 2 7 13 7 24 0 10 -3 19 -7 19 -5 0
-8 -11 -8 -24z"/>
<path d="M3003 928 c-2 -5 12 -8 31 -8 20 0 36 3 36 8 0 4 -14 7 -31 7 -17 0
-33 -3 -36 -7z"/>
<path d="M3090 928 c0 -5 16 -8 35 -8 19 0 35 3 35 8 0 4 -16 7 -35 7 -19 0
-35 -3 -35 -7z"/>
<path d="M3476 1031 c-4 -7 -5 -15 -2 -18 9 -9 19 4 14 18 -4 11 -6 11 -12 0z"/>
<path d="M3529 1012 c-3 -20 -2 -29 4 -23 5 5 7 19 5 32 -3 20 -5 19 -9 -9z"/>
<path d="M3588 980 c2 -33 7 -60 10 -60 4 0 5 27 4 60 -2 33 -7 60 -10 60 -4
0 -5 -27 -4 -60z"/>
<path d="M3470 928 c0 -4 16 -8 35 -8 46 0 46 15 0 16 -19 0 -35 -3 -35 -8z"/>
<path d="M3936 1031 c-4 -7 -5 -15 -2 -18 9 -9 19 4 14 18 -4 11 -6 11 -12 0z"/>
<path d="M3984 1010 c-1 -16 3 -27 7 -24 11 6 12 54 2 54 -5 0 -8 -13 -9 -30z"/>
<path d="M4037 1033 c-9 -9 -9 -91 1 -96 4 -3 7 19 7 49 0 30 0 54 -1 54 0 0
-4 -3 -7 -7z"/>
<path d="M4084 985 c0 -30 4 -49 8 -42 4 7 8 26 8 42 0 17 -4 35 -8 42 -4 7
-8 -12 -8 -42z"/>
<path d="M3930 928 c0 -4 16 -8 35 -8 46 0 46 15 0 16 -19 0 -35 -3 -35 -8z"/>
<path d="M4428 980 c2 -33 8 -60 14 -60 6 0 7 7 4 16 -3 9 -6 36 -6 60 0 24
-3 44 -7 44 -5 0 -6 -27 -5 -60z"/>
<path d="M4496 1024 c-5 -13 8 -54 17 -54 2 0 1 16 -1 35 -5 39 -7 42 -16 19z"/>
<path d="M4549 986 c-3 -47 -2 -54 9 -39 14 20 16 62 3 82 -6 9 -10 -5 -12
-43z"/>
<path d="M4995 980 c0 -33 3 -60 8 -60 4 0 7 27 7 60 0 33 -3 60 -7 60 -5 0
-8 -27 -8 -60z"/>
<path d="M5065 1030 c-3 -5 -1 -18 5 -29 7 -13 7 -22 0 -26 -5 -3 -10 -16 -9
-28 1 -20 2 -20 8 3 6 23 12 26 41 22 6 -1 10 -12 10 -24 0 -12 3 -19 6 -15
13 12 -6 52 -28 62 -13 6 -22 18 -22 28 2 19 -2 22 -11 7z"/>
<path d="M5122 1020 c0 -14 2 -19 5 -12 2 6 2 18 0 25 -3 6 -5 1 -5 -13z"/>
<path d="M5530 1042 c0 -5 14 -9 30 -9 17 0 30 4 30 9 0 4 -13 8 -30 8 -16 0
-30 -4 -30 -8z"/>
<path d="M5460 980 c0 -33 4 -60 10 -60 6 0 10 27 10 60 0 33 -4 60 -10 60 -6
0 -10 -27 -10 -60z"/>
<path d="M5549 963 c-6 -16 -6 -30 -1 -35 6 -6 11 4 14 26 5 43 1 46 -13 9z"/>
<path d="M5920 980 c0 -33 4 -60 10 -60 6 0 10 27 10 60 0 33 -4 60 -10 60 -6
0 -10 -27 -10 -60z"/>
<path d="M5997 1023 c-10 -9 -9 -81 1 -87 4 -2 8 18 7 45 0 27 0 49 -1 49 0 0
-4 -3 -7 -7z"/>
<path d="M6036 989 c7 -8 14 -23 17 -34 4 -13 5 -9 4 9 -1 16 -9 32 -17 34
-12 4 -13 2 -4 -9z"/>
<path d="M6470 1041 c0 -4 11 -6 25 -3 14 2 25 6 25 8 0 2 -11 4 -25 4 -14 0
-25 -4 -25 -9z"/>
<path d="M6390 980 c0 -33 4 -60 10 -60 6 0 10 27 10 60 0 33 -4 60 -10 60 -6
0 -10 -27 -10 -60z"/>
<path d="M6508 983 c7 -12 9 -29 5 -39 -4 -12 -3 -15 5 -10 17 10 15 41 -5 57
-15 13 -15 12 -5 -8z"/>
<path d="M6971 988 c0 -38 2 -68 7 -68 4 0 6 21 4 48 -5 82 -9 89 -11 20z"/>
<path d="M6858 980 c2 -33 8 -60 14 -60 6 0 7 7 4 16 -3 9 -6 36 -6 60 0 24
-3 44 -7 44 -5 0 -6 -27 -5 -60z"/>
<path d="M7442 1030 c9 -14 9 -22 -3 -37 -13 -16 -13 -17 4 -4 21 16 22 47 2
55 -12 4 -13 2 -3 -14z"/>
<path d="M7328 980 c2 -33 7 -60 10 -60 4 0 5 27 4 60 -2 33 -7 60 -10 60 -4
0 -5 -27 -4 -60z"/>
<path d="M7450 956 c0 -22 3 -27 11 -19 8 8 8 16 0 30 -9 16 -10 14 -11 -11z"/>
<path d="M7785 980 c0 -33 4 -60 10 -60 6 0 9 24 7 60 -5 78 -17 78 -17 0z"/>
<path d="M7861 1024 c0 -11 3 -14 6 -6 3 7 2 16 -1 19 -3 4 -6 -2 -5 -13z"/>
<path d="M7909 1012 c-3 -20 -2 -29 4 -23 5 5 7 19 5 32 -3 20 -5 19 -9 -9z"/>
<path d="M7853 928 c-2 -5 12 -8 31 -8 20 0 36 3 36 8 0 4 -14 7 -31 7 -17 0
-33 -3 -36 -7z"/>
<path d="M8255 980 c0 -33 4 -60 10 -60 6 0 9 24 7 60 -5 78 -17 78 -17 0z"/>
<path d="M8806 1034 c-20 -19 -21 -74 -1 -100 13 -17 13 -16 4 17 -6 25 -6 46
1 64 16 43 35 25 35 -34 0 -44 2 -49 13 -34 16 23 15 54 -4 81 -18 26 -27 27
-48 6z"/>
<path d="M8725 980 c0 -33 3 -60 8 -60 4 0 7 27 7 60 0 33 -3 60 -7 60 -5 0
-8 -27 -8 -60z"/>
<path d="M9163 1024 c-3 -8 -1 -25 5 -37 8 -19 10 -17 9 16 -1 40 -4 46 -14
21z"/>
<path d="M9219 986 c-3 -47 -2 -54 9 -39 14 20 16 62 3 82 -6 9 -10 -5 -12
-43z"/>
<path d="M9596 1027 c3 -10 9 -15 12 -12 3 3 0 11 -7 18 -10 9 -11 8 -5 -6z"/>
<path d="M9540 1015 c0 -8 14 -23 31 -35 18 -14 28 -28 25 -37 -3 -8 -1 -11 4
-8 18 11 11 28 -25 61 -19 17 -35 26 -35 19z"/>
<path d="M9542 950 c0 -14 2 -19 5 -12 2 6 2 18 0 25 -3 6 -5 1 -5 -13z"/>
<path d="M9906 1035 c-4 -13 -2 -13 14 -5 10 5 26 7 34 4 9 -3 16 -1 16 5 0
17 -57 13 -64 -4z"/>
<path d="M9935 975 c-3 -8 -7 -22 -10 -30 -2 -8 0 -17 4 -20 5 -2 11 11 13 30
4 36 1 46 -7 20z"/>
<path d="M10326 1037 c3 -10 9 -15 12 -12 3 3 0 11 -7 18 -10 9 -11 8 -5 -6z"/>
<path d="M10280 1021 c-12 -24 -13 -61 -1 -80 6 -9 10 5 12 43 2 31 3 56 2 56
-1 0 -7 -9 -13 -19z"/>
<path d="M10328 983 c7 -12 9 -29 5 -39 -4 -12 -3 -15 5 -10 17 10 15 41 -5
57 -15 13 -15 12 -5 -8z"/>
<path d="M10660 1041 c0 -4 11 -6 25 -3 14 2 25 6 25 8 0 2 -11 4 -25 4 -14 0
-25 -4 -25 -9z"/>
<path d="M10698 983 c7 -12 9 -29 5 -39 -4 -12 -3 -15 5 -10 17 10 15 41 -5
57 -15 13 -15 12 -5 -8z"/>
<path d="M11065 980 c0 -33 3 -60 8 -60 4 0 7 27 7 60 0 33 -3 60 -7 60 -5 0
-8 -27 -8 -60z"/>
<path d="M11430 1033 c12 -18 12 -24 -1 -40 -13 -16 -13 -17 4 -4 21 17 22 35
0 52 -15 13 -15 12 -3 -8z"/>
<path d="M11391 1024 c0 -11 3 -14 6 -6 3 7 2 16 -1 19 -3 4 -6 -2 -5 -13z"/>
<path d="M11440 953 c0 -21 3 -24 9 -14 5 8 7 20 4 28 -8 21 -13 15 -13 -14z"/>
<path d="M11385 940 c3 -5 8 -10 11 -10 2 0 4 5 4 10 0 6 -5 10 -11 10 -5 0
-7 -4 -4 -10z"/>
<path d="M11808 1008 c-5 -28 -4 -29 9 -13 15 22 16 32 4 39 -5 3 -11 -8 -13
-26z"/>
<path d="M11760 928 c0 -5 14 -8 30 -8 17 0 30 3 30 8 0 4 -13 7 -30 7 -16 0
-30 -3 -30 -7z"/>
<path d="M12310 980 c0 -33 4 -60 10 -60 6 0 10 27 10 60 0 33 -4 60 -10 60
-6 0 -10 -27 -10 -60z"/>
<path d="M12706 1023 c8 -17 12 -42 8 -63 -4 -26 -3 -31 5 -20 16 22 13 76 -5
94 -22 23 -25 20 -8 -11z"/>
<path d="M12660 1014 c-10 -24 -5 -70 9 -78 3 -2 6 20 6 50 0 30 -1 54 -3 54
-1 0 -7 -12 -12 -26z"/>
<path d="M1400 355 c0 -36 3 -65 8 -65 4 0 7 29 7 65 0 36 -3 65 -7 65 -5 0
-8 -29 -8 -65z"/>
<path d="M1501 353 c2 -70 6 -63 11 20 2 26 0 47 -4 47 -5 0 -7 -30 -7 -67z"/>
<path d="M1675 411 c-3 -7 0 -8 9 -5 13 5 16 -4 16 -55 0 -34 4 -61 10 -61 6
0 10 27 10 60 0 54 10 76 23 50 3 -6 4 -5 3 2 -3 16 -62 23 -71 9z"/>
<path d="M1770 406 c0 -9 4 -16 8 -16 4 0 18 -21 30 -46 13 -26 25 -44 28 -41
7 6 -42 103 -56 112 -5 3 -10 -1 -10 -9z"/>
<path d="M1886 398 c-18 -25 -21 -65 -7 -87 7 -10 9 1 8 33 -2 37 2 51 17 62
11 8 15 14 8 14 -6 0 -18 -10 -26 -22z"/>
<path d="M2172 408 c-15 -15 -16 -55 -2 -63 7 -4 9 2 5 17 -7 30 8 53 30 44
13 -5 16 -16 13 -55 -3 -53 6 -59 17 -10 5 20 2 38 -9 54 -18 27 -36 31 -54
13z"/>
<path d="M2358 373 c5 -76 10 -83 11 -15 0 34 -2 62 -7 62 -4 0 -6 -21 -4 -47z"/>
<path d="M2480 410 c0 -5 5 -10 11 -10 5 0 7 5 4 10 -3 6 -8 10 -11 10 -2 0
-4 -4 -4 -10z"/>
<path d="M4405 355 c0 -84 12 -84 17 0 2 39 -1 65 -7 65 -6 0 -10 -28 -10 -65z"/>
<path d="M4513 413 c16 -4 18 -13 15 -64 -1 -32 0 -59 5 -59 4 0 7 27 7 61 0
51 3 60 16 55 8 -3 12 -2 9 4 -3 6 -21 9 -38 9 -19 -1 -24 -3 -14 -6z"/>
<path d="M4599 353 c5 -69 8 -65 13 20 2 27 -1 47 -7 47 -6 0 -8 -26 -6 -67z"/>
<path d="M5831 353 c2 -70 6 -63 11 20 2 26 0 47 -4 47 -5 0 -7 -30 -7 -67z"/>
<path d="M5932 408 c-19 -19 -14 -36 16 -55 15 -10 30 -22 34 -28 5 -6 8 -5 8
3 0 7 -13 21 -30 30 -16 9 -30 23 -30 30 0 19 28 26 45 12 9 -7 15 -8 15 -2 0
9 -22 22 -39 22 -4 0 -12 -5 -19 -12z"/>
<path d="M6020 410 c0 -5 7 -7 16 -3 14 5 15 -3 12 -56 -1 -33 0 -61 5 -61 4
0 7 27 7 61 0 51 3 60 16 55 8 -3 12 -2 9 4 -8 13 -65 13 -65 0z"/>
<path d="M6210 355 c0 -37 4 -65 10 -65 6 0 10 28 10 65 0 37 -4 65 -10 65 -6
0 -10 -28 -10 -65z"/>
<path d="M6311 353 c2 -70 6 -63 11 20 2 26 0 47 -4 47 -5 0 -7 -30 -7 -67z"/>
<path d="M6409 353 c5 -69 8 -65 13 20 2 27 -1 47 -7 47 -6 0 -8 -26 -6 -67z"/>
<path d="M6978 373 c5 -76 10 -83 11 -15 0 34 -2 62 -7 62 -4 0 -6 -21 -4 -47z"/>
<path d="M9380 353 c0 -36 2 -64 5 -62 8 9 10 129 3 129 -5 0 -8 -30 -8 -67z"/>
<path d="M9487 402 c-22 -24 -22 -85 0 -103 15 -13 15 -12 5 8 -18 33 -14 71
8 93 11 11 16 20 12 20 -5 0 -16 -8 -25 -18z"/>
<path d="M9659 353 c5 -69 8 -65 13 20 2 27 -1 47 -7 47 -6 0 -8 -26 -6 -67z"/>
<path d="M9760 355 c0 -36 3 -65 8 -65 4 0 7 29 7 65 0 36 -3 65 -7 65 -5 0
-8 -29 -8 -65z"/>
<path d="M9851 353 c2 -70 6 -63 11 20 2 26 0 47 -4 47 -5 0 -7 -30 -7 -67z"/>
<path d="M10338 373 c5 -83 9 -90 11 -20 0 37 -2 67 -7 67 -4 0 -6 -21 -4 -47z"/>
<path d="M1455 380 c0 -15 3 -26 8 -23 4 2 7 13 7 23 0 10 -3 21 -7 23 -5 3
-8 -8 -8 -23z"/>
<path d="M1547 389 c3 -12 0 -25 -7 -29 -11 -7 -11 -14 0 -39 15 -37 25 -36
11 0 -6 17 -5 30 4 43 8 10 11 24 8 32 -8 22 -22 16 -16 -7z"/>
<path d="M1586 394 c-8 -22 -7 -82 2 -87 4 -3 7 19 7 49 0 30 -1 54 -1 54 -1
0 -5 -7 -8 -16z"/>
<path d="M1639 357 c2 -39 5 -47 13 -33 5 9 7 30 3 46 -11 49 -20 42 -16 -13z"/>
<path d="M1935 355 c0 -29 3 -51 8 -48 9 5 9 74 -1 90 -4 6 -7 -13 -7 -42z"/>
<path d="M4460 385 c0 -15 4 -24 10 -20 6 3 10 12 10 20 0 8 -4 17 -10 20 -6
4 -10 -5 -10 -20z"/>
<path d="M4653 378 c0 -30 1 -30 10 -10 7 15 7 26 0 33 -6 6 -10 -1 -10 -23z"/>
<path d="M5879 391 c8 -13 11 -39 8 -58 -4 -20 -2 -31 4 -28 16 10 10 81 -8
96 -15 13 -15 12 -4 -10z"/>
<path d="M6145 393 c4 -10 12 -37 18 -60 6 -24 13 -43 17 -43 4 0 0 27 -9 60
-9 33 -20 60 -24 60 -5 0 -6 -8 -2 -17z"/>
<path d="M6265 355 c0 -30 4 -50 9 -45 4 4 8 25 8 45 0 20 -4 41 -8 46 -5 4
-9 -16 -9 -46z"/>
<path d="M6359 391 c8 -14 10 -38 7 -60 -5 -26 -4 -32 3 -21 16 23 13 76 -6
91 -15 13 -15 12 -4 -10z"/>
<path d="M6458 385 c2 -14 6 -25 8 -25 2 0 4 11 4 25 0 14 -4 25 -9 25 -4 0
-6 -11 -3 -25z"/>
<path d="M6794 395 c-4 -8 -1 -22 5 -29 8 -10 9 -16 1 -21 -5 -3 -10 -16 -9
-28 1 -20 2 -20 8 3 6 23 12 26 41 22 6 -1 10 -12 10 -24 0 -18 2 -20 9 -9 11
18 -4 44 -33 57 -11 5 -20 17 -20 27 2 21 -5 22 -12 2z"/>
<path d="M6852 390 c0 -14 2 -19 5 -12 2 6 2 18 0 25 -3 6 -5 1 -5 -13z"/>
<path d="M9430 386 c0 -13 -5 -26 -11 -28 -7 -2 -6 -15 4 -38 9 -19 16 -29 16
-22 1 7 -3 22 -9 32 -7 13 -6 21 5 30 17 14 20 36 5 45 -6 3 -10 -5 -10 -19z"/>
<path d="M9588 393 c6 -10 13 -37 17 -60 4 -24 10 -43 15 -43 4 0 1 27 -7 60
-9 33 -20 60 -25 60 -5 0 -5 -7 0 -17z"/>
<path d="M9711 380 c9 -23 9 -38 0 -56 -6 -13 -7 -24 -2 -24 24 0 29 81 6 100
-13 11 -13 8 -4 -20z"/>
<path d="M9809 397 c9 -11 12 -31 8 -57 -3 -23 -1 -38 4 -34 16 10 10 81 -8
95 -16 13 -17 12 -4 -4z"/>
<path d="M9900 386 c0 -13 -5 -26 -11 -28 -7 -2 -6 -15 4 -38 9 -19 16 -29 16
-22 1 7 -3 22 -9 32 -7 13 -6 21 5 30 17 14 20 36 5 45 -6 3 -10 -5 -10 -19z"/>
<path d="M10062 398 c-7 -7 -11 -28 -10 -47 l1 -36 4 35 c3 19 9 41 15 47 13
16 6 17 -10 1z"/>
<path d="M10144 395 c-4 -8 -1 -22 5 -29 8 -10 9 -16 1 -21 -5 -3 -10 -16 -9
-28 1 -20 2 -20 8 3 4 14 13 25 21 25 8 0 20 -11 27 -25 12 -24 13 -24 13 -3
0 13 -12 30 -31 43 -17 13 -28 28 -25 36 3 8 3 14 0 14 -2 0 -7 -7 -10 -15z"/>
<path d="M10759 397 c9 -11 12 -32 8 -60 -5 -41 -4 -41 8 -13 14 34 10 60 -14
78 -14 12 -15 11 -2 -5z"/>
<path d="M11759 383 c-7 -18 -7 -39 -1 -58 8 -27 9 -25 13 28 2 31 3 57 1 57
-1 0 -7 -12 -13 -27z"/>
<path d="M2785 351 c0 -51 9 -56 20 -11 3 14 0 33 -7 43 -11 15 -13 11 -13
-32z"/>
<path d="M7410 378 c6 -19 6 -37 -1 -55 -6 -18 -7 -24 0 -18 19 19 22 60 6 80
-14 19 -15 19 -5 -7z"/>
<path d="M9281 391 c0 -8 15 -29 34 -47 22 -20 35 -26 35 -17 0 7 -13 22 -30
31 -16 9 -31 24 -34 32 -3 12 -4 12 -5 1z"/>
<path d="M10201 384 c0 -11 3 -14 6 -6 3 7 2 16 -1 19 -3 4 -6 -2 -5 -13z"/>
<path d="M10547 388 c-2 -7 -1 -33 3 -58 l7 -45 2 58 c1 56 -2 69 -12 45z"/>
<path d="M2567 383 c-3 -5 -1 -26 3 -48 l8 -40 1 48 c1 45 -2 56 -12 40z"/>
<path d="M7187 383 c-3 -5 -1 -26 3 -48 l8 -40 1 48 c1 45 -2 56 -12 40z"/>
<path d="M2072 355 c0 -16 2 -22 5 -12 2 9 2 23 0 30 -3 6 -5 -1 -5 -18z"/>
<path d="M6692 360 c0 -14 2 -19 5 -12 2 6 2 18 0 25 -3 6 -5 1 -5 -13z"/>
<path d="M2410 351 c5 -11 7 -28 3 -38 -5 -14 -3 -16 7 -6 14 13 6 63 -11 63
-6 0 -6 -6 1 -19z"/>
<path d="M2478 330 c2 -22 6 -40 8 -40 2 0 4 18 4 40 0 22 -3 40 -8 40 -4 0
-6 -18 -4 -40z"/>
<path d="M7030 351 c5 -11 7 -28 3 -38 -5 -14 -3 -16 7 -6 14 13 6 63 -11 63
-6 0 -6 -6 1 -19z"/>
<path d="M7098 330 c2 -22 6 -40 8 -40 2 0 4 18 4 40 0 22 -3 40 -8 40 -4 0
-6 -18 -4 -40z"/>
<path d="M10378 363 c6 -2 12 -19 12 -36 1 -27 2 -29 11 -15 11 21 -4 58 -24
57 -9 0 -9 -2 1 -6z"/>
<path d="M10458 330 c2 -22 6 -40 8 -40 2 0 4 18 4 40 0 22 -3 40 -8 40 -4 0
-6 -18 -4 -40z"/>
<path d="M11868 330 c2 -22 6 -40 8 -40 2 0 4 18 4 40 0 22 -3 40 -8 40 -4 0
-6 -18 -4 -40z"/>
<path d="M12048 335 c6 -49 18 -52 14 -4 -2 21 -7 39 -11 39 -4 0 -5 -16 -3
-35z"/>
<path d="M12103 330 c0 -25 2 -35 4 -22 2 12 2 32 0 45 -2 12 -4 2 -4 -23z"/>
<path d="M12145 315 c0 -30 3 -55 8 -55 4 0 7 25 7 55 0 30 -3 55 -7 55 -5 0
-8 -25 -8 -55z"/>
<path d="M12182 364 c10 -3 19 -19 21 -37 4 -31 5 -31 3 3 -1 27 -5 35 -21 37
-14 1 -15 0 -3 -3z"/>
<path d="M2640 351 c0 -6 15 -18 33 -26 27 -13 29 -14 12 -1 -11 9 -26 20 -32
26 -9 7 -13 7 -13 1z"/>
<path d="M6440 353 c0 -18 20 -66 25 -61 3 3 -1 20 -9 39 -9 19 -15 29 -16 22z"/>
<path d="M7270 351 c0 -6 15 -18 33 -26 27 -13 29 -14 12 -1 -11 9 -26 20 -32
26 -9 7 -13 7 -13 1z"/>
<path d="M10620 351 c0 -6 15 -18 33 -26 27 -13 29 -14 12 -1 -11 9 -26 20
-32 26 -9 7 -13 7 -13 1z"/>
<path d="M11952 330 c0 -14 2 -19 5 -12 2 6 2 18 0 25 -3 6 -5 1 -5 -13z"/>
<path d="M12012 330 c0 -14 2 -19 5 -12 2 6 2 18 0 25 -3 6 -5 1 -5 -13z"/>
<path d="M11810 320 c0 -11 2 -20 4 -20 2 0 6 9 9 20 3 11 1 20 -4 20 -5 0 -9
-9 -9 -20z"/>
<path d="M5920 305 c0 -8 4 -15 10 -15 5 0 7 7 4 15 -4 8 -8 15 -10 15 -2 0
-4 -7 -4 -15z"/>
<path d="M9281 304 c0 -11 3 -14 6 -6 3 7 2 16 -1 19 -3 4 -6 -2 -5 -13z"/>
</g>
</svg>
