<?xml version="1.0" encoding="UTF-8" standalone="no"?>
<svg
    id="svg8"
    viewBox="0 0 213.23 25.82"
    version="1.1"
    xmlns="http://www.w3.org/2000/svg"
    xmlns:svg="http://www.w3.org/2000/svg">
    <defs
        id="defs1" />
    <g
        id="layer1">
        <g
            id="g92">
            <path
                id="flowRoot10"
                d="M15.58,1.7A1.78,1.78,0,0,0,14.5,2a2.89,2.89,0,0,0-.78.9L1.18,23.81H5.53l9.9-16.74,4.86,8.16H13.6l-1.8,3.09H22.12l3.27,5.49H30L17.41,2.93a2.89,2.89,0,0,0-.78-.9A1.65,1.65,0,0,0,15.58,1.7Zm75.94,0A1.78,1.78,0,0,0,90.44,2a2.89,2.89,0,0,0-.78.9L77.12,23.81h4.35l9.9-16.74,4.86,8.16H89.54l-1.8,3.09H98.06l3.27,5.49h4.59L93.35,2.93a2.89,2.89,0,0,0-.78-.9,1.65,1.65,0,0,0-1-.33Zm18.57,0a1.8,1.8,0,0,0-1.44.63,2.46,2.46,0,0,0-.5,1.65v19.8h3.62v-16L127.1,23.27a2.44,2.44,0,0,0,1.74.81,1.7,1.7,0,0,0,1.36-.6,2.42,2.42,0,0,0,.53-1.68v-20H127.1v16L111.71,2.51a2.91,2.91,0,0,0-.81-.6A1.91,1.91,0,0,0,110.09,1.73ZM32.3,2V23.81H44.93A10.65,10.65,0,0,0,49.19,23a10.18,10.18,0,0,0,5.55-5.88,11.84,11.84,0,0,0,.81-4.41,11.16,11.16,0,0,0-.81-4.32,9.66,9.66,0,0,0-5.55-5.58A11.37,11.37,0,0,0,44.93,2Zm22,0L66.8,22.88a2.91,2.91,0,0,0,.79.9,1.75,1.75,0,0,0,1.07.33,1.73,1.73,0,0,0,1-.33,2.89,2.89,0,0,0,.78-.9L83.07,2H78.68L68.82,18.8,58.91,2Zm78.87,0V5.81h8.28v18h3.81v-18h8.28V2Zm23.12,0V23.81h3.81V2ZM174,2a11.34,11.34,0,0,0-4.24.78,9.67,9.67,0,0,0-5.57,5.52,11.85,11.85,0,0,0-.79,4.38,12.25,12.25,0,0,0,.79,4.41,11.05,11.05,0,0,0,2.21,3.54A11,11,0,0,0,169.8,23a10.63,10.63,0,0,0,4.24.84h11.82V20H174a6.91,6.91,0,0,1-2.74-.54A6.65,6.65,0,0,1,169.17,18a7,7,0,0,1-1.41-2.28,7.84,7.84,0,0,1-.51-2.85,7.69,7.69,0,0,1,.51-2.85,6.69,6.69,0,0,1,1.41-2.22,6.27,6.27,0,0,1,2.13-1.44A6.91,6.91,0,0,1,174,5.81h11.82V2Zm21.27,0a8.05,8.05,0,0,0-2.88.48,6.08,6.08,0,0,0-2.13,1.26,5.45,5.45,0,0,0-1.29,2,6.81,6.81,0,0,0-.42,2.43,6.72,6.72,0,0,0,.45,2.49,6.13,6.13,0,0,0,1.32,2,6.52,6.52,0,0,0,2.1,1.29,8.25,8.25,0,0,0,2.79.45h10a3.41,3.41,0,0,1,2.34.72,2.56,2.56,0,0,1,.84,2.1,2.69,2.69,0,0,1-.84,2.07,3.24,3.24,0,0,1-2.34.78H188.92v3.81h16.35a8.33,8.33,0,0,0,3-.48A5.84,5.84,0,0,0,210.37,22a5.65,5.65,0,0,0,1.26-2,7.5,7.5,0,0,0,.42-2.55,6,6,0,0,0-1.74-4.74,7.24,7.24,0,0,0-5-1.56h-10a2.85,2.85,0,0,1-2-.69,2.57,2.57,0,0,1-.72-1.95,2.57,2.57,0,0,1,.72-1.95,2.76,2.76,0,0,1,2-.72H211V2ZM36.08,5.81h8.85a6.64,6.64,0,0,1,2.7.54,6.2,6.2,0,0,1,2.16,1.44A6.39,6.39,0,0,1,51.23,10a7.6,7.6,0,0,1,.51,2.82,7.84,7.84,0,0,1-.51,2.85A6.71,6.71,0,0,1,49.79,18a6.57,6.57,0,0,1-2.16,1.47,6.64,6.64,0,0,1-2.7.54H36.08Z"
                style="fill:currentColor"
            />
        </g>
    </g>
</svg>
