<?xml version="1.0" encoding="UTF-8" standalone="no"?>
<svg
   version="1.1"
   width="11.83132cm"
   height="4.22402cm"
   viewBox="0 0 46579.999 16630.001"
   id="svg604"
   xmlns="http://www.w3.org/2000/svg"
   xmlns:svg="http://www.w3.org/2000/svg">
  <defs
     id="defs608" />
  <title
     id="title2">SVG Picture created as AFE_neutral-AFE_neutral.svg date 2021/12/17 16:26:34 </title>
  <desc
     id="desc4">Picture generated by Eeschema-SVG </desc>
  <g
     style="fill:#000000;fill-opacity:1;stroke:#000000;stroke-linecap:round;stroke-linejoin:round;stroke-opacity:1"
     id="g6"
     transform="translate(-28460,-24010)" />
  <g
     style="fill:#000000;fill-opacity:0;stroke:#000000;stroke-width:0;stroke-linecap:round;stroke-linejoin:round;stroke-opacity:1"
     id="g146"
     transform="translate(-28460,-24010)">
    <g
       id="g8" />
    <g
       style="fill:#840000;fill-opacity:0;stroke:#840000;stroke-width:0;stroke-linecap:round;stroke-linejoin:round;stroke-opacity:1"
       id="g10" />
    <g
       style="fill:#ffffc2;fill-opacity:0;stroke:#ffffc2;stroke-width:0;stroke-linecap:round;stroke-linejoin:round;stroke-opacity:1"
       id="g12" />
    <g
       style="fill:#ffffc2;fill-opacity:0.6;stroke:#ffffc2;stroke-width:0;stroke-linecap:round;stroke-linejoin:round;stroke-opacity:1"
       id="g16">
      <rect
         x="49500"
         y="28000"
         width="11500"
         height="7000"
         rx="0"
         id="rect14" />
    </g>
    <g
       style="fill:#840000;fill-opacity:0.6;stroke:#840000;stroke-width:0;stroke-linecap:round;stroke-linejoin:round;stroke-opacity:1"
       id="g18" />
    <g
       style="fill:#840000;fill-opacity:0;stroke:#840000;stroke-width:80;stroke-linecap:round;stroke-linejoin:round;stroke-opacity:1"
       id="g40">
      <rect
         x="49500"
         y="28000"
         width="11500"
         height="7000"
         rx="0"
         id="rect20" />
      <path
         d="m 51901.6,29749.3 a 280,280 0 0 0 496.8,0"
         id="path22" />
      <path
         d="m 52903.1,29748.5 a 290,290 0 0 0 -506.2,0"
         id="path24" />
      <rect
         x="49500"
         y="28000"
         width="11500"
         height="7000"
         rx="0"
         id="rect26" />
      <path
         style="fill:none;fill-opacity:0;stroke:#840000;stroke-width:80;stroke-linecap:round;stroke-linejoin:round;stroke-opacity:1"
         d="m 51900,30250 h 1000"
         id="path28" />
      <path
         style="fill:none;fill-opacity:0;stroke:#840000;stroke-width:80;stroke-linecap:round;stroke-linejoin:round;stroke-opacity:1"
         d="m 57500,32800 h 1000"
         id="path30" />
      <path
         style="fill:none;fill-opacity:0;stroke:#840000;stroke-width:80;stroke-linecap:round;stroke-linejoin:round;stroke-opacity:1"
         d="m 57500,32300 h 200"
         id="path32" />
      <path
         style="fill:none;fill-opacity:0;stroke:#840000;stroke-width:80;stroke-linecap:round;stroke-linejoin:round;stroke-opacity:1"
         d="m 57900,32300 h 200"
         id="path34" />
      <path
         style="fill:none;fill-opacity:0;stroke:#840000;stroke-width:80;stroke-linecap:round;stroke-linejoin:round;stroke-opacity:1"
         d="m 58300,32300 h 200"
         id="path36" />
      <path
         d="M 49500,33500 H 48500"
         id="path38" />
    </g>
    <g
       style="fill:#008484;fill-opacity:0;stroke:#008484;stroke-width:80;stroke-linecap:round;stroke-linejoin:round;stroke-opacity:1"
       id="g50">
      <text
         x="49700"
         y="33750"
         textLength="1700"
         font-size="660px"
         lengthAdjust="spacingAndGlyphs"
         text-anchor="start"
         opacity="0"
         id="text42">DC-</text>
      <path
         d="m 49850,33720 v -500 h 120 l 70,30 50,40 30,50 20,100 v 70 l -20,90 -30,50 -50,50 -70,20 h -120"
         id="path44" />
      <path
         d="m 50640,33670 -20,30 -80,20 h -40 l -70,-20 -50,-50 -30,-50 -20,-90 v -70 l 20,-100 30,-50 50,-40 70,-30 h 40 l 80,30 20,20"
         id="path46" />
      <path
         d="m 50850,33530 h 390"
         id="path48" />
    </g>
    <g
       style="fill:#840000;fill-opacity:0;stroke:#840000;stroke-width:80;stroke-linecap:round;stroke-linejoin:round;stroke-opacity:1"
       id="g54">
      <path
         d="M 49500,28500 H 48500"
         id="path52" />
    </g>
    <g
       style="fill:#008484;fill-opacity:0;stroke:#008484;stroke-width:80;stroke-linecap:round;stroke-linejoin:round;stroke-opacity:1"
       id="g64">
      <text
         x="49700"
         y="28750"
         textLength="960"
         font-size="660px"
         lengthAdjust="spacingAndGlyphs"
         text-anchor="start"
         opacity="0"
         id="text56">L1</text>
      <path
         d="m 50090,28720 h -240 v -500"
         id="path58" />
      <path
         d="m 50520,28720 h -280"
         id="path60" />
      <path
         d="m 50380,28720 v -500 l -50,70 -50,50 -40,20"
         id="path62" />
    </g>
    <g
       style="fill:#840000;fill-opacity:0;stroke:#840000;stroke-width:80;stroke-linecap:round;stroke-linejoin:round;stroke-opacity:1"
       id="g68">
      <path
         d="M 49500,30000 H 48500"
         id="path66" />
    </g>
    <g
       style="fill:#008484;fill-opacity:0;stroke:#008484;stroke-width:80;stroke-linecap:round;stroke-linejoin:round;stroke-opacity:1"
       id="g76">
      <text
         x="49700"
         y="30250"
         textLength="960"
         font-size="660px"
         lengthAdjust="spacingAndGlyphs"
         text-anchor="start"
         opacity="0"
         id="text70">L2</text>
      <path
         d="m 50090,30220 h -240 v -500"
         id="path72" />
      <path
         d="m 50240,29770 20,-20 50,-30 h 120 l 40,30 30,20 20,50 v 40 l -20,80 -290,280 h 310"
         id="path74" />
    </g>
    <g
       style="fill:#840000;fill-opacity:0;stroke:#840000;stroke-width:80;stroke-linecap:round;stroke-linejoin:round;stroke-opacity:1"
       id="g80">
      <path
         d="M 49500,31500 H 48500"
         id="path78" />
    </g>
    <g
       style="fill:#008484;fill-opacity:0;stroke:#008484;stroke-width:80;stroke-linecap:round;stroke-linejoin:round;stroke-opacity:1"
       id="g88">
      <text
         x="49700"
         y="31750"
         textLength="960"
         font-size="660px"
         lengthAdjust="spacingAndGlyphs"
         text-anchor="start"
         opacity="0"
         id="text82">L3</text>
      <path
         d="m 50090,31720 h -240 v -500"
         id="path84" />
      <path
         d="m 50210,31220 h 310 l -170,190 h 80 l 40,30 30,20 20,50 v 120 l -20,40 -30,30 -40,20 h -150 l -40,-20 -30,-30"
         id="path86" />
    </g>
    <g
       style="fill:#840000;fill-opacity:0;stroke:#840000;stroke-width:80;stroke-linecap:round;stroke-linejoin:round;stroke-opacity:1"
       id="g92">
      <path
         d="m 61000,33500 h 1000"
         id="path90" />
    </g>
    <g
       style="fill:#008484;fill-opacity:0;stroke:#008484;stroke-width:80;stroke-linecap:round;stroke-linejoin:round;stroke-opacity:1"
       id="g102">
      <text
         x="60800"
         y="33750"
         textLength="1700"
         font-size="660px"
         lengthAdjust="spacingAndGlyphs"
         text-anchor="end"
         opacity="0"
         id="text94">DC-</text>
      <path
         d="m 59260,33720 v -500 h 110 l 80,30 40,40 30,50 20,100 v 70 l -20,90 -30,50 -40,50 -80,20 h -110"
         id="path96" />
      <path
         d="m 60040,33670 -20,30 -70,20 h -50 l -70,-20 -50,-50 -20,-50 -30,-90 v -70 l 30,-100 20,-50 50,-40 70,-30 h 50 l 70,30 20,20"
         id="path98" />
      <path
         d="m 60260,33530 h 380"
         id="path100" />
    </g>
    <g
       style="fill:#840000;fill-opacity:0;stroke:#840000;stroke-width:80;stroke-linecap:round;stroke-linejoin:round;stroke-opacity:1"
       id="g106">
      <path
         d="m 61000,31500 h 1000"
         id="path104" />
    </g>
    <g
       style="fill:#008484;fill-opacity:0;stroke:#008484;stroke-width:80;stroke-linecap:round;stroke-linejoin:round;stroke-opacity:1"
       id="g144">
      <text
         x="60800"
         y="31750"
         textLength="1700"
         font-size="660px"
         lengthAdjust="spacingAndGlyphs"
         text-anchor="end"
         opacity="0"
         id="text108">DC+</text>
      <path
         d="m 59260,31720 v -500 h 110 l 80,30 40,40 30,50 20,100 v 70 l -20,90 -30,50 -40,50 -80,20 h -110"
         id="path110" />
      <path
         d="m 60040,31670 -20,30 -70,20 h -50 l -70,-20 -50,-50 -20,-50 -30,-90 v -70 l 30,-100 20,-50 50,-40 70,-30 h 50 l 70,30 20,20"
         id="path112" />
      <path
         d="m 60260,31530 h 380"
         id="path114" />
      <path
         d="m 60450,31720 v -380"
         id="path116" />
      <text
         x="55250"
         y="27550"
         textLength="5770"
         font-size="660px"
         lengthAdjust="spacingAndGlyphs"
         text-anchor="middle"
         opacity="0"
         id="text118">ADM-PC-BP25</text>
      <path
         d="m 52500,27380 h 230"
         id="path120" />
      <path
         d="m 52450,27520 160,-500 170,500"
         id="path122" />
      <path
         d="m 52950,27520 v -500 h 120 l 70,30 50,40 20,50 20,100 v 70 l -20,90 -20,50 -50,50 -70,20 h -120"
         id="path124" />
      <path
         d="m 53450,27520 v -500 l 160,360 170,-360 v 500"
         id="path126" />
      <path
         d="m 54020,27330 h 380"
         id="path128" />
      <path
         d="m 54640,27520 v -500 h 190 l 50,30 20,20 20,50 v 70 l -20,50 -20,20 -50,20 h -190"
         id="path130" />
      <path
         d="m 55420,27470 -20,30 -70,20 h -50 l -70,-20 -50,-50 -20,-50 -30,-90 v -70 l 30,-100 20,-50 50,-40 70,-30 h 50 l 70,30 20,20"
         id="path132" />
      <path
         d="m 55640,27330 h 380"
         id="path134" />
      <path
         d="m 56420,27260 80,20 20,30 20,40 v 80 l -20,40 -20,30 -50,20 h -190 v -500 h 160 l 50,30 30,20 20,50 v 40 l -20,50 -30,30 -50,20 h -160"
         id="path136" />
      <path
         d="m 56760,27520 v -500 h 190 l 50,30 20,20 20,50 v 70 l -20,50 -20,20 -50,20 h -190"
         id="path138" />
      <path
         d="m 57230,27070 30,-20 40,-30 h 120 l 50,30 30,20 20,50 v 40 l -20,80 -290,280 h 310"
         id="path140" />
      <path
         d="m 57970,27020 h -240 l -20,240 20,-20 50,-30 h 120 l 50,30 20,20 30,50 v 120 l -30,40 -20,30 -50,20 h -120 l -50,-20 -20,-30"
         id="path142" />
    </g>
  </g>
  <g
     style="fill:#008484;fill-opacity:0;stroke:#008484;stroke-width:0;stroke-linecap:round;stroke-linejoin:round;stroke-opacity:1"
     id="g252"
     transform="translate(-28460,-24010)">
    <g
       id="g148" />
    <g
       style="fill:#840000;fill-opacity:0;stroke:#840000;stroke-width:0;stroke-linecap:round;stroke-linejoin:round;stroke-opacity:1"
       id="g150" />
    <g
       style="fill:#ffffc2;fill-opacity:0;stroke:#ffffc2;stroke-width:0;stroke-linecap:round;stroke-linejoin:round;stroke-opacity:1"
       id="g152" />
    <g
       style="fill:#ffffc2;fill-opacity:0.6;stroke:#ffffc2;stroke-width:0;stroke-linecap:round;stroke-linejoin:round;stroke-opacity:1"
       id="g156">
      <rect
         x="68000"
         y="30000"
         width="7000"
         height="5000"
         rx="0"
         id="rect154" />
    </g>
    <g
       style="fill:#840000;fill-opacity:0.6;stroke:#840000;stroke-width:0;stroke-linecap:round;stroke-linejoin:round;stroke-opacity:1"
       id="g158" />
    <g
       style="fill:#840000;fill-opacity:0;stroke:#840000;stroke-width:80;stroke-linecap:round;stroke-linejoin:round;stroke-opacity:1"
       id="g180">
      <rect
         x="68000"
         y="30000"
         width="7000"
         height="5000"
         rx="0"
         id="rect160" />
      <rect
         x="68000"
         y="30000"
         width="7000"
         height="5000"
         rx="0"
         id="rect162" />
      <path
         style="fill:none;fill-opacity:0;stroke:#840000;stroke-width:80;stroke-linecap:round;stroke-linejoin:round;stroke-opacity:1"
         d="m 73000,32500 h 400"
         id="path164" />
      <path
         style="fill:none;fill-opacity:0;stroke:#840000;stroke-width:80;stroke-linecap:round;stroke-linejoin:round;stroke-opacity:1"
         d="m 72600,32000 v 1000"
         id="path166" />
      <path
         style="fill:none;fill-opacity:0;stroke:#840000;stroke-width:80;stroke-linecap:round;stroke-linejoin:round;stroke-opacity:1"
         d="m 72100,32500 h 300"
         id="path168" />
      <path
         style="fill:none;fill-opacity:0;stroke:#840000;stroke-width:80;stroke-linecap:round;stroke-linejoin:round;stroke-opacity:1"
         d="m 71600,32500 h 300"
         id="path170" />
      <path
         style="fill:none;fill-opacity:0;stroke:#840000;stroke-width:80;stroke-linecap:round;stroke-linejoin:round;stroke-opacity:1"
         d="m 71100,32500 h 300"
         id="path172" />
      <path
         style="fill:none;fill-opacity:0;stroke:#840000;stroke-width:80;stroke-linecap:round;stroke-linejoin:round;stroke-opacity:1"
         d="m 71100,31600 v 1800"
         id="path174" />
      <path
         style="fill:none;fill-opacity:0;stroke:#840000;stroke-width:80;stroke-linecap:round;stroke-linejoin:round;stroke-opacity:1"
         d="m 70700,32500 h -400"
         id="path176" />
      <path
         style="fill:none;fill-opacity:0;stroke:#840000;stroke-width:80;stroke-linecap:round;stroke-linejoin:round;stroke-opacity:1"
         d="m 70700,32000 v 1100"
         id="path178" />
    </g>
    <g
       style="fill:#840000;fill-opacity:0;stroke:#840000;stroke-width:60;stroke-linecap:round;stroke-linejoin:round;stroke-opacity:1"
       id="g184">
      <path
         style="fill:none;fill-opacity:0;stroke:#840000;stroke-width:60;stroke-linecap:round;stroke-linejoin:round;stroke-opacity:1"
         d="m 73000,31600 v 1790"
         id="path182" />
    </g>
    <g
       style="fill:#840000;fill-opacity:0;stroke:#840000;stroke-width:80;stroke-linecap:round;stroke-linejoin:round;stroke-opacity:1"
       id="g188">
      <path
         d="M 68000,31500 H 67000"
         id="path186" />
    </g>
    <g
       style="fill:#008484;fill-opacity:0;stroke:#008484;stroke-width:80;stroke-linecap:round;stroke-linejoin:round;stroke-opacity:1"
       id="g196">
      <text
         x="68200"
         y="31890"
         textLength="1060"
         font-size="1050px"
         lengthAdjust="spacingAndGlyphs"
         text-anchor="start"
         opacity="0"
         id="text190">+</text>
      <path
         d="m 68420,31550 h 610"
         id="path192" />
      <path
         d="m 68720,31850 v -600"
         id="path194" />
    </g>
    <g
       style="fill:#840000;fill-opacity:0;stroke:#840000;stroke-width:80;stroke-linecap:round;stroke-linejoin:round;stroke-opacity:1"
       id="g200">
      <path
         d="M 68000,33500 H 67000"
         id="path198" />
    </g>
    <g
       style="fill:#008484;fill-opacity:0;stroke:#008484;stroke-width:80;stroke-linecap:round;stroke-linejoin:round;stroke-opacity:1"
       id="g250">
      <text
         x="68200"
         y="33890"
         textLength="1060"
         font-size="1050px"
         lengthAdjust="spacingAndGlyphs"
         text-anchor="start"
         opacity="0"
         id="text202">-</text>
      <path
         d="m 68420,33550 h 610"
         id="path204" />
      <text
         x="70910"
         y="29530"
         textLength="4410"
         font-size="660px"
         lengthAdjust="spacingAndGlyphs"
         text-anchor="middle"
         opacity="0"
         id="text206">batterypack</text>
      <path
         d="m 68860,29500 v -500"
         id="path208" />
      <path
         d="m 68860,29190 50,-20 h 90 l 50,20 20,30 30,40 v 150 l -30,40 -20,30 -50,20 h -90 l -50,-20"
         id="path210" />
      <path
         d="m 69520,29500 v -260 l -20,-50 -50,-20 h -90 l -50,20"
         id="path212" />
      <path
         d="m 69520,29480 -40,20 h -120 l -50,-20 -20,-50 v -50 l 20,-50 50,-20 h 120 l 40,-20"
         id="path214" />
      <path
         d="m 69690,29170 h 190"
         id="path216" />
      <path
         d="m 69760,29000 v 430 l 30,50 40,20 h 50"
         id="path218" />
      <path
         d="m 69980,29170 h 190"
         id="path220" />
      <path
         d="m 70050,29000 v 430 l 20,50 50,20 h 50"
         id="path222" />
      <path
         d="m 70520,29480 -40,20 h -100 l -50,-20 -20,-50 v -190 l 20,-50 50,-20 h 100 l 40,20 30,50 v 50 l -240,40"
         id="path224" />
      <path
         d="m 70760,29500 v -330"
         id="path226" />
      <path
         d="m 70760,29260 30,-40 20,-30 50,-20 h 50"
         id="path228" />
      <path
         d="m 71020,29170 120,330"
         id="path230" />
      <path
         d="m 71260,29170 -120,330 -40,120 -30,20 -50,30"
         id="path232" />
      <path
         d="m 71450,29170 v 500"
         id="path234" />
      <path
         d="m 71450,29190 50,-20 h 100 l 40,20 30,30 20,40 v 150 l -20,40 -30,30 -40,20 h -100 l -50,-20"
         id="path236" />
      <path
         d="m 72120,29500 v -260 l -20,-50 -50,-20 h -100 l -40,20"
         id="path238" />
      <path
         d="m 72120,29480 -50,20 h -120 l -40,-20 -30,-50 v -50 l 30,-50 40,-20 h 120 l 50,-20"
         id="path240" />
      <path
         d="m 72570,29480 -50,20 h -90 l -50,-20 -20,-30 -30,-40 v -150 l 30,-40 20,-30 50,-20 h 90 l 50,20"
         id="path242" />
      <path
         d="m 72790,29500 v -500"
         id="path244" />
      <path
         d="m 72830,29310 150,190"
         id="path246" />
      <path
         d="m 72980,29170 -190,190"
         id="path248" />
    </g>
  </g>
  <g
     style="fill:#008484;fill-opacity:0;stroke:#008484;stroke-width:0;stroke-linecap:round;stroke-linejoin:round;stroke-opacity:1"
     id="g314"
     transform="translate(-28460,-24010)">
    <g
       id="g254" />
    <g
       style="fill:#840000;fill-opacity:0;stroke:#840000;stroke-width:0;stroke-linecap:round;stroke-linejoin:round;stroke-opacity:1"
       id="g256" />
    <g
       style="fill:#ffffc2;fill-opacity:0;stroke:#ffffc2;stroke-width:0;stroke-linecap:round;stroke-linejoin:round;stroke-opacity:1"
       id="g258" />
    <g
       style="fill:#ffffc2;fill-opacity:0.6;stroke:#ffffc2;stroke-width:0;stroke-linecap:round;stroke-linejoin:round;stroke-opacity:1"
       id="g262">
      <rect
         x="28500"
         y="28500"
         width="7000"
         height="5000"
         rx="0"
         id="rect260" />
    </g>
    <g
       style="fill:#840000;fill-opacity:0.6;stroke:#840000;stroke-width:0;stroke-linecap:round;stroke-linejoin:round;stroke-opacity:1"
       id="g264" />
    <g
       style="fill:#840000;fill-opacity:0;stroke:#840000;stroke-width:80;stroke-linecap:round;stroke-linejoin:round;stroke-opacity:1"
       id="g272">
      <rect
         x="28500"
         y="28500"
         width="7000"
         height="5000"
         rx="0"
         id="rect266" />
      <rect
         x="28500"
         y="28500"
         width="7000"
         height="5000"
         rx="0"
         id="rect268" />
      <path
         d="m 35500,30000 h 1000"
         id="path270" />
    </g>
    <g
       style="fill:#008484;fill-opacity:0;stroke:#008484;stroke-width:80;stroke-linecap:round;stroke-linejoin:round;stroke-opacity:1"
       id="g280">
      <text
         x="35300"
         y="30390"
         textLength="1060"
         font-size="1050px"
         lengthAdjust="spacingAndGlyphs"
         text-anchor="end"
         opacity="0"
         id="text274">+</text>
      <path
         d="m 34470,30050 h 600"
         id="path276" />
      <path
         d="m 34770,30350 v -600"
         id="path278" />
    </g>
    <g
       style="fill:#840000;fill-opacity:0;stroke:#840000;stroke-width:80;stroke-linecap:round;stroke-linejoin:round;stroke-opacity:1"
       id="g284">
      <path
         d="m 35500,32000 h 1000"
         id="path282" />
    </g>
    <g
       style="fill:#008484;fill-opacity:0;stroke:#008484;stroke-width:80;stroke-linecap:round;stroke-linejoin:round;stroke-opacity:1"
       id="g312">
      <text
         x="35300"
         y="32390"
         textLength="1060"
         font-size="1050px"
         lengthAdjust="spacingAndGlyphs"
         text-anchor="end"
         opacity="0"
         id="text286">-</text>
      <path
         d="m 34470,32050 h 600"
         id="path288" />
      <text
         x="32580"
         y="28030"
         textLength="3010"
         font-size="660px"
         lengthAdjust="spacingAndGlyphs"
         text-anchor="middle"
         opacity="0"
         id="text290">load_AC</text>
      <path
         d="m 31300,28000 -50,-20 -20,-50 v -430"
         id="path292" />
      <path
         d="m 31560,28000 -40,-20 -30,-30 -20,-40 v -150 l 20,-40 30,-30 40,-20 h 70 l 50,20 30,30 20,40 v 150 l -20,40 -30,30 -50,20 h -70"
         id="path294" />
      <path
         d="m 32160,28000 v -260 l -30,-50 -40,-20 h -100 l -50,20"
         id="path296" />
      <path
         d="m 32160,27980 -50,20 h -120 l -50,-20 -20,-50 v -50 l 20,-50 50,-20 h 120 l 50,-20"
         id="path298" />
      <path
         d="m 32610,28000 v -500"
         id="path300" />
      <path
         d="m 32610,27980 -50,20 h -90 l -50,-20 -20,-30 -30,-40 v -150 l 30,-40 20,-30 50,-20 h 90 l 50,20"
         id="path302" />
      <path
         d="m 32730,28050 h 380"
         id="path304" />
      <path
         d="m 33210,27860 h 230"
         id="path306" />
      <path
         d="m 33160,28000 170,-500 160,500"
         id="path308" />
      <path
         d="m 33940,27950 -20,30 -70,20 h -50 l -70,-20 -50,-50 -20,-50 -30,-90 v -70 l 30,-100 20,-50 50,-40 70,-30 h 50 l 70,30 20,20"
         id="path310" />
    </g>
  </g>
  <g
     style="fill:#008484;fill-opacity:0;stroke:#008484;stroke-width:60;stroke-linecap:round;stroke-linejoin:round;stroke-opacity:1"
     id="g316"
     transform="translate(-28460,-24010)" />
  <g
     style="fill:#008400;fill-opacity:0;stroke:#008400;stroke-width:60;stroke-linecap:round;stroke-linejoin:round;stroke-opacity:1"
     id="g340"
     transform="translate(-28460,-24010)">
    <path
       d="M 67000,31500 H 62000"
       id="path318" />
    <path
       d="m 62000,33500 h 5000"
       id="path320" />
    <path
       d="M 48500,28500 H 47000"
       id="path322" />
    <path
       d="m 47000,28500 v 1500"
       id="path324" />
    <path
       d="m 47000,30000 h 1500"
       id="path326" />
    <path
       d="M 48500,31500 H 47000"
       id="path328" />
    <path
       d="M 47000,31500 V 30000"
       id="path330" />
    <path
       d="m 40000,40000 h 5000"
       id="path332" />
    <path
       d="M 36500,30000 H 47000"
       id="path334" />
    <path
       d="m 36500,32000 h 3500"
       id="path336" />
    <path
       d="m 40000,32000 v 8000"
       id="path338" />
  </g>
  <g
     style="fill:#008400;fill-opacity:0;stroke:#008400;stroke-width:80;stroke-linecap:round;stroke-linejoin:round;stroke-opacity:1"
     id="g342"
     transform="translate(-28460,-24010)" />
  <g
     style="fill:#0000c2;fill-opacity:0;stroke:#0000c2;stroke-width:80;stroke-linecap:round;stroke-linejoin:round;stroke-opacity:1"
     id="g594"
     transform="translate(-28460,-24010)">
    <text
       x="46000"
       y="39110"
       textLength="22910"
       font-size="1050px"
       lengthAdjust="spacingAndGlyphs"
       text-anchor="start"
       opacity="0"
       id="text344">Phase voltage generated by a second</text>
    <path
       d="m 46220,39070 v -790 h 300 l 80,40 40,30 30,80 v 110 l -30,80 -40,30 -80,40 h -300"
       id="path346" />
    <path
       d="m 47010,39070 v -790"
       id="path348" />
    <path
       d="m 47350,39070 v -420 l -40,-70 -70,-40 h -110 l -80,40 -40,40"
       id="path350" />
    <path
       d="m 48070,39070 v -420 l -40,-70 -80,-40 h -150 l -70,40"
       id="path352" />
    <path
       d="m 48070,39030 -80,40 h -190 l -70,-40 -40,-80 v -70 l 40,-80 70,-30 h 190 l 80,-40"
       id="path354" />
    <path
       d="m 48410,39030 70,40 h 150 l 80,-40 30,-80 v -30 l -30,-80 -80,-40 h -110 l -80,-30 -30,-80 v -40 l 30,-70 80,-40 h 110 l 80,40"
       id="path356" />
    <path
       d="m 49380,39030 -70,40 h -150 l -80,-40 -40,-80 v -300 l 40,-70 80,-40 h 150 l 70,40 40,70 v 80 l -380,70"
       id="path358" />
    <path
       d="m 50290,38540 180,530 190,-530"
       id="path360" />
    <path
       d="m 51080,39070 -80,-40 -40,-40 -30,-70 v -230 l 30,-70 40,-40 80,-40 h 110 l 70,40 40,40 40,70 v 230 l -40,70 -40,40 -70,40 h -110"
       id="path362" />
    <path
       d="m 51790,39070 -70,-40 -40,-80 v -670"
       id="path364" />
    <path
       d="m 51980,38540 h 300"
       id="path366" />
    <path
       d="m 52090,38280 v 670 l 40,80 70,40 h 80"
       id="path368" />
    <path
       d="m 52880,39070 v -420 l -40,-70 -70,-40 h -150 l -80,40"
       id="path370" />
    <path
       d="m 52880,39030 -70,40 h -190 l -80,-40 -30,-80 v -70 l 30,-80 80,-30 h 190 l 70,-40"
       id="path372" />
    <path
       d="m 53600,38540 v 640 l -40,80 -40,30 -70,40 h -120 l -70,-40"
       id="path374" />
    <path
       d="m 53600,39030 -80,40 h -150 l -70,-40 -40,-40 -40,-70 v -230 l 40,-70 40,-40 70,-40 h 150 l 80,40"
       id="path376" />
    <path
       d="m 54270,39030 -70,40 h -150 l -80,-40 -30,-80 v -300 l 30,-70 80,-40 h 150 l 70,40 40,70 v 80 l -370,70"
       id="path378" />
    <path
       d="m 55590,38540 v 640 l -40,80 -30,30 -80,40 h -110 l -80,-40"
       id="path380" />
    <path
       d="m 55590,39030 -70,40 h -160 l -70,-40 -40,-40 -40,-70 v -230 l 40,-70 40,-40 70,-40 h 160 l 70,40"
       id="path382" />
    <path
       d="m 56270,39030 -80,40 h -150 l -70,-40 -40,-80 v -300 l 40,-70 70,-40 h 150 l 80,40 40,70 v 80 l -380,70"
       id="path384" />
    <path
       d="m 56640,38540 v 530"
       id="path386" />
    <path
       d="m 56640,38620 40,-40 80,-40 h 110 l 70,40 40,70 v 420"
       id="path388" />
    <path
       d="m 57660,39030 -80,40 h -150 l -70,-40 -40,-80 v -300 l 40,-70 70,-40 h 150 l 80,40 40,70 v 80 l -380,70"
       id="path390" />
    <path
       d="m 58040,39070 v -530"
       id="path392" />
    <path
       d="m 58040,38690 30,-70 40,-40 80,-40 h 70"
       id="path394" />
    <path
       d="m 58860,39070 v -420 l -30,-70 -80,-40 h -150 l -80,40"
       id="path396" />
    <path
       d="m 58860,39030 -70,40 h -190 l -80,-40 -30,-80 v -70 l 30,-80 80,-30 h 190 l 70,-40"
       id="path398" />
    <path
       d="m 59130,38540 h 300"
       id="path400" />
    <path
       d="m 59240,38280 v 670 l 40,80 70,40 h 80"
       id="path402" />
    <path
       d="m 59990,39030 -70,40 h -150 l -80,-40 -40,-80 v -300 l 40,-70 80,-40 h 150 l 70,40 40,70 v 80 l -380,70"
       id="path404" />
    <path
       d="m 60710,39070 v -790"
       id="path406" />
    <path
       d="m 60710,39030 -80,40 h -150 l -70,-40 -40,-40 -40,-70 v -230 l 40,-70 40,-40 70,-40 h 150 l 80,40"
       id="path408" />
    <path
       d="m 61680,39070 v -790"
       id="path410" />
    <path
       d="m 61680,38580 80,-40 h 150 l 80,40 30,40 40,70 v 230 l -40,70 -30,40 -80,40 h -150 l -80,-40"
       id="path412" />
    <path
       d="m 62320,38540 190,530"
       id="path414" />
    <path
       d="m 62700,38540 -190,530 -70,190 -40,30 -80,40"
       id="path416" />
    <path
       d="m 63940,39070 v -420 l -40,-70 -70,-40 h -150 l -80,40"
       id="path418" />
    <path
       d="m 63940,39030 -70,40 h -190 l -80,-40 -30,-80 v -70 l 30,-80 80,-30 h 190 l 70,-40"
       id="path420" />
    <path
       d="m 64880,39030 80,40 h 150 l 70,-40 40,-80 v -30 l -40,-80 -70,-40 h -120 l -70,-30 -40,-80 v -40 l 40,-70 70,-40 h 120 l 70,40"
       id="path422" />
    <path
       d="m 65860,39030 -80,40 h -150 l -70,-40 -40,-80 v -300 l 40,-70 70,-40 h 150 l 80,40 40,70 v 80 l -380,70"
       id="path424" />
    <path
       d="m 66580,39030 -80,40 h -150 l -80,-40 -30,-40 -40,-70 v -230 l 40,-70 30,-40 80,-40 h 150 l 80,40"
       id="path426" />
    <path
       d="m 67030,39070 -80,-40 -40,-40 -30,-70 v -230 l 30,-70 40,-40 80,-40 h 110 l 70,40 40,40 40,70 v 230 l -40,70 -40,40 -70,40 h -110"
       id="path428" />
    <path
       d="m 67630,38540 v 530"
       id="path430" />
    <path
       d="m 67630,38620 40,-40 70,-40 h 110 l 80,40 40,70 v 420"
       id="path432" />
    <path
       d="m 68680,39070 v -790"
       id="path434" />
    <path
       d="m 68680,39030 -70,40 h -150 l -80,-40 -40,-40 -30,-70 v -230 l 30,-70 40,-40 80,-40 h 150 l 70,40"
       id="path436" />
    <text
       x="46000"
       y="40380"
       textLength="23330"
       font-size="1050px"
       lengthAdjust="spacingAndGlyphs"
       text-anchor="start"
       opacity="0"
       id="text438">ADM-PC-BP25 in Inverter-Sync mode</text>
    <path
       d="m 46190,40110 h 370"
       id="path440" />
    <path
       d="m 46110,40340 260,-790 270,790"
       id="path442" />
    <path
       d="m 46900,40340 v -790 h 190 l 110,40 80,70 30,80 40,150 v 110 l -40,150 -30,70 -80,80 -110,40 h -190"
       id="path444" />
    <path
       d="m 47690,40340 v -790 l 260,560 270,-560 v 790"
       id="path446" />
    <path
       d="m 48590,40040 h 610"
       id="path448" />
    <path
       d="m 49570,40340 v -790 h 300 l 80,40 40,30 30,80 v 110 l -30,80 -40,30 -80,40 h -300"
       id="path450" />
    <path
       d="m 50810,40260 -30,40 -120,40 h -70 l -120,-40 -70,-80 -40,-70 -40,-150 v -110 l 40,-150 40,-80 70,-70 120,-40 h 70 l 120,40 30,30"
       id="path452" />
    <path
       d="m 51150,40040 h 600"
       id="path454" />
    <path
       d="m 52390,39920 120,40 30,40 40,70 v 120 l -40,70 -30,40 -80,40 h -300 v -790 h 260 l 80,40 40,30 30,80 v 70 l -30,80 -40,40 -80,30 h -260"
       id="path456" />
    <path
       d="m 52920,40340 v -790 h 300 l 80,40 30,30 40,80 v 110 l -40,80 -30,30 -80,40 h -300"
       id="path458" />
    <path
       d="m 53670,39620 40,-30 70,-40 h 190 l 80,40 40,30 30,80 v 70 l -30,120 -460,450 h 490"
       id="path460" />
    <path
       d="m 54840,39550 h -380 l -40,370 40,-30 80,-40 h 190 l 70,40 40,30 40,80 v 190 l -40,70 -40,40 -70,40 h -190 l -80,-40 -40,-40"
       id="path462" />
    <path
       d="m 55820,40340 v -530"
       id="path464" />
    <path
       d="m 55820,39550 -40,40 40,30 30,-30 -30,-40 v 70"
       id="path466" />
    <path
       d="m 56190,39810 v 530"
       id="path468" />
    <path
       d="m 56190,39890 40,-40 80,-40 h 110 l 70,40 40,70 v 420"
       id="path470" />
    <path
       d="m 57510,40340 v -790"
       id="path472" />
    <path
       d="m 57890,39810 v 530"
       id="path474" />
    <path
       d="m 57890,39890 30,-40 80,-40 h 110 l 80,40 30,70 v 420"
       id="path476" />
    <path
       d="m 58520,39810 190,530 190,-530"
       id="path478" />
    <path
       d="m 59500,40300 -70,40 h -150 l -80,-40 -40,-80 v -300 l 40,-70 80,-40 h 150 l 70,40 40,70 v 80 l -380,70"
       id="path480" />
    <path
       d="m 59880,40340 v -530"
       id="path482" />
    <path
       d="m 59880,39960 40,-70 30,-40 80,-40 h 70"
       id="path484" />
    <path
       d="m 60260,39810 h 300"
       id="path486" />
    <path
       d="m 60370,39550 v 670 l 40,80 70,40 h 80"
       id="path488" />
    <path
       d="m 61120,40300 -70,40 h -160 l -70,-40 -40,-80 v -300 l 40,-70 70,-40 h 160 l 70,40 40,70 v 80 l -380,70"
       id="path490" />
    <path
       d="m 61500,40340 v -530"
       id="path492" />
    <path
       d="m 61500,39960 30,-70 40,-40 80,-40 h 70"
       id="path494" />
    <path
       d="m 61990,40040 h 600"
       id="path496" />
    <path
       d="m 62930,40300 110,40 h 190 l 70,-40 40,-40 40,-70 v -80 l -40,-70 -40,-40 -70,-40 -150,-40 -80,-30 -40,-40 -30,-80 v -70 l 30,-80 40,-30 80,-40 h 180 l 120,40"
       id="path498" />
    <path
       d="m 63640,39810 190,530"
       id="path500" />
    <path
       d="m 64020,39810 -190,530 -80,190 -30,30 -80,40"
       id="path502" />
    <path
       d="m 64320,39810 v 530"
       id="path504" />
    <path
       d="m 64320,39890 40,-40 70,-40 h 110 l 80,40 40,70 v 420"
       id="path506" />
    <path
       d="m 65370,40300 -70,40 h -150 l -80,-40 -40,-40 -30,-70 v -230 l 30,-70 40,-40 80,-40 h 150 l 70,40"
       id="path508" />
    <path
       d="m 66310,40340 v -530"
       id="path510" />
    <path
       d="m 66310,39890 40,-40 70,-40 h 120 l 70,40 40,70 v 420"
       id="path512" />
    <path
       d="m 66650,39920 40,-70 70,-40 h 120 l 70,40 40,70 v 420"
       id="path514" />
    <path
       d="m 67480,40340 -80,-40 -30,-40 -40,-70 v -230 l 40,-70 30,-40 80,-40 h 110 l 80,40 30,40 40,70 v 230 l -40,70 -30,40 -80,40 h -110"
       id="path516" />
    <path
       d="m 68420,40340 v -790"
       id="path518" />
    <path
       d="m 68420,40300 -80,40 h -150 l -70,-40 -40,-40 -40,-70 v -230 l 40,-70 40,-40 70,-40 h 150 l 80,40"
       id="path520" />
    <path
       d="m 69100,40300 -80,40 h -150 l -80,-40 -30,-80 v -300 l 30,-70 80,-40 h 150 l 80,40 30,70 v 80 l -370,70"
       id="path522" />
    <text
       x="41500"
       y="24880"
       textLength="19420"
       font-size="1050px"
       lengthAdjust="spacingAndGlyphs"
       text-anchor="start"
       opacity="0"
       id="text524">ADM-PC-BP25 in Neutral mode</text>
    <path
       d="m 41690,24610 h 370"
       id="path526" />
    <path
       d="m 41610,24840 260,-790 270,790"
       id="path528" />
    <path
       d="m 42400,24840 v -790 h 190 l 110,40 80,70 30,80 40,150 v 110 l -40,150 -30,70 -80,80 -110,40 h -190"
       id="path530" />
    <path
       d="m 43190,24840 v -790 l 260,560 270,-560 v 790"
       id="path532" />
    <path
       d="m 44090,24540 h 610"
       id="path534" />
    <path
       d="m 45070,24840 v -790 h 300 l 80,40 40,30 30,80 v 110 l -30,80 -40,30 -80,40 h -300"
       id="path536" />
    <path
       d="m 46310,24760 -30,40 -120,40 h -70 l -120,-40 -70,-80 -40,-70 -40,-150 v -110 l 40,-150 40,-80 70,-70 120,-40 h 70 l 120,40 30,30"
       id="path538" />
    <path
       d="m 46650,24540 h 600"
       id="path540" />
    <path
       d="m 47890,24420 120,40 30,40 40,70 v 120 l -40,70 -30,40 -80,40 h -300 v -790 h 260 l 80,40 40,30 30,80 v 70 l -30,80 -40,40 -80,30 h -260"
       id="path542" />
    <path
       d="m 48420,24840 v -790 h 300 l 80,40 30,30 40,80 v 110 l -40,80 -30,30 -80,40 h -300"
       id="path544" />
    <path
       d="m 49170,24120 40,-30 70,-40 h 190 l 80,40 40,30 30,80 v 70 l -30,120 -460,450 h 490"
       id="path546" />
    <path
       d="m 50340,24050 h -380 l -40,370 40,-30 80,-40 h 190 l 70,40 40,30 40,80 v 190 l -40,70 -40,40 -70,40 h -190 l -80,-40 -40,-40"
       id="path548" />
    <path
       d="m 51320,24840 v -530"
       id="path550" />
    <path
       d="m 51320,24050 -40,40 40,30 30,-30 -30,-40 v 70"
       id="path552" />
    <path
       d="m 51690,24310 v 530"
       id="path554" />
    <path
       d="m 51690,24390 40,-40 80,-40 h 110 l 70,40 40,70 v 420"
       id="path556" />
    <path
       d="m 53010,24840 v -790 l 450,790 v -790"
       id="path558" />
    <path
       d="m 54140,24800 -80,40 h -150 l -70,-40 -40,-80 v -300 l 40,-70 70,-40 h 150 l 80,40 40,70 v 80 l -380,70"
       id="path560" />
    <path
       d="m 54850,24310 v 530"
       id="path562" />
    <path
       d="m 54510,24310 v 410 l 40,80 80,40 h 110 l 70,-40 40,-40"
       id="path564" />
    <path
       d="m 55120,24310 h 300"
       id="path566" />
    <path
       d="m 55230,24050 v 670 l 40,80 70,40 h 80"
       id="path568" />
    <path
       d="m 55680,24840 v -530"
       id="path570" />
    <path
       d="m 55680,24460 40,-70 40,-40 70,-40 h 80"
       id="path572" />
    <path
       d="m 56510,24840 v -420 l -40,-70 -80,-40 h -150 l -70,40"
       id="path574" />
    <path
       d="m 56510,24800 -80,40 h -190 l -70,-40 -40,-80 v -70 l 40,-80 70,-30 h 190 l 80,-40"
       id="path576" />
    <path
       d="m 57000,24840 -80,-40 -40,-80 v -670"
       id="path578" />
    <path
       d="m 57900,24840 v -530"
       id="path580" />
    <path
       d="m 57900,24390 40,-40 70,-40 h 120 l 70,40 40,70 v 420"
       id="path582" />
    <path
       d="m 58240,24420 40,-70 70,-40 h 110 l 80,40 40,70 v 420"
       id="path584" />
    <path
       d="m 59070,24840 -80,-40 -40,-40 -30,-70 v -230 l 30,-70 40,-40 80,-40 h 110 l 70,40 40,40 40,70 v 230 l -40,70 -40,40 -70,40 h -110"
       id="path586" />
    <path
       d="m 60010,24840 v -790"
       id="path588" />
    <path
       d="m 60010,24800 -80,40 h -150 l -70,-40 -40,-40 -40,-70 v -230 l 40,-70 40,-40 70,-40 h 150 l 80,40"
       id="path590" />
    <path
       d="m 60680,24800 -70,40 h -150 l -80,-40 -40,-80 v -300 l 40,-70 80,-40 h 150 l 70,40 40,70 v 80 l -380,70"
       id="path592" />
  </g>
  <g
     style="fill:#0000c2;fill-opacity:0;stroke:#0000c2;stroke-width:0;stroke-linecap:round;stroke-linejoin:round;stroke-opacity:1"
     id="g596"
     transform="translate(-28460,-24010)" />
  <g
     style="fill:#008400;fill-opacity:0;stroke:#008400;stroke-width:0;stroke-linecap:round;stroke-linejoin:round;stroke-opacity:1"
     id="g598"
     transform="translate(-28460,-24010)" />
  <g
     style="fill:#008400;fill-opacity:1;stroke:#008400;stroke-width:100;stroke-linecap:round;stroke-linejoin:round;stroke-opacity:1"
     id="g602"
     transform="translate(-28460,-24010)">
    <circle
       cx="47000"
       cy="30000"
       r="200"
       id="circle600" />
  </g>
</svg>
