<?xml version="1.0" encoding="UTF-8" standalone="no"?>
<svg
   version="1.1"
   width="12.515305cm"
   height="4.45262cm"
   viewBox="0 0 49272.852 17530.001"
   id="svg540"
   xmlns="http://www.w3.org/2000/svg"
   xmlns:svg="http://www.w3.org/2000/svg">
  <defs
     id="defs544" />
  <title
     id="title2">SVG Picture created as AFE_inverter 1-ph-AFE_inverter_1ph.svg date 2021/12/17 13:52:30 </title>
  <desc
     id="desc4">Picture generated by Eeschema-SVG </desc>
  <g
     style="fill:#000000;fill-opacity:1;stroke:#000000;stroke-linecap:round;stroke-linejoin:round;stroke-opacity:1"
     id="g6"
     transform="translate(-31960,-36510)" />
  <g
     style="fill:#000000;fill-opacity:0;stroke:#000000;stroke-width:0;stroke-linecap:round;stroke-linejoin:round;stroke-opacity:1"
     id="g146"
     transform="translate(-31960,-36510)">
    <g
       id="g8" />
    <g
       style="fill:#840000;fill-opacity:0;stroke:#840000;stroke-width:0;stroke-linecap:round;stroke-linejoin:round;stroke-opacity:1"
       id="g10" />
    <g
       style="fill:#ffffc2;fill-opacity:0;stroke:#ffffc2;stroke-width:0;stroke-linecap:round;stroke-linejoin:round;stroke-opacity:1"
       id="g12" />
    <g
       style="fill:#ffffc2;fill-opacity:0.6;stroke:#ffffc2;stroke-width:0;stroke-linecap:round;stroke-linejoin:round;stroke-opacity:1"
       id="g16">
      <rect
         x="51000"
         y="41000"
         width="11500"
         height="7000"
         rx="0"
         id="rect14" />
    </g>
    <g
       style="fill:#840000;fill-opacity:0.6;stroke:#840000;stroke-width:0;stroke-linecap:round;stroke-linejoin:round;stroke-opacity:1"
       id="g18" />
    <g
       style="fill:#840000;fill-opacity:0;stroke:#840000;stroke-width:80;stroke-linecap:round;stroke-linejoin:round;stroke-opacity:1"
       id="g40">
      <rect
         x="51000"
         y="41000"
         width="11500"
         height="7000"
         rx="0"
         id="rect20" />
      <path
         d="m 53401.6,42749.3 a 280,280 0 0 0 496.8,0"
         id="path22" />
      <path
         d="m 54403.1,42748.5 a 290,290 0 0 0 -506.2,0"
         id="path24" />
      <rect
         x="51000"
         y="41000"
         width="11500"
         height="7000"
         rx="0"
         id="rect26" />
      <path
         style="fill:none;fill-opacity:0;stroke:#840000;stroke-width:80;stroke-linecap:round;stroke-linejoin:round;stroke-opacity:1"
         d="m 53400,43250 h 1000"
         id="path28" />
      <path
         style="fill:none;fill-opacity:0;stroke:#840000;stroke-width:80;stroke-linecap:round;stroke-linejoin:round;stroke-opacity:1"
         d="m 59000,45800 h 1000"
         id="path30" />
      <path
         style="fill:none;fill-opacity:0;stroke:#840000;stroke-width:80;stroke-linecap:round;stroke-linejoin:round;stroke-opacity:1"
         d="m 59000,45300 h 200"
         id="path32" />
      <path
         style="fill:none;fill-opacity:0;stroke:#840000;stroke-width:80;stroke-linecap:round;stroke-linejoin:round;stroke-opacity:1"
         d="m 59400,45300 h 200"
         id="path34" />
      <path
         style="fill:none;fill-opacity:0;stroke:#840000;stroke-width:80;stroke-linecap:round;stroke-linejoin:round;stroke-opacity:1"
         d="m 59800,45300 h 200"
         id="path36" />
      <path
         d="M 51000,46500 H 50000"
         id="path38" />
    </g>
    <g
       style="fill:#008484;fill-opacity:0;stroke:#008484;stroke-width:80;stroke-linecap:round;stroke-linejoin:round;stroke-opacity:1"
       id="g50">
      <text
         x="51200"
         y="46750"
         textLength="1700"
         font-size="660px"
         lengthAdjust="spacingAndGlyphs"
         text-anchor="start"
         opacity="0"
         id="text42">DC-</text>
      <path
         d="m 51350,46720 v -500 h 120 l 70,30 50,40 30,50 20,100 v 70 l -20,90 -30,50 -50,50 -70,20 h -120"
         id="path44" />
      <path
         d="m 52140,46670 -20,30 -80,20 h -40 l -70,-20 -50,-50 -30,-50 -20,-90 v -70 l 20,-100 30,-50 50,-40 70,-30 h 40 l 80,30 20,20"
         id="path46" />
      <path
         d="m 52350,46530 h 390"
         id="path48" />
    </g>
    <g
       style="fill:#840000;fill-opacity:0;stroke:#840000;stroke-width:80;stroke-linecap:round;stroke-linejoin:round;stroke-opacity:1"
       id="g54">
      <path
         d="M 51000,41500 H 50000"
         id="path52" />
    </g>
    <g
       style="fill:#008484;fill-opacity:0;stroke:#008484;stroke-width:80;stroke-linecap:round;stroke-linejoin:round;stroke-opacity:1"
       id="g64">
      <text
         x="51200"
         y="41750"
         textLength="960"
         font-size="660px"
         lengthAdjust="spacingAndGlyphs"
         text-anchor="start"
         opacity="0"
         id="text56">L1</text>
      <path
         d="m 51590,41720 h -240 v -500"
         id="path58" />
      <path
         d="m 52020,41720 h -280"
         id="path60" />
      <path
         d="m 51880,41720 v -500 l -50,70 -50,50 -40,20"
         id="path62" />
    </g>
    <g
       style="fill:#840000;fill-opacity:0;stroke:#840000;stroke-width:80;stroke-linecap:round;stroke-linejoin:round;stroke-opacity:1"
       id="g68">
      <path
         d="M 51000,43000 H 50000"
         id="path66" />
    </g>
    <g
       style="fill:#008484;fill-opacity:0;stroke:#008484;stroke-width:80;stroke-linecap:round;stroke-linejoin:round;stroke-opacity:1"
       id="g76">
      <text
         x="51200"
         y="43250"
         textLength="960"
         font-size="660px"
         lengthAdjust="spacingAndGlyphs"
         text-anchor="start"
         opacity="0"
         id="text70">L2</text>
      <path
         d="m 51590,43220 h -240 v -500"
         id="path72" />
      <path
         d="m 51740,42770 20,-20 50,-30 h 120 l 40,30 30,20 20,50 v 40 l -20,80 -290,280 h 310"
         id="path74" />
    </g>
    <g
       style="fill:#840000;fill-opacity:0;stroke:#840000;stroke-width:80;stroke-linecap:round;stroke-linejoin:round;stroke-opacity:1"
       id="g80">
      <path
         d="M 51000,44500 H 50000"
         id="path78" />
    </g>
    <g
       style="fill:#008484;fill-opacity:0;stroke:#008484;stroke-width:80;stroke-linecap:round;stroke-linejoin:round;stroke-opacity:1"
       id="g88">
      <text
         x="51200"
         y="44750"
         textLength="960"
         font-size="660px"
         lengthAdjust="spacingAndGlyphs"
         text-anchor="start"
         opacity="0"
         id="text82">L3</text>
      <path
         d="m 51590,44720 h -240 v -500"
         id="path84" />
      <path
         d="m 51710,44220 h 310 l -170,190 h 80 l 40,30 30,20 20,50 v 120 l -20,40 -30,30 -40,20 h -150 l -40,-20 -30,-30"
         id="path86" />
    </g>
    <g
       style="fill:#840000;fill-opacity:0;stroke:#840000;stroke-width:80;stroke-linecap:round;stroke-linejoin:round;stroke-opacity:1"
       id="g92">
      <path
         d="m 62500,46500 h 1000"
         id="path90" />
    </g>
    <g
       style="fill:#008484;fill-opacity:0;stroke:#008484;stroke-width:80;stroke-linecap:round;stroke-linejoin:round;stroke-opacity:1"
       id="g102">
      <text
         x="62300"
         y="46750"
         textLength="1700"
         font-size="660px"
         lengthAdjust="spacingAndGlyphs"
         text-anchor="end"
         opacity="0"
         id="text94">DC-</text>
      <path
         d="m 60760,46720 v -500 h 110 l 80,30 40,40 30,50 20,100 v 70 l -20,90 -30,50 -40,50 -80,20 h -110"
         id="path96" />
      <path
         d="m 61540,46670 -20,30 -70,20 h -50 l -70,-20 -50,-50 -20,-50 -30,-90 v -70 l 30,-100 20,-50 50,-40 70,-30 h 50 l 70,30 20,20"
         id="path98" />
      <path
         d="m 61760,46530 h 380"
         id="path100" />
    </g>
    <g
       style="fill:#840000;fill-opacity:0;stroke:#840000;stroke-width:80;stroke-linecap:round;stroke-linejoin:round;stroke-opacity:1"
       id="g106">
      <path
         d="m 62500,44500 h 1000"
         id="path104" />
    </g>
    <g
       style="fill:#008484;fill-opacity:0;stroke:#008484;stroke-width:80;stroke-linecap:round;stroke-linejoin:round;stroke-opacity:1"
       id="g144">
      <text
         x="62300"
         y="44750"
         textLength="1700"
         font-size="660px"
         lengthAdjust="spacingAndGlyphs"
         text-anchor="end"
         opacity="0"
         id="text108">DC+</text>
      <path
         d="m 60760,44720 v -500 h 110 l 80,30 40,40 30,50 20,100 v 70 l -20,90 -30,50 -40,50 -80,20 h -110"
         id="path110" />
      <path
         d="m 61540,44670 -20,30 -70,20 h -50 l -70,-20 -50,-50 -20,-50 -30,-90 v -70 l 30,-100 20,-50 50,-40 70,-30 h 50 l 70,30 20,20"
         id="path112" />
      <path
         d="m 61760,44530 h 380"
         id="path114" />
      <path
         d="m 61950,44720 v -380"
         id="path116" />
      <text
         x="56750"
         y="40550"
         textLength="5770"
         font-size="660px"
         lengthAdjust="spacingAndGlyphs"
         text-anchor="middle"
         opacity="0"
         id="text118">ADM-PC-BP25</text>
      <path
         d="m 54000,40380 h 230"
         id="path120" />
      <path
         d="m 53950,40520 160,-500 170,500"
         id="path122" />
      <path
         d="m 54450,40520 v -500 h 120 l 70,30 50,40 20,50 20,100 v 70 l -20,90 -20,50 -50,50 -70,20 h -120"
         id="path124" />
      <path
         d="m 54950,40520 v -500 l 160,360 170,-360 v 500"
         id="path126" />
      <path
         d="m 55520,40330 h 380"
         id="path128" />
      <path
         d="m 56140,40520 v -500 h 190 l 50,30 20,20 20,50 v 70 l -20,50 -20,20 -50,20 h -190"
         id="path130" />
      <path
         d="m 56920,40470 -20,30 -70,20 h -50 l -70,-20 -50,-50 -20,-50 -30,-90 v -70 l 30,-100 20,-50 50,-40 70,-30 h 50 l 70,30 20,20"
         id="path132" />
      <path
         d="m 57140,40330 h 380"
         id="path134" />
      <path
         d="m 57920,40260 80,20 20,30 20,40 v 80 l -20,40 -20,30 -50,20 h -190 v -500 h 160 l 50,30 30,20 20,50 v 40 l -20,50 -30,30 -50,20 h -160"
         id="path136" />
      <path
         d="m 58260,40520 v -500 h 190 l 50,30 20,20 20,50 v 70 l -20,50 -20,20 -50,20 h -190"
         id="path138" />
      <path
         d="m 58730,40070 30,-20 40,-30 h 120 l 50,30 30,20 20,50 v 40 l -20,80 -290,280 h 310"
         id="path140" />
      <path
         d="m 59470,40020 h -240 l -20,240 20,-20 50,-30 h 120 l 50,30 20,20 30,50 v 120 l -30,40 -20,30 -50,20 h -120 l -50,-20 -20,-30"
         id="path142" />
    </g>
  </g>
  <g
     style="fill:#008484;fill-opacity:0;stroke:#008484;stroke-width:0;stroke-linecap:round;stroke-linejoin:round;stroke-opacity:1"
     id="g252"
     transform="translate(-31960,-36510)">
    <g
       id="g148" />
    <g
       style="fill:#840000;fill-opacity:0;stroke:#840000;stroke-width:0;stroke-linecap:round;stroke-linejoin:round;stroke-opacity:1"
       id="g150" />
    <g
       style="fill:#ffffc2;fill-opacity:0;stroke:#ffffc2;stroke-width:0;stroke-linecap:round;stroke-linejoin:round;stroke-opacity:1"
       id="g152" />
    <g
       style="fill:#ffffc2;fill-opacity:0.6;stroke:#ffffc2;stroke-width:0;stroke-linecap:round;stroke-linejoin:round;stroke-opacity:1"
       id="g156">
      <rect
         x="69500"
         y="43000"
         width="7000"
         height="5000"
         rx="0"
         id="rect154" />
    </g>
    <g
       style="fill:#840000;fill-opacity:0.6;stroke:#840000;stroke-width:0;stroke-linecap:round;stroke-linejoin:round;stroke-opacity:1"
       id="g158" />
    <g
       style="fill:#840000;fill-opacity:0;stroke:#840000;stroke-width:80;stroke-linecap:round;stroke-linejoin:round;stroke-opacity:1"
       id="g180">
      <rect
         x="69500"
         y="43000"
         width="7000"
         height="5000"
         rx="0"
         id="rect160" />
      <rect
         x="69500"
         y="43000"
         width="7000"
         height="5000"
         rx="0"
         id="rect162" />
      <path
         style="fill:none;fill-opacity:0;stroke:#840000;stroke-width:80;stroke-linecap:round;stroke-linejoin:round;stroke-opacity:1"
         d="m 74500,45500 h 400"
         id="path164" />
      <path
         style="fill:none;fill-opacity:0;stroke:#840000;stroke-width:80;stroke-linecap:round;stroke-linejoin:round;stroke-opacity:1"
         d="m 74100,45000 v 1000"
         id="path166" />
      <path
         style="fill:none;fill-opacity:0;stroke:#840000;stroke-width:80;stroke-linecap:round;stroke-linejoin:round;stroke-opacity:1"
         d="m 73600,45500 h 300"
         id="path168" />
      <path
         style="fill:none;fill-opacity:0;stroke:#840000;stroke-width:80;stroke-linecap:round;stroke-linejoin:round;stroke-opacity:1"
         d="m 73100,45500 h 300"
         id="path170" />
      <path
         style="fill:none;fill-opacity:0;stroke:#840000;stroke-width:80;stroke-linecap:round;stroke-linejoin:round;stroke-opacity:1"
         d="m 72600,45500 h 300"
         id="path172" />
      <path
         style="fill:none;fill-opacity:0;stroke:#840000;stroke-width:80;stroke-linecap:round;stroke-linejoin:round;stroke-opacity:1"
         d="m 72600,44600 v 1800"
         id="path174" />
      <path
         style="fill:none;fill-opacity:0;stroke:#840000;stroke-width:80;stroke-linecap:round;stroke-linejoin:round;stroke-opacity:1"
         d="m 72200,45500 h -400"
         id="path176" />
      <path
         style="fill:none;fill-opacity:0;stroke:#840000;stroke-width:80;stroke-linecap:round;stroke-linejoin:round;stroke-opacity:1"
         d="m 72200,45000 v 1100"
         id="path178" />
    </g>
    <g
       style="fill:#840000;fill-opacity:0;stroke:#840000;stroke-width:60;stroke-linecap:round;stroke-linejoin:round;stroke-opacity:1"
       id="g184">
      <path
         style="fill:none;fill-opacity:0;stroke:#840000;stroke-width:60;stroke-linecap:round;stroke-linejoin:round;stroke-opacity:1"
         d="m 74500,44600 v 1790"
         id="path182" />
    </g>
    <g
       style="fill:#840000;fill-opacity:0;stroke:#840000;stroke-width:80;stroke-linecap:round;stroke-linejoin:round;stroke-opacity:1"
       id="g188">
      <path
         d="M 69500,44500 H 68500"
         id="path186" />
    </g>
    <g
       style="fill:#008484;fill-opacity:0;stroke:#008484;stroke-width:80;stroke-linecap:round;stroke-linejoin:round;stroke-opacity:1"
       id="g196">
      <text
         x="69700"
         y="44890"
         textLength="1060"
         font-size="1050px"
         lengthAdjust="spacingAndGlyphs"
         text-anchor="start"
         opacity="0"
         id="text190">+</text>
      <path
         d="m 69920,44550 h 610"
         id="path192" />
      <path
         d="m 70220,44850 v -600"
         id="path194" />
    </g>
    <g
       style="fill:#840000;fill-opacity:0;stroke:#840000;stroke-width:80;stroke-linecap:round;stroke-linejoin:round;stroke-opacity:1"
       id="g200">
      <path
         d="M 69500,46500 H 68500"
         id="path198" />
    </g>
    <g
       style="fill:#008484;fill-opacity:0;stroke:#008484;stroke-width:80;stroke-linecap:round;stroke-linejoin:round;stroke-opacity:1"
       id="g250">
      <text
         x="69700"
         y="46890"
         textLength="1060"
         font-size="1050px"
         lengthAdjust="spacingAndGlyphs"
         text-anchor="start"
         opacity="0"
         id="text202">-</text>
      <path
         d="m 69920,46550 h 610"
         id="path204" />
      <text
         x="78990"
         y="45780"
         textLength="4410"
         font-size="660px"
         lengthAdjust="spacingAndGlyphs"
         text-anchor="middle"
         opacity="0"
         id="text206">batterypack</text>
      <path
         d="m 76940,45750 v -500"
         id="path208" />
      <path
         d="m 76940,45440 50,-20 h 90 l 50,20 20,30 30,40 v 150 l -30,40 -20,30 -50,20 h -90 l -50,-20"
         id="path210" />
      <path
         d="m 77600,45750 v -260 l -20,-50 -50,-20 h -90 l -50,20"
         id="path212" />
      <path
         d="m 77600,45730 -40,20 h -120 l -50,-20 -20,-50 v -50 l 20,-50 50,-20 h 120 l 40,-20"
         id="path214" />
      <path
         d="m 77770,45420 h 190"
         id="path216" />
      <path
         d="m 77840,45250 v 430 l 30,50 40,20 h 50"
         id="path218" />
      <path
         d="m 78060,45420 h 190"
         id="path220" />
      <path
         d="m 78130,45250 v 430 l 20,50 50,20 h 50"
         id="path222" />
      <path
         d="m 78600,45730 -40,20 h -100 l -50,-20 -20,-50 v -190 l 20,-50 50,-20 h 100 l 40,20 30,50 v 50 l -240,40"
         id="path224" />
      <path
         d="m 78840,45750 v -330"
         id="path226" />
      <path
         d="m 78840,45510 30,-40 20,-30 50,-20 h 50"
         id="path228" />
      <path
         d="m 79100,45420 120,330"
         id="path230" />
      <path
         d="m 79340,45420 -120,330 -40,120 -30,20 -50,30"
         id="path232" />
      <path
         d="m 79530,45420 v 500"
         id="path234" />
      <path
         d="m 79530,45440 50,-20 h 100 l 40,20 30,30 20,40 v 150 l -20,40 -30,30 -40,20 h -100 l -50,-20"
         id="path236" />
      <path
         d="m 80200,45750 v -260 l -20,-50 -50,-20 h -100 l -40,20"
         id="path238" />
      <path
         d="m 80200,45730 -50,20 h -120 l -40,-20 -30,-50 v -50 l 30,-50 40,-20 h 120 l 50,-20"
         id="path240" />
      <path
         d="m 80650,45730 -50,20 h -90 l -50,-20 -20,-30 -30,-40 v -150 l 30,-40 20,-30 50,-20 h 90 l 50,20"
         id="path242" />
      <path
         d="m 80870,45750 v -500"
         id="path244" />
      <path
         d="m 80910,45560 150,190"
         id="path246" />
      <path
         d="m 81060,45420 -190,190"
         id="path248" />
    </g>
  </g>
  <g
     style="fill:#008484;fill-opacity:0;stroke:#008484;stroke-width:0;stroke-linecap:round;stroke-linejoin:round;stroke-opacity:1"
     id="g314"
     transform="translate(-31960,-36510)">
    <g
       id="g254" />
    <g
       style="fill:#840000;fill-opacity:0;stroke:#840000;stroke-width:0;stroke-linecap:round;stroke-linejoin:round;stroke-opacity:1"
       id="g256" />
    <g
       style="fill:#ffffc2;fill-opacity:0;stroke:#ffffc2;stroke-width:0;stroke-linecap:round;stroke-linejoin:round;stroke-opacity:1"
       id="g258" />
    <g
       style="fill:#ffffc2;fill-opacity:0.6;stroke:#ffffc2;stroke-width:0;stroke-linecap:round;stroke-linejoin:round;stroke-opacity:1"
       id="g262">
      <rect
         x="32000"
         y="39500"
         width="7000"
         height="5000"
         rx="0"
         id="rect260" />
    </g>
    <g
       style="fill:#840000;fill-opacity:0.6;stroke:#840000;stroke-width:0;stroke-linecap:round;stroke-linejoin:round;stroke-opacity:1"
       id="g264" />
    <g
       style="fill:#840000;fill-opacity:0;stroke:#840000;stroke-width:80;stroke-linecap:round;stroke-linejoin:round;stroke-opacity:1"
       id="g272">
      <rect
         x="32000"
         y="39500"
         width="7000"
         height="5000"
         rx="0"
         id="rect266" />
      <rect
         x="32000"
         y="39500"
         width="7000"
         height="5000"
         rx="0"
         id="rect268" />
      <path
         d="m 39000,41000 h 1000"
         id="path270" />
    </g>
    <g
       style="fill:#008484;fill-opacity:0;stroke:#008484;stroke-width:80;stroke-linecap:round;stroke-linejoin:round;stroke-opacity:1"
       id="g280">
      <text
         x="38800"
         y="41390"
         textLength="1060"
         font-size="1050px"
         lengthAdjust="spacingAndGlyphs"
         text-anchor="end"
         opacity="0"
         id="text274">+</text>
      <path
         d="m 37970,41050 h 600"
         id="path276" />
      <path
         d="m 38270,41350 v -600"
         id="path278" />
    </g>
    <g
       style="fill:#840000;fill-opacity:0;stroke:#840000;stroke-width:80;stroke-linecap:round;stroke-linejoin:round;stroke-opacity:1"
       id="g284">
      <path
         d="m 39000,43000 h 1000"
         id="path282" />
    </g>
    <g
       style="fill:#008484;fill-opacity:0;stroke:#008484;stroke-width:80;stroke-linecap:round;stroke-linejoin:round;stroke-opacity:1"
       id="g312">
      <text
         x="38800"
         y="43390"
         textLength="1060"
         font-size="1050px"
         lengthAdjust="spacingAndGlyphs"
         text-anchor="end"
         opacity="0"
         id="text286">-</text>
      <path
         d="m 37970,43050 h 600"
         id="path288" />
      <text
         x="36080"
         y="39030"
         textLength="3010"
         font-size="660px"
         lengthAdjust="spacingAndGlyphs"
         text-anchor="middle"
         opacity="0"
         id="text290">load_AC</text>
      <path
         d="m 34800,39000 -50,-20 -20,-50 v -430"
         id="path292" />
      <path
         d="m 35060,39000 -40,-20 -30,-30 -20,-40 v -150 l 20,-40 30,-30 40,-20 h 70 l 50,20 30,30 20,40 v 150 l -20,40 -30,30 -50,20 h -70"
         id="path294" />
      <path
         d="m 35660,39000 v -260 l -30,-50 -40,-20 h -100 l -50,20"
         id="path296" />
      <path
         d="m 35660,38980 -50,20 h -120 l -50,-20 -20,-50 v -50 l 20,-50 50,-20 h 120 l 50,-20"
         id="path298" />
      <path
         d="m 36110,39000 v -500"
         id="path300" />
      <path
         d="m 36110,38980 -50,20 h -90 l -50,-20 -20,-30 -30,-40 v -150 l 30,-40 20,-30 50,-20 h 90 l 50,20"
         id="path302" />
      <path
         d="m 36230,39050 h 380"
         id="path304" />
      <path
         d="m 36710,38860 h 230"
         id="path306" />
      <path
         d="m 36660,39000 170,-500 160,500"
         id="path308" />
      <path
         d="m 37440,38950 -20,30 -70,20 h -50 l -70,-20 -50,-50 -20,-50 -30,-90 v -70 l 30,-100 20,-50 50,-40 70,-30 h 50 l 70,30 20,20"
         id="path310" />
    </g>
  </g>
  <g
     style="fill:#008484;fill-opacity:0;stroke:#008484;stroke-width:0;stroke-linecap:round;stroke-linejoin:round;stroke-opacity:1"
     id="g376"
     transform="translate(-31960,-36510)">
    <g
       id="g316" />
    <g
       style="fill:#840000;fill-opacity:0;stroke:#840000;stroke-width:0;stroke-linecap:round;stroke-linejoin:round;stroke-opacity:1"
       id="g318" />
    <g
       style="fill:#ffffc2;fill-opacity:0;stroke:#ffffc2;stroke-width:0;stroke-linecap:round;stroke-linejoin:round;stroke-opacity:1"
       id="g320" />
    <g
       style="fill:#ffffc2;fill-opacity:0.6;stroke:#ffffc2;stroke-width:0;stroke-linecap:round;stroke-linejoin:round;stroke-opacity:1"
       id="g324">
      <rect
         x="32000"
         y="49000"
         width="7000"
         height="5000"
         rx="0"
         id="rect322" />
    </g>
    <g
       style="fill:#840000;fill-opacity:0.6;stroke:#840000;stroke-width:0;stroke-linecap:round;stroke-linejoin:round;stroke-opacity:1"
       id="g326" />
    <g
       style="fill:#840000;fill-opacity:0;stroke:#840000;stroke-width:80;stroke-linecap:round;stroke-linejoin:round;stroke-opacity:1"
       id="g334">
      <rect
         x="32000"
         y="49000"
         width="7000"
         height="5000"
         rx="0"
         id="rect328" />
      <rect
         x="32000"
         y="49000"
         width="7000"
         height="5000"
         rx="0"
         id="rect330" />
      <path
         d="m 39000,50500 h 1000"
         id="path332" />
    </g>
    <g
       style="fill:#008484;fill-opacity:0;stroke:#008484;stroke-width:80;stroke-linecap:round;stroke-linejoin:round;stroke-opacity:1"
       id="g342">
      <text
         x="38800"
         y="50890"
         textLength="1060"
         font-size="1050px"
         lengthAdjust="spacingAndGlyphs"
         text-anchor="end"
         opacity="0"
         id="text336">+</text>
      <path
         d="m 37970,50550 h 600"
         id="path338" />
      <path
         d="m 38270,50850 v -600"
         id="path340" />
    </g>
    <g
       style="fill:#840000;fill-opacity:0;stroke:#840000;stroke-width:80;stroke-linecap:round;stroke-linejoin:round;stroke-opacity:1"
       id="g346">
      <path
         d="m 39000,52500 h 1000"
         id="path344" />
    </g>
    <g
       style="fill:#008484;fill-opacity:0;stroke:#008484;stroke-width:80;stroke-linecap:round;stroke-linejoin:round;stroke-opacity:1"
       id="g374">
      <text
         x="38800"
         y="52890"
         textLength="1060"
         font-size="1050px"
         lengthAdjust="spacingAndGlyphs"
         text-anchor="end"
         opacity="0"
         id="text348">-</text>
      <path
         d="m 37970,52550 h 600"
         id="path350" />
      <text
         x="36080"
         y="48530"
         textLength="3010"
         font-size="660px"
         lengthAdjust="spacingAndGlyphs"
         text-anchor="middle"
         opacity="0"
         id="text352">load_AC</text>
      <path
         d="m 34800,48500 -50,-20 -20,-50 v -430"
         id="path354" />
      <path
         d="m 35060,48500 -40,-20 -30,-30 -20,-40 v -150 l 20,-40 30,-30 40,-20 h 70 l 50,20 30,30 20,40 v 150 l -20,40 -30,30 -50,20 h -70"
         id="path356" />
      <path
         d="m 35660,48500 v -260 l -30,-50 -40,-20 h -100 l -50,20"
         id="path358" />
      <path
         d="m 35660,48480 -50,20 h -120 l -50,-20 -20,-50 v -50 l 20,-50 50,-20 h 120 l 50,-20"
         id="path360" />
      <path
         d="m 36110,48500 v -500"
         id="path362" />
      <path
         d="m 36110,48480 -50,20 h -90 l -50,-20 -20,-30 -30,-40 v -150 l 30,-40 20,-30 50,-20 h 90 l 50,20"
         id="path364" />
      <path
         d="m 36230,48550 h 380"
         id="path366" />
      <path
         d="m 36710,48360 h 230"
         id="path368" />
      <path
         d="m 36660,48500 170,-500 160,500"
         id="path370" />
      <path
         d="m 37440,48450 -20,30 -70,20 h -50 l -70,-20 -50,-50 -20,-50 -30,-90 v -70 l 30,-100 20,-50 50,-40 70,-30 h 50 l 70,30 20,20"
         id="path372" />
    </g>
  </g>
  <g
     style="fill:#008484;fill-opacity:0;stroke:#008484;stroke-width:60;stroke-linecap:round;stroke-linejoin:round;stroke-opacity:1"
     id="g378"
     transform="translate(-31960,-36510)" />
  <g
     style="fill:#008400;fill-opacity:0;stroke:#008400;stroke-width:60;stroke-linecap:round;stroke-linejoin:round;stroke-opacity:1"
     id="g404"
     transform="translate(-31960,-36510)">
    <path
       d="m 40000,52500 h 7000"
       id="path380" />
    <path
       d="m 44000,41000 h 2500"
       id="path382" />
    <path
       d="M 44000,50500 V 41000"
       id="path384" />
    <path
       d="m 46500,41000 v 500"
       id="path386" />
    <path
       d="m 40000,41000 h 4000"
       id="path388" />
    <path
       d="M 40000,43000 H 50000"
       id="path390" />
    <path
       d="m 40000,50500 h 4000"
       id="path392" />
    <path
       d="m 47000,44500 h 3000"
       id="path394" />
    <path
       d="M 47000,52500 V 44500"
       id="path396" />
    <path
       d="M 68500,44500 H 63500"
       id="path398" />
    <path
       d="m 46500,41500 h 3500"
       id="path400" />
    <path
       d="m 63500,46500 h 5000"
       id="path402" />
  </g>
  <g
     style="fill:#008400;fill-opacity:0;stroke:#008400;stroke-width:80;stroke-linecap:round;stroke-linejoin:round;stroke-opacity:1"
     id="g406"
     transform="translate(-31960,-36510)" />
  <g
     style="fill:#0000c2;fill-opacity:0;stroke:#0000c2;stroke-width:80;stroke-linecap:round;stroke-linejoin:round;stroke-opacity:1"
     id="g530"
     transform="translate(-31960,-36510)">
    <text
       x="40500"
       y="51880"
       textLength="3500"
       font-size="1050px"
       lengthAdjust="spacingAndGlyphs"
       text-anchor="start"
       opacity="0"
       id="text408">2*Vac</text>
    <path
       d="m 40690,51120 30,-30 80,-40 h 190 l 70,40 40,30 40,80 v 70 l -40,120 -450,450 h 490"
       id="path410" />
    <path
       d="m 41590,51050 v 190"
       id="path412" />
    <path
       d="m 41400,51160 190,80 190,-80"
       id="path414" />
    <path
       d="m 41480,51390 110,-150 110,150"
       id="path416" />
    <path
       d="m 41960,51050 270,790 260,-790"
       id="path418" />
    <path
       d="m 43090,51840 v -420 l -30,-70 -80,-40 h -150 l -80,40"
       id="path420" />
    <path
       d="m 43090,51800 -70,40 h -190 l -80,-40 -30,-80 v -70 l 30,-80 80,-30 h 190 l 70,-40"
       id="path422" />
    <path
       d="m 43810,51800 -80,40 h -150 l -70,-40 -40,-40 -40,-70 v -230 l 40,-70 40,-40 70,-40 h 150 l 80,40"
       id="path424" />
    <text
       x="40000"
       y="42380"
       textLength="2150"
       font-size="1050px"
       lengthAdjust="spacingAndGlyphs"
       text-anchor="start"
       opacity="0"
       id="text426">Vac</text>
    <path
       d="m 40110,41550 260,790 270,-790"
       id="path428" />
    <path
       d="m 41240,42340 v -420 l -40,-70 -70,-40 h -150 l -80,40"
       id="path430" />
    <path
       d="m 41240,42300 -80,40 h -180 l -80,-40 -40,-80 v -70 l 40,-80 80,-30 h 180 l 80,-40"
       id="path432" />
    <path
       d="m 41950,42300 -70,40 h -150 l -80,-40 -30,-40 -40,-70 v -230 l 40,-70 30,-40 80,-40 h 150 l 70,40"
       id="path434" />
    <text
       x="40000"
       y="37380"
       textLength="25400"
       font-size="1050px"
       lengthAdjust="spacingAndGlyphs"
       text-anchor="start"
       opacity="0"
       id="text436">ADM-PC-BP25 in Inverter 1-phase mode</text>
    <path
       d="m 40190,37110 h 370"
       id="path438" />
    <path
       d="m 40110,37340 260,-790 270,790"
       id="path440" />
    <path
       d="m 40900,37340 v -790 h 190 l 110,40 80,70 30,80 40,150 v 110 l -40,150 -30,70 -80,80 -110,40 h -190"
       id="path442" />
    <path
       d="m 41690,37340 v -790 l 260,560 270,-560 v 790"
       id="path444" />
    <path
       d="m 42590,37040 h 610"
       id="path446" />
    <path
       d="m 43570,37340 v -790 h 300 l 80,40 40,30 30,80 v 110 l -30,80 -40,30 -80,40 h -300"
       id="path448" />
    <path
       d="m 44810,37260 -30,40 -120,40 h -70 l -120,-40 -70,-80 -40,-70 -40,-150 v -110 l 40,-150 40,-80 70,-70 120,-40 h 70 l 120,40 30,30"
       id="path450" />
    <path
       d="m 45150,37040 h 600"
       id="path452" />
    <path
       d="m 46390,36920 120,40 30,40 40,70 v 120 l -40,70 -30,40 -80,40 h -300 v -790 h 260 l 80,40 40,30 30,80 v 70 l -30,80 -40,40 -80,30 h -260"
       id="path454" />
    <path
       d="m 46920,37340 v -790 h 300 l 80,40 30,30 40,80 v 110 l -40,80 -30,30 -80,40 h -300"
       id="path456" />
    <path
       d="m 47670,36620 40,-30 70,-40 h 190 l 80,40 40,30 30,80 v 70 l -30,120 -460,450 h 490"
       id="path458" />
    <path
       d="m 48840,36550 h -380 l -40,370 40,-30 80,-40 h 190 l 70,40 40,30 40,80 v 190 l -40,70 -40,40 -70,40 h -190 l -80,-40 -40,-40"
       id="path460" />
    <path
       d="m 49820,37340 v -530"
       id="path462" />
    <path
       d="m 49820,36550 -40,40 40,30 30,-30 -30,-40 v 70"
       id="path464" />
    <path
       d="m 50190,36810 v 530"
       id="path466" />
    <path
       d="m 50190,36890 40,-40 80,-40 h 110 l 70,40 40,70 v 420"
       id="path468" />
    <path
       d="m 51510,37340 v -790"
       id="path470" />
    <path
       d="m 51890,36810 v 530"
       id="path472" />
    <path
       d="m 51890,36890 30,-40 80,-40 h 110 l 80,40 30,70 v 420"
       id="path474" />
    <path
       d="m 52520,36810 190,530 190,-530"
       id="path476" />
    <path
       d="m 53500,37300 -70,40 h -150 l -80,-40 -40,-80 v -300 l 40,-70 80,-40 h 150 l 70,40 40,70 v 80 l -380,70"
       id="path478" />
    <path
       d="m 53880,37340 v -530"
       id="path480" />
    <path
       d="m 53880,36960 40,-70 30,-40 80,-40 h 70"
       id="path482" />
    <path
       d="m 54260,36810 h 300"
       id="path484" />
    <path
       d="m 54370,36550 v 670 l 40,80 70,40 h 80"
       id="path486" />
    <path
       d="m 55120,37300 -70,40 h -160 l -70,-40 -40,-80 v -300 l 40,-70 70,-40 h 160 l 70,40 40,70 v 80 l -380,70"
       id="path488" />
    <path
       d="m 55500,37340 v -530"
       id="path490" />
    <path
       d="m 55500,36960 30,-70 40,-40 80,-40 h 70"
       id="path492" />
    <path
       d="m 57000,37340 h -450"
       id="path494" />
    <path
       d="m 56780,37340 v -790 l -80,110 -70,80 -80,30"
       id="path496" />
    <path
       d="m 57340,37040 h 600"
       id="path498" />
    <path
       d="m 58320,36810 v 790"
       id="path500" />
    <path
       d="m 58320,36850 70,-40 h 150 l 80,40 40,40 30,70 v 230 l -30,70 -40,40 -80,40 h -150 l -70,-40"
       id="path502" />
    <path
       d="m 59030,37340 v -790"
       id="path504" />
    <path
       d="m 59370,37340 v -420 l -40,-70 -70,-40 h -110 l -80,40 -40,40"
       id="path506" />
    <path
       d="m 60090,37340 v -420 l -40,-70 -80,-40 h -150 l -70,40"
       id="path508" />
    <path
       d="m 60090,37300 -80,40 h -190 l -70,-40 -40,-80 v -70 l 40,-80 70,-30 h 190 l 80,-40"
       id="path510" />
    <path
       d="m 60420,37300 80,40 h 150 l 80,-40 30,-80 v -30 l -30,-80 -80,-40 h -110 l -80,-30 -40,-80 v -40 l 40,-70 80,-40 h 110 l 80,40"
       id="path512" />
    <path
       d="m 61400,37300 -70,40 h -150 l -80,-40 -40,-80 v -300 l 40,-70 80,-40 h 150 l 70,40 40,70 v 80 l -380,70"
       id="path514" />
    <path
       d="m 62380,37340 v -530"
       id="path516" />
    <path
       d="m 62380,36890 40,-40 70,-40 h 120 l 70,40 40,70 v 420"
       id="path518" />
    <path
       d="m 62720,36920 40,-70 70,-40 h 120 l 70,40 40,70 v 420"
       id="path520" />
    <path
       d="m 63550,37340 -80,-40 -40,-40 -30,-70 v -230 l 30,-70 40,-40 80,-40 h 110 l 80,40 30,40 40,70 v 230 l -40,70 -30,40 -80,40 h -110"
       id="path522" />
    <path
       d="m 64490,37340 v -790"
       id="path524" />
    <path
       d="m 64490,37300 -80,40 h -150 l -70,-40 -40,-40 -40,-70 v -230 l 40,-70 40,-40 70,-40 h 150 l 80,40"
       id="path526" />
    <path
       d="m 65160,37300 -70,40 h -150 l -80,-40 -30,-80 v -300 l 30,-70 80,-40 h 150 l 70,40 40,70 v 80 l -370,70"
       id="path528" />
  </g>
  <g
     style="fill:#0000c2;fill-opacity:0;stroke:#0000c2;stroke-width:0;stroke-linecap:round;stroke-linejoin:round;stroke-opacity:1"
     id="g532"
     transform="translate(-31960,-36510)" />
  <g
     style="fill:#008400;fill-opacity:0;stroke:#008400;stroke-width:0;stroke-linecap:round;stroke-linejoin:round;stroke-opacity:1"
     id="g534"
     transform="translate(-31960,-36510)" />
  <g
     style="fill:#008400;fill-opacity:1;stroke:#008400;stroke-width:100;stroke-linecap:round;stroke-linejoin:round;stroke-opacity:1"
     id="g538"
     transform="translate(-31960,-36510)">
    <circle
       cx="44000"
       cy="41000"
       r="200"
       id="circle536" />
  </g>
</svg>
