<?xml version="1.0" encoding="UTF-8" standalone="no"?>
<svg
   version="1.1"
   width="10.18032cm"
   height="2.4307799cm"
   viewBox="0 0 40079.999 9570.0002"
   id="svg414"
   xmlns="http://www.w3.org/2000/svg"
   xmlns:svg="http://www.w3.org/2000/svg">
  <defs
     id="defs418" />
  <title
     id="title2">SVG Picture created as AFE_3_port-AFE_3_port.svg date 2022/02/15 17:23:39 </title>
  <desc
     id="desc4">Picture generated by Eeschema-SVG </desc>
  <g
     style="fill:#000000;fill-opacity:1;stroke:#000000;stroke-linecap:round;stroke-linejoin:round;stroke-opacity:1"
     id="g6"
     transform="translate(-35960,-27960)" />
  <g
     style="fill:#000000;fill-opacity:0;stroke:#000000;stroke-width:0;stroke-linecap:round;stroke-linejoin:round;stroke-opacity:1"
     id="g164"
     transform="translate(-35960,-27960)">
    <g
       id="g8" />
    <g
       style="fill:#840000;fill-opacity:0;stroke:#840000;stroke-width:0;stroke-linecap:round;stroke-linejoin:round;stroke-opacity:1"
       id="g10" />
    <g
       style="fill:#ffffc2;fill-opacity:0;stroke:#ffffc2;stroke-width:0;stroke-linecap:round;stroke-linejoin:round;stroke-opacity:1"
       id="g12" />
    <g
       style="fill:#ffffc2;fill-opacity:0.6;stroke:#ffffc2;stroke-width:0;stroke-linecap:round;stroke-linejoin:round;stroke-opacity:1"
       id="g16">
      <rect
         x="69000"
         y="31000"
         width="7000"
         height="5000"
         rx="0"
         id="rect14" />
    </g>
    <g
       style="fill:#840000;fill-opacity:0.6;stroke:#840000;stroke-width:0;stroke-linecap:round;stroke-linejoin:round;stroke-opacity:1"
       id="g18" />
    <g
       style="fill:#840000;fill-opacity:0;stroke:#840000;stroke-width:80;stroke-linecap:round;stroke-linejoin:round;stroke-opacity:1"
       id="g40">
      <rect
         x="69000"
         y="31000"
         width="7000"
         height="5000"
         rx="0"
         id="rect20" />
      <rect
         x="69000"
         y="31000"
         width="7000"
         height="5000"
         rx="0"
         id="rect22" />
      <path
         style="fill:none;fill-opacity:0;stroke:#840000;stroke-width:80;stroke-linecap:round;stroke-linejoin:round;stroke-opacity:1"
         d="m 74000,33500 h 400"
         id="path24" />
      <path
         style="fill:none;fill-opacity:0;stroke:#840000;stroke-width:80;stroke-linecap:round;stroke-linejoin:round;stroke-opacity:1"
         d="m 73600,33000 v 1000"
         id="path26" />
      <path
         style="fill:none;fill-opacity:0;stroke:#840000;stroke-width:80;stroke-linecap:round;stroke-linejoin:round;stroke-opacity:1"
         d="m 73100,33500 h 300"
         id="path28" />
      <path
         style="fill:none;fill-opacity:0;stroke:#840000;stroke-width:80;stroke-linecap:round;stroke-linejoin:round;stroke-opacity:1"
         d="m 72600,33500 h 300"
         id="path30" />
      <path
         style="fill:none;fill-opacity:0;stroke:#840000;stroke-width:80;stroke-linecap:round;stroke-linejoin:round;stroke-opacity:1"
         d="m 72100,33500 h 300"
         id="path32" />
      <path
         style="fill:none;fill-opacity:0;stroke:#840000;stroke-width:80;stroke-linecap:round;stroke-linejoin:round;stroke-opacity:1"
         d="m 72100,32600 v 1800"
         id="path34" />
      <path
         style="fill:none;fill-opacity:0;stroke:#840000;stroke-width:80;stroke-linecap:round;stroke-linejoin:round;stroke-opacity:1"
         d="m 71700,33500 h -400"
         id="path36" />
      <path
         style="fill:none;fill-opacity:0;stroke:#840000;stroke-width:80;stroke-linecap:round;stroke-linejoin:round;stroke-opacity:1"
         d="m 71700,33000 v 1100"
         id="path38" />
    </g>
    <g
       style="fill:#840000;fill-opacity:0;stroke:#840000;stroke-width:60;stroke-linecap:round;stroke-linejoin:round;stroke-opacity:1"
       id="g44">
      <path
         style="fill:none;fill-opacity:0;stroke:#840000;stroke-width:60;stroke-linecap:round;stroke-linejoin:round;stroke-opacity:1"
         d="m 74000,32600 v 1790"
         id="path42" />
    </g>
    <g
       style="fill:#840000;fill-opacity:0;stroke:#840000;stroke-width:80;stroke-linecap:round;stroke-linejoin:round;stroke-opacity:1"
       id="g48">
      <path
         d="M 69000,32500 H 68000"
         id="path46" />
    </g>
    <g
       style="fill:#008484;fill-opacity:0;stroke:#008484;stroke-width:80;stroke-linecap:round;stroke-linejoin:round;stroke-opacity:1"
       id="g56">
      <text
         x="69200"
         y="32890"
         textLength="1060"
         font-size="1050px"
         lengthAdjust="spacingAndGlyphs"
         text-anchor="start"
         opacity="0"
         id="text50">+</text>
      <path
         d="m 69420,32550 h 610"
         id="path52" />
      <path
         d="m 69720,32850 v -600"
         id="path54" />
    </g>
    <g
       style="fill:#840000;fill-opacity:0;stroke:#840000;stroke-width:80;stroke-linecap:round;stroke-linejoin:round;stroke-opacity:1"
       id="g60">
      <path
         d="M 69000,34500 H 68000"
         id="path58" />
    </g>
    <g
       style="fill:#008484;fill-opacity:0;stroke:#008484;stroke-width:80;stroke-linecap:round;stroke-linejoin:round;stroke-opacity:1"
       id="g130">
      <text
         x="69200"
         y="34890"
         textLength="1060"
         font-size="1050px"
         lengthAdjust="spacingAndGlyphs"
         text-anchor="start"
         opacity="0"
         id="text62">-</text>
      <path
         d="m 69420,34550 h 610"
         id="path64" />
      <text
         x="71920"
         y="28670"
         textLength="2200"
         font-size="660px"
         lengthAdjust="spacingAndGlyphs"
         text-anchor="middle"
         opacity="0"
         id="text66">BATT?</text>
      <path
         d="m 71140,28380 70,20 30,30 20,40 v 80 l -20,40 -30,30 -40,20 h -200 v -500 h 170 l 50,30 20,20 30,50 v 40 l -30,50 -20,30 -50,20 h -170"
         id="path68" />
      <path
         d="m 71450,28500 h 240"
         id="path70" />
      <path
         d="m 71400,28640 170,-500 170,500"
         id="path72" />
      <path
         d="m 71830,28140 h 290"
         id="path74" />
      <path
         d="m 71970,28640 v -500"
         id="path76" />
      <path
         d="m 72210,28140 h 290"
         id="path78" />
      <path
         d="m 72360,28640 v -500"
         id="path80" />
      <path
         d="m 72740,28590 20,30 -20,20 -30,-20 30,-30 v 50"
         id="path82" />
      <path
         d="m 72640,28170 50,-30 h 120 l 50,30 20,40 v 50 l -20,50 -30,20 -50,30 -20,20 -20,50 v 20"
         id="path84" />
      <text
         x="71910"
         y="29600"
         textLength="4410"
         font-size="660px"
         lengthAdjust="spacingAndGlyphs"
         text-anchor="middle"
         opacity="0"
         id="text86">batterypack</text>
      <path
         d="m 69860,29570 v -500"
         id="path88" />
      <path
         d="m 69860,29260 50,-20 h 90 l 50,20 20,30 30,40 v 150 l -30,40 -20,30 -50,20 h -90 l -50,-20"
         id="path90" />
      <path
         d="m 70520,29570 v -260 l -20,-50 -50,-20 h -90 l -50,20"
         id="path92" />
      <path
         d="m 70520,29550 -40,20 h -120 l -50,-20 -20,-50 v -50 l 20,-50 50,-20 h 120 l 40,-20"
         id="path94" />
      <path
         d="m 70690,29240 h 190"
         id="path96" />
      <path
         d="m 70760,29070 v 430 l 30,50 40,20 h 50"
         id="path98" />
      <path
         d="m 70980,29240 h 190"
         id="path100" />
      <path
         d="m 71050,29070 v 430 l 20,50 50,20 h 50"
         id="path102" />
      <path
         d="m 71520,29550 -40,20 h -100 l -50,-20 -20,-50 v -190 l 20,-50 50,-20 h 100 l 40,20 30,50 v 50 l -240,40"
         id="path104" />
      <path
         d="m 71760,29570 v -330"
         id="path106" />
      <path
         d="m 71760,29330 30,-40 20,-30 50,-20 h 50"
         id="path108" />
      <path
         d="m 72020,29240 120,330"
         id="path110" />
      <path
         d="m 72260,29240 -120,330 -40,120 -30,20 -50,30"
         id="path112" />
      <path
         d="m 72450,29240 v 500"
         id="path114" />
      <path
         d="m 72450,29260 50,-20 h 100 l 40,20 30,30 20,40 v 150 l -20,40 -30,30 -40,20 h -100 l -50,-20"
         id="path116" />
      <path
         d="m 73120,29570 v -260 l -20,-50 -50,-20 h -100 l -40,20"
         id="path118" />
      <path
         d="m 73120,29550 -50,20 h -120 l -40,-20 -30,-50 v -50 l 30,-50 40,-20 h 120 l 50,-20"
         id="path120" />
      <path
         d="m 73570,29550 -50,20 h -90 l -50,-20 -20,-30 -30,-40 v -150 l 30,-40 20,-30 50,-20 h 90 l 50,20"
         id="path122" />
      <path
         d="m 73790,29570 v -500"
         id="path124" />
      <path
         d="m 73830,29380 150,190"
         id="path126" />
      <path
         d="m 73980,29240 -190,190"
         id="path128" />
    </g>
    <g
       style="fill:#840084;fill-opacity:0;stroke:#840084;stroke-width:80;stroke-linecap:round;stroke-linejoin:round;stroke-opacity:1"
       id="g162">
      <text
         x="71920"
         y="30530"
         textLength="3480"
         font-size="660px"
         lengthAdjust="spacingAndGlyphs"
         text-anchor="middle"
         opacity="0"
         id="text132">xxV/yyAh</text>
      <path
         d="m 70280,30500 270,-330"
         id="path134" />
      <path
         d="m 70280,30170 270,330"
         id="path136" />
      <path
         d="m 70690,30500 260,-330"
         id="path138" />
      <path
         d="m 70690,30170 260,330"
         id="path140" />
      <path
         d="m 71070,30000 170,500 160,-500"
         id="path142" />
      <path
         d="m 71930,29980 -430,640"
         id="path144" />
      <path
         d="m 72050,30170 120,330"
         id="path146" />
      <path
         d="m 72280,30170 -110,330 -50,120 -30,20 -40,30"
         id="path148" />
      <path
         d="m 72430,30170 120,330"
         id="path150" />
      <path
         d="m 72670,30170 -120,330 -50,120 -30,20 -40,30"
         id="path152" />
      <path
         d="m 72830,30360 h 240"
         id="path154" />
      <path
         d="m 72780,30500 170,-500 170,500"
         id="path156" />
      <path
         d="m 73280,30500 v -500"
         id="path158" />
      <path
         d="m 73500,30500 v -260 l -30,-50 -40,-20 h -70 l -50,20 -30,30"
         id="path160" />
    </g>
  </g>
  <g
     style="fill:#840084;fill-opacity:0;stroke:#840084;stroke-width:0;stroke-linecap:round;stroke-linejoin:round;stroke-opacity:1"
     id="g224"
     transform="translate(-35960,-27960)">
    <g
       id="g166" />
    <g
       style="fill:#840000;fill-opacity:0;stroke:#840000;stroke-width:0;stroke-linecap:round;stroke-linejoin:round;stroke-opacity:1"
       id="g168" />
    <g
       style="fill:#ffffc2;fill-opacity:0;stroke:#ffffc2;stroke-width:0;stroke-linecap:round;stroke-linejoin:round;stroke-opacity:1"
       id="g170" />
    <g
       style="fill:#ffffc2;fill-opacity:0.6;stroke:#ffffc2;stroke-width:0;stroke-linecap:round;stroke-linejoin:round;stroke-opacity:1"
       id="g174">
      <rect
         x="36000"
         y="31000"
         width="7000"
         height="5000"
         rx="0"
         id="rect172" />
    </g>
    <g
       style="fill:#840000;fill-opacity:0.6;stroke:#840000;stroke-width:0;stroke-linecap:round;stroke-linejoin:round;stroke-opacity:1"
       id="g176" />
    <g
       style="fill:#840000;fill-opacity:0;stroke:#840000;stroke-width:80;stroke-linecap:round;stroke-linejoin:round;stroke-opacity:1"
       id="g184">
      <rect
         x="36000"
         y="31000"
         width="7000"
         height="5000"
         rx="0"
         id="rect178" />
      <rect
         x="36000"
         y="31000"
         width="7000"
         height="5000"
         rx="0"
         id="rect180" />
      <path
         d="m 43000,32500 h 1000"
         id="path182" />
    </g>
    <g
       style="fill:#008484;fill-opacity:0;stroke:#008484;stroke-width:80;stroke-linecap:round;stroke-linejoin:round;stroke-opacity:1"
       id="g192">
      <text
         x="42800"
         y="32890"
         textLength="1060"
         font-size="1050px"
         lengthAdjust="spacingAndGlyphs"
         text-anchor="end"
         opacity="0"
         id="text186">+</text>
      <path
         d="m 41970,32550 h 600"
         id="path188" />
      <path
         d="m 42270,32850 v -600"
         id="path190" />
    </g>
    <g
       style="fill:#840000;fill-opacity:0;stroke:#840000;stroke-width:80;stroke-linecap:round;stroke-linejoin:round;stroke-opacity:1"
       id="g196">
      <path
         d="m 43000,34500 h 1000"
         id="path194" />
    </g>
    <g
       style="fill:#008484;fill-opacity:0;stroke:#008484;stroke-width:80;stroke-linecap:round;stroke-linejoin:round;stroke-opacity:1"
       id="g222">
      <text
         x="42800"
         y="34890"
         textLength="1060"
         font-size="1050px"
         lengthAdjust="spacingAndGlyphs"
         text-anchor="end"
         opacity="0"
         id="text198">-</text>
      <path
         d="m 41970,34550 h 600"
         id="path200" />
      <text
         x="40080"
         y="30530"
         textLength="3080"
         font-size="660px"
         lengthAdjust="spacingAndGlyphs"
         text-anchor="middle"
         opacity="0"
         id="text202">load_DC</text>
      <path
         d="m 38770,30500 -50,-20 -30,-50 v -430"
         id="path204" />
      <path
         d="m 39030,30500 -50,-20 -20,-30 -30,-40 v -150 l 30,-40 20,-30 50,-20 h 70 l 50,20 20,30 20,40 v 150 l -20,40 -20,30 -50,20 h -70"
         id="path206" />
      <path
         d="m 39620,30500 v -260 l -20,-50 -50,-20 h -90 l -50,20"
         id="path208" />
      <path
         d="m 39620,30480 -40,20 h -120 l -50,-20 -30,-50 v -50 l 30,-50 50,-20 h 120 l 40,-20"
         id="path210" />
      <path
         d="m 40080,30500 v -500"
         id="path212" />
      <path
         d="m 40080,30480 -50,20 h -100 l -50,-20 -20,-30 -20,-40 v -150 l 20,-40 20,-30 50,-20 h 100 l 50,20"
         id="path214" />
      <path
         d="m 40190,30550 h 390"
         id="path216" />
      <path
         d="m 40690,30500 v -500 h 120 l 70,30 50,40 30,50 20,100 v 70 l -20,90 -30,50 -50,50 -70,20 h -120"
         id="path218" />
      <path
         d="m 41480,30450 -20,30 -80,20 h -40 l -70,-20 -50,-50 -30,-50 -20,-90 v -70 l 20,-100 30,-50 50,-40 70,-30 h 40 l 80,30 20,20"
         id="path220" />
    </g>
  </g>
  <g
     style="fill:#008484;fill-opacity:0;stroke:#008484;stroke-width:0;stroke-linecap:round;stroke-linejoin:round;stroke-opacity:1"
     id="g364"
     transform="translate(-35960,-27960)">
    <g
       id="g226" />
    <g
       style="fill:#840000;fill-opacity:0;stroke:#840000;stroke-width:0;stroke-linecap:round;stroke-linejoin:round;stroke-opacity:1"
       id="g228" />
    <g
       style="fill:#ffffc2;fill-opacity:0;stroke:#ffffc2;stroke-width:0;stroke-linecap:round;stroke-linejoin:round;stroke-opacity:1"
       id="g230" />
    <g
       style="fill:#ffffc2;fill-opacity:0.6;stroke:#ffffc2;stroke-width:0;stroke-linecap:round;stroke-linejoin:round;stroke-opacity:1"
       id="g234">
      <rect
         x="50500"
         y="29000"
         width="11500"
         height="7000"
         rx="0"
         id="rect232" />
    </g>
    <g
       style="fill:#840000;fill-opacity:0.6;stroke:#840000;stroke-width:0;stroke-linecap:round;stroke-linejoin:round;stroke-opacity:1"
       id="g236" />
    <g
       style="fill:#840000;fill-opacity:0;stroke:#840000;stroke-width:80;stroke-linecap:round;stroke-linejoin:round;stroke-opacity:1"
       id="g258">
      <rect
         x="50500"
         y="29000"
         width="11500"
         height="7000"
         rx="0"
         id="rect238" />
      <path
         d="m 52901.6,30749.3 a 280,280 0 0 0 496.8,0"
         id="path240" />
      <path
         d="m 53903.1,30748.5 a 290,290 0 0 0 -506.2,0"
         id="path242" />
      <rect
         x="50500"
         y="29000"
         width="11500"
         height="7000"
         rx="0"
         id="rect244" />
      <path
         style="fill:none;fill-opacity:0;stroke:#840000;stroke-width:80;stroke-linecap:round;stroke-linejoin:round;stroke-opacity:1"
         d="m 52900,31250 h 1000"
         id="path246" />
      <path
         style="fill:none;fill-opacity:0;stroke:#840000;stroke-width:80;stroke-linecap:round;stroke-linejoin:round;stroke-opacity:1"
         d="m 58500,33800 h 1000"
         id="path248" />
      <path
         style="fill:none;fill-opacity:0;stroke:#840000;stroke-width:80;stroke-linecap:round;stroke-linejoin:round;stroke-opacity:1"
         d="m 58500,33300 h 200"
         id="path250" />
      <path
         style="fill:none;fill-opacity:0;stroke:#840000;stroke-width:80;stroke-linecap:round;stroke-linejoin:round;stroke-opacity:1"
         d="m 58900,33300 h 200"
         id="path252" />
      <path
         style="fill:none;fill-opacity:0;stroke:#840000;stroke-width:80;stroke-linecap:round;stroke-linejoin:round;stroke-opacity:1"
         d="m 59300,33300 h 200"
         id="path254" />
      <path
         d="M 50500,34500 H 49500"
         id="path256" />
    </g>
    <g
       style="fill:#008484;fill-opacity:0;stroke:#008484;stroke-width:80;stroke-linecap:round;stroke-linejoin:round;stroke-opacity:1"
       id="g268">
      <text
         x="50700"
         y="34750"
         textLength="1700"
         font-size="660px"
         lengthAdjust="spacingAndGlyphs"
         text-anchor="start"
         opacity="0"
         id="text260">DC-</text>
      <path
         d="m 50850,34720 v -500 h 120 l 70,30 50,40 30,50 20,100 v 70 l -20,90 -30,50 -50,50 -70,20 h -120"
         id="path262" />
      <path
         d="m 51640,34670 -20,30 -80,20 h -40 l -70,-20 -50,-50 -30,-50 -20,-90 v -70 l 20,-100 30,-50 50,-40 70,-30 h 40 l 80,30 20,20"
         id="path264" />
      <path
         d="m 51850,34530 h 390"
         id="path266" />
    </g>
    <g
       style="fill:#840000;fill-opacity:0;stroke:#840000;stroke-width:80;stroke-linecap:round;stroke-linejoin:round;stroke-opacity:1"
       id="g272">
      <path
         d="M 50500,29500 H 49500"
         id="path270" />
    </g>
    <g
       style="fill:#008484;fill-opacity:0;stroke:#008484;stroke-width:80;stroke-linecap:round;stroke-linejoin:round;stroke-opacity:1"
       id="g282">
      <text
         x="50700"
         y="29750"
         textLength="960"
         font-size="660px"
         lengthAdjust="spacingAndGlyphs"
         text-anchor="start"
         opacity="0"
         id="text274">L1</text>
      <path
         d="m 51090,29720 h -240 v -500"
         id="path276" />
      <path
         d="m 51520,29720 h -280"
         id="path278" />
      <path
         d="m 51380,29720 v -500 l -50,70 -50,50 -40,20"
         id="path280" />
    </g>
    <g
       style="fill:#840000;fill-opacity:0;stroke:#840000;stroke-width:80;stroke-linecap:round;stroke-linejoin:round;stroke-opacity:1"
       id="g286">
      <path
         d="M 50500,31000 H 49500"
         id="path284" />
    </g>
    <g
       style="fill:#008484;fill-opacity:0;stroke:#008484;stroke-width:80;stroke-linecap:round;stroke-linejoin:round;stroke-opacity:1"
       id="g294">
      <text
         x="50700"
         y="31250"
         textLength="960"
         font-size="660px"
         lengthAdjust="spacingAndGlyphs"
         text-anchor="start"
         opacity="0"
         id="text288">L2</text>
      <path
         d="m 51090,31220 h -240 v -500"
         id="path290" />
      <path
         d="m 51240,30770 20,-20 50,-30 h 120 l 40,30 30,20 20,50 v 40 l -20,80 -290,280 h 310"
         id="path292" />
    </g>
    <g
       style="fill:#840000;fill-opacity:0;stroke:#840000;stroke-width:80;stroke-linecap:round;stroke-linejoin:round;stroke-opacity:1"
       id="g298">
      <path
         d="M 50500,32500 H 49500"
         id="path296" />
    </g>
    <g
       style="fill:#008484;fill-opacity:0;stroke:#008484;stroke-width:80;stroke-linecap:round;stroke-linejoin:round;stroke-opacity:1"
       id="g306">
      <text
         x="50700"
         y="32750"
         textLength="960"
         font-size="660px"
         lengthAdjust="spacingAndGlyphs"
         text-anchor="start"
         opacity="0"
         id="text300">L3</text>
      <path
         d="m 51090,32720 h -240 v -500"
         id="path302" />
      <path
         d="m 51210,32220 h 310 l -170,190 h 80 l 40,30 30,20 20,50 v 120 l -20,40 -30,30 -40,20 h -150 l -40,-20 -30,-30"
         id="path304" />
    </g>
    <g
       style="fill:#840000;fill-opacity:0;stroke:#840000;stroke-width:80;stroke-linecap:round;stroke-linejoin:round;stroke-opacity:1"
       id="g310">
      <path
         d="m 62000,34500 h 1000"
         id="path308" />
    </g>
    <g
       style="fill:#008484;fill-opacity:0;stroke:#008484;stroke-width:80;stroke-linecap:round;stroke-linejoin:round;stroke-opacity:1"
       id="g320">
      <text
         x="61800"
         y="34750"
         textLength="1700"
         font-size="660px"
         lengthAdjust="spacingAndGlyphs"
         text-anchor="end"
         opacity="0"
         id="text312">DC-</text>
      <path
         d="m 60260,34720 v -500 h 110 l 80,30 40,40 30,50 20,100 v 70 l -20,90 -30,50 -40,50 -80,20 h -110"
         id="path314" />
      <path
         d="m 61040,34670 -20,30 -70,20 h -50 l -70,-20 -50,-50 -20,-50 -30,-90 v -70 l 30,-100 20,-50 50,-40 70,-30 h 50 l 70,30 20,20"
         id="path316" />
      <path
         d="m 61260,34530 h 380"
         id="path318" />
    </g>
    <g
       style="fill:#840000;fill-opacity:0;stroke:#840000;stroke-width:80;stroke-linecap:round;stroke-linejoin:round;stroke-opacity:1"
       id="g324">
      <path
         d="m 62000,32500 h 1000"
         id="path322" />
    </g>
    <g
       style="fill:#008484;fill-opacity:0;stroke:#008484;stroke-width:80;stroke-linecap:round;stroke-linejoin:round;stroke-opacity:1"
       id="g362">
      <text
         x="61800"
         y="32750"
         textLength="1700"
         font-size="660px"
         lengthAdjust="spacingAndGlyphs"
         text-anchor="end"
         opacity="0"
         id="text326">DC+</text>
      <path
         d="m 60260,32720 v -500 h 110 l 80,30 40,40 30,50 20,100 v 70 l -20,90 -30,50 -40,50 -80,20 h -110"
         id="path328" />
      <path
         d="m 61040,32670 -20,30 -70,20 h -50 l -70,-20 -50,-50 -20,-50 -30,-90 v -70 l 30,-100 20,-50 50,-40 70,-30 h 50 l 70,30 20,20"
         id="path330" />
      <path
         d="m 61260,32530 h 380"
         id="path332" />
      <path
         d="m 61450,32720 v -380"
         id="path334" />
      <text
         x="56250"
         y="28530"
         textLength="5770"
         font-size="660px"
         lengthAdjust="spacingAndGlyphs"
         text-anchor="middle"
         opacity="0"
         id="text336">ADM-PC-BP25</text>
      <path
         d="m 53500,28360 h 230"
         id="path338" />
      <path
         d="m 53450,28500 160,-500 170,500"
         id="path340" />
      <path
         d="m 53950,28500 v -500 h 120 l 70,30 50,40 20,50 20,100 v 70 l -20,90 -20,50 -50,50 -70,20 h -120"
         id="path342" />
      <path
         d="m 54450,28500 v -500 l 160,360 170,-360 v 500"
         id="path344" />
      <path
         d="m 55020,28310 h 380"
         id="path346" />
      <path
         d="m 55640,28500 v -500 h 190 l 50,30 20,20 20,50 v 70 l -20,50 -20,20 -50,20 h -190"
         id="path348" />
      <path
         d="m 56420,28450 -20,30 -70,20 h -50 l -70,-20 -50,-50 -20,-50 -30,-90 v -70 l 30,-100 20,-50 50,-40 70,-30 h 50 l 70,30 20,20"
         id="path350" />
      <path
         d="m 56640,28310 h 380"
         id="path352" />
      <path
         d="m 57420,28240 80,20 20,30 20,40 v 80 l -20,40 -20,30 -50,20 h -190 v -500 h 160 l 50,30 30,20 20,50 v 40 l -20,50 -30,30 -50,20 h -160"
         id="path354" />
      <path
         d="m 57760,28500 v -500 h 190 l 50,30 20,20 20,50 v 70 l -20,50 -20,20 -50,20 h -190"
         id="path356" />
      <path
         d="m 58230,28050 30,-20 40,-30 h 120 l 50,30 30,20 20,50 v 40 l -20,80 -290,280 h 310"
         id="path358" />
      <path
         d="m 58970,28000 h -240 l -20,240 20,-20 50,-30 h 120 l 50,30 20,20 30,50 v 120 l -30,40 -20,30 -50,20 h -120 l -50,-20 -20,-30"
         id="path360" />
    </g>
  </g>
  <g
     style="fill:#008484;fill-opacity:0;stroke:#008484;stroke-width:60;stroke-linecap:round;stroke-linejoin:round;stroke-opacity:1"
     id="g366"
     transform="translate(-35960,-27960)" />
  <g
     style="fill:#008400;fill-opacity:0;stroke:#008400;stroke-width:60;stroke-linecap:round;stroke-linejoin:round;stroke-opacity:1"
     id="g394"
     transform="translate(-35960,-27960)">
    <path
       d="m 44000,32500 h 4000"
       id="path368" />
    <path
       d="m 48000,29500 v 1500"
       id="path370" />
    <path
       d="M 49500,29500 H 48000"
       id="path372" />
    <path
       d="m 48000,31000 h 1500"
       id="path374" />
    <path
       d="M 48000,32500 V 31000"
       id="path376" />
    <path
       d="M 49500,32500 H 48000"
       id="path378" />
    <path
       d="M 65000,34500 H 63000"
       id="path380" />
    <path
       d="M 46500,34500 H 44000"
       id="path382" />
    <path
       d="M 46500,37500 V 34500"
       id="path384" />
    <path
       d="M 65000,37500 H 46500"
       id="path386" />
    <path
       d="m 65000,34500 v 3000"
       id="path388" />
    <path
       d="M 68000,32500 H 63000"
       id="path390" />
    <path
       d="M 68000,34500 H 65000"
       id="path392" />
  </g>
  <g
     style="fill:#008400;fill-opacity:0;stroke:#008400;stroke-width:0;stroke-linecap:round;stroke-linejoin:round;stroke-opacity:1"
     id="g396"
     transform="translate(-35960,-27960)" />
  <g
     style="fill:#008400;fill-opacity:1;stroke:#008400;stroke-width:100;stroke-linecap:round;stroke-linejoin:round;stroke-opacity:1"
     id="g400"
     transform="translate(-35960,-27960)">
    <circle
       cx="48000"
       cy="32500"
       r="200"
       id="circle398" />
  </g>
  <g
     style="fill:#008400;fill-opacity:1;stroke:#008400;stroke-width:0;stroke-linecap:round;stroke-linejoin:round;stroke-opacity:1"
     id="g402"
     transform="translate(-35960,-27960)" />
  <g
     style="fill:#008400;fill-opacity:1;stroke:#008400;stroke-width:100;stroke-linecap:round;stroke-linejoin:round;stroke-opacity:1"
     id="g406"
     transform="translate(-35960,-27960)">
    <circle
       cx="48000"
       cy="31000"
       r="200"
       id="circle404" />
  </g>
  <g
     style="fill:#008400;fill-opacity:1;stroke:#008400;stroke-width:0;stroke-linecap:round;stroke-linejoin:round;stroke-opacity:1"
     id="g408"
     transform="translate(-35960,-27960)" />
  <g
     style="fill:#008400;fill-opacity:1;stroke:#008400;stroke-width:100;stroke-linecap:round;stroke-linejoin:round;stroke-opacity:1"
     id="g412"
     transform="translate(-35960,-27960)">
    <circle
       cx="65000"
       cy="34500"
       r="200"
       id="circle410" />
  </g>
</svg>
