<?xml version="1.0" encoding="UTF-8"?>
<!DOCTYPE svg PUBLIC "-//W3C//DTD SVG 1.1//EN" "http://www.w3.org/Graphics/SVG/1.1/DTD/svg11.dtd">
<svg width="160mm" height="90mm" viewBox="0 0 16000 9000" version="1.1" xmlns="http://www.w3.org/2000/svg" xmlns:xlink="http://www.w3.org/1999/xlink" stroke-width="28.222" stroke-linejoin="round" xml:space="preserve">
 <path fill="rgb(255,255,255)" stroke="none" d="M 8006,9009 L 0,9009 0,0 16012,0 16012,9009 8006,9009 Z"/>
 <path fill="none" stroke="rgb(179,179,179)" stroke-linejoin="round" d="M 8635,7201 L 1952,7201 1952,2337 15319,2337 15319,7201 8635,7201 Z"/>
 <path fill="none" stroke="rgb(179,179,179)" stroke-linejoin="round" d="M 1952,2336 L 1952,7200"/>
 <path fill="none" stroke="rgb(179,179,179)" stroke-linejoin="round" d="M 3623,2336 L 3623,7200"/>
 <path fill="none" stroke="rgb(179,179,179)" stroke-linejoin="round" d="M 5294,2336 L 5294,7200"/>
 <path fill="none" stroke="rgb(179,179,179)" stroke-linejoin="round" d="M 6965,2336 L 6965,7200"/>
 <path fill="none" stroke="rgb(179,179,179)" stroke-linejoin="round" d="M 8635,2336 L 8635,7200"/>
 <path fill="none" stroke="rgb(179,179,179)" stroke-linejoin="round" d="M 10306,2336 L 10306,7200"/>
 <path fill="none" stroke="rgb(179,179,179)" stroke-linejoin="round" d="M 11977,2336 L 11977,7200"/>
 <path fill="none" stroke="rgb(179,179,179)" stroke-linejoin="round" d="M 13648,2336 L 13648,7200"/>
 <path fill="none" stroke="rgb(179,179,179)" stroke-linejoin="round" d="M 15319,2336 L 15319,7200"/>
 <path fill="none" stroke="rgb(179,179,179)" stroke-linejoin="round" d="M 15319,7200 L 1952,7200"/>
 <path fill="none" stroke="rgb(179,179,179)" stroke-linejoin="round" d="M 15319,6591 L 1952,6591"/>
 <path fill="none" stroke="rgb(179,179,179)" stroke-linejoin="round" d="M 15319,5983 L 1952,5983"/>
 <path fill="none" stroke="rgb(179,179,179)" stroke-linejoin="round" d="M 15319,5375 L 1952,5375"/>
 <path fill="none" stroke="rgb(179,179,179)" stroke-linejoin="round" d="M 15319,4767 L 1952,4767"/>
 <path fill="none" stroke="rgb(179,179,179)" stroke-linejoin="round" d="M 15319,4160 L 1952,4160"/>
 <path fill="none" stroke="rgb(179,179,179)" stroke-linejoin="round" d="M 15319,3552 L 1952,3552"/>
 <path fill="none" stroke="rgb(179,179,179)" stroke-linejoin="round" d="M 15319,2944 L 1952,2944"/>
 <path fill="none" stroke="rgb(179,179,179)" stroke-linejoin="round" d="M 15319,2336 L 1952,2336"/>
 <path fill="none" stroke="rgb(221,221,221)" stroke-linejoin="round" d="M 15319,6895 L 1952,6895"/>
 <path fill="none" stroke="rgb(221,221,221)" stroke-linejoin="round" d="M 15319,6287 L 1952,6287"/>
 <path fill="none" stroke="rgb(221,221,221)" stroke-linejoin="round" d="M 15319,5679 L 1952,5679"/>
 <path fill="none" stroke="rgb(221,221,221)" stroke-linejoin="round" d="M 15319,5071 L 1952,5071"/>
 <path fill="none" stroke="rgb(221,221,221)" stroke-linejoin="round" d="M 15319,4464 L 1952,4464"/>
 <path fill="none" stroke="rgb(221,221,221)" stroke-linejoin="round" d="M 15319,3856 L 1952,3856"/>
 <path fill="none" stroke="rgb(221,221,221)" stroke-linejoin="round" d="M 15319,3248 L 1952,3248"/>
 <path fill="none" stroke="rgb(221,221,221)" stroke-linejoin="round" d="M 15319,2640 L 1952,2640"/>
 <path fill="none" stroke="rgb(179,179,179)" stroke-linejoin="round" d="M 1952,7350 L 1952,7200"/>
 <path fill="none" stroke="rgb(179,179,179)" stroke-linejoin="round" d="M 1952,7350 L 1952,7200"/>
 <path fill="none" stroke="rgb(179,179,179)" stroke-linejoin="round" d="M 3623,7350 L 3623,7200"/>
 <path fill="none" stroke="rgb(179,179,179)" stroke-linejoin="round" d="M 3623,7350 L 3623,7200"/>
 <path fill="none" stroke="rgb(179,179,179)" stroke-linejoin="round" d="M 5294,7350 L 5294,7200"/>
 <path fill="none" stroke="rgb(179,179,179)" stroke-linejoin="round" d="M 5294,7350 L 5294,7200"/>
 <path fill="none" stroke="rgb(179,179,179)" stroke-linejoin="round" d="M 6965,7350 L 6965,7200"/>
 <path fill="none" stroke="rgb(179,179,179)" stroke-linejoin="round" d="M 6965,7350 L 6965,7200"/>
 <path fill="none" stroke="rgb(179,179,179)" stroke-linejoin="round" d="M 8635,7350 L 8635,7200"/>
 <path fill="none" stroke="rgb(179,179,179)" stroke-linejoin="round" d="M 8635,7350 L 8635,7200"/>
 <path fill="none" stroke="rgb(179,179,179)" stroke-linejoin="round" d="M 10306,7350 L 10306,7200"/>
 <path fill="none" stroke="rgb(179,179,179)" stroke-linejoin="round" d="M 10306,7350 L 10306,7200"/>
 <path fill="none" stroke="rgb(179,179,179)" stroke-linejoin="round" d="M 11977,7350 L 11977,7200"/>
 <path fill="none" stroke="rgb(179,179,179)" stroke-linejoin="round" d="M 11977,7350 L 11977,7200"/>
 <path fill="none" stroke="rgb(179,179,179)" stroke-linejoin="round" d="M 13648,7350 L 13648,7200"/>
 <path fill="none" stroke="rgb(179,179,179)" stroke-linejoin="round" d="M 13648,7350 L 13648,7200"/>
 <path fill="none" stroke="rgb(179,179,179)" stroke-linejoin="round" d="M 15319,7350 L 15319,7200"/>
 <path fill="none" stroke="rgb(179,179,179)" stroke-linejoin="round" d="M 15319,7350 L 15319,7200"/>
 <path fill="none" stroke="rgb(179,179,179)" stroke-linejoin="round" d="M 1952,7200 L 15319,7200"/>
 <path fill="none" stroke="rgb(179,179,179)" stroke-linejoin="round" d="M 1802,7200 L 1952,7200"/>
 <path fill="none" stroke="rgb(179,179,179)" stroke-linejoin="round" d="M 1802,7200 L 1952,7200"/>
 <path fill="none" stroke="rgb(179,179,179)" stroke-linejoin="round" d="M 1802,6591 L 1952,6591"/>
 <path fill="none" stroke="rgb(179,179,179)" stroke-linejoin="round" d="M 1802,6591 L 1952,6591"/>
 <path fill="none" stroke="rgb(179,179,179)" stroke-linejoin="round" d="M 1802,5983 L 1952,5983"/>
 <path fill="none" stroke="rgb(179,179,179)" stroke-linejoin="round" d="M 1802,5983 L 1952,5983"/>
 <path fill="none" stroke="rgb(179,179,179)" stroke-linejoin="round" d="M 1802,5375 L 1952,5375"/>
 <path fill="none" stroke="rgb(179,179,179)" stroke-linejoin="round" d="M 1802,5375 L 1952,5375"/>
 <path fill="none" stroke="rgb(179,179,179)" stroke-linejoin="round" d="M 1802,4767 L 1952,4767"/>
 <path fill="none" stroke="rgb(179,179,179)" stroke-linejoin="round" d="M 1802,4767 L 1952,4767"/>
 <path fill="none" stroke="rgb(179,179,179)" stroke-linejoin="round" d="M 1802,4160 L 1952,4160"/>
 <path fill="none" stroke="rgb(179,179,179)" stroke-linejoin="round" d="M 1802,4160 L 1952,4160"/>
 <path fill="none" stroke="rgb(179,179,179)" stroke-linejoin="round" d="M 1802,3552 L 1952,3552"/>
 <path fill="none" stroke="rgb(179,179,179)" stroke-linejoin="round" d="M 1802,3552 L 1952,3552"/>
 <path fill="none" stroke="rgb(179,179,179)" stroke-linejoin="round" d="M 1802,2944 L 1952,2944"/>
 <path fill="none" stroke="rgb(179,179,179)" stroke-linejoin="round" d="M 1802,2944 L 1952,2944"/>
 <path fill="none" stroke="rgb(179,179,179)" stroke-linejoin="round" d="M 1802,2336 L 1952,2336"/>
 <path fill="none" stroke="rgb(179,179,179)" stroke-linejoin="round" d="M 1802,2336 L 1952,2336"/>
 <path fill="none" stroke="rgb(179,179,179)" stroke-linejoin="round" d="M 1952,7200 L 1952,2336"/>
 <path fill="none" stroke="rgb(0,69,134)" stroke-width="80" stroke-linejoin="round" d="M 2099,7200 L 2620,3471 3288,2880 3957,2750 4625,2726 5294,2670 5962,2638 6630,2619 7299,2609 7967,2604 8635,2603 9303,2604 9971,2608 10640,2614 11308,2620 11977,2629 12645,2638 13982,2655"/>
 <text class="SVGTextShape"><tspan class="TextParagraph" font-family="Liberation Sans, sans-serif" font-size="353px" font-weight="400"><tspan class="TextPosition" x="1859" y="7768"><tspan fill="rgb(0,0,0)" stroke="none">0</tspan></tspan></tspan></text>
 <text class="SVGTextShape"><tspan class="TextParagraph" font-family="Liberation Sans, sans-serif" font-size="353px" font-weight="400"><tspan class="TextPosition" x="3530" y="7768"><tspan fill="rgb(0,0,0)" stroke="none">5</tspan></tspan></tspan></text>
 <text class="SVGTextShape"><tspan class="TextParagraph" font-family="Liberation Sans, sans-serif" font-size="353px" font-weight="400"><tspan class="TextPosition" x="5109" y="7768"><tspan fill="rgb(0,0,0)" stroke="none">10</tspan></tspan></tspan></text>
 <text class="SVGTextShape"><tspan class="TextParagraph" font-family="Liberation Sans, sans-serif" font-size="353px" font-weight="400"><tspan class="TextPosition" x="6780" y="7768"><tspan fill="rgb(0,0,0)" stroke="none">15</tspan></tspan></tspan></text>
 <text class="SVGTextShape"><tspan class="TextParagraph" font-family="Liberation Sans, sans-serif" font-size="353px" font-weight="400"><tspan class="TextPosition" x="8451" y="7768"><tspan fill="rgb(0,0,0)" stroke="none">20</tspan></tspan></tspan></text>
 <text class="SVGTextShape"><tspan class="TextParagraph" font-family="Liberation Sans, sans-serif" font-size="353px" font-weight="400"><tspan class="TextPosition" x="10122" y="7768"><tspan fill="rgb(0,0,0)" stroke="none">25</tspan></tspan></tspan></text>
 <text class="SVGTextShape"><tspan class="TextParagraph" font-family="Liberation Sans, sans-serif" font-size="353px" font-weight="400"><tspan class="TextPosition" x="11793" y="7768"><tspan fill="rgb(0,0,0)" stroke="none">30</tspan></tspan></tspan></text>
 <text class="SVGTextShape"><tspan class="TextParagraph" font-family="Liberation Sans, sans-serif" font-size="353px" font-weight="400"><tspan class="TextPosition" x="13464" y="7768"><tspan fill="rgb(0,0,0)" stroke="none">35</tspan></tspan></tspan></text>
 <text class="SVGTextShape"><tspan class="TextParagraph" font-family="Liberation Sans, sans-serif" font-size="353px" font-weight="400"><tspan class="TextPosition" x="15135" y="7768"><tspan fill="rgb(0,0,0)" stroke="none">40</tspan></tspan></tspan></text>
 <text class="SVGTextShape"><tspan class="TextParagraph" font-family="Liberation Sans, sans-serif" font-size="353px" font-weight="400"><tspan class="TextPosition" x="1332" y="7321"><tspan fill="rgb(0,0,0)" stroke="none">84</tspan></tspan></tspan></text>
 <text class="SVGTextShape"><tspan class="TextParagraph" font-family="Liberation Sans, sans-serif" font-size="353px" font-weight="400"><tspan class="TextPosition" x="1332" y="6712"><tspan fill="rgb(0,0,0)" stroke="none">86</tspan></tspan></tspan></text>
 <text class="SVGTextShape"><tspan class="TextParagraph" font-family="Liberation Sans, sans-serif" font-size="353px" font-weight="400"><tspan class="TextPosition" x="1332" y="6104"><tspan fill="rgb(0,0,0)" stroke="none">88</tspan></tspan></tspan></text>
 <text class="SVGTextShape"><tspan class="TextParagraph" font-family="Liberation Sans, sans-serif" font-size="353px" font-weight="400"><tspan class="TextPosition" x="1332" y="5496"><tspan fill="rgb(0,0,0)" stroke="none">90</tspan></tspan></tspan></text>
 <text class="SVGTextShape"><tspan class="TextParagraph" font-family="Liberation Sans, sans-serif" font-size="353px" font-weight="400"><tspan class="TextPosition" x="1332" y="4888"><tspan fill="rgb(0,0,0)" stroke="none">92</tspan></tspan></tspan></text>
 <text class="SVGTextShape"><tspan class="TextParagraph" font-family="Liberation Sans, sans-serif" font-size="353px" font-weight="400"><tspan class="TextPosition" x="1332" y="4280"><tspan fill="rgb(0,0,0)" stroke="none">94</tspan></tspan></tspan></text>
 <text class="SVGTextShape"><tspan class="TextParagraph" font-family="Liberation Sans, sans-serif" font-size="353px" font-weight="400"><tspan class="TextPosition" x="1332" y="3672"><tspan fill="rgb(0,0,0)" stroke="none">96</tspan></tspan></tspan></text>
 <text class="SVGTextShape"><tspan class="TextParagraph" font-family="Liberation Sans, sans-serif" font-size="353px" font-weight="400"><tspan class="TextPosition" x="1332" y="3064"><tspan fill="rgb(0,0,0)" stroke="none">98</tspan></tspan></tspan></text>
 <text class="SVGTextShape"><tspan class="TextParagraph" font-family="Liberation Sans, sans-serif" font-size="353px" font-weight="400"><tspan class="TextPosition" x="1146" y="2456"><tspan fill="rgb(0,0,0)" stroke="none">100</tspan></tspan></tspan></text>
 <text class="SVGTextShape"><tspan class="TextParagraph" font-family="Liberation Sans, sans-serif" font-size="459px" font-weight="400"><tspan class="TextPosition" x="5479" y="851"><tspan fill="rgb(0,0,0)" stroke="none">ADM-PC-BP25 Efficiency</tspan></tspan></tspan></text>
 <text class="SVGTextShape"><tspan class="TextParagraph" font-family="Liberation Sans, sans-serif" font-size="388px" font-weight="400"><tspan class="TextPosition" x="5439" y="1761"><tspan fill="rgb(0,0,0)" stroke="none">DC/DC mode (800V to 400 V)</tspan></tspan></tspan></text>
 <text class="SVGTextShape"><tspan class="TextParagraph" font-family="Liberation Sans, sans-serif" font-size="318px" font-weight="400"><tspan class="TextPosition" x="7678" y="8415"><tspan fill="rgb(0,0,0)" stroke="none">Power (kW)</tspan></tspan></tspan></text>
 <text class="SVGTextShape" transform="rotate(-90 837 5971)"><tspan class="TextParagraph" font-family="Liberation Sans, sans-serif" font-size="318px" font-weight="400"><tspan class="TextPosition" x="837" y="5971"><tspan fill="rgb(0,0,0)" stroke="none">Efficiency (%)</tspan></tspan></tspan></text>
</svg>