<?xml version="1.0" encoding="UTF-8" standalone="no"?>
<svg
   version="1.1"
   width="10.18032cm"
   height="2.6746199cm"
   viewBox="0 0 40079.999 10530"
   id="svg408"
   xmlns="http://www.w3.org/2000/svg"
   xmlns:svg="http://www.w3.org/2000/svg">
  <defs
     id="defs412" />
  <title
     id="title2">SVG Picture created as AFE_buck-AFE_buck.svg date 2021/12/17 11:27:17 </title>
  <desc
     id="desc4">Picture generated by Eeschema-SVG </desc>
  <g
     style="fill:#000000;fill-opacity:1;stroke:#000000;stroke-linecap:round;stroke-linejoin:round;stroke-opacity:1"
     id="g6"
     transform="translate(-34460,-17010)" />
  <g
     style="fill:#000000;fill-opacity:0;stroke:#000000;stroke-width:0;stroke-linecap:round;stroke-linejoin:round;stroke-opacity:1"
     id="g146"
     transform="translate(-34460,-17010)">
    <g
       id="g8" />
    <g
       style="fill:#840000;fill-opacity:0;stroke:#840000;stroke-width:0;stroke-linecap:round;stroke-linejoin:round;stroke-opacity:1"
       id="g10" />
    <g
       style="fill:#ffffc2;fill-opacity:0;stroke:#ffffc2;stroke-width:0;stroke-linecap:round;stroke-linejoin:round;stroke-opacity:1"
       id="g12" />
    <g
       style="fill:#ffffc2;fill-opacity:0.6;stroke:#ffffc2;stroke-width:0;stroke-linecap:round;stroke-linejoin:round;stroke-opacity:1"
       id="g16">
      <rect
         x="49000"
         y="20500"
         width="11500"
         height="7000"
         rx="0"
         id="rect14" />
    </g>
    <g
       style="fill:#840000;fill-opacity:0.6;stroke:#840000;stroke-width:0;stroke-linecap:round;stroke-linejoin:round;stroke-opacity:1"
       id="g18" />
    <g
       style="fill:#840000;fill-opacity:0;stroke:#840000;stroke-width:80;stroke-linecap:round;stroke-linejoin:round;stroke-opacity:1"
       id="g40">
      <rect
         x="49000"
         y="20500"
         width="11500"
         height="7000"
         rx="0"
         id="rect20" />
      <path
         d="m 51401.6,22249.3 a 280,280 0 0 0 496.8,0"
         id="path22" />
      <path
         d="m 52403.1,22248.5 a 290,290 0 0 0 -506.2,0"
         id="path24" />
      <rect
         x="49000"
         y="20500"
         width="11500"
         height="7000"
         rx="0"
         id="rect26" />
      <path
         style="fill:none;fill-opacity:0;stroke:#840000;stroke-width:80;stroke-linecap:round;stroke-linejoin:round;stroke-opacity:1"
         d="m 51400,22750 h 1000"
         id="path28" />
      <path
         style="fill:none;fill-opacity:0;stroke:#840000;stroke-width:80;stroke-linecap:round;stroke-linejoin:round;stroke-opacity:1"
         d="m 57000,25300 h 1000"
         id="path30" />
      <path
         style="fill:none;fill-opacity:0;stroke:#840000;stroke-width:80;stroke-linecap:round;stroke-linejoin:round;stroke-opacity:1"
         d="m 57000,24800 h 200"
         id="path32" />
      <path
         style="fill:none;fill-opacity:0;stroke:#840000;stroke-width:80;stroke-linecap:round;stroke-linejoin:round;stroke-opacity:1"
         d="m 57400,24800 h 200"
         id="path34" />
      <path
         style="fill:none;fill-opacity:0;stroke:#840000;stroke-width:80;stroke-linecap:round;stroke-linejoin:round;stroke-opacity:1"
         d="m 57800,24800 h 200"
         id="path36" />
      <path
         d="M 49000,26000 H 48000"
         id="path38" />
    </g>
    <g
       style="fill:#008484;fill-opacity:0;stroke:#008484;stroke-width:80;stroke-linecap:round;stroke-linejoin:round;stroke-opacity:1"
       id="g50">
      <text
         x="49200"
         y="26250"
         textLength="1700"
         font-size="660px"
         lengthAdjust="spacingAndGlyphs"
         text-anchor="start"
         opacity="0"
         id="text42">DC-</text>
      <path
         d="m 49350,26220 v -500 h 120 l 70,30 50,40 30,50 20,100 v 70 l -20,90 -30,50 -50,50 -70,20 h -120"
         id="path44" />
      <path
         d="m 50140,26170 -20,30 -80,20 h -40 l -70,-20 -50,-50 -30,-50 -20,-90 v -70 l 20,-100 30,-50 50,-40 70,-30 h 40 l 80,30 20,20"
         id="path46" />
      <path
         d="m 50350,26030 h 390"
         id="path48" />
    </g>
    <g
       style="fill:#840000;fill-opacity:0;stroke:#840000;stroke-width:80;stroke-linecap:round;stroke-linejoin:round;stroke-opacity:1"
       id="g54">
      <path
         d="M 49000,21000 H 48000"
         id="path52" />
    </g>
    <g
       style="fill:#008484;fill-opacity:0;stroke:#008484;stroke-width:80;stroke-linecap:round;stroke-linejoin:round;stroke-opacity:1"
       id="g64">
      <text
         x="49200"
         y="21250"
         textLength="960"
         font-size="660px"
         lengthAdjust="spacingAndGlyphs"
         text-anchor="start"
         opacity="0"
         id="text56">L1</text>
      <path
         d="m 49590,21220 h -240 v -500"
         id="path58" />
      <path
         d="m 50020,21220 h -280"
         id="path60" />
      <path
         d="m 49880,21220 v -500 l -50,70 -50,50 -40,20"
         id="path62" />
    </g>
    <g
       style="fill:#840000;fill-opacity:0;stroke:#840000;stroke-width:80;stroke-linecap:round;stroke-linejoin:round;stroke-opacity:1"
       id="g68">
      <path
         d="M 49000,22500 H 48000"
         id="path66" />
    </g>
    <g
       style="fill:#008484;fill-opacity:0;stroke:#008484;stroke-width:80;stroke-linecap:round;stroke-linejoin:round;stroke-opacity:1"
       id="g76">
      <text
         x="49200"
         y="22750"
         textLength="960"
         font-size="660px"
         lengthAdjust="spacingAndGlyphs"
         text-anchor="start"
         opacity="0"
         id="text70">L2</text>
      <path
         d="m 49590,22720 h -240 v -500"
         id="path72" />
      <path
         d="m 49740,22270 20,-20 50,-30 h 120 l 40,30 30,20 20,50 v 40 l -20,80 -290,280 h 310"
         id="path74" />
    </g>
    <g
       style="fill:#840000;fill-opacity:0;stroke:#840000;stroke-width:80;stroke-linecap:round;stroke-linejoin:round;stroke-opacity:1"
       id="g80">
      <path
         d="M 49000,24000 H 48000"
         id="path78" />
    </g>
    <g
       style="fill:#008484;fill-opacity:0;stroke:#008484;stroke-width:80;stroke-linecap:round;stroke-linejoin:round;stroke-opacity:1"
       id="g88">
      <text
         x="49200"
         y="24250"
         textLength="960"
         font-size="660px"
         lengthAdjust="spacingAndGlyphs"
         text-anchor="start"
         opacity="0"
         id="text82">L3</text>
      <path
         d="m 49590,24220 h -240 v -500"
         id="path84" />
      <path
         d="m 49710,23720 h 310 l -170,190 h 80 l 40,30 30,20 20,50 v 120 l -20,40 -30,30 -40,20 h -150 l -40,-20 -30,-30"
         id="path86" />
    </g>
    <g
       style="fill:#840000;fill-opacity:0;stroke:#840000;stroke-width:80;stroke-linecap:round;stroke-linejoin:round;stroke-opacity:1"
       id="g92">
      <path
         d="m 60500,26000 h 1000"
         id="path90" />
    </g>
    <g
       style="fill:#008484;fill-opacity:0;stroke:#008484;stroke-width:80;stroke-linecap:round;stroke-linejoin:round;stroke-opacity:1"
       id="g102">
      <text
         x="60300"
         y="26250"
         textLength="1700"
         font-size="660px"
         lengthAdjust="spacingAndGlyphs"
         text-anchor="end"
         opacity="0"
         id="text94">DC-</text>
      <path
         d="m 58760,26220 v -500 h 110 l 80,30 40,40 30,50 20,100 v 70 l -20,90 -30,50 -40,50 -80,20 h -110"
         id="path96" />
      <path
         d="m 59540,26170 -20,30 -70,20 h -50 l -70,-20 -50,-50 -20,-50 -30,-90 v -70 l 30,-100 20,-50 50,-40 70,-30 h 50 l 70,30 20,20"
         id="path98" />
      <path
         d="m 59760,26030 h 380"
         id="path100" />
    </g>
    <g
       style="fill:#840000;fill-opacity:0;stroke:#840000;stroke-width:80;stroke-linecap:round;stroke-linejoin:round;stroke-opacity:1"
       id="g106">
      <path
         d="m 60500,24000 h 1000"
         id="path104" />
    </g>
    <g
       style="fill:#008484;fill-opacity:0;stroke:#008484;stroke-width:80;stroke-linecap:round;stroke-linejoin:round;stroke-opacity:1"
       id="g144">
      <text
         x="60300"
         y="24250"
         textLength="1700"
         font-size="660px"
         lengthAdjust="spacingAndGlyphs"
         text-anchor="end"
         opacity="0"
         id="text108">DC+</text>
      <path
         d="m 58760,24220 v -500 h 110 l 80,30 40,40 30,50 20,100 v 70 l -20,90 -30,50 -40,50 -80,20 h -110"
         id="path110" />
      <path
         d="m 59540,24170 -20,30 -70,20 h -50 l -70,-20 -50,-50 -20,-50 -30,-90 v -70 l 30,-100 20,-50 50,-40 70,-30 h 50 l 70,30 20,20"
         id="path112" />
      <path
         d="m 59760,24030 h 380"
         id="path114" />
      <path
         d="m 59950,24220 v -380"
         id="path116" />
      <text
         x="54750"
         y="20050"
         textLength="5770"
         font-size="660px"
         lengthAdjust="spacingAndGlyphs"
         text-anchor="middle"
         opacity="0"
         id="text118">ADM-PC-BP25</text>
      <path
         d="m 52000,19880 h 230"
         id="path120" />
      <path
         d="m 51950,20020 160,-500 170,500"
         id="path122" />
      <path
         d="m 52450,20020 v -500 h 120 l 70,30 50,40 20,50 20,100 v 70 l -20,90 -20,50 -50,50 -70,20 h -120"
         id="path124" />
      <path
         d="m 52950,20020 v -500 l 160,360 170,-360 v 500"
         id="path126" />
      <path
         d="m 53520,19830 h 380"
         id="path128" />
      <path
         d="m 54140,20020 v -500 h 190 l 50,30 20,20 20,50 v 70 l -20,50 -20,20 -50,20 h -190"
         id="path130" />
      <path
         d="m 54920,19970 -20,30 -70,20 h -50 l -70,-20 -50,-50 -20,-50 -30,-90 v -70 l 30,-100 20,-50 50,-40 70,-30 h 50 l 70,30 20,20"
         id="path132" />
      <path
         d="m 55140,19830 h 380"
         id="path134" />
      <path
         d="m 55920,19760 80,20 20,30 20,40 v 80 l -20,40 -20,30 -50,20 h -190 v -500 h 160 l 50,30 30,20 20,50 v 40 l -20,50 -30,30 -50,20 h -160"
         id="path136" />
      <path
         d="m 56260,20020 v -500 h 190 l 50,30 20,20 20,50 v 70 l -20,50 -20,20 -50,20 h -190"
         id="path138" />
      <path
         d="m 56730,19570 30,-20 40,-30 h 120 l 50,30 30,20 20,50 v 40 l -20,80 -290,280 h 310"
         id="path140" />
      <path
         d="m 57470,19520 h -240 l -20,240 20,-20 50,-30 h 120 l 50,30 20,20 30,50 v 120 l -30,40 -20,30 -50,20 h -120 l -50,-20 -20,-30"
         id="path142" />
    </g>
  </g>
  <g
     style="fill:#008484;fill-opacity:0;stroke:#008484;stroke-width:0;stroke-linecap:round;stroke-linejoin:round;stroke-opacity:1"
     id="g206"
     transform="translate(-34460,-17010)">
    <g
       id="g148" />
    <g
       style="fill:#840000;fill-opacity:0;stroke:#840000;stroke-width:0;stroke-linecap:round;stroke-linejoin:round;stroke-opacity:1"
       id="g150" />
    <g
       style="fill:#ffffc2;fill-opacity:0;stroke:#ffffc2;stroke-width:0;stroke-linecap:round;stroke-linejoin:round;stroke-opacity:1"
       id="g152" />
    <g
       style="fill:#ffffc2;fill-opacity:0.6;stroke:#ffffc2;stroke-width:0;stroke-linecap:round;stroke-linejoin:round;stroke-opacity:1"
       id="g156">
      <rect
         x="34500"
         y="22500"
         width="7000"
         height="5000"
         rx="0"
         id="rect154" />
    </g>
    <g
       style="fill:#840000;fill-opacity:0.6;stroke:#840000;stroke-width:0;stroke-linecap:round;stroke-linejoin:round;stroke-opacity:1"
       id="g158" />
    <g
       style="fill:#840000;fill-opacity:0;stroke:#840000;stroke-width:80;stroke-linecap:round;stroke-linejoin:round;stroke-opacity:1"
       id="g166">
      <rect
         x="34500"
         y="22500"
         width="7000"
         height="5000"
         rx="0"
         id="rect160" />
      <rect
         x="34500"
         y="22500"
         width="7000"
         height="5000"
         rx="0"
         id="rect162" />
      <path
         d="m 41500,24000 h 1000"
         id="path164" />
    </g>
    <g
       style="fill:#008484;fill-opacity:0;stroke:#008484;stroke-width:80;stroke-linecap:round;stroke-linejoin:round;stroke-opacity:1"
       id="g174">
      <text
         x="41300"
         y="24390"
         textLength="1060"
         font-size="1050px"
         lengthAdjust="spacingAndGlyphs"
         text-anchor="end"
         opacity="0"
         id="text168">+</text>
      <path
         d="m 40470,24050 h 600"
         id="path170" />
      <path
         d="m 40770,24350 v -600"
         id="path172" />
    </g>
    <g
       style="fill:#840000;fill-opacity:0;stroke:#840000;stroke-width:80;stroke-linecap:round;stroke-linejoin:round;stroke-opacity:1"
       id="g178">
      <path
         d="m 41500,26000 h 1000"
         id="path176" />
    </g>
    <g
       style="fill:#008484;fill-opacity:0;stroke:#008484;stroke-width:80;stroke-linecap:round;stroke-linejoin:round;stroke-opacity:1"
       id="g204">
      <text
         x="41300"
         y="26390"
         textLength="1060"
         font-size="1050px"
         lengthAdjust="spacingAndGlyphs"
         text-anchor="end"
         opacity="0"
         id="text180">-</text>
      <path
         d="m 40470,26050 h 600"
         id="path182" />
      <text
         x="38580"
         y="22050"
         textLength="3080"
         font-size="660px"
         lengthAdjust="spacingAndGlyphs"
         text-anchor="middle"
         opacity="0"
         id="text184">load_DC</text>
      <path
         d="m 37270,22020 -50,-20 -30,-50 v -430"
         id="path186" />
      <path
         d="m 37530,22020 -50,-20 -20,-30 -30,-40 v -150 l 30,-40 20,-30 50,-20 h 70 l 50,20 20,30 20,40 v 150 l -20,40 -20,30 -50,20 h -70"
         id="path188" />
      <path
         d="m 38120,22020 v -260 l -20,-50 -50,-20 h -90 l -50,20"
         id="path190" />
      <path
         d="m 38120,22000 -40,20 h -120 l -50,-20 -30,-50 v -50 l 30,-50 50,-20 h 120 l 40,-20"
         id="path192" />
      <path
         d="m 38580,22020 v -500"
         id="path194" />
      <path
         d="m 38580,22000 -50,20 h -100 l -50,-20 -20,-30 -20,-40 v -150 l 20,-40 20,-30 50,-20 h 100 l 50,20"
         id="path196" />
      <path
         d="m 38690,22070 h 390"
         id="path198" />
      <path
         d="m 39190,22020 v -500 h 120 l 70,30 50,40 30,50 20,100 v 70 l -20,90 -30,50 -50,50 -70,20 h -120"
         id="path200" />
      <path
         d="m 39980,21970 -20,30 -80,20 h -40 l -70,-20 -50,-50 -30,-50 -20,-90 v -70 l 20,-100 30,-50 50,-40 70,-30 h 40 l 80,30 20,20"
         id="path202" />
    </g>
  </g>
  <g
     style="fill:#008484;fill-opacity:0;stroke:#008484;stroke-width:0;stroke-linecap:round;stroke-linejoin:round;stroke-opacity:1"
     id="g312"
     transform="translate(-34460,-17010)">
    <g
       id="g208" />
    <g
       style="fill:#840000;fill-opacity:0;stroke:#840000;stroke-width:0;stroke-linecap:round;stroke-linejoin:round;stroke-opacity:1"
       id="g210" />
    <g
       style="fill:#ffffc2;fill-opacity:0;stroke:#ffffc2;stroke-width:0;stroke-linecap:round;stroke-linejoin:round;stroke-opacity:1"
       id="g212" />
    <g
       style="fill:#ffffc2;fill-opacity:0.6;stroke:#ffffc2;stroke-width:0;stroke-linecap:round;stroke-linejoin:round;stroke-opacity:1"
       id="g216">
      <rect
         x="67500"
         y="22500"
         width="7000"
         height="5000"
         rx="0"
         id="rect214" />
    </g>
    <g
       style="fill:#840000;fill-opacity:0.6;stroke:#840000;stroke-width:0;stroke-linecap:round;stroke-linejoin:round;stroke-opacity:1"
       id="g218" />
    <g
       style="fill:#840000;fill-opacity:0;stroke:#840000;stroke-width:80;stroke-linecap:round;stroke-linejoin:round;stroke-opacity:1"
       id="g240">
      <rect
         x="67500"
         y="22500"
         width="7000"
         height="5000"
         rx="0"
         id="rect220" />
      <rect
         x="67500"
         y="22500"
         width="7000"
         height="5000"
         rx="0"
         id="rect222" />
      <path
         style="fill:none;fill-opacity:0;stroke:#840000;stroke-width:80;stroke-linecap:round;stroke-linejoin:round;stroke-opacity:1"
         d="m 72500,25000 h 400"
         id="path224" />
      <path
         style="fill:none;fill-opacity:0;stroke:#840000;stroke-width:80;stroke-linecap:round;stroke-linejoin:round;stroke-opacity:1"
         d="m 72100,24500 v 1000"
         id="path226" />
      <path
         style="fill:none;fill-opacity:0;stroke:#840000;stroke-width:80;stroke-linecap:round;stroke-linejoin:round;stroke-opacity:1"
         d="m 71600,25000 h 300"
         id="path228" />
      <path
         style="fill:none;fill-opacity:0;stroke:#840000;stroke-width:80;stroke-linecap:round;stroke-linejoin:round;stroke-opacity:1"
         d="m 71100,25000 h 300"
         id="path230" />
      <path
         style="fill:none;fill-opacity:0;stroke:#840000;stroke-width:80;stroke-linecap:round;stroke-linejoin:round;stroke-opacity:1"
         d="m 70600,25000 h 300"
         id="path232" />
      <path
         style="fill:none;fill-opacity:0;stroke:#840000;stroke-width:80;stroke-linecap:round;stroke-linejoin:round;stroke-opacity:1"
         d="m 70600,24100 v 1800"
         id="path234" />
      <path
         style="fill:none;fill-opacity:0;stroke:#840000;stroke-width:80;stroke-linecap:round;stroke-linejoin:round;stroke-opacity:1"
         d="m 70200,25000 h -400"
         id="path236" />
      <path
         style="fill:none;fill-opacity:0;stroke:#840000;stroke-width:80;stroke-linecap:round;stroke-linejoin:round;stroke-opacity:1"
         d="m 70200,24500 v 1100"
         id="path238" />
    </g>
    <g
       style="fill:#840000;fill-opacity:0;stroke:#840000;stroke-width:60;stroke-linecap:round;stroke-linejoin:round;stroke-opacity:1"
       id="g244">
      <path
         style="fill:none;fill-opacity:0;stroke:#840000;stroke-width:60;stroke-linecap:round;stroke-linejoin:round;stroke-opacity:1"
         d="m 72500,24100 v 1790"
         id="path242" />
    </g>
    <g
       style="fill:#840000;fill-opacity:0;stroke:#840000;stroke-width:80;stroke-linecap:round;stroke-linejoin:round;stroke-opacity:1"
       id="g248">
      <path
         d="M 67500,24000 H 66500"
         id="path246" />
    </g>
    <g
       style="fill:#008484;fill-opacity:0;stroke:#008484;stroke-width:80;stroke-linecap:round;stroke-linejoin:round;stroke-opacity:1"
       id="g256">
      <text
         x="67700"
         y="24390"
         textLength="1060"
         font-size="1050px"
         lengthAdjust="spacingAndGlyphs"
         text-anchor="start"
         opacity="0"
         id="text250">+</text>
      <path
         d="m 67920,24050 h 610"
         id="path252" />
      <path
         d="m 68220,24350 v -600"
         id="path254" />
    </g>
    <g
       style="fill:#840000;fill-opacity:0;stroke:#840000;stroke-width:80;stroke-linecap:round;stroke-linejoin:round;stroke-opacity:1"
       id="g260">
      <path
         d="M 67500,26000 H 66500"
         id="path258" />
    </g>
    <g
       style="fill:#008484;fill-opacity:0;stroke:#008484;stroke-width:80;stroke-linecap:round;stroke-linejoin:round;stroke-opacity:1"
       id="g310">
      <text
         x="67700"
         y="26390"
         textLength="1060"
         font-size="1050px"
         lengthAdjust="spacingAndGlyphs"
         text-anchor="start"
         opacity="0"
         id="text262">-</text>
      <path
         d="m 67920,26050 h 610"
         id="path264" />
      <text
         x="70410"
         y="21430"
         textLength="4410"
         font-size="660px"
         lengthAdjust="spacingAndGlyphs"
         text-anchor="middle"
         opacity="0"
         id="text266">batterypack</text>
      <path
         d="m 68360,21400 v -500"
         id="path268" />
      <path
         d="m 68360,21090 50,-20 h 90 l 50,20 20,30 30,40 v 150 l -30,40 -20,30 -50,20 h -90 l -50,-20"
         id="path270" />
      <path
         d="m 69020,21400 v -260 l -20,-50 -50,-20 h -90 l -50,20"
         id="path272" />
      <path
         d="m 69020,21380 -40,20 h -120 l -50,-20 -20,-50 v -50 l 20,-50 50,-20 h 120 l 40,-20"
         id="path274" />
      <path
         d="m 69190,21070 h 190"
         id="path276" />
      <path
         d="m 69260,20900 v 430 l 30,50 40,20 h 50"
         id="path278" />
      <path
         d="m 69480,21070 h 190"
         id="path280" />
      <path
         d="m 69550,20900 v 430 l 20,50 50,20 h 50"
         id="path282" />
      <path
         d="m 70020,21380 -40,20 h -100 l -50,-20 -20,-50 v -190 l 20,-50 50,-20 h 100 l 40,20 30,50 v 50 l -240,40"
         id="path284" />
      <path
         d="m 70260,21400 v -330"
         id="path286" />
      <path
         d="m 70260,21160 30,-40 20,-30 50,-20 h 50"
         id="path288" />
      <path
         d="m 70520,21070 120,330"
         id="path290" />
      <path
         d="m 70760,21070 -120,330 -40,120 -30,20 -50,30"
         id="path292" />
      <path
         d="m 70950,21070 v 500"
         id="path294" />
      <path
         d="m 70950,21090 50,-20 h 100 l 40,20 30,30 20,40 v 150 l -20,40 -30,30 -40,20 h -100 l -50,-20"
         id="path296" />
      <path
         d="m 71620,21400 v -260 l -20,-50 -50,-20 h -100 l -40,20"
         id="path298" />
      <path
         d="m 71620,21380 -50,20 h -120 l -40,-20 -30,-50 v -50 l 30,-50 40,-20 h 120 l 50,-20"
         id="path300" />
      <path
         d="m 72070,21380 -50,20 h -90 l -50,-20 -20,-30 -30,-40 v -150 l 30,-40 20,-30 50,-20 h 90 l 50,20"
         id="path302" />
      <path
         d="m 72290,21400 v -500"
         id="path304" />
      <path
         d="m 72330,21210 150,190"
         id="path306" />
      <path
         d="m 72480,21070 -190,190"
         id="path308" />
    </g>
  </g>
  <g
     style="fill:#008484;fill-opacity:0;stroke:#008484;stroke-width:60;stroke-linecap:round;stroke-linejoin:round;stroke-opacity:1"
     id="g314"
     transform="translate(-34460,-17010)" />
  <g
     style="fill:#008400;fill-opacity:0;stroke:#008400;stroke-width:60;stroke-linecap:round;stroke-linejoin:round;stroke-opacity:1"
     id="g332"
     transform="translate(-34460,-17010)">
    <path
       d="M 48000,26000 H 42500"
       id="path316" />
    <path
       d="m 42500,24000 h 3000"
       id="path318" />
    <path
       d="M 45500,24000 V 22500"
       id="path320" />
    <path
       d="m 45500,22500 h 2500"
       id="path322" />
    <path
       d="m 48000,21000 v 1500"
       id="path324" />
    <path
       d="M 48000,24000 V 22500"
       id="path326" />
    <path
       d="m 61500,26000 h 5000"
       id="path328" />
    <path
       d="M 66500,24000 H 61500"
       id="path330" />
  </g>
  <g
     style="fill:#008400;fill-opacity:0;stroke:#008400;stroke-width:80;stroke-linecap:round;stroke-linejoin:round;stroke-opacity:1"
     id="g334"
     transform="translate(-34460,-17010)" />
  <g
     style="fill:#0000c2;fill-opacity:0;stroke:#0000c2;stroke-width:80;stroke-linecap:round;stroke-linejoin:round;stroke-opacity:1"
     id="g398"
     transform="translate(-34460,-17010)">
    <text
       x="47000"
       y="17880"
       textLength="17950"
       font-size="1050px"
       lengthAdjust="spacingAndGlyphs"
       text-anchor="start"
       opacity="0"
       id="text336">ADM-PC-BP25 in Buck mode</text>
    <path
       d="m 47190,17610 h 370"
       id="path338" />
    <path
       d="m 47110,17840 260,-790 270,790"
       id="path340" />
    <path
       d="m 47900,17840 v -790 h 190 l 110,40 80,70 30,80 40,150 v 110 l -40,150 -30,70 -80,80 -110,40 h -190"
       id="path342" />
    <path
       d="m 48690,17840 v -790 l 260,560 270,-560 v 790"
       id="path344" />
    <path
       d="m 49590,17540 h 610"
       id="path346" />
    <path
       d="m 50570,17840 v -790 h 300 l 80,40 40,30 30,80 v 110 l -30,80 -40,30 -80,40 h -300"
       id="path348" />
    <path
       d="m 51810,17760 -30,40 -120,40 h -70 l -120,-40 -70,-80 -40,-70 -40,-150 v -110 l 40,-150 40,-80 70,-70 120,-40 h 70 l 120,40 30,30"
       id="path350" />
    <path
       d="m 52150,17540 h 600"
       id="path352" />
    <path
       d="m 53390,17420 120,40 30,40 40,70 v 120 l -40,70 -30,40 -80,40 h -300 v -790 h 260 l 80,40 40,30 30,80 v 70 l -30,80 -40,40 -80,30 h -260"
       id="path354" />
    <path
       d="m 53920,17840 v -790 h 300 l 80,40 30,30 40,80 v 110 l -40,80 -30,30 -80,40 h -300"
       id="path356" />
    <path
       d="m 54670,17120 40,-30 70,-40 h 190 l 80,40 40,30 30,80 v 70 l -30,120 -460,450 h 490"
       id="path358" />
    <path
       d="m 55840,17050 h -380 l -40,370 40,-30 80,-40 h 190 l 70,40 40,30 40,80 v 190 l -40,70 -40,40 -70,40 h -190 l -80,-40 -40,-40"
       id="path360" />
    <path
       d="m 56820,17840 v -530"
       id="path362" />
    <path
       d="m 56820,17050 -40,40 40,30 30,-30 -30,-40 v 70"
       id="path364" />
    <path
       d="m 57190,17310 v 530"
       id="path366" />
    <path
       d="m 57190,17390 40,-40 80,-40 h 110 l 70,40 40,70 v 420"
       id="path368" />
    <path
       d="m 58770,17420 120,40 30,40 40,70 v 120 l -40,70 -30,40 -80,40 h -300 v -790 h 260 l 80,40 40,30 30,80 v 70 l -30,80 -40,40 -80,30 h -260"
       id="path370" />
    <path
       d="m 59640,17310 v 530"
       id="path372" />
    <path
       d="m 59300,17310 v 410 l 40,80 70,40 h 110 l 80,-40 40,-40"
       id="path374" />
    <path
       d="m 60350,17800 -70,40 h -150 l -80,-40 -40,-40 -30,-70 v -230 l 30,-70 40,-40 80,-40 h 150 l 70,40"
       id="path376" />
    <path
       d="m 60690,17840 v -790"
       id="path378" />
    <path
       d="m 60770,17540 220,300"
       id="path380" />
    <path
       d="m 60990,17310 -300,300"
       id="path382" />
    <path
       d="m 61930,17840 v -530"
       id="path384" />
    <path
       d="m 61930,17390 40,-40 80,-40 h 110 l 70,40 40,70 v 420"
       id="path386" />
    <path
       d="m 62270,17420 40,-70 70,-40 h 120 l 70,40 40,70 v 420"
       id="path388" />
    <path
       d="m 63100,17840 -80,-40 -30,-40 -40,-70 v -230 l 40,-70 30,-40 80,-40 h 110 l 80,40 30,40 40,70 v 230 l -40,70 -30,40 -80,40 h -110"
       id="path390" />
    <path
       d="m 64040,17840 v -790"
       id="path392" />
    <path
       d="m 64040,17800 -80,40 h -150 l -70,-40 -40,-40 -40,-70 v -230 l 40,-70 40,-40 70,-40 h 150 l 80,40"
       id="path394" />
    <path
       d="m 64720,17800 -80,40 h -150 l -70,-40 -40,-80 v -300 l 40,-70 70,-40 h 150 l 80,40 30,70 v 80 l -370,70"
       id="path396" />
  </g>
  <g
     style="fill:#0000c2;fill-opacity:0;stroke:#0000c2;stroke-width:0;stroke-linecap:round;stroke-linejoin:round;stroke-opacity:1"
     id="g400"
     transform="translate(-34460,-17010)" />
  <g
     style="fill:#008400;fill-opacity:0;stroke:#008400;stroke-width:0;stroke-linecap:round;stroke-linejoin:round;stroke-opacity:1"
     id="g402"
     transform="translate(-34460,-17010)" />
  <g
     style="fill:#008400;fill-opacity:1;stroke:#008400;stroke-width:100;stroke-linecap:round;stroke-linejoin:round;stroke-opacity:1"
     id="g406"
     transform="translate(-34460,-17010)">
    <circle
       cx="48000"
       cy="22500"
       r="200"
       id="circle404" />
  </g>
</svg>
