<?xml version="1.0" encoding="UTF-8" standalone="no"?>
<svg
   version="1.1"
   width="10.94232cm"
   height="4.3230796cm"
   viewBox="0 0 43079.999 17019.999"
   id="svg622"
   xmlns="http://www.w3.org/2000/svg"
   xmlns:svg="http://www.w3.org/2000/svg">
  <defs
     id="defs626" />
  <title
     id="title2">SVG Picture created as AFE_inverter 1-ph_sync-AFE_inverter 1-ph_sync.svg date 2021/12/17 14:04:29 </title>
  <desc
     id="desc4">Picture generated by Eeschema-SVG </desc>
  <g
     style="fill:#000000;fill-opacity:1;stroke:#000000;stroke-linecap:round;stroke-linejoin:round;stroke-opacity:1"
     id="g6"
     transform="translate(-33460,-36510)" />
  <g
     style="fill:#000000;fill-opacity:0;stroke:#000000;stroke-width:0;stroke-linecap:round;stroke-linejoin:round;stroke-opacity:1"
     id="g112"
     transform="translate(-33460,-36510)">
    <g
       id="g8" />
    <g
       style="fill:#840000;fill-opacity:0;stroke:#840000;stroke-width:0;stroke-linecap:round;stroke-linejoin:round;stroke-opacity:1"
       id="g10" />
    <g
       style="fill:#ffffc2;fill-opacity:0;stroke:#ffffc2;stroke-width:0;stroke-linecap:round;stroke-linejoin:round;stroke-opacity:1"
       id="g12" />
    <g
       style="fill:#ffffc2;fill-opacity:0.6;stroke:#ffffc2;stroke-width:0;stroke-linecap:round;stroke-linejoin:round;stroke-opacity:1"
       id="g16">
      <rect
         x="69500"
         y="43000"
         width="7000"
         height="5000"
         rx="0"
         id="rect14" />
    </g>
    <g
       style="fill:#840000;fill-opacity:0.6;stroke:#840000;stroke-width:0;stroke-linecap:round;stroke-linejoin:round;stroke-opacity:1"
       id="g18" />
    <g
       style="fill:#840000;fill-opacity:0;stroke:#840000;stroke-width:80;stroke-linecap:round;stroke-linejoin:round;stroke-opacity:1"
       id="g40">
      <rect
         x="69500"
         y="43000"
         width="7000"
         height="5000"
         rx="0"
         id="rect20" />
      <rect
         x="69500"
         y="43000"
         width="7000"
         height="5000"
         rx="0"
         id="rect22" />
      <path
         style="fill:none;fill-opacity:0;stroke:#840000;stroke-width:80;stroke-linecap:round;stroke-linejoin:round;stroke-opacity:1"
         d="m 74500,45500 h 400"
         id="path24" />
      <path
         style="fill:none;fill-opacity:0;stroke:#840000;stroke-width:80;stroke-linecap:round;stroke-linejoin:round;stroke-opacity:1"
         d="m 74100,45000 v 1000"
         id="path26" />
      <path
         style="fill:none;fill-opacity:0;stroke:#840000;stroke-width:80;stroke-linecap:round;stroke-linejoin:round;stroke-opacity:1"
         d="m 73600,45500 h 300"
         id="path28" />
      <path
         style="fill:none;fill-opacity:0;stroke:#840000;stroke-width:80;stroke-linecap:round;stroke-linejoin:round;stroke-opacity:1"
         d="m 73100,45500 h 300"
         id="path30" />
      <path
         style="fill:none;fill-opacity:0;stroke:#840000;stroke-width:80;stroke-linecap:round;stroke-linejoin:round;stroke-opacity:1"
         d="m 72600,45500 h 300"
         id="path32" />
      <path
         style="fill:none;fill-opacity:0;stroke:#840000;stroke-width:80;stroke-linecap:round;stroke-linejoin:round;stroke-opacity:1"
         d="m 72600,44600 v 1800"
         id="path34" />
      <path
         style="fill:none;fill-opacity:0;stroke:#840000;stroke-width:80;stroke-linecap:round;stroke-linejoin:round;stroke-opacity:1"
         d="m 72200,45500 h -400"
         id="path36" />
      <path
         style="fill:none;fill-opacity:0;stroke:#840000;stroke-width:80;stroke-linecap:round;stroke-linejoin:round;stroke-opacity:1"
         d="m 72200,45000 v 1100"
         id="path38" />
    </g>
    <g
       style="fill:#840000;fill-opacity:0;stroke:#840000;stroke-width:60;stroke-linecap:round;stroke-linejoin:round;stroke-opacity:1"
       id="g44">
      <path
         style="fill:none;fill-opacity:0;stroke:#840000;stroke-width:60;stroke-linecap:round;stroke-linejoin:round;stroke-opacity:1"
         d="m 74500,44600 v 1790"
         id="path42" />
    </g>
    <g
       style="fill:#840000;fill-opacity:0;stroke:#840000;stroke-width:80;stroke-linecap:round;stroke-linejoin:round;stroke-opacity:1"
       id="g48">
      <path
         d="M 69500,44500 H 68500"
         id="path46" />
    </g>
    <g
       style="fill:#008484;fill-opacity:0;stroke:#008484;stroke-width:80;stroke-linecap:round;stroke-linejoin:round;stroke-opacity:1"
       id="g56">
      <text
         x="69700"
         y="44890"
         textLength="1060"
         font-size="1050px"
         lengthAdjust="spacingAndGlyphs"
         text-anchor="start"
         opacity="0"
         id="text50">+</text>
      <path
         d="m 69920,44550 h 610"
         id="path52" />
      <path
         d="m 70220,44850 v -600"
         id="path54" />
    </g>
    <g
       style="fill:#840000;fill-opacity:0;stroke:#840000;stroke-width:80;stroke-linecap:round;stroke-linejoin:round;stroke-opacity:1"
       id="g60">
      <path
         d="M 69500,46500 H 68500"
         id="path58" />
    </g>
    <g
       style="fill:#008484;fill-opacity:0;stroke:#008484;stroke-width:80;stroke-linecap:round;stroke-linejoin:round;stroke-opacity:1"
       id="g110">
      <text
         x="69700"
         y="46890"
         textLength="1060"
         font-size="1050px"
         lengthAdjust="spacingAndGlyphs"
         text-anchor="start"
         opacity="0"
         id="text62">-</text>
      <path
         d="m 69920,46550 h 610"
         id="path64" />
      <text
         x="72410"
         y="42530"
         textLength="4410"
         font-size="660px"
         lengthAdjust="spacingAndGlyphs"
         text-anchor="middle"
         opacity="0"
         id="text66">batterypack</text>
      <path
         d="m 70360,42500 v -500"
         id="path68" />
      <path
         d="m 70360,42190 50,-20 h 90 l 50,20 20,30 30,40 v 150 l -30,40 -20,30 -50,20 h -90 l -50,-20"
         id="path70" />
      <path
         d="m 71020,42500 v -260 l -20,-50 -50,-20 h -90 l -50,20"
         id="path72" />
      <path
         d="m 71020,42480 -40,20 h -120 l -50,-20 -20,-50 v -50 l 20,-50 50,-20 h 120 l 40,-20"
         id="path74" />
      <path
         d="m 71190,42170 h 190"
         id="path76" />
      <path
         d="m 71260,42000 v 430 l 30,50 40,20 h 50"
         id="path78" />
      <path
         d="m 71480,42170 h 190"
         id="path80" />
      <path
         d="m 71550,42000 v 430 l 20,50 50,20 h 50"
         id="path82" />
      <path
         d="m 72020,42480 -40,20 h -100 l -50,-20 -20,-50 v -190 l 20,-50 50,-20 h 100 l 40,20 30,50 v 50 l -240,40"
         id="path84" />
      <path
         d="m 72260,42500 v -330"
         id="path86" />
      <path
         d="m 72260,42260 30,-40 20,-30 50,-20 h 50"
         id="path88" />
      <path
         d="m 72520,42170 120,330"
         id="path90" />
      <path
         d="m 72760,42170 -120,330 -40,120 -30,20 -50,30"
         id="path92" />
      <path
         d="m 72950,42170 v 500"
         id="path94" />
      <path
         d="m 72950,42190 50,-20 h 100 l 40,20 30,30 20,40 v 150 l -20,40 -30,30 -40,20 h -100 l -50,-20"
         id="path96" />
      <path
         d="m 73620,42500 v -260 l -20,-50 -50,-20 h -100 l -40,20"
         id="path98" />
      <path
         d="m 73620,42480 -50,20 h -120 l -40,-20 -30,-50 v -50 l 30,-50 40,-20 h 120 l 50,-20"
         id="path100" />
      <path
         d="m 74070,42480 -50,20 h -90 l -50,-20 -20,-30 -30,-40 v -150 l 30,-40 20,-30 50,-20 h 90 l 50,20"
         id="path102" />
      <path
         d="m 74290,42500 v -500"
         id="path104" />
      <path
         d="m 74330,42310 150,190"
         id="path106" />
      <path
         d="m 74480,42170 -190,190"
         id="path108" />
    </g>
  </g>
  <g
     style="fill:#008484;fill-opacity:0;stroke:#008484;stroke-width:0;stroke-linecap:round;stroke-linejoin:round;stroke-opacity:1"
     id="g174"
     transform="translate(-33460,-36510)">
    <g
       id="g114" />
    <g
       style="fill:#840000;fill-opacity:0;stroke:#840000;stroke-width:0;stroke-linecap:round;stroke-linejoin:round;stroke-opacity:1"
       id="g116" />
    <g
       style="fill:#ffffc2;fill-opacity:0;stroke:#ffffc2;stroke-width:0;stroke-linecap:round;stroke-linejoin:round;stroke-opacity:1"
       id="g118" />
    <g
       style="fill:#ffffc2;fill-opacity:0.6;stroke:#ffffc2;stroke-width:0;stroke-linecap:round;stroke-linejoin:round;stroke-opacity:1"
       id="g122">
      <rect
         x="33500"
         y="41500"
         width="7000"
         height="5000"
         rx="0"
         id="rect120" />
    </g>
    <g
       style="fill:#840000;fill-opacity:0.6;stroke:#840000;stroke-width:0;stroke-linecap:round;stroke-linejoin:round;stroke-opacity:1"
       id="g124" />
    <g
       style="fill:#840000;fill-opacity:0;stroke:#840000;stroke-width:80;stroke-linecap:round;stroke-linejoin:round;stroke-opacity:1"
       id="g132">
      <rect
         x="33500"
         y="41500"
         width="7000"
         height="5000"
         rx="0"
         id="rect126" />
      <rect
         x="33500"
         y="41500"
         width="7000"
         height="5000"
         rx="0"
         id="rect128" />
      <path
         d="m 40500,43000 h 1000"
         id="path130" />
    </g>
    <g
       style="fill:#008484;fill-opacity:0;stroke:#008484;stroke-width:80;stroke-linecap:round;stroke-linejoin:round;stroke-opacity:1"
       id="g140">
      <text
         x="40300"
         y="43390"
         textLength="1060"
         font-size="1050px"
         lengthAdjust="spacingAndGlyphs"
         text-anchor="end"
         opacity="0"
         id="text134">+</text>
      <path
         d="m 39470,43050 h 600"
         id="path136" />
      <path
         d="m 39770,43350 v -600"
         id="path138" />
    </g>
    <g
       style="fill:#840000;fill-opacity:0;stroke:#840000;stroke-width:80;stroke-linecap:round;stroke-linejoin:round;stroke-opacity:1"
       id="g144">
      <path
         d="m 40500,45000 h 1000"
         id="path142" />
    </g>
    <g
       style="fill:#008484;fill-opacity:0;stroke:#008484;stroke-width:80;stroke-linecap:round;stroke-linejoin:round;stroke-opacity:1"
       id="g172">
      <text
         x="40300"
         y="45390"
         textLength="1060"
         font-size="1050px"
         lengthAdjust="spacingAndGlyphs"
         text-anchor="end"
         opacity="0"
         id="text146">-</text>
      <path
         d="m 39470,45050 h 600"
         id="path148" />
      <text
         x="37580"
         y="41030"
         textLength="3010"
         font-size="660px"
         lengthAdjust="spacingAndGlyphs"
         text-anchor="middle"
         opacity="0"
         id="text150">load_AC</text>
      <path
         d="m 36300,41000 -50,-20 -20,-50 v -430"
         id="path152" />
      <path
         d="m 36560,41000 -40,-20 -30,-30 -20,-40 v -150 l 20,-40 30,-30 40,-20 h 70 l 50,20 30,30 20,40 v 150 l -20,40 -30,30 -50,20 h -70"
         id="path154" />
      <path
         d="m 37160,41000 v -260 l -30,-50 -40,-20 h -100 l -50,20"
         id="path156" />
      <path
         d="m 37160,40980 -50,20 h -120 l -50,-20 -20,-50 v -50 l 20,-50 50,-20 h 120 l 50,-20"
         id="path158" />
      <path
         d="m 37610,41000 v -500"
         id="path160" />
      <path
         d="m 37610,40980 -50,20 h -90 l -50,-20 -20,-30 -30,-40 v -150 l 30,-40 20,-30 50,-20 h 90 l 50,20"
         id="path162" />
      <path
         d="m 37730,41050 h 380"
         id="path164" />
      <path
         d="m 38210,40860 h 230"
         id="path166" />
      <path
         d="m 38160,41000 170,-500 160,500"
         id="path168" />
      <path
         d="m 38940,40950 -20,30 -70,20 h -50 l -70,-20 -50,-50 -20,-50 -30,-90 v -70 l 30,-100 20,-50 50,-40 70,-30 h 50 l 70,30 20,20"
         id="path170" />
    </g>
  </g>
  <g
     style="fill:#008484;fill-opacity:0;stroke:#008484;stroke-width:0;stroke-linecap:round;stroke-linejoin:round;stroke-opacity:1"
     id="g314"
     transform="translate(-33460,-36510)">
    <g
       id="g176" />
    <g
       style="fill:#840000;fill-opacity:0;stroke:#840000;stroke-width:0;stroke-linecap:round;stroke-linejoin:round;stroke-opacity:1"
       id="g178" />
    <g
       style="fill:#ffffc2;fill-opacity:0;stroke:#ffffc2;stroke-width:0;stroke-linecap:round;stroke-linejoin:round;stroke-opacity:1"
       id="g180" />
    <g
       style="fill:#ffffc2;fill-opacity:0.6;stroke:#ffffc2;stroke-width:0;stroke-linecap:round;stroke-linejoin:round;stroke-opacity:1"
       id="g184">
      <rect
         x="51000"
         y="41000"
         width="11500"
         height="7000"
         rx="0"
         id="rect182" />
    </g>
    <g
       style="fill:#840000;fill-opacity:0.6;stroke:#840000;stroke-width:0;stroke-linecap:round;stroke-linejoin:round;stroke-opacity:1"
       id="g186" />
    <g
       style="fill:#840000;fill-opacity:0;stroke:#840000;stroke-width:80;stroke-linecap:round;stroke-linejoin:round;stroke-opacity:1"
       id="g208">
      <rect
         x="51000"
         y="41000"
         width="11500"
         height="7000"
         rx="0"
         id="rect188" />
      <path
         d="m 53401.6,42749.3 a 280,280 0 0 0 496.8,0"
         id="path190" />
      <path
         d="m 54403.1,42748.5 a 290,290 0 0 0 -506.2,0"
         id="path192" />
      <rect
         x="51000"
         y="41000"
         width="11500"
         height="7000"
         rx="0"
         id="rect194" />
      <path
         style="fill:none;fill-opacity:0;stroke:#840000;stroke-width:80;stroke-linecap:round;stroke-linejoin:round;stroke-opacity:1"
         d="m 53400,43250 h 1000"
         id="path196" />
      <path
         style="fill:none;fill-opacity:0;stroke:#840000;stroke-width:80;stroke-linecap:round;stroke-linejoin:round;stroke-opacity:1"
         d="m 59000,45800 h 1000"
         id="path198" />
      <path
         style="fill:none;fill-opacity:0;stroke:#840000;stroke-width:80;stroke-linecap:round;stroke-linejoin:round;stroke-opacity:1"
         d="m 59000,45300 h 200"
         id="path200" />
      <path
         style="fill:none;fill-opacity:0;stroke:#840000;stroke-width:80;stroke-linecap:round;stroke-linejoin:round;stroke-opacity:1"
         d="m 59400,45300 h 200"
         id="path202" />
      <path
         style="fill:none;fill-opacity:0;stroke:#840000;stroke-width:80;stroke-linecap:round;stroke-linejoin:round;stroke-opacity:1"
         d="m 59800,45300 h 200"
         id="path204" />
      <path
         d="M 51000,46500 H 50000"
         id="path206" />
    </g>
    <g
       style="fill:#008484;fill-opacity:0;stroke:#008484;stroke-width:80;stroke-linecap:round;stroke-linejoin:round;stroke-opacity:1"
       id="g218">
      <text
         x="51200"
         y="46750"
         textLength="1700"
         font-size="660px"
         lengthAdjust="spacingAndGlyphs"
         text-anchor="start"
         opacity="0"
         id="text210">DC-</text>
      <path
         d="m 51350,46720 v -500 h 120 l 70,30 50,40 30,50 20,100 v 70 l -20,90 -30,50 -50,50 -70,20 h -120"
         id="path212" />
      <path
         d="m 52140,46670 -20,30 -80,20 h -40 l -70,-20 -50,-50 -30,-50 -20,-90 v -70 l 20,-100 30,-50 50,-40 70,-30 h 40 l 80,30 20,20"
         id="path214" />
      <path
         d="m 52350,46530 h 390"
         id="path216" />
    </g>
    <g
       style="fill:#840000;fill-opacity:0;stroke:#840000;stroke-width:80;stroke-linecap:round;stroke-linejoin:round;stroke-opacity:1"
       id="g222">
      <path
         d="M 51000,41500 H 50000"
         id="path220" />
    </g>
    <g
       style="fill:#008484;fill-opacity:0;stroke:#008484;stroke-width:80;stroke-linecap:round;stroke-linejoin:round;stroke-opacity:1"
       id="g232">
      <text
         x="51200"
         y="41750"
         textLength="960"
         font-size="660px"
         lengthAdjust="spacingAndGlyphs"
         text-anchor="start"
         opacity="0"
         id="text224">L1</text>
      <path
         d="m 51590,41720 h -240 v -500"
         id="path226" />
      <path
         d="m 52020,41720 h -280"
         id="path228" />
      <path
         d="m 51880,41720 v -500 l -50,70 -50,50 -40,20"
         id="path230" />
    </g>
    <g
       style="fill:#840000;fill-opacity:0;stroke:#840000;stroke-width:80;stroke-linecap:round;stroke-linejoin:round;stroke-opacity:1"
       id="g236">
      <path
         d="M 51000,43000 H 50000"
         id="path234" />
    </g>
    <g
       style="fill:#008484;fill-opacity:0;stroke:#008484;stroke-width:80;stroke-linecap:round;stroke-linejoin:round;stroke-opacity:1"
       id="g244">
      <text
         x="51200"
         y="43250"
         textLength="960"
         font-size="660px"
         lengthAdjust="spacingAndGlyphs"
         text-anchor="start"
         opacity="0"
         id="text238">L2</text>
      <path
         d="m 51590,43220 h -240 v -500"
         id="path240" />
      <path
         d="m 51740,42770 20,-20 50,-30 h 120 l 40,30 30,20 20,50 v 40 l -20,80 -290,280 h 310"
         id="path242" />
    </g>
    <g
       style="fill:#840000;fill-opacity:0;stroke:#840000;stroke-width:80;stroke-linecap:round;stroke-linejoin:round;stroke-opacity:1"
       id="g248">
      <path
         d="M 51000,44500 H 50000"
         id="path246" />
    </g>
    <g
       style="fill:#008484;fill-opacity:0;stroke:#008484;stroke-width:80;stroke-linecap:round;stroke-linejoin:round;stroke-opacity:1"
       id="g256">
      <text
         x="51200"
         y="44750"
         textLength="960"
         font-size="660px"
         lengthAdjust="spacingAndGlyphs"
         text-anchor="start"
         opacity="0"
         id="text250">L3</text>
      <path
         d="m 51590,44720 h -240 v -500"
         id="path252" />
      <path
         d="m 51710,44220 h 310 l -170,190 h 80 l 40,30 30,20 20,50 v 120 l -20,40 -30,30 -40,20 h -150 l -40,-20 -30,-30"
         id="path254" />
    </g>
    <g
       style="fill:#840000;fill-opacity:0;stroke:#840000;stroke-width:80;stroke-linecap:round;stroke-linejoin:round;stroke-opacity:1"
       id="g260">
      <path
         d="m 62500,46500 h 1000"
         id="path258" />
    </g>
    <g
       style="fill:#008484;fill-opacity:0;stroke:#008484;stroke-width:80;stroke-linecap:round;stroke-linejoin:round;stroke-opacity:1"
       id="g270">
      <text
         x="62300"
         y="46750"
         textLength="1700"
         font-size="660px"
         lengthAdjust="spacingAndGlyphs"
         text-anchor="end"
         opacity="0"
         id="text262">DC-</text>
      <path
         d="m 60760,46720 v -500 h 110 l 80,30 40,40 30,50 20,100 v 70 l -20,90 -30,50 -40,50 -80,20 h -110"
         id="path264" />
      <path
         d="m 61540,46670 -20,30 -70,20 h -50 l -70,-20 -50,-50 -20,-50 -30,-90 v -70 l 30,-100 20,-50 50,-40 70,-30 h 50 l 70,30 20,20"
         id="path266" />
      <path
         d="m 61760,46530 h 380"
         id="path268" />
    </g>
    <g
       style="fill:#840000;fill-opacity:0;stroke:#840000;stroke-width:80;stroke-linecap:round;stroke-linejoin:round;stroke-opacity:1"
       id="g274">
      <path
         d="m 62500,44500 h 1000"
         id="path272" />
    </g>
    <g
       style="fill:#008484;fill-opacity:0;stroke:#008484;stroke-width:80;stroke-linecap:round;stroke-linejoin:round;stroke-opacity:1"
       id="g312">
      <text
         x="62300"
         y="44750"
         textLength="1700"
         font-size="660px"
         lengthAdjust="spacingAndGlyphs"
         text-anchor="end"
         opacity="0"
         id="text276">DC+</text>
      <path
         d="m 60760,44720 v -500 h 110 l 80,30 40,40 30,50 20,100 v 70 l -20,90 -30,50 -40,50 -80,20 h -110"
         id="path278" />
      <path
         d="m 61540,44670 -20,30 -70,20 h -50 l -70,-20 -50,-50 -20,-50 -30,-90 v -70 l 30,-100 20,-50 50,-40 70,-30 h 50 l 70,30 20,20"
         id="path280" />
      <path
         d="m 61760,44530 h 380"
         id="path282" />
      <path
         d="m 61950,44720 v -380"
         id="path284" />
      <text
         x="56750"
         y="40550"
         textLength="5770"
         font-size="660px"
         lengthAdjust="spacingAndGlyphs"
         text-anchor="middle"
         opacity="0"
         id="text286">ADM-PC-BP25</text>
      <path
         d="m 54000,40380 h 230"
         id="path288" />
      <path
         d="m 53950,40520 160,-500 170,500"
         id="path290" />
      <path
         d="m 54450,40520 v -500 h 120 l 70,30 50,40 20,50 20,100 v 70 l -20,90 -20,50 -50,50 -70,20 h -120"
         id="path292" />
      <path
         d="m 54950,40520 v -500 l 160,360 170,-360 v 500"
         id="path294" />
      <path
         d="m 55520,40330 h 380"
         id="path296" />
      <path
         d="m 56140,40520 v -500 h 190 l 50,30 20,20 20,50 v 70 l -20,50 -20,20 -50,20 h -190"
         id="path298" />
      <path
         d="m 56920,40470 -20,30 -70,20 h -50 l -70,-20 -50,-50 -20,-50 -30,-90 v -70 l 30,-100 20,-50 50,-40 70,-30 h 50 l 70,30 20,20"
         id="path300" />
      <path
         d="m 57140,40330 h 380"
         id="path302" />
      <path
         d="m 57920,40260 80,20 20,30 20,40 v 80 l -20,40 -20,30 -50,20 h -190 v -500 h 160 l 50,30 30,20 20,50 v 40 l -20,50 -30,30 -50,20 h -160"
         id="path304" />
      <path
         d="m 58260,40520 v -500 h 190 l 50,30 20,20 20,50 v 70 l -20,50 -20,20 -50,20 h -190"
         id="path306" />
      <path
         d="m 58730,40070 30,-20 40,-30 h 120 l 50,30 30,20 20,50 v 40 l -20,80 -290,280 h 310"
         id="path308" />
      <path
         d="m 59470,40020 h -240 l -20,240 20,-20 50,-30 h 120 l 50,30 20,20 30,50 v 120 l -30,40 -20,30 -50,20 h -120 l -50,-20 -20,-30"
         id="path310" />
    </g>
  </g>
  <g
     style="fill:#008484;fill-opacity:0;stroke:#008484;stroke-width:60;stroke-linecap:round;stroke-linejoin:round;stroke-opacity:1"
     id="g316"
     transform="translate(-33460,-36510)" />
  <g
     style="fill:#008400;fill-opacity:0;stroke:#008400;stroke-width:60;stroke-linecap:round;stroke-linejoin:round;stroke-opacity:1"
     id="g340"
     transform="translate(-33460,-36510)">
    <path
       d="M 50000,44500 H 48500"
       id="path318" />
    <path
       d="m 44000,53500 h 3000"
       id="path320" />
    <path
       d="m 44000,45000 v 8500"
       id="path322" />
    <path
       d="m 41500,45000 h 2500"
       id="path324" />
    <path
       d="m 41500,43000 h 7000"
       id="path326" />
    <path
       d="M 48500,44500 V 43000"
       id="path328" />
    <path
       d="M 68500,44500 H 63500"
       id="path330" />
    <path
       d="m 48500,43000 h 1500"
       id="path332" />
    <path
       d="m 48500,41500 v 1500"
       id="path334" />
    <path
       d="M 50000,41500 H 48500"
       id="path336" />
    <path
       d="m 63500,46500 h 5000"
       id="path338" />
  </g>
  <g
     style="fill:#008400;fill-opacity:0;stroke:#008400;stroke-width:80;stroke-linecap:round;stroke-linejoin:round;stroke-opacity:1"
     id="g342"
     transform="translate(-33460,-36510)" />
  <g
     style="fill:#0000c2;fill-opacity:0;stroke:#0000c2;stroke-width:80;stroke-linecap:round;stroke-linejoin:round;stroke-opacity:1"
     id="g612"
     transform="translate(-33460,-36510)">
    <text
       x="44500"
       y="51610"
       textLength="21750"
       font-size="1050px"
       lengthAdjust="spacingAndGlyphs"
       text-anchor="start"
       opacity="0"
       id="text344">Neutral or another phase generated</text>
    <path
       d="m 44720,51570 v -790 l 450,790 v -790"
       id="path346" />
    <path
       d="m 45850,51530 -70,40 h -150 l -80,-40 -40,-80 v -300 l 40,-70 80,-40 h 150 l 70,40 40,70 v 80 l -380,70"
       id="path348" />
    <path
       d="m 46570,51040 v 530"
       id="path350" />
    <path
       d="m 46230,51040 v 410 l 40,80 70,40 h 110 l 80,-40 40,-40"
       id="path352" />
    <path
       d="m 46830,51040 h 300"
       id="path354" />
    <path
       d="m 46940,50780 v 670 l 40,80 80,40 h 70"
       id="path356" />
    <path
       d="m 47390,51570 v -530"
       id="path358" />
    <path
       d="m 47390,51190 40,-70 40,-40 70,-40 h 80"
       id="path360" />
    <path
       d="m 48220,51570 v -420 l -40,-70 -70,-40 h -150 l -80,40"
       id="path362" />
    <path
       d="m 48220,51530 -70,40 h -190 l -80,-40 -30,-80 v -70 l 30,-80 80,-30 h 190 l 70,-40"
       id="path364" />
    <path
       d="m 48710,51570 -70,-40 -40,-80 v -670"
       id="path366" />
    <path
       d="m 49730,51570 -80,-40 -40,-40 -30,-70 v -230 l 30,-70 40,-40 80,-40 h 110 l 70,40 40,40 40,70 v 230 l -40,70 -40,40 -70,40 h -110"
       id="path368" />
    <path
       d="m 50330,51570 v -530"
       id="path370" />
    <path
       d="m 50330,51190 40,-70 30,-40 80,-40 h 70"
       id="path372" />
    <path
       d="m 51760,51570 v -420 l -40,-70 -70,-40 h -160 l -70,40"
       id="path374" />
    <path
       d="m 51760,51530 -80,40 h -190 l -70,-40 -40,-80 v -70 l 40,-80 70,-30 h 190 l 80,-40"
       id="path376" />
    <path
       d="m 52130,51040 v 530"
       id="path378" />
    <path
       d="m 52130,51120 40,-40 80,-40 h 110 l 80,40 30,70 v 420"
       id="path380" />
    <path
       d="m 52960,51570 -70,-40 -40,-40 -40,-70 v -230 l 40,-70 40,-40 70,-40 h 110 l 80,40 40,40 40,70 v 230 l -40,70 -40,40 -80,40 h -110"
       id="path382" />
    <path
       d="m 53450,51040 h 300"
       id="path384" />
    <path
       d="m 53560,50780 v 670 l 40,80 80,40 h 70"
       id="path386" />
    <path
       d="m 54020,51570 v -790"
       id="path388" />
    <path
       d="m 54350,51570 v -420 l -30,-70 -80,-40 h -110 l -80,40 -30,40"
       id="path390" />
    <path
       d="m 55030,51530 -70,40 h -150 l -80,-40 -40,-80 v -300 l 40,-70 80,-40 h 150 l 70,40 40,70 v 80 l -380,70"
       id="path392" />
    <path
       d="m 55410,51570 v -530"
       id="path394" />
    <path
       d="m 55410,51190 30,-70 40,-40 80,-40 h 70"
       id="path396" />
    <path
       d="m 56500,51040 v 790"
       id="path398" />
    <path
       d="m 56500,51080 70,-40 h 150 l 80,40 40,40 30,70 v 230 l -30,70 -40,40 -80,40 h -150 l -70,-40"
       id="path400" />
    <path
       d="m 57210,51570 v -790"
       id="path402" />
    <path
       d="m 57550,51570 v -420 l -40,-70 -70,-40 h -110 l -80,40 -40,40"
       id="path404" />
    <path
       d="m 58270,51570 v -420 l -40,-70 -80,-40 h -150 l -70,40"
       id="path406" />
    <path
       d="m 58270,51530 -80,40 h -190 l -70,-40 -40,-80 v -70 l 40,-80 70,-30 h 190 l 80,-40"
       id="path408" />
    <path
       d="m 58600,51530 80,40 h 150 l 80,-40 30,-80 v -30 l -30,-80 -80,-40 h -110 l -80,-30 -40,-80 v -40 l 40,-70 80,-40 h 110 l 80,40"
       id="path410" />
    <path
       d="m 59580,51530 -70,40 h -150 l -80,-40 -40,-80 v -300 l 40,-70 80,-40 h 150 l 70,40 40,70 v 80 l -380,70"
       id="path412" />
    <path
       d="m 60900,51040 v 640 l -40,80 -40,30 -70,40 h -110 l -80,-40"
       id="path414" />
    <path
       d="m 60900,51530 -80,40 h -150 l -70,-40 -40,-40 -40,-70 v -230 l 40,-70 40,-40 70,-40 h 150 l 80,40"
       id="path416" />
    <path
       d="m 61580,51530 -80,40 h -150 l -70,-40 -40,-80 v -300 l 40,-70 70,-40 h 150 l 80,40 30,70 v 80 l -370,70"
       id="path418" />
    <path
       d="m 61950,51040 v 530"
       id="path420" />
    <path
       d="m 61950,51120 40,-40 80,-40 h 110 l 70,40 40,70 v 420"
       id="path422" />
    <path
       d="m 62970,51530 -80,40 h -150 l -70,-40 -40,-80 v -300 l 40,-70 70,-40 h 150 l 80,40 40,70 v 80 l -380,70"
       id="path424" />
    <path
       d="m 63340,51570 v -530"
       id="path426" />
    <path
       d="m 63340,51190 40,-70 40,-40 80,-40 h 70"
       id="path428" />
    <path
       d="m 64170,51570 v -420 l -40,-70 -70,-40 h -150 l -80,40"
       id="path430" />
    <path
       d="m 64170,51530 -70,40 h -190 l -80,-40 -30,-80 v -70 l 30,-80 80,-30 h 190 l 70,-40"
       id="path432" />
    <path
       d="m 64440,51040 h 300"
       id="path434" />
    <path
       d="m 64550,50780 v 670 l 40,80 70,40 h 80"
       id="path436" />
    <path
       d="m 65300,51530 -70,40 h -150 l -80,-40 -40,-80 v -300 l 40,-70 80,-40 h 150 l 70,40 40,70 v 80 l -380,70"
       id="path438" />
    <path
       d="m 66020,51570 v -790"
       id="path440" />
    <path
       d="m 66020,51530 -80,40 h -150 l -80,-40 -30,-40 -40,-70 v -230 l 40,-70 30,-40 80,-40 h 150 l 80,40"
       id="path442" />
    <text
       x="44500"
       y="52880"
       textLength="18700"
       font-size="1050px"
       lengthAdjust="spacingAndGlyphs"
       text-anchor="start"
       opacity="0"
       id="text444">with a second ADM-PC-BP25</text>
    <path
       d="m 45250,52310 150,530 150,-380 150,380 150,-530"
       id="path446" />
    <path
       d="m 46150,52840 v -530"
       id="path448" />
    <path
       d="m 46150,52050 -30,40 30,30 40,-30 -40,-40 v 70"
       id="path450" />
    <path
       d="m 46420,52310 h 300"
       id="path452" />
    <path
       d="m 46530,52050 v 670 l 40,80 70,40 h 80"
       id="path454" />
    <path
       d="m 46980,52840 v -790"
       id="path456" />
    <path
       d="m 47320,52840 v -420 l -40,-70 -70,-40 h -120 l -70,40 -40,40"
       id="path458" />
    <path
       d="m 48640,52840 v -420 l -40,-70 -80,-40 h -150 l -70,40"
       id="path460" />
    <path
       d="m 48640,52800 -80,40 h -190 l -70,-40 -40,-80 v -70 l 40,-80 70,-30 h 190 l 80,-40"
       id="path462" />
    <path
       d="m 49580,52800 70,40 h 150 l 80,-40 30,-80 v -30 l -30,-80 -80,-40 h -110 l -80,-30 -30,-80 v -40 l 30,-70 80,-40 h 110 l 80,40"
       id="path464" />
    <path
       d="m 50550,52800 -70,40 h -150 l -80,-40 -30,-80 v -300 l 30,-70 80,-40 h 150 l 70,40 40,70 v 80 l -370,70"
       id="path466" />
    <path
       d="m 51270,52800 -80,40 h -150 l -70,-40 -40,-40 -40,-70 v -230 l 40,-70 40,-40 70,-40 h 150 l 80,40"
       id="path468" />
    <path
       d="m 51720,52840 -70,-40 -40,-40 -40,-70 v -230 l 40,-70 40,-40 70,-40 h 110 l 80,40 40,40 30,70 v 230 l -30,70 -40,40 -80,40 h -110"
       id="path470" />
    <path
       d="m 52320,52310 v 530"
       id="path472" />
    <path
       d="m 52320,52390 40,-40 80,-40 h 110 l 70,40 40,70 v 420"
       id="path474" />
    <path
       d="m 53380,52840 v -790"
       id="path476" />
    <path
       d="m 53380,52800 -80,40 h -150 l -80,-40 -30,-40 -40,-70 v -230 l 40,-70 30,-40 80,-40 h 150 l 80,40"
       id="path478" />
    <path
       d="m 54320,52610 h 370"
       id="path480" />
    <path
       d="m 54240,52840 260,-790 270,790"
       id="path482" />
    <path
       d="m 55030,52840 v -790 h 190 l 110,40 80,70 30,80 40,150 v 110 l -40,150 -30,70 -80,80 -110,40 h -190"
       id="path484" />
    <path
       d="m 55820,52840 v -790 l 260,560 270,-560 v 790"
       id="path486" />
    <path
       d="m 56720,52540 h 610"
       id="path488" />
    <path
       d="m 57700,52840 v -790 h 300 l 80,40 40,30 30,80 v 110 l -30,80 -40,30 -80,40 h -300"
       id="path490" />
    <path
       d="m 58940,52760 -30,40 -120,40 h -70 l -120,-40 -70,-80 -40,-70 -40,-150 v -110 l 40,-150 40,-80 70,-70 120,-40 h 70 l 120,40 30,30"
       id="path492" />
    <path
       d="m 59280,52540 h 600"
       id="path494" />
    <path
       d="m 60520,52420 120,40 30,40 40,70 v 120 l -40,70 -30,40 -80,40 h -300 v -790 h 260 l 80,40 40,30 30,80 v 70 l -30,80 -40,40 -80,30 h -260"
       id="path496" />
    <path
       d="m 61050,52840 v -790 h 300 l 80,40 30,30 40,80 v 110 l -40,80 -30,30 -80,40 h -300"
       id="path498" />
    <path
       d="m 61800,52120 40,-30 80,-40 h 180 l 80,40 40,30 30,80 v 70 l -30,120 -460,450 h 490"
       id="path500" />
    <path
       d="m 62970,52050 h -380 l -40,370 40,-30 80,-40 h 190 l 70,40 40,30 40,80 v 190 l -40,70 -40,40 -70,40 h -190 l -80,-40 -40,-40"
       id="path502" />
    <text
       x="40000"
       y="37380"
       textLength="29120"
       font-size="1050px"
       lengthAdjust="spacingAndGlyphs"
       text-anchor="start"
       opacity="0"
       id="text504">ADM-PC-BP25 in Inverter 1-phase Sync. mode</text>
    <path
       d="m 40190,37110 h 370"
       id="path506" />
    <path
       d="m 40110,37340 260,-790 270,790"
       id="path508" />
    <path
       d="m 40900,37340 v -790 h 190 l 110,40 80,70 30,80 40,150 v 110 l -40,150 -30,70 -80,80 -110,40 h -190"
       id="path510" />
    <path
       d="m 41690,37340 v -790 l 260,560 270,-560 v 790"
       id="path512" />
    <path
       d="m 42590,37040 h 610"
       id="path514" />
    <path
       d="m 43570,37340 v -790 h 300 l 80,40 40,30 30,80 v 110 l -30,80 -40,30 -80,40 h -300"
       id="path516" />
    <path
       d="m 44810,37260 -30,40 -120,40 h -70 l -120,-40 -70,-80 -40,-70 -40,-150 v -110 l 40,-150 40,-80 70,-70 120,-40 h 70 l 120,40 30,30"
       id="path518" />
    <path
       d="m 45150,37040 h 600"
       id="path520" />
    <path
       d="m 46390,36920 120,40 30,40 40,70 v 120 l -40,70 -30,40 -80,40 h -300 v -790 h 260 l 80,40 40,30 30,80 v 70 l -30,80 -40,40 -80,30 h -260"
       id="path522" />
    <path
       d="m 46920,37340 v -790 h 300 l 80,40 30,30 40,80 v 110 l -40,80 -30,30 -80,40 h -300"
       id="path524" />
    <path
       d="m 47670,36620 40,-30 70,-40 h 190 l 80,40 40,30 30,80 v 70 l -30,120 -460,450 h 490"
       id="path526" />
    <path
       d="m 48840,36550 h -380 l -40,370 40,-30 80,-40 h 190 l 70,40 40,30 40,80 v 190 l -40,70 -40,40 -70,40 h -190 l -80,-40 -40,-40"
       id="path528" />
    <path
       d="m 49820,37340 v -530"
       id="path530" />
    <path
       d="m 49820,36550 -40,40 40,30 30,-30 -30,-40 v 70"
       id="path532" />
    <path
       d="m 50190,36810 v 530"
       id="path534" />
    <path
       d="m 50190,36890 40,-40 80,-40 h 110 l 70,40 40,70 v 420"
       id="path536" />
    <path
       d="m 51510,37340 v -790"
       id="path538" />
    <path
       d="m 51890,36810 v 530"
       id="path540" />
    <path
       d="m 51890,36890 30,-40 80,-40 h 110 l 80,40 30,70 v 420"
       id="path542" />
    <path
       d="m 52520,36810 190,530 190,-530"
       id="path544" />
    <path
       d="m 53500,37300 -70,40 h -150 l -80,-40 -40,-80 v -300 l 40,-70 80,-40 h 150 l 70,40 40,70 v 80 l -380,70"
       id="path546" />
    <path
       d="m 53880,37340 v -530"
       id="path548" />
    <path
       d="m 53880,36960 40,-70 30,-40 80,-40 h 70"
       id="path550" />
    <path
       d="m 54260,36810 h 300"
       id="path552" />
    <path
       d="m 54370,36550 v 670 l 40,80 70,40 h 80"
       id="path554" />
    <path
       d="m 55120,37300 -70,40 h -160 l -70,-40 -40,-80 v -300 l 40,-70 70,-40 h 160 l 70,40 40,70 v 80 l -380,70"
       id="path556" />
    <path
       d="m 55500,37340 v -530"
       id="path558" />
    <path
       d="m 55500,36960 30,-70 40,-40 80,-40 h 70"
       id="path560" />
    <path
       d="m 57000,37340 h -450"
       id="path562" />
    <path
       d="m 56780,37340 v -790 l -80,110 -70,80 -80,30"
       id="path564" />
    <path
       d="m 57340,37040 h 600"
       id="path566" />
    <path
       d="m 58320,36810 v 790"
       id="path568" />
    <path
       d="m 58320,36850 70,-40 h 150 l 80,40 40,40 30,70 v 230 l -30,70 -40,40 -80,40 h -150 l -70,-40"
       id="path570" />
    <path
       d="m 59030,37340 v -790"
       id="path572" />
    <path
       d="m 59370,37340 v -420 l -40,-70 -70,-40 h -110 l -80,40 -40,40"
       id="path574" />
    <path
       d="m 60090,37340 v -420 l -40,-70 -80,-40 h -150 l -70,40"
       id="path576" />
    <path
       d="m 60090,37300 -80,40 h -190 l -70,-40 -40,-80 v -70 l 40,-80 70,-30 h 190 l 80,-40"
       id="path578" />
    <path
       d="m 60420,37300 80,40 h 150 l 80,-40 30,-80 v -30 l -30,-80 -80,-40 h -110 l -80,-30 -40,-80 v -40 l 40,-70 80,-40 h 110 l 80,40"
       id="path580" />
    <path
       d="m 61400,37300 -70,40 h -150 l -80,-40 -40,-80 v -300 l 40,-70 80,-40 h 150 l 70,40 40,70 v 80 l -380,70"
       id="path582" />
    <path
       d="m 62340,37300 120,40 h 180 l 80,-40 40,-40 30,-70 v -80 l -30,-70 -40,-40 -80,-40 -150,-40 -70,-30 -40,-40 -40,-80 v -70 l 40,-80 40,-30 70,-40 h 190 l 110,40"
       id="path584" />
    <path
       d="m 63060,36810 190,530"
       id="path586" />
    <path
       d="m 63430,36810 -180,530 -80,190 -40,30 -70,40"
       id="path588" />
    <path
       d="m 63740,36810 v 530"
       id="path590" />
    <path
       d="m 63740,36890 30,-40 80,-40 h 110 l 80,40 30,70 v 420"
       id="path592" />
    <path
       d="m 64790,37300 -80,40 h -150 l -70,-40 -40,-40 -40,-70 v -230 l 40,-70 40,-40 70,-40 h 150 l 80,40"
       id="path594" />
    <path
       d="m 65130,37260 30,40 -30,40 -40,-40 40,-40 v 80"
       id="path596" />
    <path
       d="m 66110,37340 v -530"
       id="path598" />
    <path
       d="m 66110,36890 30,-40 80,-40 h 110 l 80,40 30,70 v 420"
       id="path600" />
    <path
       d="m 66440,36920 40,-70 80,-40 h 110 l 70,40 40,70 v 420"
       id="path602" />
    <path
       d="m 67270,37340 -70,-40 -40,-40 -40,-70 v -230 l 40,-70 40,-40 70,-40 h 110 l 80,40 40,40 30,70 v 230 l -30,70 -40,40 -80,40 h -110"
       id="path604" />
    <path
       d="m 68210,37340 v -790"
       id="path606" />
    <path
       d="m 68210,37300 -70,40 h -150 l -80,-40 -40,-40 -30,-70 v -230 l 30,-70 40,-40 80,-40 h 150 l 70,40"
       id="path608" />
    <path
       d="m 68890,37300 -80,40 h -150 l -70,-40 -40,-80 v -300 l 40,-70 70,-40 h 150 l 80,40 40,70 v 80 l -380,70"
       id="path610" />
  </g>
  <g
     style="fill:#0000c2;fill-opacity:0;stroke:#0000c2;stroke-width:0;stroke-linecap:round;stroke-linejoin:round;stroke-opacity:1"
     id="g614"
     transform="translate(-33460,-36510)" />
  <g
     style="fill:#008400;fill-opacity:0;stroke:#008400;stroke-width:0;stroke-linecap:round;stroke-linejoin:round;stroke-opacity:1"
     id="g616"
     transform="translate(-33460,-36510)" />
  <g
     style="fill:#008400;fill-opacity:1;stroke:#008400;stroke-width:100;stroke-linecap:round;stroke-linejoin:round;stroke-opacity:1"
     id="g620"
     transform="translate(-33460,-36510)">
    <circle
       cx="48500"
       cy="43000"
       r="200"
       id="circle618" />
  </g>
</svg>
