<?xml version="1.0" encoding="UTF-8"?>
<!DOCTYPE svg PUBLIC "-//W3C//DTD SVG 1.1//EN" "http://www.w3.org/Graphics/SVG/1.1/DTD/svg11.dtd">
<svg width="171mm" height="95mm" viewBox="0 0 17100 9500" version="1.1" xmlns="http://www.w3.org/2000/svg" xmlns:xlink="http://www.w3.org/1999/xlink" stroke-width="28.222" stroke-linejoin="round" xml:space="preserve">
 <path fill="rgb(255,255,255)" stroke="none" d="M 8573,9519 L 0,9519 0,0 17145,0 17145,9519 8573,9519 Z"/>
 <path fill="none" stroke="rgb(179,179,179)" stroke-linejoin="round" d="M 9155,7726 L 1975,7726 1975,1516 16335,1516 16335,7726 9155,7726 Z"/>
 <path fill="none" stroke="rgb(179,179,179)" stroke-linejoin="round" d="M 1975,1515 L 1975,7725"/>
 <path fill="none" stroke="rgb(179,179,179)" stroke-linejoin="round" d="M 3767,1515 L 3767,7725"/>
 <path fill="none" stroke="rgb(179,179,179)" stroke-linejoin="round" d="M 5560,1515 L 5560,7725"/>
 <path fill="none" stroke="rgb(179,179,179)" stroke-linejoin="round" d="M 7353,1515 L 7353,7725"/>
 <path fill="none" stroke="rgb(179,179,179)" stroke-linejoin="round" d="M 9145,1515 L 9145,7725"/>
 <path fill="none" stroke="rgb(179,179,179)" stroke-linejoin="round" d="M 10938,1515 L 10938,7725"/>
 <path fill="none" stroke="rgb(179,179,179)" stroke-linejoin="round" d="M 12731,1515 L 12731,7725"/>
 <path fill="none" stroke="rgb(179,179,179)" stroke-linejoin="round" d="M 14524,1515 L 14524,7725"/>
 <path fill="none" stroke="rgb(179,179,179)" stroke-linejoin="round" d="M 16317,1515 L 16317,7725"/>
 <path fill="none" stroke="rgb(179,179,179)" stroke-linejoin="round" d="M 16335,7725 L 1975,7725"/>
 <path fill="none" stroke="rgb(179,179,179)" stroke-linejoin="round" d="M 16335,6689 L 1975,6689"/>
 <path fill="none" stroke="rgb(179,179,179)" stroke-linejoin="round" d="M 16335,5654 L 1975,5654"/>
 <path fill="none" stroke="rgb(179,179,179)" stroke-linejoin="round" d="M 16335,4620 L 1975,4620"/>
 <path fill="none" stroke="rgb(179,179,179)" stroke-linejoin="round" d="M 16335,3585 L 1975,3585"/>
 <path fill="none" stroke="rgb(179,179,179)" stroke-linejoin="round" d="M 16335,2550 L 1975,2550"/>
 <path fill="none" stroke="rgb(179,179,179)" stroke-linejoin="round" d="M 16335,1515 L 1975,1515"/>
 <path fill="none" stroke="rgb(179,179,179)" stroke-linejoin="round" d="M 1975,7875 L 1975,7725"/>
 <path fill="none" stroke="rgb(179,179,179)" stroke-linejoin="round" d="M 1975,7875 L 1975,7725"/>
 <path fill="none" stroke="rgb(179,179,179)" stroke-linejoin="round" d="M 3767,7875 L 3767,7725"/>
 <path fill="none" stroke="rgb(179,179,179)" stroke-linejoin="round" d="M 3767,7875 L 3767,7725"/>
 <path fill="none" stroke="rgb(179,179,179)" stroke-linejoin="round" d="M 5560,7875 L 5560,7725"/>
 <path fill="none" stroke="rgb(179,179,179)" stroke-linejoin="round" d="M 5560,7875 L 5560,7725"/>
 <path fill="none" stroke="rgb(179,179,179)" stroke-linejoin="round" d="M 7353,7875 L 7353,7725"/>
 <path fill="none" stroke="rgb(179,179,179)" stroke-linejoin="round" d="M 7353,7875 L 7353,7725"/>
 <path fill="none" stroke="rgb(179,179,179)" stroke-linejoin="round" d="M 9145,7875 L 9145,7725"/>
 <path fill="none" stroke="rgb(179,179,179)" stroke-linejoin="round" d="M 9145,7875 L 9145,7725"/>
 <path fill="none" stroke="rgb(179,179,179)" stroke-linejoin="round" d="M 10938,7875 L 10938,7725"/>
 <path fill="none" stroke="rgb(179,179,179)" stroke-linejoin="round" d="M 10938,7875 L 10938,7725"/>
 <path fill="none" stroke="rgb(179,179,179)" stroke-linejoin="round" d="M 12731,7875 L 12731,7725"/>
 <path fill="none" stroke="rgb(179,179,179)" stroke-linejoin="round" d="M 12731,7875 L 12731,7725"/>
 <path fill="none" stroke="rgb(179,179,179)" stroke-linejoin="round" d="M 14524,7875 L 14524,7725"/>
 <path fill="none" stroke="rgb(179,179,179)" stroke-linejoin="round" d="M 14524,7875 L 14524,7725"/>
 <path fill="none" stroke="rgb(179,179,179)" stroke-linejoin="round" d="M 16317,7875 L 16317,7725"/>
 <path fill="none" stroke="rgb(179,179,179)" stroke-linejoin="round" d="M 16317,7875 L 16317,7725"/>
 <path fill="none" stroke="rgb(179,179,179)" stroke-linejoin="round" d="M 1975,7725 L 16335,7725"/>
 <path fill="none" stroke="rgb(179,179,179)" stroke-linejoin="round" d="M 1825,7725 L 1975,7725"/>
 <path fill="none" stroke="rgb(179,179,179)" stroke-linejoin="round" d="M 1825,7725 L 1975,7725"/>
 <path fill="none" stroke="rgb(179,179,179)" stroke-linejoin="round" d="M 1825,6689 L 1975,6689"/>
 <path fill="none" stroke="rgb(179,179,179)" stroke-linejoin="round" d="M 1825,6689 L 1975,6689"/>
 <path fill="none" stroke="rgb(179,179,179)" stroke-linejoin="round" d="M 1825,5654 L 1975,5654"/>
 <path fill="none" stroke="rgb(179,179,179)" stroke-linejoin="round" d="M 1825,5654 L 1975,5654"/>
 <path fill="none" stroke="rgb(179,179,179)" stroke-linejoin="round" d="M 1825,4620 L 1975,4620"/>
 <path fill="none" stroke="rgb(179,179,179)" stroke-linejoin="round" d="M 1825,4620 L 1975,4620"/>
 <path fill="none" stroke="rgb(179,179,179)" stroke-linejoin="round" d="M 1825,3585 L 1975,3585"/>
 <path fill="none" stroke="rgb(179,179,179)" stroke-linejoin="round" d="M 1825,3585 L 1975,3585"/>
 <path fill="none" stroke="rgb(179,179,179)" stroke-linejoin="round" d="M 1825,2550 L 1975,2550"/>
 <path fill="none" stroke="rgb(179,179,179)" stroke-linejoin="round" d="M 1825,2550 L 1975,2550"/>
 <path fill="none" stroke="rgb(179,179,179)" stroke-linejoin="round" d="M 1825,1515 L 1975,1515"/>
 <path fill="none" stroke="rgb(179,179,179)" stroke-linejoin="round" d="M 1825,1515 L 1975,1515"/>
 <path fill="none" stroke="rgb(179,179,179)" stroke-linejoin="round" d="M 1975,7725 L 1975,1515"/>
 <path fill="none" stroke="rgb(0,69,134)" stroke-width="80" stroke-linejoin="round" d="M 1975,1980 L 2423,1980 2871,1980 3319,1980 3767,1980 4216,1980 4664,1980 5112,1980 5560,1980 6008,1980 6457,1980 6905,1980 7353,1980 7801,1980 8250,1980 8697,1980 9145,1980 9593,1980 10041,1980 10490,2277 10938,2550 11386,2796 11834,3020 12283,3225 12731,3412 13179,3585 13627,3744 14075,3892 14524,4028 14972,4156 15420,4275 15868,4386 16317,4491 16318,7725"/>
 <text class="TextShape"><tspan class="TextParagraph" font-family="Liberation Sans, sans-serif" font-size="353px" font-weight="400"><tspan class="TextPosition" x="1878" y="8293"><tspan fill="rgb(0,0,0)" stroke="none">0</tspan></tspan></tspan></text>
 <text class="TextShape"><tspan class="TextParagraph" font-family="Liberation Sans, sans-serif" font-size="353px" font-weight="400"><tspan class="TextPosition" x="3476" y="8293"><tspan fill="rgb(0,0,0)" stroke="none">100</tspan></tspan></tspan></text>
 <text class="TextShape"><tspan class="TextParagraph" font-family="Liberation Sans, sans-serif" font-size="353px" font-weight="400"><tspan class="TextPosition" x="5269" y="8293"><tspan fill="rgb(0,0,0)" stroke="none">200</tspan></tspan></tspan></text>
 <text class="TextShape"><tspan class="TextParagraph" font-family="Liberation Sans, sans-serif" font-size="353px" font-weight="400"><tspan class="TextPosition" x="7062" y="8293"><tspan fill="rgb(0,0,0)" stroke="none">300</tspan></tspan></tspan></text>
 <text class="TextShape"><tspan class="TextParagraph" font-family="Liberation Sans, sans-serif" font-size="353px" font-weight="400"><tspan class="TextPosition" x="8855" y="8293"><tspan fill="rgb(0,0,0)" stroke="none">400</tspan></tspan></tspan></text>
 <text class="TextShape"><tspan class="TextParagraph" font-family="Liberation Sans, sans-serif" font-size="353px" font-weight="400"><tspan class="TextPosition" x="10648" y="8293"><tspan fill="rgb(0,0,0)" stroke="none">500</tspan></tspan></tspan></text>
 <text class="TextShape"><tspan class="TextParagraph" font-family="Liberation Sans, sans-serif" font-size="353px" font-weight="400"><tspan class="TextPosition" x="12441" y="8293"><tspan fill="rgb(0,0,0)" stroke="none">600</tspan></tspan></tspan></text>
 <text class="TextShape"><tspan class="TextParagraph" font-family="Liberation Sans, sans-serif" font-size="353px" font-weight="400"><tspan class="TextPosition" x="14234" y="8293"><tspan fill="rgb(0,0,0)" stroke="none">700</tspan></tspan></tspan></text>
 <text class="TextShape"><tspan class="TextParagraph" font-family="Liberation Sans, sans-serif" font-size="353px" font-weight="400"><tspan class="TextPosition" x="16027" y="8293"><tspan fill="rgb(0,0,0)" stroke="none">800</tspan></tspan></tspan></text>
 <text class="TextShape"><tspan class="TextParagraph" font-family="Liberation Sans, sans-serif" font-size="353px" font-weight="400"><tspan class="TextPosition" x="1531" y="7850"><tspan fill="rgb(0,0,0)" stroke="none">0</tspan></tspan></tspan></text>
 <text class="TextShape"><tspan class="TextParagraph" font-family="Liberation Sans, sans-serif" font-size="353px" font-weight="400"><tspan class="TextPosition" x="1337" y="6814"><tspan fill="rgb(0,0,0)" stroke="none">20</tspan></tspan></tspan></text>
 <text class="TextShape"><tspan class="TextParagraph" font-family="Liberation Sans, sans-serif" font-size="353px" font-weight="400"><tspan class="TextPosition" x="1337" y="5779"><tspan fill="rgb(0,0,0)" stroke="none">40</tspan></tspan></tspan></text>
 <text class="TextShape"><tspan class="TextParagraph" font-family="Liberation Sans, sans-serif" font-size="353px" font-weight="400"><tspan class="TextPosition" x="1337" y="4744"><tspan fill="rgb(0,0,0)" stroke="none">60</tspan></tspan></tspan></text>
 <text class="TextShape"><tspan class="TextParagraph" font-family="Liberation Sans, sans-serif" font-size="353px" font-weight="400"><tspan class="TextPosition" x="1337" y="3709"><tspan fill="rgb(0,0,0)" stroke="none">80</tspan></tspan></tspan></text>
 <text class="TextShape"><tspan class="TextParagraph" font-family="Liberation Sans, sans-serif" font-size="353px" font-weight="400"><tspan class="TextPosition" x="1143" y="2674"><tspan fill="rgb(0,0,0)" stroke="none">100</tspan></tspan></tspan></text>
 <text class="TextShape"><tspan class="TextParagraph" font-family="Liberation Sans, sans-serif" font-size="353px" font-weight="400"><tspan class="TextPosition" x="1143" y="1639"><tspan fill="rgb(0,0,0)" stroke="none">120</tspan></tspan></tspan></text>
 <text class="TextShape"><tspan class="TextParagraph" font-family="Liberation Sans, sans-serif" font-size="459px" font-weight="400"><tspan class="TextPosition" x="4595" y="887"><tspan fill="rgb(0,0,0)" stroke="none">Power envelope - ADM-PC-BP25-VA08</tspan></tspan></tspan></text>
 <text class="TextShape"><tspan class="TextParagraph" font-family="Liberation Sans, sans-serif" font-size="318px" font-weight="400"><tspan class="TextPosition" x="8276" y="8934"><tspan fill="rgb(0,0,0)" stroke="none">Voltage (V)</tspan></tspan></tspan></text>
 <text class="TextShape" transform="rotate(-90 828 5627)"><tspan class="TextParagraph" font-family="Liberation Sans, sans-serif" font-size="318px" font-weight="400"><tspan class="TextPosition" x="828" y="5627"><tspan fill="rgb(0,0,0)" stroke="none">Current (A)</tspan></tspan></tspan></text>
</svg>