<?xml version="1.0" encoding="UTF-8" standalone="no"?>
<svg
   xmlns:dc="http://purl.org/dc/elements/1.1/"
   xmlns:cc="http://creativecommons.org/ns#"
   xmlns:rdf="http://www.w3.org/1999/02/22-rdf-syntax-ns#"
   xmlns:svg="http://www.w3.org/2000/svg"
   xmlns="http://www.w3.org/2000/svg"
   xmlns:sodipodi="http://sodipodi.sourceforge.net/DTD/sodipodi-0.dtd"
   xmlns:inkscape="http://www.inkscape.org/namespaces/inkscape"
   inkscape:version="1.0 (4035a4fb49, 2020-05-01)"
   sodipodi:docname="ADM-CS-EVCC_multipart_temp.svg"
   id="svg366"
   viewBox="0 0 12619.999 8119.9999"
   height="2.06248cm"
   width="3.2054799cm"
   version="1.1">
  <metadata
     id="metadata372">
    <rdf:RDF>
      <cc:Work
         rdf:about="">
        <dc:format>image/svg+xml</dc:format>
        <dc:type
           rdf:resource="http://purl.org/dc/dcmitype/StillImage" />
      </cc:Work>
    </rdf:RDF>
  </metadata>
  <defs
     id="defs370" />
  <sodipodi:namedview
     inkscape:current-layer="svg366"
     inkscape:window-maximized="0"
     inkscape:window-y="0"
     inkscape:window-x="0"
     inkscape:cy="-9.0014113"
     inkscape:cx="53.424001"
     inkscape:zoom="5.002354"
     showgrid="false"
     id="namedview368"
     inkscape:window-height="480"
     inkscape:window-width="705"
     inkscape:pageshadow="2"
     inkscape:pageopacity="0"
     guidetolerance="10"
     gridtolerance="10"
     objecttolerance="10"
     borderopacity="1"
     bordercolor="#666666"
     pagecolor="#ffffff" />
  <title
     id="title2">SVG Picture created as ADM-CS-EVCC_multipart_temp.svg date 2020/09/04 16:19:30 </title>
  <desc
     id="desc4">Picture generated by Eeschema-SVG </desc>
  <g
     transform="translate(-2100,-4790)"
     id="g6"
     style="fill:#000000;fill-opacity:1;stroke:#000000;stroke-linecap:round;stroke-linejoin:round;stroke-opacity:1" />
  <g
     transform="translate(-2100,-4790)"
     id="g8"
     style="fill:#840000;fill-opacity:0;stroke:#840000;stroke-width:-10;stroke-linecap:round;stroke-linejoin:round;stroke-opacity:1" />
  <g
     transform="translate(-2100,-4790)"
     id="g10"
     style="fill:#ffffc2;fill-opacity:0;stroke:#ffffc2;stroke-width:-10;stroke-linecap:round;stroke-linejoin:round;stroke-opacity:1" />
  <g
     transform="translate(-2100,-4790)"
     id="g14"
     style="fill:#ffffc2;fill-opacity:0.6;stroke:#ffffc2;stroke-width:0;stroke-linecap:round;stroke-linejoin:round;stroke-opacity:1">
    <rect
       id="rect12"
       rx="0"
       height="8000"
       width="10500"
       y="4850"
       x="2160" />
  </g>
  <g
     transform="translate(-2100,-4790)"
     id="g16"
     style="fill:#840000;fill-opacity:0.6;stroke:#840000;stroke-width:0;stroke-linecap:round;stroke-linejoin:round;stroke-opacity:1" />
  <g
     transform="translate(-2100,-4790)"
     id="g20"
     style="fill:#840000;fill-opacity:0;stroke:#840000;stroke-width:120;stroke-linecap:round;stroke-linejoin:round;stroke-opacity:1">
    <rect
       id="rect18"
       rx="0"
       height="8000"
       width="10500"
       y="4850"
       x="2160" />
  </g>
  <g
     transform="translate(-2100,-4790)"
     id="g52"
     style="fill:#840000;fill-opacity:0;stroke:#840000;stroke-width:100;stroke-linecap:round;stroke-linejoin:round;stroke-opacity:1">
    <g
       id="g24"
       transform="rotate(-90,3180,8850)">
      <text
         id="text22"
         opacity="0"
         text-anchor="middle"
         lengthAdjust="spacingAndGlyphs"
         font-size="800px"
         textLength="5800"
         y="9150"
         x="3180">TEMP SENSE</text>
    </g>
    <path
       id="path26"
       d="m 2850,11570 v -340" />
    <path
       id="path28"
       d="m 3450,11480 -600,-80" />
    <path
       id="path30"
       d="m 3130,11060 v -200" />
    <path
       id="path32"
       d="m 3450,10820 v 280 l -600,-70 v -290" />
    <path
       id="path34"
       d="m 3450,10560 -600,-70 430,-150 -430,-250 600,70" />
    <path
       id="path36"
       d="m 3450,9880 -600,-80 v -230 l 30,-50 20,-30 60,-20 90,10 50,40 30,30 30,60 v 230" />
    <path
       id="path38"
       d="m 3420,8840 30,-80 v -140 l -30,-60 -30,-30 -60,-40 -50,-10 -60,20 -30,30 -30,50 -30,110 -30,60 -20,20 -60,20 h -60 l -60,-40 -20,-30 -30,-60 v -150 l 30,-80" />
    <path
       id="path40"
       d="M 3130,8210 V 8010" />
    <path
       id="path42"
       d="m 3450,7960 v 290 l -600,-80 v -280" />
    <path
       id="path44"
       d="m 3450,7700 -600,-70 600,-270 -600,-70" />
    <path
       id="path46"
       d="m 3420,7100 30,-80 v -140 l -30,-70 -30,-30 -60,-30 -50,-10 -60,20 -30,30 -30,50 -30,110 -30,50 -20,30 -60,20 -60,-10 -60,-30 -20,-30 -30,-70 v -140 l 30,-80" />
    <path
       id="path48"
       d="M 3130,6460 V 6260" />
    <path
       id="path50"
       d="m 3450,6220 v 280 l -600,-70 v -290" />
  </g>
  <g
     transform="translate(-2100,-4790)"
     id="g58"
     style="fill:#840000;fill-opacity:0;stroke:#840000;stroke-width:120;stroke-linecap:round;stroke-linejoin:round;stroke-opacity:1">
    <rect
       id="rect54"
       rx="0"
       height="8000"
       width="10500"
       y="4850"
       x="2160" />
    <path
       id="path56"
       d="m 12660,7350 h 2000" />
  </g>
  <g
     transform="translate(-2100,-4790)"
     id="g62"
     style="fill:#008484;fill-opacity:0;stroke:#008484;stroke-width:120;stroke-linecap:round;stroke-linejoin:round;stroke-opacity:1">
    <text
       id="text60"
       opacity="0"
       text-anchor="end"
       lengthAdjust="spacingAndGlyphs"
       font-size="660px"
       textLength="1960"
       y="7600"
       x="12460">PTC1</text>
  </g>
  <g
     transform="translate(-2100,-4790)"
     id="g76"
     style="fill:#008484;fill-opacity:0;stroke:#008484;stroke-width:80;stroke-linecap:round;stroke-linejoin:round;stroke-opacity:1">
    <path
       id="path64"
       d="m 10680,7570 v -500 h 190 l 50,30 20,20 20,50 v 70 l -20,50 -20,20 -50,20 h -190" />
    <path
       id="path66"
       d="m 11110,7070 h 280" />
    <path
       id="path68"
       d="M 11250,7570 V 7070" />
    <path
       id="path70"
       d="m 11840,7520 -20,30 -70,20 h -50 l -70,-20 -50,-50 -20,-50 -30,-90 v -70 l 30,-100 20,-50 50,-40 70,-30 h 50 l 70,30 20,20" />
    <path
       id="path72"
       d="m 12320,7570 h -290" />
    <path
       id="path74"
       d="m 12180,7570 v -500 l -50,70 -50,50 -50,20" />
  </g>
  <g
     transform="translate(-2100,-4790)"
     id="g78"
     style="fill:#008484;fill-opacity:0;stroke:#008484;stroke-width:120;stroke-linecap:round;stroke-linejoin:round;stroke-opacity:1" />
  <g
     transform="translate(-2100,-4790)"
     id="g82"
     style="fill:#840000;fill-opacity:0;stroke:#840000;stroke-width:120;stroke-linecap:round;stroke-linejoin:round;stroke-opacity:1">
    <text
       id="text80"
       opacity="0"
       text-anchor="middle"
       lengthAdjust="spacingAndGlyphs"
       font-size="660px"
       textLength="1480"
       y="7210"
       x="13660">1E1</text>
  </g>
  <g
     transform="translate(-2100,-4790)"
     id="g96"
     style="fill:#840000;fill-opacity:0;stroke:#840000;stroke-width:80;stroke-linecap:round;stroke-linejoin:round;stroke-opacity:1">
    <path
       id="path84"
       d="m 13330,7180 h -280" />
    <path
       id="path86"
       d="m 13190,7180 v -500 l -50,70 -40,50 -50,20" />
    <path
       id="path88"
       d="m 13550,6920 h 160" />
    <path
       id="path90"
       d="m 13790,7180 h -240 v -500 h 240" />
    <path
       id="path92"
       d="m 14260,7180 h -280" />
    <path
       id="path94"
       d="m 14120,7180 v -500 l -50,70 -50,50 -40,20" />
  </g>
  <g
     transform="translate(-2100,-4790)"
     id="g100"
     style="fill:#840000;fill-opacity:0;stroke:#840000;stroke-width:120;stroke-linecap:round;stroke-linejoin:round;stroke-opacity:1">
    <path
       id="path98"
       d="m 12660,5850 h 2000" />
  </g>
  <g
     transform="translate(-2100,-4790)"
     id="g104"
     style="fill:#008484;fill-opacity:0;stroke:#008484;stroke-width:120;stroke-linecap:round;stroke-linejoin:round;stroke-opacity:1">
    <text
       id="text102"
       opacity="0"
       text-anchor="end"
       lengthAdjust="spacingAndGlyphs"
       font-size="660px"
       textLength="1940"
       y="6100"
       x="12460">PTC0</text>
  </g>
  <g
     transform="translate(-2100,-4790)"
     id="g116"
     style="fill:#008484;fill-opacity:0;stroke:#008484;stroke-width:80;stroke-linecap:round;stroke-linejoin:round;stroke-opacity:1">
    <path
       id="path106"
       d="m 10680,6070 v -500 h 190 l 50,30 20,20 20,50 v 70 l -20,50 -20,20 -50,20 h -190" />
    <path
       id="path108"
       d="m 11110,5570 h 280" />
    <path
       id="path110"
       d="M 11250,6070 V 5570" />
    <path
       id="path112"
       d="m 11840,6020 -20,30 -70,20 h -50 l -70,-20 -50,-50 -20,-50 -30,-90 v -70 l 30,-100 20,-50 50,-40 70,-30 h 50 l 70,30 20,20" />
    <path
       id="path114"
       d="m 12150,5570 h 50 l 50,30 20,20 30,50 20,90 v 120 l -20,100 -30,40 -20,30 -50,20 h -50 l -40,-20 -30,-30 -20,-40 -30,-100 v -120 l 30,-90 20,-50 30,-20 40,-30" />
  </g>
  <g
     transform="translate(-2100,-4790)"
     id="g118"
     style="fill:#008484;fill-opacity:0;stroke:#008484;stroke-width:120;stroke-linecap:round;stroke-linejoin:round;stroke-opacity:1" />
  <g
     transform="translate(-2100,-4790)"
     id="g122"
     style="fill:#840000;fill-opacity:0;stroke:#840000;stroke-width:120;stroke-linecap:round;stroke-linejoin:round;stroke-opacity:1">
    <text
       id="text120"
       opacity="0"
       text-anchor="middle"
       lengthAdjust="spacingAndGlyphs"
       font-size="660px"
       textLength="1530"
       y="5710"
       x="13660">2D1</text>
  </g>
  <g
     transform="translate(-2100,-4790)"
     id="g132"
     style="fill:#840000;fill-opacity:0;stroke:#840000;stroke-width:80;stroke-linecap:round;stroke-linejoin:round;stroke-opacity:1">
    <path
       id="path124"
       d="m 13020,5230 30,-20 50,-30 h 110 l 50,30 30,20 20,50 v 40 l -20,80 -290,280 h 310" />
    <path
       id="path126"
       d="m 13520,5680 v -500 h 120 l 70,30 50,40 30,50 20,100 v 70 l -20,90 -30,50 -50,50 -70,20 h -120" />
    <path
       id="path128"
       d="m 14290,5680 h -290" />
    <path
       id="path130"
       d="m 14140,5680 v -500 l -40,70 -50,50 -50,20" />
  </g>
  <g
     transform="translate(-2100,-4790)"
     id="g136"
     style="fill:#840000;fill-opacity:0;stroke:#840000;stroke-width:120;stroke-linecap:round;stroke-linejoin:round;stroke-opacity:1">
    <path
       id="path134"
       d="m 12660,11850 h 2000" />
  </g>
  <g
     transform="translate(-2100,-4790)"
     id="g140"
     style="fill:#008484;fill-opacity:0;stroke:#008484;stroke-width:120;stroke-linecap:round;stroke-linejoin:round;stroke-opacity:1">
    <text
       id="text138"
       opacity="0"
       text-anchor="end"
       lengthAdjust="spacingAndGlyphs"
       font-size="660px"
       textLength="3370"
       y="12100"
       x="12460">PTC_GND</text>
  </g>
  <g
     transform="translate(-2100,-4790)"
     id="g158"
     style="fill:#008484;fill-opacity:0;stroke:#008484;stroke-width:80;stroke-linecap:round;stroke-linejoin:round;stroke-opacity:1">
    <path
       id="path142"
       d="m 9250,12070 v -500 h 190 l 50,30 20,20 20,50 v 70 l -20,50 -20,20 -50,20 h -190" />
    <path
       id="path144"
       d="m 9680,11570 h 280" />
    <path
       id="path146"
       d="m 9820,12070 v -500" />
    <path
       id="path148"
       d="m 10420,12020 -30,30 -70,20 h -50 l -70,-20 -50,-50 -20,-50 -20,-90 v -70 l 20,-100 20,-50 50,-40 70,-30 h 50 l 70,30 30,20" />
    <path
       id="path150"
       d="m 10510,12120 h 380" />
    <path
       id="path152"
       d="m 11270,11600 -50,-30 h -70 l -70,30 -50,40 -20,50 -20,100 v 70 l 20,90 20,50 50,50 70,20 h 50 l 70,-20 30,-30 v -160 h -100" />
    <path
       id="path154"
       d="m 11510,12070 v -500 l 290,500 v -500" />
    <path
       id="path156"
       d="m 12030,12070 v -500 h 120 l 70,30 50,40 30,50 20,100 v 70 l -20,90 -30,50 -50,50 -70,20 h -120" />
  </g>
  <g
     transform="translate(-2100,-4790)"
     id="g160"
     style="fill:#008484;fill-opacity:0;stroke:#008484;stroke-width:120;stroke-linecap:round;stroke-linejoin:round;stroke-opacity:1" />
  <g
     transform="translate(-2100,-4790)"
     id="g164"
     style="fill:#840000;fill-opacity:0;stroke:#840000;stroke-width:120;stroke-linecap:round;stroke-linejoin:round;stroke-opacity:1">
    <text
       id="text162"
       opacity="0"
       text-anchor="middle"
       lengthAdjust="spacingAndGlyphs"
       font-size="660px"
       textLength="1480"
       y="11710"
       x="13660">2E1</text>
  </g>
  <g
     transform="translate(-2100,-4790)"
     id="g176"
     style="fill:#840000;fill-opacity:0;stroke:#840000;stroke-width:80;stroke-linecap:round;stroke-linejoin:round;stroke-opacity:1">
    <path
       id="path166"
       d="m 13050,11230 20,-20 50,-30 h 120 l 50,30 20,20 20,50 v 40 l -20,80 -290,280 h 310" />
    <path
       id="path168"
       d="m 13550,11420 h 160" />
    <path
       id="path170"
       d="m 13790,11680 h -240 v -500 h 240" />
    <path
       id="path172"
       d="m 14260,11680 h -280" />
    <path
       id="path174"
       d="m 14120,11680 v -500 l -50,70 -50,50 -40,20" />
  </g>
  <g
     transform="translate(-2100,-4790)"
     id="g180"
     style="fill:#840000;fill-opacity:0;stroke:#840000;stroke-width:120;stroke-linecap:round;stroke-linejoin:round;stroke-opacity:1">
    <path
       id="path178"
       d="m 12660,10350 h 2000" />
  </g>
  <g
     transform="translate(-2100,-4790)"
     id="g184"
     style="fill:#008484;fill-opacity:0;stroke:#008484;stroke-width:120;stroke-linecap:round;stroke-linejoin:round;stroke-opacity:1">
    <text
       id="text182"
       opacity="0"
       text-anchor="end"
       lengthAdjust="spacingAndGlyphs"
       font-size="660px"
       textLength="3370"
       y="10600"
       x="12460">PTC_GND</text>
  </g>
  <g
     transform="translate(-2100,-4790)"
     id="g202"
     style="fill:#008484;fill-opacity:0;stroke:#008484;stroke-width:80;stroke-linecap:round;stroke-linejoin:round;stroke-opacity:1">
    <path
       id="path186"
       d="m 9250,10570 v -500 h 190 l 50,30 20,20 20,50 v 70 l -20,50 -20,20 -50,20 h -190" />
    <path
       id="path188"
       d="m 9680,10070 h 280" />
    <path
       id="path190"
       d="m 9820,10570 v -500" />
    <path
       id="path192"
       d="m 10420,10520 -30,30 -70,20 h -50 l -70,-20 -50,-50 -20,-50 -20,-90 v -70 l 20,-100 20,-50 50,-40 70,-30 h 50 l 70,30 30,20" />
    <path
       id="path194"
       d="m 10510,10620 h 380" />
    <path
       id="path196"
       d="m 11270,10100 -50,-30 h -70 l -70,30 -50,40 -20,50 -20,100 v 70 l 20,90 20,50 50,50 70,20 h 50 l 70,-20 30,-30 v -160 h -100" />
    <path
       id="path198"
       d="m 11510,10570 v -500 l 290,500 v -500" />
    <path
       id="path200"
       d="m 12030,10570 v -500 h 120 l 70,30 50,40 30,50 20,100 v 70 l -20,90 -30,50 -50,50 -70,20 h -120" />
  </g>
  <g
     transform="translate(-2100,-4790)"
     id="g204"
     style="fill:#008484;fill-opacity:0;stroke:#008484;stroke-width:120;stroke-linecap:round;stroke-linejoin:round;stroke-opacity:1" />
  <g
     transform="translate(-2100,-4790)"
     id="g208"
     style="fill:#840000;fill-opacity:0;stroke:#840000;stroke-width:120;stroke-linecap:round;stroke-linejoin:round;stroke-opacity:1">
    <text
       id="text206"
       opacity="0"
       text-anchor="middle"
       lengthAdjust="spacingAndGlyphs"
       font-size="660px"
       textLength="1530"
       y="10210"
       x="13660">3D1</text>
  </g>
  <g
     transform="translate(-2100,-4790)"
     id="g218"
     style="fill:#840000;fill-opacity:0;stroke:#840000;stroke-width:80;stroke-linecap:round;stroke-linejoin:round;stroke-opacity:1">
    <path
       id="path210"
       d="m 13000,9680 h 310 l -170,190 h 70 l 50,30 30,20 20,50 v 120 l -20,40 -30,30 -50,20 h -140 l -50,-20 -20,-30" />
    <path
       id="path212"
       d="m 13520,10180 v -500 h 120 l 70,30 50,40 30,50 20,100 v 70 l -20,90 -30,50 -50,50 -70,20 h -120" />
    <path
       id="path214"
       d="m 14290,10180 h -290" />
    <path
       id="path216"
       d="m 14140,10180 v -500 l -40,70 -50,50 -50,20" />
  </g>
  <g
     transform="translate(-2100,-4790)"
     id="g222"
     style="fill:#840000;fill-opacity:0;stroke:#840000;stroke-width:120;stroke-linecap:round;stroke-linejoin:round;stroke-opacity:1">
    <path
       id="path220"
       d="m 12660,8850 h 2000" />
  </g>
  <g
     transform="translate(-2100,-4790)"
     id="g226"
     style="fill:#008484;fill-opacity:0;stroke:#008484;stroke-width:120;stroke-linecap:round;stroke-linejoin:round;stroke-opacity:1">
    <text
       id="text224"
       opacity="0"
       text-anchor="end"
       lengthAdjust="spacingAndGlyphs"
       font-size="660px"
       textLength="1940"
       y="9100"
       x="12460">PTC2</text>
  </g>
  <g
     transform="translate(-2100,-4790)"
     id="g238"
     style="fill:#008484;fill-opacity:0;stroke:#008484;stroke-width:80;stroke-linecap:round;stroke-linejoin:round;stroke-opacity:1">
    <path
       id="path228"
       d="m 10680,9070 v -500 h 190 l 50,30 20,20 20,50 v 70 l -20,50 -20,20 -50,20 h -190" />
    <path
       id="path230"
       d="m 11110,8570 h 280" />
    <path
       id="path232"
       d="M 11250,9070 V 8570" />
    <path
       id="path234"
       d="m 11840,9020 -20,30 -70,20 h -50 l -70,-20 -50,-50 -20,-50 -30,-90 v -70 l 30,-100 20,-50 50,-40 70,-30 h 50 l 70,30 20,20" />
    <path
       id="path236"
       d="m 12030,8620 30,-20 50,-30 h 110 l 50,30 30,20 20,50 v 40 l -20,80 -290,280 h 310" />
  </g>
  <g
     transform="translate(-2100,-4790)"
     id="g240"
     style="fill:#008484;fill-opacity:0;stroke:#008484;stroke-width:120;stroke-linecap:round;stroke-linejoin:round;stroke-opacity:1" />
  <g
     transform="translate(-2100,-4790)"
     id="g244"
     style="fill:#840000;fill-opacity:0;stroke:#840000;stroke-width:120;stroke-linecap:round;stroke-linejoin:round;stroke-opacity:1">
    <text
       id="text242"
       opacity="0"
       text-anchor="middle"
       lengthAdjust="spacingAndGlyphs"
       font-size="660px"
       textLength="1480"
       y="8710"
       x="13660">3E1</text>
  </g>
  <g
     transform="translate(-2100,-4790)"
     id="g256"
     style="fill:#840000;fill-opacity:0;stroke:#840000;stroke-width:80;stroke-linecap:round;stroke-linejoin:round;stroke-opacity:1">
    <path
       id="path246"
       d="m 13020,8180 h 310 l -160,190 h 70 l 50,30 20,20 20,50 v 120 l -20,40 -20,30 -50,20 h -140 l -50,-20 -30,-30" />
    <path
       id="path248"
       d="m 13550,8420 h 160" />
    <path
       id="path250"
       d="m 13790,8680 h -240 v -500 h 240" />
    <path
       id="path252"
       d="m 14260,8680 h -280" />
    <path
       id="path254"
       d="m 14120,8680 v -500 l -50,70 -50,50 -40,20" />
  </g>
  <g
     transform="translate(-2100,-4790)"
     id="g258"
     style="fill:#840000;fill-opacity:0;stroke:#840000;stroke-width:120;stroke-linecap:round;stroke-linejoin:round;stroke-opacity:1" />
  <g
     transform="translate(-2100,-4790)"
     id="g260"
     style="fill:#840084;fill-opacity:0;stroke:#840084;stroke-width:120;stroke-linecap:round;stroke-linejoin:round;stroke-opacity:1" />
  <g
     transform="translate(-2100,-4790)"
     id="g262"
     style="fill:#008484;fill-opacity:0;stroke:#008484;stroke-width:120;stroke-linecap:round;stroke-linejoin:round;stroke-opacity:1" />
</svg>
