<?xml version="1.0" encoding="UTF-8" standalone="no"?>
<svg
   xmlns:dc="http://purl.org/dc/elements/1.1/"
   xmlns:cc="http://creativecommons.org/ns#"
   xmlns:rdf="http://www.w3.org/1999/02/22-rdf-syntax-ns#"
   xmlns:svg="http://www.w3.org/2000/svg"
   xmlns="http://www.w3.org/2000/svg"
   xmlns:sodipodi="http://sodipodi.sourceforge.net/DTD/sodipodi-0.dtd"
   xmlns:inkscape="http://www.inkscape.org/namespaces/inkscape"
   inkscape:version="1.0 (4035a4fb49, 2020-05-01)"
   sodipodi:docname="ADM-CS-EVCC_multipart_power.svg"
   id="svg334"
   viewBox="0 0 12619.999 5619.9999"
   height="1.42748cm"
   width="3.2054799cm"
   version="1.1">
  <metadata
     id="metadata340">
    <rdf:RDF>
      <cc:Work
         rdf:about="">
        <dc:format>image/svg+xml</dc:format>
        <dc:type
           rdf:resource="http://purl.org/dc/dcmitype/StillImage" />
      </cc:Work>
    </rdf:RDF>
  </metadata>
  <defs
     id="defs338" />
  <sodipodi:namedview
     inkscape:current-layer="svg334"
     inkscape:window-maximized="0"
     inkscape:window-y="0"
     inkscape:window-x="0"
     inkscape:cy="-34.593882"
     inkscape:cx="53.424001"
     inkscape:zoom="5.002354"
     showgrid="false"
     id="namedview336"
     inkscape:window-height="480"
     inkscape:window-width="705"
     inkscape:pageshadow="2"
     inkscape:pageopacity="0"
     guidetolerance="10"
     gridtolerance="10"
     objecttolerance="10"
     borderopacity="1"
     bordercolor="#666666"
     pagecolor="#ffffff" />
  <title
     id="title2">SVG Picture created as ADM-CS-EVCC_multipart_power.svg date 2020/09/04 16:19:05 </title>
  <desc
     id="desc4">Picture generated by Eeschema-SVG </desc>
  <g
     transform="translate(-2100,-5790)"
     id="g6"
     style="fill:#000000;fill-opacity:1;stroke:#000000;stroke-linecap:round;stroke-linejoin:round;stroke-opacity:1" />
  <g
     transform="translate(-2100,-5790)"
     id="g8"
     style="fill:#840000;fill-opacity:0;stroke:#840000;stroke-width:-10;stroke-linecap:round;stroke-linejoin:round;stroke-opacity:1" />
  <g
     transform="translate(-2100,-5790)"
     id="g10"
     style="fill:#ffffc2;fill-opacity:0;stroke:#ffffc2;stroke-width:-10;stroke-linecap:round;stroke-linejoin:round;stroke-opacity:1" />
  <g
     transform="translate(-2100,-5790)"
     id="g14"
     style="fill:#ffffc2;fill-opacity:0.6;stroke:#ffffc2;stroke-width:0;stroke-linecap:round;stroke-linejoin:round;stroke-opacity:1">
    <rect
       id="rect12"
       rx="0"
       height="5500"
       width="10500"
       y="5850"
       x="2160" />
  </g>
  <g
     transform="translate(-2100,-5790)"
     id="g16"
     style="fill:#840000;fill-opacity:0.6;stroke:#840000;stroke-width:0;stroke-linecap:round;stroke-linejoin:round;stroke-opacity:1" />
  <g
     transform="translate(-2100,-5790)"
     id="g20"
     style="fill:#840000;fill-opacity:0;stroke:#840000;stroke-width:120;stroke-linecap:round;stroke-linejoin:round;stroke-opacity:1">
    <rect
       id="rect18"
       rx="0"
       height="5500"
       width="10500"
       y="5850"
       x="2160" />
  </g>
  <g
     transform="translate(-2100,-5790)"
     id="g40"
     style="fill:#840000;fill-opacity:0;stroke:#840000;stroke-width:100;stroke-linecap:round;stroke-linejoin:round;stroke-opacity:1">
    <g
       id="g24"
       transform="rotate(-90,3180,8850)">
      <text
         id="text22"
         opacity="0"
         text-anchor="middle"
         lengthAdjust="spacingAndGlyphs"
         font-size="800px"
         textLength="3260"
         y="9150"
         x="3180">POWER</text>
    </g>
    <path
       id="path26"
       d="m 3450,10290 -600,-80 v -220 l 30,-60 20,-20 60,-20 90,10 50,30 30,30 30,70 v 220" />
    <path
       id="path28"
       d="m 2850,9500 v -110 l 30,-60 50,-50 120,-10 200,20 110,50 60,60 30,60 v 120 l -30,50 -60,50 -110,10 -200,-20 -120,-40 -50,-70 -30,-60" />
    <path
       id="path30"
       d="m 2850,9040 600,-60 -430,-170 430,-60 -600,-220" />
    <path
       id="path32"
       d="M 3130,8340 V 8140" />
    <path
       id="path34"
       d="m 3450,8090 v 290 l -600,-80 v -290" />
    <path
       id="path36"
       d="m 3450,7490 -290,160" />
    <path
       id="path38"
       d="m 3450,7830 -600,-70 v -230 l 30,-50 20,-30 60,-20 90,10 50,40 30,30 30,60 v 230" />
  </g>
  <g
     transform="translate(-2100,-5790)"
     id="g46"
     style="fill:#840000;fill-opacity:0;stroke:#840000;stroke-width:120;stroke-linecap:round;stroke-linejoin:round;stroke-opacity:1">
    <rect
       id="rect42"
       rx="0"
       height="5500"
       width="10500"
       y="5850"
       x="2160" />
    <path
       id="path44"
       d="m 12660,10350 h 2000" />
  </g>
  <g
     transform="translate(-2100,-5790)"
     id="g50"
     style="fill:#008484;fill-opacity:0;stroke:#008484;stroke-width:120;stroke-linecap:round;stroke-linejoin:round;stroke-opacity:1">
    <text
       id="text48"
       opacity="0"
       text-anchor="end"
       lengthAdjust="spacingAndGlyphs"
       font-size="660px"
       textLength="4550"
       y="10600"
       x="12460">POWER_GND</text>
  </g>
  <g
     transform="translate(-2100,-5790)"
     id="g74"
     style="fill:#008484;fill-opacity:0;stroke:#008484;stroke-width:80;stroke-linecap:round;stroke-linejoin:round;stroke-opacity:1">
    <path
       id="path52"
       d="m 8080,10570 v -500 h 190 l 50,30 20,20 30,50 v 70 l -30,50 -20,20 -50,20 h -190" />
    <path
       id="path54"
       d="m 8680,10070 h 90 l 50,30 50,40 20,100 v 160 l -20,100 -50,50 -50,20 h -90 l -50,-20 -50,-50 -20,-100 v -160 l 20,-100 50,-40 50,-30" />
    <path
       id="path56"
       d="m 9060,10070 120,500 90,-360 100,360 120,-500" />
    <path
       id="path58"
       d="m 9680,10310 h 160" />
    <path
       id="path60"
       d="m 9920,10570 h -240 v -500 h 240" />
    <path
       id="path62"
       d="m 10420,10570 -170,-240" />
    <path
       id="path64"
       d="m 10130,10570 v -500 h 190 l 50,30 20,20 30,50 v 70 l -30,50 -20,20 -50,20 h -190" />
    <path
       id="path66"
       d="m 10510,10620 h 380" />
    <path
       id="path68"
       d="m 11270,10100 -50,-30 h -70 l -70,30 -50,40 -20,50 -20,100 v 70 l 20,90 20,50 50,50 70,20 h 50 l 70,-20 30,-30 v -160 h -100" />
    <path
       id="path70"
       d="m 11510,10570 v -500 l 290,500 v -500" />
    <path
       id="path72"
       d="m 12030,10570 v -500 h 120 l 70,30 50,40 30,50 20,100 v 70 l -20,90 -30,50 -50,50 -70,20 h -120" />
  </g>
  <g
     transform="translate(-2100,-5790)"
     id="g76"
     style="fill:#008484;fill-opacity:0;stroke:#008484;stroke-width:120;stroke-linecap:round;stroke-linejoin:round;stroke-opacity:1" />
  <g
     transform="translate(-2100,-5790)"
     id="g80"
     style="fill:#840000;fill-opacity:0;stroke:#840000;stroke-width:120;stroke-linecap:round;stroke-linejoin:round;stroke-opacity:1">
    <text
       id="text78"
       opacity="0"
       text-anchor="middle"
       lengthAdjust="spacingAndGlyphs"
       font-size="660px"
       textLength="1530"
       y="10210"
       x="13660">1D2</text>
  </g>
  <g
     transform="translate(-2100,-5790)"
     id="g90"
     style="fill:#840000;fill-opacity:0;stroke:#840000;stroke-width:80;stroke-linecap:round;stroke-linejoin:round;stroke-opacity:1">
    <path
       id="path82"
       d="m 13310,10180 h -290" />
    <path
       id="path84"
       d="m 13170,10180 v -500 l -50,70 -50,50 -50,20" />
    <path
       id="path86"
       d="m 13520,10180 v -500 h 120 l 70,30 50,40 30,50 20,100 v 70 l -20,90 -30,50 -50,50 -70,20 h -120" />
    <path
       id="path88"
       d="m 14000,9730 20,-20 50,-30 h 120 l 50,30 20,20 30,50 v 40 l -30,80 -280,280 h 310" />
  </g>
  <g
     transform="translate(-2100,-5790)"
     id="g94"
     style="fill:#840000;fill-opacity:0;stroke:#840000;stroke-width:120;stroke-linecap:round;stroke-linejoin:round;stroke-opacity:1">
    <path
       id="path92"
       d="m 12660,7350 h 2000" />
  </g>
  <g
     transform="translate(-2100,-5790)"
     id="g98"
     style="fill:#008484;fill-opacity:0;stroke:#008484;stroke-width:120;stroke-linecap:round;stroke-linejoin:round;stroke-opacity:1">
    <text
       id="text96"
       opacity="0"
       text-anchor="end"
       lengthAdjust="spacingAndGlyphs"
       font-size="660px"
       textLength="6650"
       y="7600"
       x="12460">SWITCHED_POWER</text>
  </g>
  <g
     transform="translate(-2100,-5790)"
     id="g140"
     style="fill:#008484;fill-opacity:0;stroke:#008484;stroke-width:80;stroke-linecap:round;stroke-linejoin:round;stroke-opacity:1">
    <path
       id="path100"
       d="m 5940,7550 70,20 h 120 l 50,-20 20,-30 20,-40 v -50 l -20,-50 -20,-20 -50,-30 -100,-20 -40,-20 -30,-30 -20,-50 v -40 l 20,-50 30,-20 40,-30 h 120 l 70,30" />
    <path
       id="path102"
       d="m 6390,7070 120,500 100,-360 90,360 120,-500" />
    <path
       id="path104"
       d="M 7010,7570 V 7070" />
    <path
       id="path106"
       d="m 7180,7070 h 280" />
    <path
       id="path108"
       d="M 7320,7570 V 7070" />
    <path
       id="path110"
       d="m 7920,7520 -30,30 -70,20 h -50 l -70,-20 -50,-50 -20,-50 -20,-90 v -70 l 20,-100 20,-50 50,-40 70,-30 h 50 l 70,30 30,20" />
    <path
       id="path112"
       d="M 8130,7570 V 7070" />
    <path
       id="path114"
       d="m 8130,7310 h 290" />
    <path
       id="path116"
       d="M 8420,7570 V 7070" />
    <path
       id="path118"
       d="m 8650,7310 h 170" />
    <path
       id="path120"
       d="m 8890,7570 h -240 v -500 h 240" />
    <path
       id="path122"
       d="m 9110,7570 v -500 h 110 l 80,30 40,40 30,50 20,100 v 70 l -20,90 -30,50 -40,50 -80,20 h -110" />
    <path
       id="path124"
       d="m 9490,7620 h 380" />
    <path
       id="path126"
       d="m 9990,7570 v -500 h 190 l 40,30 30,20 20,50 v 70 l -20,50 -30,20 -40,20 h -190" />
    <path
       id="path128"
       d="m 10580,7070 h 100 l 40,30 50,40 30,100 v 160 l -30,100 -50,50 -40,20 h -100 l -50,-20 -40,-50 -30,-100 v -160 l 30,-100 40,-40 50,-30" />
    <path
       id="path130"
       d="m 10960,7070 120,500 100,-360 90,360 120,-500" />
    <path
       id="path132"
       d="m 11580,7310 h 170" />
    <path
       id="path134"
       d="m 11820,7570 h -240 v -500 h 240" />
    <path
       id="path136"
       d="m 12320,7570 -170,-240" />
    <path
       id="path138"
       d="m 12030,7570 v -500 h 190 l 50,30 30,20 20,50 v 70 l -20,50 -30,20 -50,20 h -190" />
  </g>
  <g
     transform="translate(-2100,-5790)"
     id="g142"
     style="fill:#008484;fill-opacity:0;stroke:#008484;stroke-width:120;stroke-linecap:round;stroke-linejoin:round;stroke-opacity:1" />
  <g
     transform="translate(-2100,-5790)"
     id="g146"
     style="fill:#840000;fill-opacity:0;stroke:#840000;stroke-width:120;stroke-linecap:round;stroke-linejoin:round;stroke-opacity:1">
    <text
       id="text144"
       opacity="0"
       text-anchor="middle"
       lengthAdjust="spacingAndGlyphs"
       font-size="660px"
       textLength="1530"
       y="7210"
       x="13660">2C2</text>
  </g>
  <g
     transform="translate(-2100,-5790)"
     id="g154"
     style="fill:#840000;fill-opacity:0;stroke:#840000;stroke-width:80;stroke-linecap:round;stroke-linejoin:round;stroke-opacity:1">
    <path
       id="path148"
       d="m 13020,6730 30,-20 50,-30 h 110 l 50,30 30,20 20,50 v 40 l -20,80 -290,280 h 310" />
    <path
       id="path150"
       d="m 13810,7130 -20,30 -80,20 h -40 l -70,-20 -50,-50 -30,-50 -20,-90 v -70 l 20,-100 30,-50 50,-40 70,-30 h 40 l 80,30 20,20" />
    <path
       id="path152"
       d="m 14000,6730 20,-20 50,-30 h 120 l 50,30 20,20 30,50 v 40 l -30,80 -280,280 h 310" />
  </g>
  <g
     transform="translate(-2100,-5790)"
     id="g158"
     style="fill:#840000;fill-opacity:0;stroke:#840000;stroke-width:120;stroke-linecap:round;stroke-linejoin:round;stroke-opacity:1">
    <path
       id="path156"
       d="m 12660,8850 h 2000" />
  </g>
  <g
     transform="translate(-2100,-5790)"
     id="g162"
     style="fill:#008484;fill-opacity:0;stroke:#008484;stroke-width:120;stroke-linecap:round;stroke-linejoin:round;stroke-opacity:1">
    <text
       id="text160"
       opacity="0"
       text-anchor="end"
       lengthAdjust="spacingAndGlyphs"
       font-size="660px"
       textLength="7340"
       y="9100"
       x="12460">PERMANENT_POWER</text>
  </g>
  <g
     transform="translate(-2100,-5790)"
     id="g208"
     style="fill:#008484;fill-opacity:0;stroke:#008484;stroke-width:80;stroke-linecap:round;stroke-linejoin:round;stroke-opacity:1">
    <path
       id="path164"
       d="m 5270,9070 v -500 h 190 l 50,30 20,20 30,50 v 70 l -30,50 -20,20 -50,20 h -190" />
    <path
       id="path166"
       d="m 5770,8810 h 170" />
    <path
       id="path168"
       d="m 6010,9070 h -240 v -500 h 240" />
    <path
       id="path170"
       d="M 6510,9070 6340,8830" />
    <path
       id="path172"
       d="m 6220,9070 v -500 h 200 l 40,30 30,20 20,50 v 70 l -20,50 -30,20 -40,20 h -200" />
    <path
       id="path174"
       d="m 6720,9070 v -500 l 170,360 170,-360 v 500" />
    <path
       id="path176"
       d="m 7270,8930 h 240" />
    <path
       id="path178"
       d="m 7220,9070 170,-500 170,500" />
    <path
       id="path180"
       d="m 7720,9070 v -500 l 290,500 v -500" />
    <path
       id="path182"
       d="m 8250,8810 h 170" />
    <path
       id="path184"
       d="m 8490,9070 h -240 v -500 h 240" />
    <path
       id="path186"
       d="m 8700,9070 v -500 l 290,500 v -500" />
    <path
       id="path188"
       d="m 9150,8570 h 290" />
    <path
       id="path190"
       d="M 9300,9070 V 8570" />
    <path
       id="path192"
       d="m 9490,9120 h 380" />
    <path
       id="path194"
       d="m 9990,9070 v -500 h 190 l 40,30 30,20 20,50 v 70 l -20,50 -30,20 -40,20 h -190" />
    <path
       id="path196"
       d="m 10580,8570 h 100 l 40,30 50,40 30,100 v 160 l -30,100 -50,50 -40,20 h -100 l -50,-20 -40,-50 -30,-100 v -160 l 30,-100 40,-40 50,-30" />
    <path
       id="path198"
       d="m 10960,8570 120,500 100,-360 90,360 120,-500" />
    <path
       id="path200"
       d="m 11580,8810 h 170" />
    <path
       id="path202"
       d="m 11820,9070 h -240 v -500 h 240" />
    <path
       id="path204"
       d="m 12320,9070 -170,-240" />
    <path
       id="path206"
       d="m 12030,9070 v -500 h 190 l 50,30 30,20 20,50 v 70 l -20,50 -30,20 -50,20 h -190" />
  </g>
  <g
     transform="translate(-2100,-5790)"
     id="g210"
     style="fill:#008484;fill-opacity:0;stroke:#008484;stroke-width:120;stroke-linecap:round;stroke-linejoin:round;stroke-opacity:1" />
  <g
     transform="translate(-2100,-5790)"
     id="g214"
     style="fill:#840000;fill-opacity:0;stroke:#840000;stroke-width:120;stroke-linecap:round;stroke-linejoin:round;stroke-opacity:1">
    <text
       id="text212"
       opacity="0"
       text-anchor="middle"
       lengthAdjust="spacingAndGlyphs"
       font-size="660px"
       textLength="1530"
       y="8710"
       x="13660">3C2</text>
  </g>
  <g
     transform="translate(-2100,-5790)"
     id="g222"
     style="fill:#840000;fill-opacity:0;stroke:#840000;stroke-width:80;stroke-linecap:round;stroke-linejoin:round;stroke-opacity:1">
    <path
       id="path216"
       d="m 13000,8180 h 310 l -170,190 h 70 l 50,30 30,20 20,50 v 120 l -20,40 -30,30 -50,20 h -140 l -50,-20 -20,-30" />
    <path
       id="path218"
       d="m 13810,8630 -20,30 -80,20 h -40 l -70,-20 -50,-50 -30,-50 -20,-90 v -70 l 20,-100 30,-50 50,-40 70,-30 h 40 l 80,30 20,20" />
    <path
       id="path220"
       d="m 14000,8230 20,-20 50,-30 h 120 l 50,30 20,20 30,50 v 40 l -30,80 -280,280 h 310" />
  </g>
  <g
     transform="translate(-2100,-5790)"
     id="g224"
     style="fill:#840000;fill-opacity:0;stroke:#840000;stroke-width:120;stroke-linecap:round;stroke-linejoin:round;stroke-opacity:1" />
  <g
     transform="translate(-2100,-5790)"
     id="g226"
     style="fill:#840084;fill-opacity:0;stroke:#840084;stroke-width:120;stroke-linecap:round;stroke-linejoin:round;stroke-opacity:1" />
  <g
     transform="translate(-2100,-5790)"
     id="g228"
     style="fill:#008484;fill-opacity:0;stroke:#008484;stroke-width:120;stroke-linecap:round;stroke-linejoin:round;stroke-opacity:1" />
</svg>
