<?xml version="1.0" encoding="UTF-8" standalone="no"?><svg xmlns="http://www.w3.org/2000/svg" xmlns:xlink="http://www.w3.org/1999/xlink" contentScriptType="application/ecmascript" contentStyleType="text/css" height="583px" preserveAspectRatio="none" style="width:1041px;height:583px;" version="1.1" viewBox="0 0 1041 583" width="1041px" zoomAndPan="magnify"><defs><filter height="300%" id="fdstoe4xi9ufk" width="300%" x="-1" y="-1"><feGaussianBlur result="blurOut" stdDeviation="2.0"/><feColorMatrix in="blurOut" result="blurOut2" type="matrix" values="0 0 0 0 0 0 0 0 0 0 0 0 0 0 0 0 0 0 .4 0"/><feOffset dx="4.0" dy="4.0" in="blurOut2" result="blurOut3"/><feBlend in="SourceGraphic" in2="blurOut3" mode="normal"/></filter></defs><g><rect fill="#EEE8AA" height="561.5547" style="stroke: #A80036; stroke-width: 1.0;" width="124" x="19" y="4"/><text fill="#000000" font-family="sans-serif" font-size="13" font-weight="bold" lengthAdjust="spacingAndGlyphs" textLength="71" x="45.5" y="16.0669">Customer</text><rect fill="#7FFFD4" height="561.5547" style="stroke: #A80036; stroke-width: 1.0;" width="356.5" x="165" y="4"/><text fill="#000000" font-family="sans-serif" font-size="13" font-weight="bold" lengthAdjust="spacingAndGlyphs" textLength="154" x="266.25" y="16.0669">Charge Point Vendor</text><rect fill="#D3D3D3" height="561.5547" style="stroke: #A80036; stroke-width: 1.0;" width="335.5" x="549" y="4"/><text fill="#000000" font-family="sans-serif" font-size="13" font-weight="bold" lengthAdjust="spacingAndGlyphs" textLength="83" x="675.25" y="16.0669">ADVANTICS</text><rect fill="#FFE4E1" height="561.5547" style="stroke: #A80036; stroke-width: 1.0;" width="118" x="906.5" y="4"/><text fill="#000000" font-family="sans-serif" font-size="13" font-weight="bold" lengthAdjust="spacingAndGlyphs" textLength="105" x="913" y="16.0669">Internet/Cloud</text><rect fill="#FFFFFF" filter="url(#fdstoe4xi9ufk)" height="75.3984" style="stroke: #000000; stroke-width: 2.0;" width="472.5" x="55" y="123.4297"/><rect fill="#B0E0E6" filter="url(#fdstoe4xi9ufk)" height="134.7969" style="stroke: #000000; stroke-width: 2.0;" width="352.5" x="346.5" y="212.8281"/><rect fill="#FFFFFF" filter="url(#fdstoe4xi9ufk)" height="103.5313" style="stroke: #000000; stroke-width: 2.0;" width="487.5" x="543" y="361.625"/><rect fill="#FFFFFF" filter="url(#fdstoe4xi9ufk)" height="46.2656" style="stroke: #000000; stroke-width: 2.0;" width="877.5" x="13" y="508.2891"/><line style="stroke: #A80036; stroke-width: 1.0; stroke-dasharray: 5.0,5.0;" x1="39" x2="39" y1="106.4297" y2="571.5547"/><line style="stroke: #A80036; stroke-width: 1.0; stroke-dasharray: 5.0,5.0;" x1="102" x2="102" y1="106.4297" y2="571.5547"/><line style="stroke: #A80036; stroke-width: 1.0; stroke-dasharray: 5.0,5.0;" x1="240" x2="240" y1="106.4297" y2="571.5547"/><line style="stroke: #A80036; stroke-width: 1.0; stroke-dasharray: 5.0,5.0;" x1="436.5" x2="436.5" y1="106.4297" y2="571.5547"/><line style="stroke: #A80036; stroke-width: 1.0; stroke-dasharray: 5.0,5.0;" x1="621" x2="621" y1="106.4297" y2="571.5547"/><line style="stroke: #A80036; stroke-width: 1.0; stroke-dasharray: 5.0,5.0;" x1="810.5" x2="810.5" y1="106.4297" y2="571.5547"/><line style="stroke: #A80036; stroke-width: 1.0; stroke-dasharray: 5.0,5.0;" x1="965.5" x2="965.5" y1="106.4297" y2="571.5547"/><text fill="#000000" font-family="sans-serif" font-size="14" lengthAdjust="spacingAndGlyphs" textLength="18" x="27" y="103.1279">EV</text><ellipse cx="39" cy="74.1328" fill="#FEFECE" filter="url(#fdstoe4xi9ufk)" rx="12" ry="12" style="stroke: #A80036; stroke-width: 2.0;"/><line style="stroke: #A80036; stroke-width: 2.0;" x1="27" x2="51" y1="88.1328" y2="88.1328"/><text fill="#000000" font-family="sans-serif" font-size="14" lengthAdjust="spacingAndGlyphs" textLength="68" x="65" y="103.1279">Customer</text><ellipse cx="102" cy="33.1328" fill="#FEFECE" filter="url(#fdstoe4xi9ufk)" rx="8" ry="8" style="stroke: #A80036; stroke-width: 2.0;"/><path d="M102,41.1328 L102,68.1328 M89,49.1328 L115,49.1328 M102,68.1328 L89,83.1328 M102,68.1328 L115,83.1328 " fill="none" filter="url(#fdstoe4xi9ufk)" style="stroke: #A80036; stroke-width: 2.0;"/><text fill="#000000" font-family="sans-serif" font-size="14" lengthAdjust="spacingAndGlyphs" textLength="136" x="169" y="86.8311">Additional Hardware</text><text fill="#000000" font-family="sans-serif" font-size="14" lengthAdjust="spacingAndGlyphs" textLength="118" x="178" y="103.1279">(RFID, Meters, ...)</text><ellipse cx="240" cy="57.8359" fill="#FEFECE" filter="url(#fdstoe4xi9ufk)" rx="12" ry="12" style="stroke: #A80036; stroke-width: 2.0;"/><line style="stroke: #A80036; stroke-width: 2.0;" x1="228" x2="252" y1="71.8359" y2="71.8359"/><rect fill="#FEFECE" filter="url(#fdstoe4xi9ufk)" height="46.5938" style="stroke: #A80036; stroke-width: 1.5;" width="157" x="356.5" y="54.8359"/><text fill="#000000" font-family="sans-serif" font-size="14" lengthAdjust="spacingAndGlyphs" textLength="143" x="363.5" y="74.8311">Charge Point Vendor</text><text fill="#000000" font-family="sans-serif" font-size="14" lengthAdjust="spacingAndGlyphs" textLength="75" x="397.5" y="91.1279">Application</text><rect fill="#FEFECE" filter="url(#fdstoe4xi9ufk)" height="46.5938" style="stroke: #A80036; stroke-width: 1.5;" width="132" x="553" y="54.8359"/><text fill="#000000" font-family="sans-serif" font-size="14" lengthAdjust="spacingAndGlyphs" textLength="79" x="579.5" y="74.8311">ADVANTICS</text><text fill="#000000" font-family="sans-serif" font-size="14" lengthAdjust="spacingAndGlyphs" textLength="118" x="560" y="91.1279">OCPP Application</text><rect fill="#FEFECE" filter="url(#fdstoe4xi9ufk)" height="46.5938" style="stroke: #A80036; stroke-width: 1.5;" width="135" x="741.5" y="54.8359"/><text fill="#000000" font-family="sans-serif" font-size="14" lengthAdjust="spacingAndGlyphs" textLength="79" x="769.5" y="74.8311">ADVANTICS</text><text fill="#000000" font-family="sans-serif" font-size="14" lengthAdjust="spacingAndGlyphs" textLength="121" x="748.5" y="91.1279">Charge Controller</text><text fill="#000000" font-family="sans-serif" font-size="14" lengthAdjust="spacingAndGlyphs" textLength="104" x="910.5" y="103.1279">Central System</text><path d="M947.5,54.1328 C947.5,44.1328 965.5,44.1328 965.5,44.1328 C965.5,44.1328 983.5,44.1328 983.5,54.1328 L983.5,80.1328 C983.5,90.1328 965.5,90.1328 965.5,90.1328 C965.5,90.1328 947.5,90.1328 947.5,80.1328 L947.5,54.1328 " fill="#FEFECE" filter="url(#fdstoe4xi9ufk)" style="stroke: #000000; stroke-width: 1.5;"/><path d="M947.5,54.1328 C947.5,64.1328 965.5,64.1328 965.5,64.1328 C965.5,64.1328 983.5,64.1328 983.5,54.1328 " fill="none" style="stroke: #000000; stroke-width: 1.5;"/><path d="M55,123.4297 L312,123.4297 L312,130.4297 L302,140.4297 L55,140.4297 L55,123.4297 " fill="#EEEEEE" style="stroke: #000000; stroke-width: 1.0;"/><rect fill="none" height="75.3984" style="stroke: #000000; stroke-width: 2.0;" width="472.5" x="55" y="123.4297"/><text fill="#000000" font-family="sans-serif" font-size="13" font-weight="bold" lengthAdjust="spacingAndGlyphs" textLength="212" x="70" y="136.4966">charge point vendor specific</text><polygon fill="#A80036" points="251,157.6953,241,161.6953,251,165.6953,247,161.6953" style="stroke: #A80036; stroke-width: 1.0;"/><polygon fill="#A80036" points="425,157.6953,435,161.6953,425,165.6953,429,161.6953" style="stroke: #A80036; stroke-width: 1.0;"/><line style="stroke: #A80036; stroke-width: 1.0;" x1="245" x2="431" y1="161.6953" y2="161.6953"/><text fill="#000000" font-family="sans-serif" font-size="13" lengthAdjust="spacingAndGlyphs" textLength="173" x="257" y="156.6294">control additional hardware</text><polygon fill="#A80036" points="113,186.8281,103,190.8281,113,194.8281,109,190.8281" style="stroke: #A80036; stroke-width: 1.0;"/><polygon fill="#A80036" points="425,186.8281,435,190.8281,425,194.8281,429,190.8281" style="stroke: #A80036; stroke-width: 1.0;"/><line style="stroke: #A80036; stroke-width: 1.0;" x1="107" x2="431" y1="190.8281" y2="190.8281"/><text fill="#000000" font-family="sans-serif" font-size="13" lengthAdjust="spacingAndGlyphs" textLength="147" x="119" y="185.7622">handle user interaction</text><path d="M346.5,212.8281 L546.5,212.8281 L546.5,219.8281 L536.5,229.8281 L346.5,229.8281 L346.5,212.8281 " fill="#EEEEEE" style="stroke: #000000; stroke-width: 1.0;"/><rect fill="none" height="134.7969" style="stroke: #000000; stroke-width: 2.0;" width="352.5" x="346.5" y="212.8281"/><text fill="#000000" font-family="sans-serif" font-size="13" font-weight="bold" lengthAdjust="spacingAndGlyphs" textLength="155" x="361.5" y="225.895">ZeroMQ RPC channel</text><polygon fill="#A80036" points="609,262.2266,619,266.2266,609,270.2266,613,266.2266" style="stroke: #A80036; stroke-width: 1.0;"/><line style="stroke: #A80036; stroke-width: 1.0;" x1="437" x2="615" y1="266.2266" y2="266.2266"/><text fill="#000000" font-family="sans-serif" font-size="13" lengthAdjust="spacingAndGlyphs" textLength="160" x="444" y="246.0278">inform of external events</text><text fill="#000000" font-family="sans-serif" font-size="13" lengthAdjust="spacingAndGlyphs" textLength="129" x="444" y="261.1606">e.g. id_presented(..)</text><polygon fill="#A80036" points="448,306.4922,438,310.4922,448,314.4922,444,310.4922" style="stroke: #A80036; stroke-width: 1.0;"/><line style="stroke: #A80036; stroke-width: 1.0;" x1="442" x2="620" y1="310.4922" y2="310.4922"/><text fill="#000000" font-family="sans-serif" font-size="13" lengthAdjust="spacingAndGlyphs" textLength="138" x="454" y="290.2935">request external data</text><text fill="#000000" font-family="sans-serif" font-size="13" lengthAdjust="spacingAndGlyphs" textLength="130" x="454" y="305.4263">e.g. meter(..) values</text><polygon fill="#A80036" points="609,335.625,619,339.625,609,343.625,613,339.625" style="stroke: #A80036; stroke-width: 1.0;"/><line style="stroke: #A80036; stroke-width: 1.0;" x1="437" x2="615" y1="339.625" y2="339.625"/><text fill="#000000" font-family="sans-serif" font-size="13" lengthAdjust="spacingAndGlyphs" textLength="136" x="444" y="334.5591">provide external data</text><path d="M543,361.625 L666,361.625 L666,368.625 L656,378.625 L543,378.625 L543,361.625 " fill="#EEEEEE" style="stroke: #000000; stroke-width: 1.0;"/><rect fill="none" height="103.5313" style="stroke: #000000; stroke-width: 2.0;" width="487.5" x="543" y="361.625"/><text fill="#000000" font-family="sans-serif" font-size="13" font-weight="bold" lengthAdjust="spacingAndGlyphs" textLength="78" x="558" y="374.6919">OCPP-J 1.6</text><line style="stroke: #A80036; stroke-width: 1.0;" x1="621" x2="663" y1="415.0234" y2="415.0234"/><line style="stroke: #A80036; stroke-width: 1.0;" x1="663" x2="663" y1="415.0234" y2="428.0234"/><line style="stroke: #A80036; stroke-width: 1.0;" x1="622" x2="663" y1="428.0234" y2="428.0234"/><polygon fill="#A80036" points="632,424.0234,622,428.0234,632,432.0234,628,428.0234" style="stroke: #A80036; stroke-width: 1.0;"/><text fill="#000000" font-family="sans-serif" font-size="13" lengthAdjust="spacingAndGlyphs" textLength="137" x="628" y="394.8247">convert external data</text><text fill="#000000" font-family="sans-serif" font-size="13" lengthAdjust="spacingAndGlyphs" textLength="176" x="628" y="409.9575">to OCPP message payloads</text><polygon fill="#A80036" points="632,453.1563,622,457.1563,632,461.1563,628,457.1563" style="stroke: #A80036; stroke-width: 1.0;"/><polygon fill="#A80036" points="953.5,453.1563,963.5,457.1563,953.5,461.1563,957.5,457.1563" style="stroke: #A80036; stroke-width: 1.0;"/><line style="stroke: #A80036; stroke-width: 1.0;" x1="626" x2="959.5" y1="457.1563" y2="457.1563"/><text fill="#000000" font-family="sans-serif" font-size="13" lengthAdjust="spacingAndGlyphs" textLength="156" x="638" y="452.0903">handle OCPP messaging</text><polygon fill="#A80036" points="632,489.2891,622,493.2891,632,497.2891,628,493.2891" style="stroke: #A80036; stroke-width: 1.0;"/><polygon fill="#A80036" points="799,489.2891,809,493.2891,799,497.2891,803,493.2891" style="stroke: #A80036; stroke-width: 1.0;"/><line style="stroke: #A80036; stroke-width: 1.0;" x1="626" x2="805" y1="493.2891" y2="493.2891"/><text fill="#000000" font-family="sans-serif" font-size="13" lengthAdjust="spacingAndGlyphs" textLength="158" x="638" y="488.2231">internal communications</text><path d="M13,508.2891 L227,508.2891 L227,515.2891 L217,525.2891 L13,525.2891 L13,508.2891 " fill="#EEEEEE" style="stroke: #000000; stroke-width: 1.0;"/><rect fill="none" height="46.2656" style="stroke: #000000; stroke-width: 2.0;" width="877.5" x="13" y="508.2891"/><text fill="#000000" font-family="sans-serif" font-size="13" font-weight="bold" lengthAdjust="spacingAndGlyphs" textLength="169" x="28" y="521.356">EV charging standards</text><polygon fill="#A80036" points="50,542.5547,40,546.5547,50,550.5547,46,546.5547" style="stroke: #A80036; stroke-width: 1.0;"/><polygon fill="#A80036" points="799,542.5547,809,546.5547,799,550.5547,803,546.5547" style="stroke: #A80036; stroke-width: 1.0;"/><line style="stroke: #A80036; stroke-width: 1.0;" x1="44" x2="805" y1="546.5547" y2="546.5547"/><text fill="#000000" font-family="sans-serif" font-size="13" lengthAdjust="spacingAndGlyphs" textLength="156" x="56" y="541.4888">handle charging process</text><!--
@startuml /ocpp_images/hlc_overview
hide footbox
skinparam BoxPadding 10

box "Customer" #PaleGoldenRod
entity      EV as CAR
actor       Customer as CUST
end box
box "Charge Point Vendor" #AquaMarine
entity      "Additional Hardware\n(RFID, Meters, ...)" as EXT
participant "Charge Point Vendor\nApplication" as MGMT
endbox
box "ADVANTICS" #LightGray
participant "ADVANTICS\nOCPP Application" as OCPP
participant "ADVANTICS\nCharge Controller" as EVSE
endbox
box "Internet/Cloud" #MistyRose
database    "Central System" as CLOUD
endbox

group charge point vendor specific
MGMT <-> EXT:	control additional hardware
MGMT <-> CUST:	handle user interaction
end

group #PowderBlue ZeroMQ RPC channel
MGMT -> OCPP:	inform of external events\ne.g. id_presented(..)
OCPP -> MGMT:	request external data\ne.g. meter(..) values
MGMT -> OCPP:	provide external data
end

group OCPP-J 1.6
OCPP -> OCPP:	convert external data\nto OCPP message payloads
OCPP <-> CLOUD:	handle OCPP messaging
end

OCPP <-> EVSE:	internal communications

group EV charging standards
CAR <-> EVSE:	handle charging process
end

@enduml

PlantUML version 1.2018.13(Mon Nov 26 18:11:51 CET 2018)
(GPL source distribution)
Java Runtime: OpenJDK Runtime Environment
JVM: OpenJDK 64-Bit Server VM
Java Version: 11.0.19+7-post-Ubuntu-0ubuntu120.04.1
Operating System: Linux
OS Version: 5.15.0-76-generic
Default Encoding: UTF-8
Language: en
Country: US
--></g></svg>