<?xml version="1.0" encoding="UTF-8" standalone="no"?>
<svg
   xmlns:dc="http://purl.org/dc/elements/1.1/"
   xmlns:cc="http://creativecommons.org/ns#"
   xmlns:rdf="http://www.w3.org/1999/02/22-rdf-syntax-ns#"
   xmlns:svg="http://www.w3.org/2000/svg"
   xmlns="http://www.w3.org/2000/svg"
   xmlns:sodipodi="http://sodipodi.sourceforge.net/DTD/sodipodi-0.dtd"
   xmlns:inkscape="http://www.inkscape.org/namespaces/inkscape"
   inkscape:version="1.0 (4035a4fb49, 2020-05-01)"
   sodipodi:docname="ADM-CS-EVCC_multipart_CCS.svg"
   id="svg486"
   viewBox="0 0 12619.999 11620"
   height="2.9514799cm"
   width="3.2054799cm"
   version="1.1">
  <metadata
     id="metadata492">
    <rdf:RDF>
      <cc:Work
         rdf:about="">
        <dc:format>image/svg+xml</dc:format>
        <dc:type
           rdf:resource="http://purl.org/dc/dcmitype/StillImage" />
      </cc:Work>
    </rdf:RDF>
  </metadata>
  <defs
     id="defs490" />
  <sodipodi:namedview
     inkscape:current-layer="svg486"
     inkscape:window-maximized="0"
     inkscape:window-y="0"
     inkscape:window-x="0"
     inkscape:cy="-37.778823"
     inkscape:cx="53.424001"
     inkscape:zoom="5.002354"
     showgrid="false"
     id="namedview488"
     inkscape:window-height="480"
     inkscape:window-width="705"
     inkscape:pageshadow="2"
     inkscape:pageopacity="0"
     guidetolerance="10"
     gridtolerance="10"
     objecttolerance="10"
     borderopacity="1"
     bordercolor="#666666"
     pagecolor="#ffffff" />
  <title
     id="title2">SVG Picture created as ADM-CS-EVCC_multipart_CCS.svg date 2020/09/04 16:20:00 </title>
  <desc
     id="desc4">Picture generated by Eeschema-SVG </desc>
  <g
     transform="translate(-2100,-2790)"
     id="g6"
     style="fill:#000000;fill-opacity:1;stroke:#000000;stroke-linecap:round;stroke-linejoin:round;stroke-opacity:1" />
  <g
     transform="translate(-2100,-2790)"
     id="g8"
     style="fill:#840000;fill-opacity:0;stroke:#840000;stroke-width:-10;stroke-linecap:round;stroke-linejoin:round;stroke-opacity:1" />
  <g
     transform="translate(-2100,-2790)"
     id="g10"
     style="fill:#ffffc2;fill-opacity:0;stroke:#ffffc2;stroke-width:-10;stroke-linecap:round;stroke-linejoin:round;stroke-opacity:1" />
  <g
     transform="translate(-2100,-2790)"
     id="g14"
     style="fill:#ffffc2;fill-opacity:0.6;stroke:#ffffc2;stroke-width:0;stroke-linecap:round;stroke-linejoin:round;stroke-opacity:1">
    <rect
       id="rect12"
       rx="0"
       height="11500"
       width="10500"
       y="2850"
       x="2160" />
  </g>
  <g
     transform="translate(-2100,-2790)"
     id="g16"
     style="fill:#840000;fill-opacity:0.6;stroke:#840000;stroke-width:0;stroke-linecap:round;stroke-linejoin:round;stroke-opacity:1" />
  <g
     transform="translate(-2100,-2790)"
     id="g20"
     style="fill:#840000;fill-opacity:0;stroke:#840000;stroke-width:120;stroke-linecap:round;stroke-linejoin:round;stroke-opacity:1">
    <rect
       id="rect18"
       rx="0"
       height="11500"
       width="10500"
       y="2850"
       x="2160" />
  </g>
  <g
     transform="translate(-2100,-2790)"
     id="g62"
     style="fill:#840000;fill-opacity:0;stroke:#840000;stroke-width:100;stroke-linecap:round;stroke-linejoin:round;stroke-opacity:1">
    <g
       id="g24"
       transform="rotate(-90,3180,8850)">
      <text
         id="text22"
         opacity="0"
         text-anchor="middle"
         lengthAdjust="spacingAndGlyphs"
         font-size="800px"
         textLength="7120"
         y="9150"
         x="3180">CCS INTERFACE</text>
    </g>
    <path
       id="path26"
       d="m 3390,11870 30,30 30,90 v 60 l -30,80 -60,50 -60,20 -110,10 -90,-10 -110,-40 -60,-30 -50,-70 -30,-90 v -60 l 30,-80 20,-20" />
    <path
       id="path28"
       d="m 3390,11270 30,30 30,90 v 60 l -30,80 -60,50 -60,20 -110,10 -90,-10 -110,-40 -60,-30 -50,-70 -30,-90 v -60 l 30,-80 20,-20" />
    <path
       id="path30"
       d="m 3420,11040 30,-80 v -140 l -30,-60 -30,-30 -60,-40 -50,-10 -60,20 -30,30 -30,50 -30,110 -30,60 -20,20 -60,20 h -60 l -60,-40 -20,-30 -30,-60 v -150 l 30,-80" />
    <path
       id="path32"
       d="m 3450,9990 -600,-80" />
    <path
       id="path34"
       d="m 3450,9700 -600,-70 600,-270 -600,-70" />
    <path
       id="path36"
       d="M 2850,9090 V 8740" />
    <path
       id="path38"
       d="m 3450,8990 -600,-80" />
    <path
       id="path40"
       d="M 3130,8580 V 8380" />
    <path
       id="path42"
       d="m 3450,8330 v 290 l -600,-80 v -280" />
    <path
       id="path44"
       d="m 3450,7730 -290,170" />
    <path
       id="path46"
       d="m 3450,8080 -600,-80 v -230 l 30,-50 20,-30 60,-20 90,10 50,40 30,30 30,60 v 230" />
    <path
       id="path48"
       d="m 3130,7240 v 200" />
    <path
       id="path50"
       d="m 3450,7480 -600,-80 v -290" />
    <path
       id="path52"
       d="M 3280,6970 V 6680" />
    <path
       id="path54"
       d="m 3450,7050 -600,-280 600,-120" />
    <path
       id="path56"
       d="m 3390,6100 30,30 30,90 v 60 l -30,80 -60,50 -60,20 -110,10 -90,-10 -110,-40 -60,-40 -50,-60 -30,-90 v -60 l 30,-80 20,-20" />
    <path
       id="path58"
       d="M 3130,5810 V 5610" />
    <path
       id="path60"
       d="m 3450,5560 v 290 l -600,-80 v -280" />
  </g>
  <g
     transform="translate(-2100,-2790)"
     id="g68"
     style="fill:#840000;fill-opacity:0;stroke:#840000;stroke-width:120;stroke-linecap:round;stroke-linejoin:round;stroke-opacity:1">
    <rect
       id="rect64"
       rx="0"
       height="11500"
       width="10500"
       y="2850"
       x="2160" />
    <path
       id="path66"
       d="m 12660,3850 h 2000" />
  </g>
  <g
     transform="translate(-2100,-2790)"
     id="g72"
     style="fill:#008484;fill-opacity:0;stroke:#008484;stroke-width:120;stroke-linecap:round;stroke-linejoin:round;stroke-opacity:1">
    <text
       id="text70"
       opacity="0"
       text-anchor="end"
       lengthAdjust="spacingAndGlyphs"
       font-size="660px"
       textLength="1100"
       y="4100"
       x="12460">CP</text>
  </g>
  <g
     transform="translate(-2100,-2790)"
     id="g78"
     style="fill:#008484;fill-opacity:0;stroke:#008484;stroke-width:80;stroke-linecap:round;stroke-linejoin:round;stroke-opacity:1">
    <path
       id="path74"
       d="m 11820,4020 -20,30 -80,20 h -40 l -70,-20 -50,-50 -30,-50 -20,-90 v -70 l 20,-100 30,-50 50,-40 70,-30 h 40 l 80,30 20,20" />
    <path
       id="path76"
       d="m 12030,4070 v -500 h 190 l 50,30 30,20 20,50 v 70 l -20,50 -30,20 -50,20 h -190" />
  </g>
  <g
     transform="translate(-2100,-2790)"
     id="g80"
     style="fill:#008484;fill-opacity:0;stroke:#008484;stroke-width:120;stroke-linecap:round;stroke-linejoin:round;stroke-opacity:1" />
  <g
     transform="translate(-2100,-2790)"
     id="g84"
     style="fill:#840000;fill-opacity:0;stroke:#840000;stroke-width:120;stroke-linecap:round;stroke-linejoin:round;stroke-opacity:1">
    <text
       id="text82"
       opacity="0"
       text-anchor="middle"
       lengthAdjust="spacingAndGlyphs"
       font-size="660px"
       textLength="1460"
       y="3710"
       x="13660">1A2</text>
  </g>
  <g
     transform="translate(-2100,-2790)"
     id="g96"
     style="fill:#840000;fill-opacity:0;stroke:#840000;stroke-width:80;stroke-linecap:round;stroke-linejoin:round;stroke-opacity:1">
    <path
       id="path86"
       d="m 13350,3680 h -290" />
    <path
       id="path88"
       d="m 13200,3680 v -500 l -40,70 -50,50 -50,20" />
    <path
       id="path90"
       d="m 13540,3540 h 230" />
    <path
       id="path92"
       d="m 13490,3680 170,-500 160,500" />
    <path
       id="path94"
       d="m 13960,3230 30,-20 50,-30 h 120 l 40,30 30,20 20,50 v 40 l -20,80 -290,280 h 310" />
  </g>
  <g
     transform="translate(-2100,-2790)"
     id="g100"
     style="fill:#840000;fill-opacity:0;stroke:#840000;stroke-width:120;stroke-linecap:round;stroke-linejoin:round;stroke-opacity:1">
    <path
       id="path98"
       d="m 12660,10350 h 2000" />
  </g>
  <g
     transform="translate(-2100,-2790)"
     id="g104"
     style="fill:#008484;fill-opacity:0;stroke:#008484;stroke-width:120;stroke-linecap:round;stroke-linejoin:round;stroke-opacity:1">
    <text
       id="text102"
       opacity="0"
       text-anchor="end"
       lengthAdjust="spacingAndGlyphs"
       font-size="660px"
       textLength="4480"
       y="10600"
       x="12460">CCS_LOCK+</text>
  </g>
  <g
     transform="translate(-2100,-2790)"
     id="g130"
     style="fill:#008484;fill-opacity:0;stroke:#008484;stroke-width:80;stroke-linecap:round;stroke-linejoin:round;stroke-opacity:1">
    <path
       id="path106"
       d="m 8420,10520 -30,30 -70,20 h -50 l -70,-20 -50,-50 -20,-50 -20,-90 v -70 l 20,-100 20,-50 50,-40 70,-30 h 50 l 70,30 30,20" />
    <path
       id="path108"
       d="m 8920,10520 -30,30 -70,20 h -50 l -70,-20 -50,-50 -20,-50 -20,-90 v -70 l 20,-100 20,-50 50,-40 70,-30 h 50 l 70,30 30,20" />
    <path
       id="path110"
       d="m 9110,10550 70,20 h 120 l 40,-20 30,-30 20,-40 v -50 l -20,-50 -30,-20 -40,-30 -100,-20 -50,-20 -20,-30 -20,-50 v -40 l 20,-50 20,-20 50,-30 h 120 l 70,30" />
    <path
       id="path112"
       d="m 9490,10620 h 380" />
    <path
       id="path114"
       d="m 10220,10570 h -230 v -500" />
    <path
       id="path116"
       d="m 10490,10070 h 90 l 50,30 50,40 20,100 v 160 l -20,100 -50,50 -50,20 h -90 l -50,-20 -50,-50 -20,-100 v -160 l 20,-100 50,-40 50,-30" />
    <path
       id="path118"
       d="m 11200,10520 -20,30 -70,20 h -50 l -70,-20 -50,-50 -20,-50 -30,-90 v -70 l 30,-100 20,-50 50,-40 70,-30 h 50 l 70,30 20,20" />
    <path
       id="path120"
       d="m 11420,10570 v -500" />
    <path
       id="path122"
       d="m 11700,10570 -210,-280" />
    <path
       id="path124"
       d="m 11700,10070 -280,290" />
    <path
       id="path126"
       d="m 11920,10380 h 380" />
    <path
       id="path128"
       d="m 12110,10570 v -380" />
  </g>
  <g
     transform="translate(-2100,-2790)"
     id="g132"
     style="fill:#008484;fill-opacity:0;stroke:#008484;stroke-width:120;stroke-linecap:round;stroke-linejoin:round;stroke-opacity:1" />
  <g
     transform="translate(-2100,-2790)"
     id="g136"
     style="fill:#840000;fill-opacity:0;stroke:#840000;stroke-width:120;stroke-linecap:round;stroke-linejoin:round;stroke-opacity:1">
    <text
       id="text134"
       opacity="0"
       text-anchor="middle"
       lengthAdjust="spacingAndGlyphs"
       font-size="660px"
       textLength="1530"
       y="10210"
       x="13660">1B2</text>
  </g>
  <g
     transform="translate(-2100,-2790)"
     id="g146"
     style="fill:#840000;fill-opacity:0;stroke:#840000;stroke-width:80;stroke-linecap:round;stroke-linejoin:round;stroke-opacity:1">
    <path
       id="path138"
       d="m 13310,10180 h -290" />
    <path
       id="path140"
       d="m 13170,10180 v -500 l -50,70 -50,50 -50,20" />
    <path
       id="path142"
       d="m 13690,9920 70,20 30,30 20,40 v 80 l -20,40 -30,30 -50,20 h -190 v -500 h 170 l 50,30 20,20 30,50 v 40 l -30,50 -20,30 -50,20 h -170" />
    <path
       id="path144"
       d="m 14000,9730 20,-20 50,-30 h 120 l 50,30 20,20 30,50 v 40 l -30,80 -280,280 h 310" />
  </g>
  <g
     transform="translate(-2100,-2790)"
     id="g150"
     style="fill:#840000;fill-opacity:0;stroke:#840000;stroke-width:120;stroke-linecap:round;stroke-linejoin:round;stroke-opacity:1">
    <path
       id="path148"
       d="m 12660,5350 h 2000" />
  </g>
  <g
     transform="translate(-2100,-2790)"
     id="g154"
     style="fill:#008484;fill-opacity:0;stroke:#008484;stroke-width:120;stroke-linecap:round;stroke-linejoin:round;stroke-opacity:1">
    <text
       id="text152"
       opacity="0"
       text-anchor="end"
       lengthAdjust="spacingAndGlyphs"
       font-size="660px"
       textLength="1080"
       y="5600"
       x="12460">PP</text>
  </g>
  <g
     transform="translate(-2100,-2790)"
     id="g160"
     style="fill:#008484;fill-opacity:0;stroke:#008484;stroke-width:80;stroke-linecap:round;stroke-linejoin:round;stroke-opacity:1">
    <path
       id="path156"
       d="m 11530,5570 v -500 h 190 l 50,30 30,20 20,50 v 70 l -20,50 -30,20 -50,20 h -190" />
    <path
       id="path158"
       d="m 12030,5570 v -500 h 190 l 50,30 30,20 20,50 v 70 l -20,50 -30,20 -50,20 h -190" />
  </g>
  <g
     transform="translate(-2100,-2790)"
     id="g162"
     style="fill:#008484;fill-opacity:0;stroke:#008484;stroke-width:120;stroke-linecap:round;stroke-linejoin:round;stroke-opacity:1" />
  <g
     transform="translate(-2100,-2790)"
     id="g166"
     style="fill:#840000;fill-opacity:0;stroke:#840000;stroke-width:120;stroke-linecap:round;stroke-linejoin:round;stroke-opacity:1">
    <text
       id="text164"
       opacity="0"
       text-anchor="middle"
       lengthAdjust="spacingAndGlyphs"
       font-size="660px"
       textLength="1460"
       y="5210"
       x="13660">2A2</text>
  </g>
  <g
     transform="translate(-2100,-2790)"
     id="g176"
     style="fill:#840000;fill-opacity:0;stroke:#840000;stroke-width:80;stroke-linecap:round;stroke-linejoin:round;stroke-opacity:1">
    <path
       id="path168"
       d="m 13060,4730 20,-20 50,-30 h 120 l 50,30 20,20 30,50 v 40 l -30,80 -280,280 h 310" />
    <path
       id="path170"
       d="m 13540,5040 h 230" />
    <path
       id="path172"
       d="m 13490,5180 170,-500 160,500" />
    <path
       id="path174"
       d="m 13960,4730 30,-20 50,-30 h 120 l 40,30 30,20 20,50 v 40 l -20,80 -290,280 h 310" />
  </g>
  <g
     transform="translate(-2100,-2790)"
     id="g180"
     style="fill:#840000;fill-opacity:0;stroke:#840000;stroke-width:120;stroke-linecap:round;stroke-linejoin:round;stroke-opacity:1">
    <path
       id="path178"
       d="m 12660,11850 h 2000" />
  </g>
  <g
     transform="translate(-2100,-2790)"
     id="g184"
     style="fill:#008484;fill-opacity:0;stroke:#008484;stroke-width:120;stroke-linecap:round;stroke-linejoin:round;stroke-opacity:1">
    <text
       id="text182"
       opacity="0"
       text-anchor="end"
       lengthAdjust="spacingAndGlyphs"
       font-size="660px"
       textLength="4480"
       y="12100"
       x="12460">CCS_LOCK-</text>
  </g>
  <g
     transform="translate(-2100,-2790)"
     id="g208"
     style="fill:#008484;fill-opacity:0;stroke:#008484;stroke-width:80;stroke-linecap:round;stroke-linejoin:round;stroke-opacity:1">
    <path
       id="path186"
       d="m 8420,12020 -30,30 -70,20 h -50 l -70,-20 -50,-50 -20,-50 -20,-90 v -70 l 20,-100 20,-50 50,-40 70,-30 h 50 l 70,30 30,20" />
    <path
       id="path188"
       d="m 8920,12020 -30,30 -70,20 h -50 l -70,-20 -50,-50 -20,-50 -20,-90 v -70 l 20,-100 20,-50 50,-40 70,-30 h 50 l 70,30 30,20" />
    <path
       id="path190"
       d="m 9110,12050 70,20 h 120 l 40,-20 30,-30 20,-40 v -50 l -20,-50 -30,-20 -40,-30 -100,-20 -50,-20 -20,-30 -20,-50 v -40 l 20,-50 20,-20 50,-30 h 120 l 70,30" />
    <path
       id="path192"
       d="m 9490,12120 h 380" />
    <path
       id="path194"
       d="m 10220,12070 h -230 v -500" />
    <path
       id="path196"
       d="m 10490,11570 h 90 l 50,30 50,40 20,100 v 160 l -20,100 -50,50 -50,20 h -90 l -50,-20 -50,-50 -20,-100 v -160 l 20,-100 50,-40 50,-30" />
    <path
       id="path198"
       d="m 11200,12020 -20,30 -70,20 h -50 l -70,-20 -50,-50 -20,-50 -30,-90 v -70 l 30,-100 20,-50 50,-40 70,-30 h 50 l 70,30 20,20" />
    <path
       id="path200"
       d="m 11420,12070 v -500" />
    <path
       id="path202"
       d="m 11700,12070 -210,-280" />
    <path
       id="path204"
       d="m 11700,11570 -280,290" />
    <path
       id="path206"
       d="m 11920,11880 h 380" />
  </g>
  <g
     transform="translate(-2100,-2790)"
     id="g210"
     style="fill:#008484;fill-opacity:0;stroke:#008484;stroke-width:120;stroke-linecap:round;stroke-linejoin:round;stroke-opacity:1" />
  <g
     transform="translate(-2100,-2790)"
     id="g214"
     style="fill:#840000;fill-opacity:0;stroke:#840000;stroke-width:120;stroke-linecap:round;stroke-linejoin:round;stroke-opacity:1">
    <text
       id="text212"
       opacity="0"
       text-anchor="middle"
       lengthAdjust="spacingAndGlyphs"
       font-size="660px"
       textLength="1530"
       y="11710"
       x="13660">2B2</text>
  </g>
  <g
     transform="translate(-2100,-2790)"
     id="g222"
     style="fill:#840000;fill-opacity:0;stroke:#840000;stroke-width:80;stroke-linecap:round;stroke-linejoin:round;stroke-opacity:1">
    <path
       id="path216"
       d="m 13020,11230 30,-20 50,-30 h 110 l 50,30 30,20 20,50 v 40 l -20,80 -290,280 h 310" />
    <path
       id="path218"
       d="m 13690,11420 70,20 30,30 20,40 v 80 l -20,40 -30,30 -50,20 h -190 v -500 h 170 l 50,30 20,20 30,50 v 40 l -30,50 -20,30 -50,20 h -170" />
    <path
       id="path220"
       d="m 14000,11230 20,-20 50,-30 h 120 l 50,30 20,20 30,50 v 40 l -30,80 -280,280 h 310" />
  </g>
  <g
     transform="translate(-2100,-2790)"
     id="g226"
     style="fill:#840000;fill-opacity:0;stroke:#840000;stroke-width:120;stroke-linecap:round;stroke-linejoin:round;stroke-opacity:1">
    <path
       id="path224"
       d="m 12660,13350 h 2000" />
  </g>
  <g
     transform="translate(-2100,-2790)"
     id="g230"
     style="fill:#008484;fill-opacity:0;stroke:#008484;stroke-width:120;stroke-linecap:round;stroke-linejoin:round;stroke-opacity:1">
    <text
       id="text228"
       opacity="0"
       text-anchor="end"
       lengthAdjust="spacingAndGlyphs"
       font-size="660px"
       textLength="5180"
       y="13600"
       x="12460">CCS_LOCK_FB</text>
  </g>
  <g
     transform="translate(-2100,-2790)"
     id="g260"
     style="fill:#008484;fill-opacity:0;stroke:#008484;stroke-width:80;stroke-linecap:round;stroke-linejoin:round;stroke-opacity:1">
    <path
       id="path232"
       d="m 7720,13520 -20,30 -70,20 h -50 l -70,-20 -50,-50 -20,-50 -20,-90 v -70 l 20,-100 20,-50 50,-40 70,-30 h 50 l 70,30 20,20" />
    <path
       id="path234"
       d="m 8220,13520 -20,30 -70,20 h -50 l -70,-20 -50,-50 -20,-50 -20,-90 v -70 l 20,-100 20,-50 50,-40 70,-30 h 50 l 70,30 20,20" />
    <path
       id="path236"
       d="m 8420,13550 70,20 h 120 l 40,-20 30,-30 20,-40 v -50 l -20,-50 -30,-20 -40,-30 -100,-20 -50,-20 -20,-30 -20,-50 v -40 l 20,-50 20,-20 50,-30 h 120 l 70,30" />
    <path
       id="path238"
       d="m 8800,13620 h 380" />
    <path
       id="path240"
       d="m 9530,13570 h -230 v -500" />
    <path
       id="path242"
       d="m 9800,13070 h 90 l 50,30 50,40 20,100 v 160 l -20,100 -50,50 -50,20 h -90 l -50,-20 -50,-50 -20,-100 v -160 l 20,-100 50,-40 50,-30" />
    <path
       id="path244"
       d="m 10510,13520 -20,30 -70,20 h -50 l -70,-20 -50,-50 -30,-50 -20,-90 v -70 l 20,-100 30,-50 50,-40 70,-30 h 50 l 70,30 20,20" />
    <path
       id="path246"
       d="m 10720,13570 v -500" />
    <path
       id="path248"
       d="m 11010,13570 -210,-280" />
    <path
       id="path250"
       d="m 11010,13070 -290,290" />
    <path
       id="path252"
       d="m 11110,13620 h 380" />
    <path
       id="path254"
       d="m 11770,13310 h -160" />
    <path
       id="path256"
       d="m 11610,13570 v -500 h 230" />
    <path
       id="path258"
       d="m 12200,13310 70,20 30,30 20,40 v 80 l -20,40 -30,30 -50,20 h -190 v -500 h 170 l 50,30 20,20 30,50 v 40 l -30,50 -20,30 -50,20 h -170" />
  </g>
  <g
     transform="translate(-2100,-2790)"
     id="g262"
     style="fill:#008484;fill-opacity:0;stroke:#008484;stroke-width:120;stroke-linecap:round;stroke-linejoin:round;stroke-opacity:1" />
  <g
     transform="translate(-2100,-2790)"
     id="g266"
     style="fill:#840000;fill-opacity:0;stroke:#840000;stroke-width:120;stroke-linecap:round;stroke-linejoin:round;stroke-opacity:1">
    <text
       id="text264"
       opacity="0"
       text-anchor="middle"
       lengthAdjust="spacingAndGlyphs"
       font-size="660px"
       textLength="1410"
       y="13210"
       x="13660">2J2</text>
  </g>
  <g
     transform="translate(-2100,-2790)"
     id="g274"
     style="fill:#840000;fill-opacity:0;stroke:#840000;stroke-width:80;stroke-linecap:round;stroke-linejoin:round;stroke-opacity:1">
    <path
       id="path268"
       d="m 13080,12730 30,-20 50,-30 h 110 l 50,30 30,20 20,50 v 40 l -20,80 -290,280 h 310" />
    <path
       id="path270"
       d="m 13730,12680 v 360 l -30,70 -40,50 -80,20 h -40" />
    <path
       id="path272"
       d="m 13940,12730 20,-20 50,-30 h 120 l 50,30 20,20 30,50 v 40 l -30,80 -280,280 h 310" />
  </g>
  <g
     transform="translate(-2100,-2790)"
     id="g278"
     style="fill:#840000;fill-opacity:0;stroke:#840000;stroke-width:120;stroke-linecap:round;stroke-linejoin:round;stroke-opacity:1">
    <path
       id="path276"
       d="m 12660,6850 h 2000" />
  </g>
  <g
     transform="translate(-2100,-2790)"
     id="g282"
     style="fill:#008484;fill-opacity:0;stroke:#008484;stroke-width:120;stroke-linecap:round;stroke-linejoin:round;stroke-opacity:1">
    <text
       id="text280"
       opacity="0"
       text-anchor="end"
       lengthAdjust="spacingAndGlyphs"
       font-size="660px"
       textLength="3460"
       y="7100"
       x="12460">CCS_GND</text>
  </g>
  <g
     transform="translate(-2100,-2790)"
     id="g298"
     style="fill:#008484;fill-opacity:0;stroke:#008484;stroke-width:80;stroke-linecap:round;stroke-linejoin:round;stroke-opacity:1">
    <path
       id="path284"
       d="m 9440,7020 -20,30 -80,20 h -40 l -80,-20 -40,-50 -30,-50 -20,-90 v -70 l 20,-100 30,-50 40,-40 80,-30 h 40 l 80,30 20,20" />
    <path
       id="path286"
       d="m 9940,7020 -20,30 -80,20 h -40 l -80,-20 -40,-50 -30,-50 -20,-90 v -70 l 20,-100 30,-50 40,-40 80,-30 h 40 l 80,30 20,20" />
    <path
       id="path288"
       d="m 10130,7050 70,20 h 120 l 50,-20 20,-30 30,-40 v -50 l -30,-50 -20,-20 -50,-30 -100,-20 -40,-20 -30,-30 -20,-50 v -40 l 20,-50 30,-20 40,-30 h 120 l 80,30" />
    <path
       id="path290"
       d="m 10510,7120 h 380" />
    <path
       id="path292"
       d="m 11270,6600 -50,-30 h -70 l -70,30 -50,40 -20,50 -20,100 v 70 l 20,90 20,50 50,50 70,20 h 50 l 70,-20 30,-30 v -160 h -100" />
    <path
       id="path294"
       d="m 11510,7070 v -500 l 290,500 v -500" />
    <path
       id="path296"
       d="m 12030,7070 v -500 h 120 l 70,30 50,40 30,50 20,100 v 70 l -20,90 -30,50 -50,50 -70,20 h -120" />
  </g>
  <g
     transform="translate(-2100,-2790)"
     id="g300"
     style="fill:#008484;fill-opacity:0;stroke:#008484;stroke-width:120;stroke-linecap:round;stroke-linejoin:round;stroke-opacity:1" />
  <g
     transform="translate(-2100,-2790)"
     id="g304"
     style="fill:#840000;fill-opacity:0;stroke:#840000;stroke-width:120;stroke-linecap:round;stroke-linejoin:round;stroke-opacity:1">
    <text
       id="text302"
       opacity="0"
       text-anchor="middle"
       lengthAdjust="spacingAndGlyphs"
       font-size="660px"
       textLength="1460"
       y="6710"
       x="13660">3A2</text>
  </g>
  <g
     transform="translate(-2100,-2790)"
     id="g314"
     style="fill:#840000;fill-opacity:0;stroke:#840000;stroke-width:80;stroke-linecap:round;stroke-linejoin:round;stroke-opacity:1">
    <path
       id="path306"
       d="m 13040,6180 h 310 l -170,190 h 70 l 50,30 20,20 30,50 v 120 l -30,40 -20,30 -50,20 h -140 l -50,-20 -20,-30" />
    <path
       id="path308"
       d="m 13540,6540 h 230" />
    <path
       id="path310"
       d="m 13490,6680 170,-500 160,500" />
    <path
       id="path312"
       d="m 13960,6230 30,-20 50,-30 h 120 l 40,30 30,20 20,50 v 40 l -20,80 -290,280 h 310" />
  </g>
  <g
     transform="translate(-2100,-2790)"
     id="g318"
     style="fill:#840000;fill-opacity:0;stroke:#840000;stroke-width:120;stroke-linecap:round;stroke-linejoin:round;stroke-opacity:1">
    <path
       id="path316"
       d="m 12660,8850 h 2000" />
  </g>
  <g
     transform="translate(-2100,-2790)"
     id="g322"
     style="fill:#008484;fill-opacity:0;stroke:#008484;stroke-width:120;stroke-linecap:round;stroke-linejoin:round;stroke-opacity:1">
    <text
       id="text320"
       opacity="0"
       text-anchor="end"
       lengthAdjust="spacingAndGlyphs"
       font-size="660px"
       textLength="6790"
       y="9100"
       x="12460">CCS_LOCK_POWER</text>
  </g>
  <g
     transform="translate(-2100,-2790)"
     id="g360"
     style="fill:#008484;fill-opacity:0;stroke:#008484;stroke-width:80;stroke-linecap:round;stroke-linejoin:round;stroke-opacity:1">
    <path
       id="path324"
       d="m 6110,9020 -30,30 -70,20 h -50 l -70,-20 -50,-50 -20,-50 -20,-90 v -70 l 20,-100 20,-50 50,-40 70,-30 h 50 l 70,30 30,20" />
    <path
       id="path326"
       d="m 6610,9020 -30,30 -70,20 h -50 l -70,-20 -50,-50 -20,-50 -20,-90 v -70 l 20,-100 20,-50 50,-40 70,-30 h 50 l 70,30 30,20" />
    <path
       id="path328"
       d="m 6800,9050 70,20 h 120 l 40,-20 30,-30 20,-40 v -50 l -20,-50 -30,-20 -40,-30 -100,-20 -50,-20 -20,-30 -20,-50 v -40 l 20,-50 20,-20 50,-30 h 120 l 70,30" />
    <path
       id="path330"
       d="m 7180,9120 h 380" />
    <path
       id="path332"
       d="M 7920,9070 H 7680 V 8570" />
    <path
       id="path334"
       d="m 8180,8570 h 90 l 50,30 50,40 20,100 v 160 l -20,100 -50,50 -50,20 h -90 l -50,-20 -50,-50 -20,-100 v -160 l 20,-100 50,-40 50,-30" />
    <path
       id="path336"
       d="m 8890,9020 -20,30 -70,20 h -50 l -70,-20 -50,-50 -20,-50 -30,-90 v -70 l 30,-100 20,-50 50,-40 70,-30 h 50 l 70,30 20,20" />
    <path
       id="path338"
       d="M 9110,9070 V 8570" />
    <path
       id="path340"
       d="M 9390,9070 9180,8790" />
    <path
       id="path342"
       d="m 9390,8570 -280,290" />
    <path
       id="path344"
       d="m 9490,9120 h 380" />
    <path
       id="path346"
       d="m 9990,9070 v -500 h 190 l 40,30 30,20 20,50 v 70 l -20,50 -30,20 -40,20 h -190" />
    <path
       id="path348"
       d="m 10580,8570 h 100 l 40,30 50,40 30,100 v 160 l -30,100 -50,50 -40,20 h -100 l -50,-20 -40,-50 -30,-100 v -160 l 30,-100 40,-40 50,-30" />
    <path
       id="path350"
       d="m 10960,8570 120,500 100,-360 90,360 120,-500" />
    <path
       id="path352"
       d="m 11580,8810 h 170" />
    <path
       id="path354"
       d="m 11820,9070 h -240 v -500 h 240" />
    <path
       id="path356"
       d="m 12320,9070 -170,-240" />
    <path
       id="path358"
       d="m 12030,9070 v -500 h 190 l 50,30 30,20 20,50 v 70 l -20,50 -30,20 -50,20 h -190" />
  </g>
  <g
     transform="translate(-2100,-2790)"
     id="g362"
     style="fill:#008484;fill-opacity:0;stroke:#008484;stroke-width:120;stroke-linecap:round;stroke-linejoin:round;stroke-opacity:1" />
  <g
     transform="translate(-2100,-2790)"
     id="g366"
     style="fill:#840000;fill-opacity:0;stroke:#840000;stroke-width:120;stroke-linecap:round;stroke-linejoin:round;stroke-opacity:1">
    <text
       id="text364"
       opacity="0"
       text-anchor="middle"
       lengthAdjust="spacingAndGlyphs"
       font-size="660px"
       textLength="1530"
       y="8710"
       x="13660">3B2</text>
  </g>
  <g
     transform="translate(-2100,-2790)"
     id="g374"
     style="fill:#840000;fill-opacity:0;stroke:#840000;stroke-width:80;stroke-linecap:round;stroke-linejoin:round;stroke-opacity:1">
    <path
       id="path368"
       d="m 13000,8180 h 310 l -170,190 h 70 l 50,30 30,20 20,50 v 120 l -20,40 -30,30 -50,20 h -140 l -50,-20 -20,-30" />
    <path
       id="path370"
       d="m 13690,8420 70,20 30,30 20,40 v 80 l -20,40 -30,30 -50,20 h -190 v -500 h 170 l 50,30 20,20 30,50 v 40 l -30,50 -20,30 -50,20 h -170" />
    <path
       id="path372"
       d="m 14000,8230 20,-20 50,-30 h 120 l 50,30 20,20 30,50 v 40 l -30,80 -280,280 h 310" />
  </g>
  <g
     transform="translate(-2100,-2790)"
     id="g376"
     style="fill:#840000;fill-opacity:0;stroke:#840000;stroke-width:120;stroke-linecap:round;stroke-linejoin:round;stroke-opacity:1" />
  <g
     transform="translate(-2100,-2790)"
     id="g378"
     style="fill:#840084;fill-opacity:0;stroke:#840084;stroke-width:120;stroke-linecap:round;stroke-linejoin:round;stroke-opacity:1" />
  <g
     transform="translate(-2100,-2790)"
     id="g380"
     style="fill:#008484;fill-opacity:0;stroke:#008484;stroke-width:120;stroke-linecap:round;stroke-linejoin:round;stroke-opacity:1" />
</svg>
