<?xml version="1.0" encoding="UTF-8" standalone="no"?>
<svg
   xmlns:dc="http://purl.org/dc/elements/1.1/"
   xmlns:cc="http://creativecommons.org/ns#"
   xmlns:rdf="http://www.w3.org/1999/02/22-rdf-syntax-ns#"
   xmlns:svg="http://www.w3.org/2000/svg"
   xmlns="http://www.w3.org/2000/svg"
   xmlns:sodipodi="http://sodipodi.sourceforge.net/DTD/sodipodi-0.dtd"
   xmlns:inkscape="http://www.inkscape.org/namespaces/inkscape"
   inkscape:version="1.0 (4035a4fb49, 2020-05-01)"
   sodipodi:docname="ADM-CS-EVCC_multipart_CHADEMO.svg"
   id="svg604"
   viewBox="0 0 12619.999 12619.999"
   height="3.2054799cm"
   width="3.2054799cm"
   version="1.1">
  <metadata
     id="metadata610">
    <rdf:RDF>
      <cc:Work
         rdf:about="">
        <dc:format>image/svg+xml</dc:format>
        <dc:type
           rdf:resource="http://purl.org/dc/dcmitype/StillImage" />
      </cc:Work>
    </rdf:RDF>
  </metadata>
  <defs
     id="defs608" />
  <sodipodi:namedview
     inkscape:current-layer="svg604"
     inkscape:window-maximized="0"
     inkscape:window-y="0"
     inkscape:window-x="0"
     inkscape:cy="-5.7938821"
     inkscape:cx="58.224001"
     inkscape:zoom="5.002354"
     showgrid="false"
     id="namedview606"
     inkscape:window-height="480"
     inkscape:window-width="705"
     inkscape:pageshadow="2"
     inkscape:pageopacity="0"
     guidetolerance="10"
     gridtolerance="10"
     objecttolerance="10"
     borderopacity="1"
     bordercolor="#666666"
     pagecolor="#ffffff" />
  <title
     id="title2">SVG Picture created as ADM-CS-EVCC_multipart_CHADEMO.svg date 2020/09/04 16:20:11 </title>
  <desc
     id="desc4">Picture generated by Eeschema-SVG </desc>
  <g
     transform="translate(-1600,-2790)"
     id="g6"
     style="fill:#000000;fill-opacity:1;stroke:#000000;stroke-linecap:round;stroke-linejoin:round;stroke-opacity:1" />
  <g
     transform="translate(-1600,-2790)"
     id="g8"
     style="fill:#840000;fill-opacity:0;stroke:#840000;stroke-width:-10;stroke-linecap:round;stroke-linejoin:round;stroke-opacity:1" />
  <g
     transform="translate(-1600,-2790)"
     id="g10"
     style="fill:#ffffc2;fill-opacity:0;stroke:#ffffc2;stroke-width:-10;stroke-linecap:round;stroke-linejoin:round;stroke-opacity:1" />
  <g
     transform="translate(-1600,-2790)"
     id="g14"
     style="fill:#ffffc2;fill-opacity:0.6;stroke:#ffffc2;stroke-width:0;stroke-linecap:round;stroke-linejoin:round;stroke-opacity:1">
    <rect
       id="rect12"
       rx="0"
       height="12500"
       width="10500"
       y="2850"
       x="1660" />
  </g>
  <g
     transform="translate(-1600,-2790)"
     id="g16"
     style="fill:#840000;fill-opacity:0.6;stroke:#840000;stroke-width:0;stroke-linecap:round;stroke-linejoin:round;stroke-opacity:1" />
  <g
     transform="translate(-1600,-2790)"
     id="g20"
     style="fill:#840000;fill-opacity:0;stroke:#840000;stroke-width:120;stroke-linecap:round;stroke-linejoin:round;stroke-opacity:1">
    <rect
       id="rect18"
       rx="0"
       height="12500"
       width="10500"
       y="2850"
       x="1660" />
  </g>
  <g
     transform="translate(-1600,-2790)"
     id="g78"
     style="fill:#840000;fill-opacity:0;stroke:#840000;stroke-width:100;stroke-linecap:round;stroke-linejoin:round;stroke-opacity:1">
    <g
       id="g24"
       transform="rotate(-90,2680,9350)">
      <text
         id="text22"
         opacity="0"
         text-anchor="middle"
         lengthAdjust="spacingAndGlyphs"
         font-size="800px"
         textLength="9550"
         y="9650"
         x="2680">CHADEMO INTERFACE</text>
    </g>
    <path
       id="path26"
       d="m 2890,13580 30,30 30,90 v 60 l -30,80 -60,50 -60,20 -110,20 -90,-10 -110,-40 -60,-40 -60,-60 -20,-90 v -60 l 20,-80 30,-30" />
    <path
       id="path28"
       d="m 2950,13330 -600,-70" />
    <path
       id="path30"
       d="m 2630,13290 v -340" />
    <path
       id="path32"
       d="m 2950,12990 -600,-80" />
    <path
       id="path34"
       d="m 2780,12710 v -280" />
    <path
       id="path36"
       d="m 2950,12790 -600,-280 600,-120" />
    <path
       id="path38"
       d="m 2950,12190 -600,-80 v -140 l 30,-80 50,-50 60,-20 110,-20 90,10 110,50 60,30 60,70 30,90 v 140" />
    <path
       id="path40"
       d="m 2630,11550 v -200" />
    <path
       id="path42"
       d="m 2950,11300 v 290 l -600,-80 v -280" />
    <path
       id="path44"
       d="m 2950,11050 -600,-80 430,-140 -430,-260 600,80" />
    <path
       id="path46"
       d="m 2350,10170 v -110 l 30,-60 50,-50 120,-10 200,20 110,50 60,60 30,60 v 120 l -30,50 -60,50 -110,10 -200,-20 -120,-40 -50,-70 -30,-60" />
    <path
       id="path48"
       d="m 2950,9280 -600,-80" />
    <path
       id="path50"
       d="m 2950,8990 -600,-80 600,-260 -600,-80" />
    <path
       id="path52"
       d="M 2350,8370 V 8030" />
    <path
       id="path54"
       d="m 2950,8280 -600,-80" />
    <path
       id="path56"
       d="M 2630,7860 V 7660" />
    <path
       id="path58"
       d="m 2950,7620 v 280 l -600,-70 v -290" />
    <path
       id="path60"
       d="m 2950,7020 -290,160" />
    <path
       id="path62"
       d="m 2950,7360 -600,-70 v -230 l 30,-60 20,-20 60,-20 90,10 50,30 30,40 30,60 v 230" />
    <path
       id="path64"
       d="m 2630,6520 v 200" />
    <path
       id="path66"
       d="m 2950,6760 -600,-70 v -290" />
    <path
       id="path68"
       d="M 2780,6250 V 5970" />
    <path
       id="path70"
       d="m 2950,6330 -600,-270 600,-130" />
    <path
       id="path72"
       d="m 2890,5380 30,30 30,90 v 60 l -30,80 -60,50 -60,20 -110,20 -90,-10 -110,-40 -60,-40 -50,-60 -30,-90 v -60 l 30,-80 20,-30" />
    <path
       id="path74"
       d="M 2630,5090 V 4890" />
    <path
       id="path76"
       d="m 2950,4850 v 280 l -600,-70 v -290" />
  </g>
  <g
     transform="translate(-1600,-2790)"
     id="g84"
     style="fill:#840000;fill-opacity:0;stroke:#840000;stroke-width:120;stroke-linecap:round;stroke-linejoin:round;stroke-opacity:1">
    <rect
       id="rect80"
       rx="0"
       height="12500"
       width="10500"
       y="2850"
       x="1660" />
    <path
       id="path82"
       d="m 12160,11350 h 2000" />
  </g>
  <g
     transform="translate(-1600,-2790)"
     id="g88"
     style="fill:#008484;fill-opacity:0;stroke:#008484;stroke-width:120;stroke-linecap:round;stroke-linejoin:round;stroke-opacity:1">
    <text
       id="text86"
       opacity="0"
       text-anchor="end"
       lengthAdjust="spacingAndGlyphs"
       font-size="660px"
       textLength="6340"
       y="11600"
       x="11960">CAN_H_CHADEMO</text>
  </g>
  <g
     transform="translate(-1600,-2790)"
     id="g130"
     style="fill:#008484;fill-opacity:0;stroke:#008484;stroke-width:80;stroke-linecap:round;stroke-linejoin:round;stroke-opacity:1">
    <path
       id="path90"
       d="m 6080,11520 -20,30 -70,20 h -50 l -70,-20 -50,-50 -20,-50 -30,-90 v -70 l 30,-100 20,-50 50,-40 70,-30 h 50 l 70,30 20,20" />
    <path
       id="path92"
       d="m 6270,11430 h 240" />
    <path
       id="path94"
       d="m 6220,11570 170,-500 170,500" />
    <path
       id="path96"
       d="m 6720,11570 v -500 l 290,500 v -500" />
    <path
       id="path98"
       d="m 7130,11620 h 380" />
    <path
       id="path100"
       d="m 7630,11570 v -500" />
    <path
       id="path102"
       d="m 7630,11310 h 290" />
    <path
       id="path104"
       d="m 7920,11570 v -500" />
    <path
       id="path106"
       d="m 8030,11620 h 390" />
    <path
       id="path108"
       d="m 8820,11520 -20,30 -80,20 h -40 l -70,-20 -50,-50 -30,-50 -20,-90 v -70 l 20,-100 30,-50 50,-40 70,-30 h 40 l 80,30 20,20" />
    <path
       id="path110"
       d="m 9030,11570 v -500" />
    <path
       id="path112"
       d="m 9030,11310 h 290" />
    <path
       id="path114"
       d="m 9320,11570 v -500" />
    <path
       id="path116"
       d="m 9530,11430 h 240" />
    <path
       id="path118"
       d="m 9490,11570 160,-500 170,500" />
    <path
       id="path120"
       d="m 9990,11570 v -500 h 120 l 70,30 40,40 30,50 20,100 v 70 l -20,90 -30,50 -40,50 -70,20 h -120" />
    <path
       id="path122"
       d="m 10490,11310 h 160" />
    <path
       id="path124"
       d="m 10720,11570 h -230 v -500 h 230" />
    <path
       id="path126"
       d="m 10940,11570 v -500 l 170,360 160,-360 v 500" />
    <path
       id="path128"
       d="m 11610,11070 h 90 l 50,30 50,40 20,100 v 160 l -20,100 -50,50 -50,20 h -90 l -50,-20 -50,-50 -20,-100 v -160 l 20,-100 50,-40 50,-30" />
  </g>
  <g
     transform="translate(-1600,-2790)"
     id="g132"
     style="fill:#008484;fill-opacity:0;stroke:#008484;stroke-width:120;stroke-linecap:round;stroke-linejoin:round;stroke-opacity:1" />
  <g
     transform="translate(-1600,-2790)"
     id="g136"
     style="fill:#840000;fill-opacity:0;stroke:#840000;stroke-width:120;stroke-linecap:round;stroke-linejoin:round;stroke-opacity:1">
    <text
       id="text134"
       opacity="0"
       text-anchor="middle"
       lengthAdjust="spacingAndGlyphs"
       font-size="660px"
       textLength="1530"
       y="11210"
       x="13160">1B1</text>
  </g>
  <g
     transform="translate(-1600,-2790)"
     id="g148"
     style="fill:#840000;fill-opacity:0;stroke:#840000;stroke-width:80;stroke-linecap:round;stroke-linejoin:round;stroke-opacity:1">
    <path
       id="path138"
       d="m 12810,11180 h -290" />
    <path
       id="path140"
       d="m 12670,11180 v -500 l -50,70 -50,50 -50,20" />
    <path
       id="path142"
       d="m 13190,10920 70,20 30,30 20,40 v 80 l -20,40 -30,30 -50,20 h -190 v -500 h 170 l 50,30 20,20 30,50 v 40 l -30,50 -20,30 -50,20 h -170" />
    <path
       id="path144"
       d="m 13790,11180 h -290" />
    <path
       id="path146"
       d="m 13640,11180 v -500 l -40,70 -50,50 -50,20" />
  </g>
  <g
     transform="translate(-1600,-2790)"
     id="g152"
     style="fill:#840000;fill-opacity:0;stroke:#840000;stroke-width:120;stroke-linecap:round;stroke-linejoin:round;stroke-opacity:1">
    <path
       id="path150"
       d="m 12160,5350 h 2000" />
  </g>
  <g
     transform="translate(-1600,-2790)"
     id="g156"
     style="fill:#008484;fill-opacity:0;stroke:#008484;stroke-width:120;stroke-linecap:round;stroke-linejoin:round;stroke-opacity:1">
    <text
       id="text154"
       opacity="0"
       text-anchor="end"
       lengthAdjust="spacingAndGlyphs"
       font-size="660px"
       textLength="2010"
       y="5600"
       x="11960">SEQ2</text>
  </g>
  <g
     transform="translate(-1600,-2790)"
     id="g170"
     style="fill:#008484;fill-opacity:0;stroke:#008484;stroke-width:80;stroke-linecap:round;stroke-linejoin:round;stroke-opacity:1">
    <path
       id="path158"
       d="m 10080,5550 70,20 h 120 l 50,-20 20,-30 30,-40 v -50 l -30,-50 -20,-20 -50,-30 -90,-20 -50,-20 -20,-30 -30,-50 v -40 l 30,-50 20,-20 50,-30 h 120 l 70,30" />
    <path
       id="path160"
       d="m 10580,5310 h 170" />
    <path
       id="path162"
       d="m 10820,5570 h -240 v -500 h 240" />
    <path
       id="path164"
       d="m 11370,5620 -50,-20 -50,-50 -70,-70 -50,-30 h -40" />
    <path
       id="path166"
       d="m 11130,5570 -50,-20 -50,-50 -20,-100 v -160 l 20,-100 50,-40 50,-30 h 90 l 50,30 50,40 20,100 v 160 l -20,100 -50,50 -50,20 h -90" />
    <path
       id="path168"
       d="m 11530,5120 30,-20 50,-30 h 110 l 50,30 30,20 20,50 v 40 l -20,80 -290,280 h 310" />
  </g>
  <g
     transform="translate(-1600,-2790)"
     id="g172"
     style="fill:#008484;fill-opacity:0;stroke:#008484;stroke-width:120;stroke-linecap:round;stroke-linejoin:round;stroke-opacity:1" />
  <g
     transform="translate(-1600,-2790)"
     id="g176"
     style="fill:#840000;fill-opacity:0;stroke:#840000;stroke-width:120;stroke-linecap:round;stroke-linejoin:round;stroke-opacity:1">
    <text
       id="text174"
       opacity="0"
       text-anchor="middle"
       lengthAdjust="spacingAndGlyphs"
       font-size="660px"
       textLength="1560"
       y="5210"
       x="13160">1H2</text>
  </g>
  <g
     transform="translate(-1600,-2790)"
     id="g190"
     style="fill:#840000;fill-opacity:0;stroke:#840000;stroke-width:80;stroke-linecap:round;stroke-linejoin:round;stroke-opacity:1">
    <path
       id="path178"
       d="m 12800,5180 h -290" />
    <path
       id="path180"
       d="m 12660,5180 v -500 l -50,70 -50,50 -50,20" />
    <path
       id="path182"
       d="M 13010,5180 V 4680" />
    <path
       id="path184"
       d="m 13010,4920 h 290" />
    <path
       id="path186"
       d="M 13300,5180 V 4680" />
    <path
       id="path188"
       d="m 13510,4730 30,-20 40,-30 h 120 l 50,30 20,20 30,50 v 40 l -30,80 -280,280 h 310" />
  </g>
  <g
     transform="translate(-1600,-2790)"
     id="g194"
     style="fill:#840000;fill-opacity:0;stroke:#840000;stroke-width:120;stroke-linecap:round;stroke-linejoin:round;stroke-opacity:1">
    <path
       id="path192"
       d="m 12160,9850 h 2000" />
  </g>
  <g
     transform="translate(-1600,-2790)"
     id="g198"
     style="fill:#008484;fill-opacity:0;stroke:#008484;stroke-width:120;stroke-linecap:round;stroke-linejoin:round;stroke-opacity:1">
    <text
       id="text196"
       opacity="0"
       text-anchor="end"
       lengthAdjust="spacingAndGlyphs"
       font-size="660px"
       textLength="5480"
       y="10100"
       x="11960">CHADEMO_GND</text>
  </g>
  <g
     transform="translate(-1600,-2790)"
     id="g230"
     style="fill:#008484;fill-opacity:0;stroke:#008484;stroke-width:80;stroke-linecap:round;stroke-linejoin:round;stroke-opacity:1">
    <path
       id="path200"
       d="m 6920,10020 -30,30 -70,20 h -50 l -70,-20 -50,-50 -20,-50 -20,-90 v -70 l 20,-100 20,-50 50,-40 70,-30 h 50 l 70,30 30,20" />
    <path
       id="path202"
       d="M 7130,10070 V 9570" />
    <path
       id="path204"
       d="m 7130,9810 h 290" />
    <path
       id="path206"
       d="M 7420,10070 V 9570" />
    <path
       id="path208"
       d="m 7630,9930 h 240" />
    <path
       id="path210"
       d="m 7580,10070 170,-500 170,500" />
    <path
       id="path212"
       d="m 8080,10070 v -500 h 120 l 70,30 50,40 20,50 30,100 v 70 l -30,90 -20,50 -50,50 -70,20 h -120" />
    <path
       id="path214"
       d="m 8580,9810 h 170" />
    <path
       id="path216"
       d="m 8820,10070 h -240 v -500 h 240" />
    <path
       id="path218"
       d="m 9030,10070 v -500 l 170,360 170,-360 v 500" />
    <path
       id="path220"
       d="m 9700,9570 h 100 l 40,30 50,40 30,100 v 160 l -30,100 -50,50 -40,20 h -100 l -50,-20 -40,-50 -30,-100 v -160 l 30,-100 40,-40 50,-30" />
    <path
       id="path222"
       d="m 10010,10120 h 380" />
    <path
       id="path224"
       d="m 10770,9600 -50,-30 h -70 l -70,30 -50,40 -20,50 -20,100 v 70 l 20,90 20,50 50,50 70,20 h 50 l 70,-20 30,-30 v -160 h -100" />
    <path
       id="path226"
       d="m 11010,10070 v -500 l 290,500 v -500" />
    <path
       id="path228"
       d="m 11530,10070 v -500 h 120 l 70,30 50,40 30,50 20,100 v 70 l -20,90 -30,50 -50,50 -70,20 h -120" />
  </g>
  <g
     transform="translate(-1600,-2790)"
     id="g232"
     style="fill:#008484;fill-opacity:0;stroke:#008484;stroke-width:120;stroke-linecap:round;stroke-linejoin:round;stroke-opacity:1" />
  <g
     transform="translate(-1600,-2790)"
     id="g236"
     style="fill:#840000;fill-opacity:0;stroke:#840000;stroke-width:120;stroke-linecap:round;stroke-linejoin:round;stroke-opacity:1">
    <text
       id="text234"
       opacity="0"
       text-anchor="middle"
       lengthAdjust="spacingAndGlyphs"
       font-size="660px"
       textLength="1410"
       y="9710"
       x="13160">1J2</text>
  </g>
  <g
     transform="translate(-1600,-2790)"
     id="g246"
     style="fill:#840000;fill-opacity:0;stroke:#840000;stroke-width:80;stroke-linecap:round;stroke-linejoin:round;stroke-opacity:1">
    <path
       id="path238"
       d="m 12870,9680 h -290" />
    <path
       id="path240"
       d="m 12730,9680 v -500 l -50,70 -50,50 -50,20" />
    <path
       id="path242"
       d="m 13230,9180 v 360 l -30,70 -40,50 -80,20 h -40" />
    <path
       id="path244"
       d="m 13440,9230 20,-20 50,-30 h 120 l 50,30 20,20 30,50 v 40 l -30,80 -280,280 h 310" />
  </g>
  <g
     transform="translate(-1600,-2790)"
     id="g250"
     style="fill:#840000;fill-opacity:0;stroke:#840000;stroke-width:120;stroke-linecap:round;stroke-linejoin:round;stroke-opacity:1">
    <path
       id="path248"
       d="m 12160,12850 h 2000" />
  </g>
  <g
     transform="translate(-1600,-2790)"
     id="g254"
     style="fill:#008484;fill-opacity:0;stroke:#008484;stroke-width:120;stroke-linecap:round;stroke-linejoin:round;stroke-opacity:1">
    <text
       id="text252"
       opacity="0"
       text-anchor="end"
       lengthAdjust="spacingAndGlyphs"
       font-size="660px"
       textLength="6200"
       y="13100"
       x="11960">CAN_L_CHADEMO</text>
  </g>
  <g
     transform="translate(-1600,-2790)"
     id="g292"
     style="fill:#008484;fill-opacity:0;stroke:#008484;stroke-width:80;stroke-linecap:round;stroke-linejoin:round;stroke-opacity:1">
    <path
       id="path256"
       d="m 6200,13020 -20,30 -70,20 h -50 l -70,-20 -50,-50 -20,-50 -30,-90 v -70 l 30,-100 20,-50 50,-40 70,-30 h 50 l 70,30 20,20" />
    <path
       id="path258"
       d="m 6390,12930 h 240" />
    <path
       id="path260"
       d="m 6340,13070 170,-500 170,500" />
    <path
       id="path262"
       d="m 6840,13070 v -500 l 290,500 v -500" />
    <path
       id="path264"
       d="m 7250,13120 h 380" />
    <path
       id="path266"
       d="m 7990,13070 h -240 v -500" />
    <path
       id="path268"
       d="m 8030,13120 h 390" />
    <path
       id="path270"
       d="m 8820,13020 -20,30 -80,20 h -40 l -70,-20 -50,-50 -30,-50 -20,-90 v -70 l 20,-100 30,-50 50,-40 70,-30 h 40 l 80,30 20,20" />
    <path
       id="path272"
       d="m 9030,13070 v -500" />
    <path
       id="path274"
       d="m 9030,12810 h 290" />
    <path
       id="path276"
       d="m 9320,13070 v -500" />
    <path
       id="path278"
       d="m 9530,12930 h 240" />
    <path
       id="path280"
       d="m 9490,13070 160,-500 170,500" />
    <path
       id="path282"
       d="m 9990,13070 v -500 h 120 l 70,30 40,40 30,50 20,100 v 70 l -20,90 -30,50 -40,50 -70,20 h -120" />
    <path
       id="path284"
       d="m 10490,12810 h 160" />
    <path
       id="path286"
       d="m 10720,13070 h -230 v -500 h 230" />
    <path
       id="path288"
       d="m 10940,13070 v -500 l 170,360 160,-360 v 500" />
    <path
       id="path290"
       d="m 11610,12570 h 90 l 50,30 50,40 20,100 v 160 l -20,100 -50,50 -50,20 h -90 l -50,-20 -50,-50 -20,-100 v -160 l 20,-100 50,-40 50,-30" />
  </g>
  <g
     transform="translate(-1600,-2790)"
     id="g294"
     style="fill:#008484;fill-opacity:0;stroke:#008484;stroke-width:120;stroke-linecap:round;stroke-linejoin:round;stroke-opacity:1" />
  <g
     transform="translate(-1600,-2790)"
     id="g298"
     style="fill:#840000;fill-opacity:0;stroke:#840000;stroke-width:120;stroke-linecap:round;stroke-linejoin:round;stroke-opacity:1">
    <text
       id="text296"
       opacity="0"
       text-anchor="middle"
       lengthAdjust="spacingAndGlyphs"
       font-size="660px"
       textLength="1530"
       y="12710"
       x="13160">2B1</text>
  </g>
  <g
     transform="translate(-1600,-2790)"
     id="g308"
     style="fill:#840000;fill-opacity:0;stroke:#840000;stroke-width:80;stroke-linecap:round;stroke-linejoin:round;stroke-opacity:1">
    <path
       id="path300"
       d="m 12520,12230 30,-20 50,-30 h 110 l 50,30 30,20 20,50 v 40 l -20,80 -290,280 h 310" />
    <path
       id="path302"
       d="m 13190,12420 70,20 30,30 20,40 v 80 l -20,40 -30,30 -50,20 h -190 v -500 h 170 l 50,30 20,20 30,50 v 40 l -30,50 -20,30 -50,20 h -170" />
    <path
       id="path304"
       d="m 13790,12680 h -290" />
    <path
       id="path306"
       d="m 13640,12680 v -500 l -40,70 -50,50 -50,20" />
  </g>
  <g
     transform="translate(-1600,-2790)"
     id="g312"
     style="fill:#840000;fill-opacity:0;stroke:#840000;stroke-width:120;stroke-linecap:round;stroke-linejoin:round;stroke-opacity:1">
    <path
       id="path310"
       d="m 12160,6850 h 2000" />
  </g>
  <g
     transform="translate(-1600,-2790)"
     id="g316"
     style="fill:#008484;fill-opacity:0;stroke:#008484;stroke-width:120;stroke-linecap:round;stroke-linejoin:round;stroke-opacity:1">
    <text
       id="text314"
       opacity="0"
       text-anchor="end"
       lengthAdjust="spacingAndGlyphs"
       font-size="660px"
       textLength="2100"
       y="7100"
       x="11960">PERM</text>
  </g>
  <g
     transform="translate(-1600,-2790)"
     id="g330"
     style="fill:#008484;fill-opacity:0;stroke:#008484;stroke-width:80;stroke-linecap:round;stroke-linejoin:round;stroke-opacity:1">
    <path
       id="path318"
       d="m 10010,7070 v -500 h 190 l 50,30 20,20 30,50 v 70 l -30,50 -20,20 -50,20 h -190" />
    <path
       id="path320"
       d="m 10510,6810 h 170" />
    <path
       id="path322"
       d="m 10750,7070 h -240 v -500 h 240" />
    <path
       id="path324"
       d="m 11250,7070 -170,-240" />
    <path
       id="path326"
       d="m 10960,7070 v -500 h 190 l 50,30 20,20 30,50 v 70 l -30,50 -20,20 -50,20 h -190" />
    <path
       id="path328"
       d="m 11460,7070 v -500 l 170,360 170,-360 v 500" />
  </g>
  <g
     transform="translate(-1600,-2790)"
     id="g332"
     style="fill:#008484;fill-opacity:0;stroke:#008484;stroke-width:120;stroke-linecap:round;stroke-linejoin:round;stroke-opacity:1" />
  <g
     transform="translate(-1600,-2790)"
     id="g336"
     style="fill:#840000;fill-opacity:0;stroke:#840000;stroke-width:120;stroke-linecap:round;stroke-linejoin:round;stroke-opacity:1">
    <text
       id="text334"
       opacity="0"
       text-anchor="middle"
       lengthAdjust="spacingAndGlyphs"
       font-size="660px"
       textLength="1560"
       y="6710"
       x="13160">2H2</text>
  </g>
  <g
     transform="translate(-1600,-2790)"
     id="g348"
     style="fill:#840000;fill-opacity:0;stroke:#840000;stroke-width:80;stroke-linecap:round;stroke-linejoin:round;stroke-opacity:1">
    <path
       id="path338"
       d="m 12510,6230 30,-20 40,-30 h 120 l 50,30 20,20 30,50 v 40 l -30,80 -280,280 h 310" />
    <path
       id="path340"
       d="M 13010,6680 V 6180" />
    <path
       id="path342"
       d="m 13010,6420 h 290" />
    <path
       id="path344"
       d="M 13300,6680 V 6180" />
    <path
       id="path346"
       d="m 13510,6230 30,-20 40,-30 h 120 l 50,30 20,20 30,50 v 40 l -30,80 -280,280 h 310" />
  </g>
  <g
     transform="translate(-1600,-2790)"
     id="g352"
     style="fill:#840000;fill-opacity:0;stroke:#840000;stroke-width:120;stroke-linecap:round;stroke-linejoin:round;stroke-opacity:1">
    <path
       id="path350"
       d="m 12160,14350 h 2000" />
  </g>
  <g
     transform="translate(-1600,-2790)"
     id="g356"
     style="fill:#008484;fill-opacity:0;stroke:#008484;stroke-width:120;stroke-linecap:round;stroke-linejoin:round;stroke-opacity:1">
    <text
       id="text354"
       opacity="0"
       text-anchor="end"
       lengthAdjust="spacingAndGlyphs"
       font-size="660px"
       textLength="7320"
       y="14600"
       x="11960">CAN_CHADEMO_GND</text>
  </g>
  <g
     transform="translate(-1600,-2790)"
     id="g398"
     style="fill:#008484;fill-opacity:0;stroke:#008484;stroke-width:80;stroke-linecap:round;stroke-linejoin:round;stroke-opacity:1">
    <path
       id="path358"
       d="m 5080,14520 -20,30 -70,20 h -50 l -70,-20 -50,-50 -20,-50 -30,-90 v -70 l 30,-100 20,-50 50,-40 70,-30 h 50 l 70,30 20,20" />
    <path
       id="path360"
       d="m 5270,14430 h 240" />
    <path
       id="path362"
       d="m 5220,14570 170,-500 170,500" />
    <path
       id="path364"
       d="m 5720,14570 v -500 l 290,500 v -500" />
    <path
       id="path366"
       d="m 6130,14620 h 380" />
    <path
       id="path368"
       d="m 6920,14520 -30,30 -70,20 h -50 l -70,-20 -50,-50 -20,-50 -20,-90 v -70 l 20,-100 20,-50 50,-40 70,-30 h 50 l 70,30 30,20" />
    <path
       id="path370"
       d="m 7130,14570 v -500" />
    <path
       id="path372"
       d="m 7130,14310 h 290" />
    <path
       id="path374"
       d="m 7420,14570 v -500" />
    <path
       id="path376"
       d="m 7630,14430 h 240" />
    <path
       id="path378"
       d="m 7580,14570 170,-500 170,500" />
    <path
       id="path380"
       d="m 8080,14570 v -500 h 120 l 70,30 50,40 20,50 30,100 v 70 l -30,90 -20,50 -50,50 -70,20 h -120" />
    <path
       id="path382"
       d="m 8580,14310 h 170" />
    <path
       id="path384"
       d="m 8820,14570 h -240 v -500 h 240" />
    <path
       id="path386"
       d="m 9030,14570 v -500 l 170,360 170,-360 v 500" />
    <path
       id="path388"
       d="m 9700,14070 h 100 l 40,30 50,40 30,100 v 160 l -30,100 -50,50 -40,20 h -100 l -50,-20 -40,-50 -30,-100 v -160 l 30,-100 40,-40 50,-30" />
    <path
       id="path390"
       d="m 10010,14620 h 380" />
    <path
       id="path392"
       d="m 10770,14100 -50,-30 h -70 l -70,30 -50,40 -20,50 -20,100 v 70 l 20,90 20,50 50,50 70,20 h 50 l 70,-20 30,-30 v -160 h -100" />
    <path
       id="path394"
       d="m 11010,14570 v -500 l 290,500 v -500" />
    <path
       id="path396"
       d="m 11530,14570 v -500 h 120 l 70,30 50,40 30,50 20,100 v 70 l -20,90 -30,50 -50,50 -70,20 h -120" />
  </g>
  <g
     transform="translate(-1600,-2790)"
     id="g400"
     style="fill:#008484;fill-opacity:0;stroke:#008484;stroke-width:120;stroke-linecap:round;stroke-linejoin:round;stroke-opacity:1" />
  <g
     transform="translate(-1600,-2790)"
     id="g404"
     style="fill:#840000;fill-opacity:0;stroke:#840000;stroke-width:120;stroke-linecap:round;stroke-linejoin:round;stroke-opacity:1">
    <text
       id="text402"
       opacity="0"
       text-anchor="middle"
       lengthAdjust="spacingAndGlyphs"
       font-size="660px"
       textLength="1530"
       y="14210"
       x="13160">3B1</text>
  </g>
  <g
     transform="translate(-1600,-2790)"
     id="g414"
     style="fill:#840000;fill-opacity:0;stroke:#840000;stroke-width:80;stroke-linecap:round;stroke-linejoin:round;stroke-opacity:1">
    <path
       id="path406"
       d="m 12500,13680 h 310 l -170,190 h 70 l 50,30 30,20 20,50 v 120 l -20,40 -30,30 -50,20 h -140 l -50,-20 -20,-30" />
    <path
       id="path408"
       d="m 13190,13920 70,20 30,30 20,40 v 80 l -20,40 -30,30 -50,20 h -190 v -500 h 170 l 50,30 20,20 30,50 v 40 l -30,50 -20,30 -50,20 h -170" />
    <path
       id="path410"
       d="m 13790,14180 h -290" />
    <path
       id="path412"
       d="m 13640,14180 v -500 l -40,70 -50,50 -50,20" />
  </g>
  <g
     transform="translate(-1600,-2790)"
     id="g418"
     style="fill:#840000;fill-opacity:0;stroke:#840000;stroke-width:120;stroke-linecap:round;stroke-linejoin:round;stroke-opacity:1">
    <path
       id="path416"
       d="m 12160,3850 h 2000" />
  </g>
  <g
     transform="translate(-1600,-2790)"
     id="g422"
     style="fill:#008484;fill-opacity:0;stroke:#008484;stroke-width:120;stroke-linecap:round;stroke-linejoin:round;stroke-opacity:1">
    <text
       id="text420"
       opacity="0"
       text-anchor="end"
       lengthAdjust="spacingAndGlyphs"
       font-size="660px"
       textLength="2010"
       y="4100"
       x="11960">SEQ1</text>
  </g>
  <g
     transform="translate(-1600,-2790)"
     id="g438"
     style="fill:#008484;fill-opacity:0;stroke:#008484;stroke-width:80;stroke-linecap:round;stroke-linejoin:round;stroke-opacity:1">
    <path
       id="path424"
       d="m 10080,4050 70,20 h 120 l 50,-20 20,-30 30,-40 v -50 l -30,-50 -20,-20 -50,-30 -90,-20 -50,-20 -20,-30 -30,-50 v -40 l 30,-50 20,-20 50,-30 h 120 l 70,30" />
    <path
       id="path426"
       d="m 10580,3810 h 170" />
    <path
       id="path428"
       d="m 10820,4070 h -240 v -500 h 240" />
    <path
       id="path430"
       d="m 11370,4120 -50,-20 -50,-50 -70,-70 -50,-30 h -40" />
    <path
       id="path432"
       d="m 11130,4070 -50,-20 -50,-50 -20,-100 v -160 l 20,-100 50,-40 50,-30 h 90 l 50,30 50,40 20,100 v 160 l -20,100 -50,50 -50,20 h -90" />
    <path
       id="path434"
       d="m 11820,4070 h -290" />
    <path
       id="path436"
       d="m 11680,4070 v -500 l -50,70 -50,50 -50,20" />
  </g>
  <g
     transform="translate(-1600,-2790)"
     id="g440"
     style="fill:#008484;fill-opacity:0;stroke:#008484;stroke-width:120;stroke-linecap:round;stroke-linejoin:round;stroke-opacity:1" />
  <g
     transform="translate(-1600,-2790)"
     id="g444"
     style="fill:#840000;fill-opacity:0;stroke:#840000;stroke-width:120;stroke-linecap:round;stroke-linejoin:round;stroke-opacity:1">
    <text
       id="text442"
       opacity="0"
       text-anchor="middle"
       lengthAdjust="spacingAndGlyphs"
       font-size="660px"
       textLength="1530"
       y="3710"
       x="13160">3G2</text>
  </g>
  <g
     transform="translate(-1600,-2790)"
     id="g452"
     style="fill:#840000;fill-opacity:0;stroke:#840000;stroke-width:80;stroke-linecap:round;stroke-linejoin:round;stroke-opacity:1">
    <path
       id="path446"
       d="m 12500,3180 h 310 l -170,190 h 70 l 50,30 30,20 20,50 v 120 l -20,40 -30,30 -50,20 h -140 l -50,-20 -20,-30" />
    <path
       id="path448"
       d="m 13290,3210 -50,-30 h -70 l -70,30 -50,40 -30,50 -20,100 v 70 l 20,90 30,50 50,50 70,20 h 40 l 80,-20 20,-30 v -160 h -100" />
    <path
       id="path450"
       d="m 13500,3230 20,-20 50,-30 h 120 l 50,30 20,20 30,50 v 40 l -30,80 -280,280 h 310" />
  </g>
  <g
     transform="translate(-1600,-2790)"
     id="g456"
     style="fill:#840000;fill-opacity:0;stroke:#840000;stroke-width:120;stroke-linecap:round;stroke-linejoin:round;stroke-opacity:1">
    <path
       id="path454"
       d="m 12160,8350 h 2000" />
  </g>
  <g
     transform="translate(-1600,-2790)"
     id="g460"
     style="fill:#008484;fill-opacity:0;stroke:#008484;stroke-width:120;stroke-linecap:round;stroke-linejoin:round;stroke-opacity:1">
    <text
       id="text458"
       opacity="0"
       text-anchor="end"
       lengthAdjust="spacingAndGlyphs"
       font-size="660px"
       textLength="2320"
       y="8600"
       x="11960">PROXI</text>
  </g>
  <g
     transform="translate(-1600,-2790)"
     id="g476"
     style="fill:#008484;fill-opacity:0;stroke:#008484;stroke-width:80;stroke-linecap:round;stroke-linejoin:round;stroke-opacity:1">
    <path
       id="path462"
       d="m 9800,8570 v -500 h 190 l 40,30 30,20 20,50 v 70 l -20,50 -30,20 -40,20 h -190" />
    <path
       id="path464"
       d="m 10580,8570 -160,-240" />
    <path
       id="path466"
       d="m 10300,8570 v -500 h 190 l 40,30 30,20 20,50 v 70 l -20,50 -30,20 -40,20 h -190" />
    <path
       id="path468"
       d="m 10890,8070 h 100 l 40,30 50,40 30,100 v 160 l -30,100 -50,50 -40,20 h -100 l -50,-20 -40,-50 -30,-100 v -160 l 30,-100 40,-40 50,-30" />
    <path
       id="path470"
       d="m 11270,8070 340,500" />
    <path
       id="path472"
       d="m 11610,8070 -340,500" />
    <path
       id="path474"
       d="M 11800,8570 V 8070" />
  </g>
  <g
     transform="translate(-1600,-2790)"
     id="g478"
     style="fill:#008484;fill-opacity:0;stroke:#008484;stroke-width:120;stroke-linecap:round;stroke-linejoin:round;stroke-opacity:1" />
  <g
     transform="translate(-1600,-2790)"
     id="g482"
     style="fill:#840000;fill-opacity:0;stroke:#840000;stroke-width:120;stroke-linecap:round;stroke-linejoin:round;stroke-opacity:1">
    <text
       id="text480"
       opacity="0"
       text-anchor="middle"
       lengthAdjust="spacingAndGlyphs"
       font-size="660px"
       textLength="1560"
       y="8210"
       x="13160">3H2</text>
  </g>
  <g
     transform="translate(-1600,-2790)"
     id="g494"
     style="fill:#840000;fill-opacity:0;stroke:#840000;stroke-width:80;stroke-linecap:round;stroke-linejoin:round;stroke-opacity:1">
    <path
       id="path484"
       d="m 12490,7680 h 310 l -170,190 h 70 l 50,30 20,20 30,50 v 120 l -30,40 -20,30 -50,20 h -140 l -50,-20 -20,-30" />
    <path
       id="path486"
       d="M 13010,8180 V 7680" />
    <path
       id="path488"
       d="m 13010,7920 h 290" />
    <path
       id="path490"
       d="M 13300,8180 V 7680" />
    <path
       id="path492"
       d="m 13510,7730 30,-20 40,-30 h 120 l 50,30 20,20 30,50 v 40 l -30,80 -280,280 h 310" />
  </g>
  <g
     transform="translate(-1600,-2790)"
     id="g496"
     style="fill:#840000;fill-opacity:0;stroke:#840000;stroke-width:120;stroke-linecap:round;stroke-linejoin:round;stroke-opacity:1" />
  <g
     transform="translate(-1600,-2790)"
     id="g498"
     style="fill:#840084;fill-opacity:0;stroke:#840084;stroke-width:120;stroke-linecap:round;stroke-linejoin:round;stroke-opacity:1" />
  <g
     transform="translate(-1600,-2790)"
     id="g500"
     style="fill:#008484;fill-opacity:0;stroke:#008484;stroke-width:120;stroke-linecap:round;stroke-linejoin:round;stroke-opacity:1" />
</svg>
