<?xml version="1.0" encoding="UTF-8" standalone="no"?>
<svg
   xmlns:dc="http://purl.org/dc/elements/1.1/"
   xmlns:cc="http://creativecommons.org/ns#"
   xmlns:rdf="http://www.w3.org/1999/02/22-rdf-syntax-ns#"
   xmlns:svg="http://www.w3.org/2000/svg"
   xmlns="http://www.w3.org/2000/svg"
   xmlns:sodipodi="http://sodipodi.sourceforge.net/DTD/sodipodi-0.dtd"
   xmlns:inkscape="http://www.inkscape.org/namespaces/inkscape"
   inkscape:version="1.0 (4035a4fb49, 2020-05-01)"
   sodipodi:docname="ADM-CS-EVCC_multipart_dig.svg"
   id="svg494"
   viewBox="0 0 12619.999 10119.999"
   height="2.5704799cm"
   width="3.2054799cm"
   version="1.1">
  <metadata
     id="metadata500">
    <rdf:RDF>
      <cc:Work
         rdf:about="">
        <dc:format>image/svg+xml</dc:format>
        <dc:type
           rdf:resource="http://purl.org/dc/dcmitype/StillImage" />
      </cc:Work>
    </rdf:RDF>
  </metadata>
  <defs
     id="defs498" />
  <sodipodi:namedview
     inkscape:current-layer="svg494"
     inkscape:window-maximized="0"
     inkscape:window-y="0"
     inkscape:window-x="0"
     inkscape:cy="-31.386353"
     inkscape:cx="48.624001"
     inkscape:zoom="5.002354"
     showgrid="false"
     id="namedview496"
     inkscape:window-height="480"
     inkscape:window-width="705"
     inkscape:pageshadow="2"
     inkscape:pageopacity="0"
     guidetolerance="10"
     gridtolerance="10"
     objecttolerance="10"
     borderopacity="1"
     bordercolor="#666666"
     pagecolor="#ffffff" />
  <title
     id="title2">SVG Picture created as ADM-CS-EVCC_multipart_dig.svg date 2020/09/04 16:19:50 </title>
  <desc
     id="desc4">Picture generated by Eeschema-SVG </desc>
  <g
     transform="translate(-2600,-3790)"
     id="g6"
     style="fill:#000000;fill-opacity:1;stroke:#000000;stroke-linecap:round;stroke-linejoin:round;stroke-opacity:1" />
  <g
     transform="translate(-2600,-3790)"
     id="g8"
     style="fill:#840000;fill-opacity:0;stroke:#840000;stroke-width:-10;stroke-linecap:round;stroke-linejoin:round;stroke-opacity:1" />
  <g
     transform="translate(-2600,-3790)"
     id="g10"
     style="fill:#ffffc2;fill-opacity:0;stroke:#ffffc2;stroke-width:-10;stroke-linecap:round;stroke-linejoin:round;stroke-opacity:1" />
  <g
     transform="translate(-2600,-3790)"
     id="g14"
     style="fill:#ffffc2;fill-opacity:0.6;stroke:#ffffc2;stroke-width:0;stroke-linecap:round;stroke-linejoin:round;stroke-opacity:1">
    <rect
       id="rect12"
       rx="0"
       height="10000"
       width="10500"
       y="3850"
       x="2660" />
  </g>
  <g
     transform="translate(-2600,-3790)"
     id="g16"
     style="fill:#840000;fill-opacity:0.6;stroke:#840000;stroke-width:0;stroke-linecap:round;stroke-linejoin:round;stroke-opacity:1" />
  <g
     transform="translate(-2600,-3790)"
     id="g20"
     style="fill:#840000;fill-opacity:0;stroke:#840000;stroke-width:120;stroke-linecap:round;stroke-linejoin:round;stroke-opacity:1">
    <rect
       id="rect18"
       rx="0"
       height="10000"
       width="10500"
       y="3850"
       x="2660" />
  </g>
  <g
     transform="translate(-2600,-3790)"
     id="g48"
     style="fill:#840000;fill-opacity:0;stroke:#840000;stroke-width:100;stroke-linecap:round;stroke-linejoin:round;stroke-opacity:1">
    <g
       id="g24"
       transform="rotate(-90,3680,9850)">
      <text
         id="text22"
         opacity="0"
         text-anchor="middle"
         lengthAdjust="spacingAndGlyphs"
         font-size="800px"
         textLength="4800"
         y="10150"
         x="3680">DIGITAL IO</text>
    </g>
    <path
       id="path26"
       d="m 3950,12060 -600,-70 v -150 l 30,-80 50,-50 60,-20 110,-10 90,10 110,40 60,30 60,70 30,90 v 140" />
    <path
       id="path28"
       d="m 3950,11460 -600,-70" />
    <path
       id="path30"
       d="m 3380,10790 -30,50 v 90 l 30,90 50,60 60,40 110,40 90,10 110,-10 60,-20 60,-50 30,-90 v -50 l -30,-90 -30,-30 -200,-30 v 110" />
    <path
       id="path32"
       d="m 3950,10580 -600,-80" />
    <path
       id="path34"
       d="M 3350,10300 V 9960" />
    <path
       id="path36"
       d="m 3950,10200 -600,-70" />
    <path
       id="path38"
       d="M 3780,9840 V 9550" />
    <path
       id="path40"
       d="m 3950,9920 -600,-280 600,-120" />
    <path
       id="path42"
       d="m 3950,9030 v 290 l -600,-80" />
    <path
       id="path44"
       d="m 3950,8380 -600,-80" />
    <path
       id="path46"
       d="m 3350,7900 v -110 l 30,-60 50,-50 120,-10 200,20 110,50 60,60 30,60 v 120 l -30,50 -60,50 -110,10 -200,-20 -120,-40 -50,-70 -30,-60" />
  </g>
  <g
     transform="translate(-2600,-3790)"
     id="g54"
     style="fill:#840000;fill-opacity:0;stroke:#840000;stroke-width:120;stroke-linecap:round;stroke-linejoin:round;stroke-opacity:1">
    <rect
       id="rect50"
       rx="0"
       height="10000"
       width="10500"
       y="3850"
       x="2660" />
    <path
       id="path52"
       d="m 13160,4850 h 2000" />
  </g>
  <g
     transform="translate(-2600,-3790)"
     id="g58"
     style="fill:#008484;fill-opacity:0;stroke:#008484;stroke-width:120;stroke-linecap:round;stroke-linejoin:round;stroke-opacity:1">
    <text
       id="text56"
       opacity="0"
       text-anchor="end"
       lengthAdjust="spacingAndGlyphs"
       font-size="660px"
       textLength="4410"
       y="5100"
       x="12960">DIGITAL_IN1</text>
  </g>
  <g
     transform="translate(-2600,-3790)"
     id="g88"
     style="fill:#008484;fill-opacity:0;stroke:#008484;stroke-width:80;stroke-linecap:round;stroke-linejoin:round;stroke-opacity:1">
    <path
       id="path60"
       d="m 8720,5070 v -500 h 120 l 80,30 40,40 30,50 20,100 v 70 l -20,90 -30,50 -40,50 -80,20 h -120" />
    <path
       id="path62"
       d="M 9220,5070 V 4570" />
    <path
       id="path64"
       d="m 9720,4600 -40,-30 h -70 l -80,30 -40,40 -30,50 -20,100 v 70 l 20,90 30,50 40,50 80,20 h 40 l 70,-20 30,-30 v -160 h -100" />
    <path
       id="path66"
       d="M 9960,5070 V 4570" />
    <path
       id="path68"
       d="m 10130,4570 h 290" />
    <path
       id="path70"
       d="M 10270,5070 V 4570" />
    <path
       id="path72"
       d="m 10560,4930 h 240" />
    <path
       id="path74"
       d="m 10510,5070 170,-500 160,500" />
    <path
       id="path76"
       d="m 11250,5070 h -240 v -500" />
    <path
       id="path78"
       d="m 11300,5120 h 380" />
    <path
       id="path80"
       d="M 11800,5070 V 4570" />
    <path
       id="path82"
       d="m 12030,5070 v -500 l 290,500 v -500" />
    <path
       id="path84"
       d="m 12820,5070 h -290" />
    <path
       id="path86"
       d="m 12680,5070 v -500 l -50,70 -50,50 -50,20" />
  </g>
  <g
     transform="translate(-2600,-3790)"
     id="g90"
     style="fill:#008484;fill-opacity:0;stroke:#008484;stroke-width:120;stroke-linecap:round;stroke-linejoin:round;stroke-opacity:1" />
  <g
     transform="translate(-2600,-3790)"
     id="g94"
     style="fill:#840000;fill-opacity:0;stroke:#840000;stroke-width:120;stroke-linecap:round;stroke-linejoin:round;stroke-opacity:1">
    <text
       id="text92"
       opacity="0"
       text-anchor="middle"
       lengthAdjust="spacingAndGlyphs"
       font-size="660px"
       textLength="1530"
       y="4710"
       x="14160">1G2</text>
  </g>
  <g
     transform="translate(-2600,-3790)"
     id="g104"
     style="fill:#840000;fill-opacity:0;stroke:#840000;stroke-width:80;stroke-linecap:round;stroke-linejoin:round;stroke-opacity:1">
    <path
       id="path96"
       d="m 13810,4680 h -290" />
    <path
       id="path98"
       d="m 13670,4680 v -500 l -50,70 -50,50 -50,20" />
    <path
       id="path100"
       d="m 14290,4210 -50,-30 h -70 l -70,30 -50,40 -30,50 -20,100 v 70 l 20,90 30,50 50,50 70,20 h 40 l 80,-20 20,-30 v -160 h -100" />
    <path
       id="path102"
       d="m 14500,4230 20,-20 50,-30 h 120 l 50,30 20,20 30,50 v 40 l -30,80 -280,280 h 310" />
  </g>
  <g
     transform="translate(-2600,-3790)"
     id="g108"
     style="fill:#840000;fill-opacity:0;stroke:#840000;stroke-width:120;stroke-linecap:round;stroke-linejoin:round;stroke-opacity:1">
    <path
       id="path106"
       d="m 13160,8350 h 2000" />
  </g>
  <g
     transform="translate(-2600,-3790)"
     id="g112"
     style="fill:#008484;fill-opacity:0;stroke:#008484;stroke-width:120;stroke-linecap:round;stroke-linejoin:round;stroke-opacity:1">
    <text
       id="text110"
       opacity="0"
       text-anchor="end"
       lengthAdjust="spacingAndGlyphs"
       font-size="660px"
       textLength="5060"
       y="8600"
       x="12960">DIGITAL_OUT1</text>
  </g>
  <g
     transform="translate(-2600,-3790)"
     id="g146"
     style="fill:#008484;fill-opacity:0;stroke:#008484;stroke-width:80;stroke-linecap:round;stroke-linejoin:round;stroke-opacity:1">
    <path
       id="path114"
       d="m 8060,8570 v -500 h 120 l 70,30 50,40 20,50 20,100 v 70 l -20,90 -20,50 -50,50 -70,20 h -120" />
    <path
       id="path116"
       d="M 8560,8570 V 8070" />
    <path
       id="path118"
       d="m 9060,8100 -50,-30 h -70 l -70,30 -50,40 -20,50 -30,100 v 70 l 30,90 20,50 50,50 70,20 h 50 l 70,-20 20,-30 v -160 h -90" />
    <path
       id="path120"
       d="M 9300,8570 V 8070" />
    <path
       id="path122"
       d="m 9460,8070 h 290" />
    <path
       id="path124"
       d="M 9610,8570 V 8070" />
    <path
       id="path126"
       d="m 9890,8430 h 240" />
    <path
       id="path128"
       d="m 9840,8570 170,-500 170,500" />
    <path
       id="path130"
       d="m 10580,8570 h -240 v -500" />
    <path
       id="path132"
       d="m 10630,8620 h 380" />
    <path
       id="path134"
       d="m 11220,8070 h 100 l 50,30 50,40 20,100 v 160 l -20,100 -50,50 -50,20 h -100 l -40,-20 -50,-50 -20,-100 v -160 l 20,-100 50,-40 40,-30" />
    <path
       id="path136"
       d="m 11650,8070 v 410 l 30,40 20,30 50,20 h 90 l 50,-20 20,-30 30,-40 v -410" />
    <path
       id="path138"
       d="m 12110,8070 h 280" />
    <path
       id="path140"
       d="M 12250,8570 V 8070" />
    <path
       id="path142"
       d="m 12820,8570 h -290" />
    <path
       id="path144"
       d="m 12680,8570 v -500 l -50,70 -50,50 -50,20" />
  </g>
  <g
     transform="translate(-2600,-3790)"
     id="g148"
     style="fill:#008484;fill-opacity:0;stroke:#008484;stroke-width:120;stroke-linecap:round;stroke-linejoin:round;stroke-opacity:1" />
  <g
     transform="translate(-2600,-3790)"
     id="g152"
     style="fill:#840000;fill-opacity:0;stroke:#840000;stroke-width:120;stroke-linecap:round;stroke-linejoin:round;stroke-opacity:1">
    <text
       id="text150"
       opacity="0"
       text-anchor="middle"
       lengthAdjust="spacingAndGlyphs"
       font-size="660px"
       textLength="1530"
       y="8210"
       x="14160">1K2</text>
  </g>
  <g
     transform="translate(-2600,-3790)"
     id="g166"
     style="fill:#840000;fill-opacity:0;stroke:#840000;stroke-width:80;stroke-linecap:round;stroke-linejoin:round;stroke-opacity:1">
    <path
       id="path154"
       d="m 13810,8180 h -290" />
    <path
       id="path156"
       d="m 13670,8180 v -500 l -50,70 -50,50 -50,20" />
    <path
       id="path158"
       d="M 14020,8180 V 7680" />
    <path
       id="path160"
       d="m 14310,8180 -210,-280" />
    <path
       id="path162"
       d="m 14310,7680 -290,290" />
    <path
       id="path164"
       d="m 14500,7730 20,-20 50,-30 h 120 l 50,30 20,20 30,50 v 40 l -30,80 -280,280 h 310" />
  </g>
  <g
     transform="translate(-2600,-3790)"
     id="g170"
     style="fill:#840000;fill-opacity:0;stroke:#840000;stroke-width:120;stroke-linecap:round;stroke-linejoin:round;stroke-opacity:1">
    <path
       id="path168"
       d="m 13160,6350 h 2000" />
  </g>
  <g
     transform="translate(-2600,-3790)"
     id="g174"
     style="fill:#008484;fill-opacity:0;stroke:#008484;stroke-width:120;stroke-linecap:round;stroke-linejoin:round;stroke-opacity:1">
    <text
       id="text172"
       opacity="0"
       text-anchor="end"
       lengthAdjust="spacingAndGlyphs"
       font-size="660px"
       textLength="4390"
       y="6600"
       x="12960">DIGITAL_IN2</text>
  </g>
  <g
     transform="translate(-2600,-3790)"
     id="g202"
     style="fill:#008484;fill-opacity:0;stroke:#008484;stroke-width:80;stroke-linecap:round;stroke-linejoin:round;stroke-opacity:1">
    <path
       id="path176"
       d="m 8720,6570 v -500 h 120 l 80,30 40,40 30,50 20,100 v 70 l -20,90 -30,50 -40,50 -80,20 h -120" />
    <path
       id="path178"
       d="M 9220,6570 V 6070" />
    <path
       id="path180"
       d="m 9720,6100 -40,-30 h -70 l -80,30 -40,40 -30,50 -20,100 v 70 l 20,90 30,50 40,50 80,20 h 40 l 70,-20 30,-30 v -160 h -100" />
    <path
       id="path182"
       d="M 9960,6570 V 6070" />
    <path
       id="path184"
       d="m 10130,6070 h 290" />
    <path
       id="path186"
       d="M 10270,6570 V 6070" />
    <path
       id="path188"
       d="m 10560,6430 h 240" />
    <path
       id="path190"
       d="m 10510,6570 170,-500 160,500" />
    <path
       id="path192"
       d="m 11250,6570 h -240 v -500" />
    <path
       id="path194"
       d="m 11300,6620 h 380" />
    <path
       id="path196"
       d="M 11800,6570 V 6070" />
    <path
       id="path198"
       d="m 12030,6570 v -500 l 290,500 v -500" />
    <path
       id="path200"
       d="m 12530,6120 30,-20 50,-30 h 110 l 50,30 30,20 20,50 v 40 l -20,80 -290,280 h 310" />
  </g>
  <g
     transform="translate(-2600,-3790)"
     id="g204"
     style="fill:#008484;fill-opacity:0;stroke:#008484;stroke-width:120;stroke-linecap:round;stroke-linejoin:round;stroke-opacity:1" />
  <g
     transform="translate(-2600,-3790)"
     id="g208"
     style="fill:#840000;fill-opacity:0;stroke:#840000;stroke-width:120;stroke-linecap:round;stroke-linejoin:round;stroke-opacity:1">
    <text
       id="text206"
       opacity="0"
       text-anchor="middle"
       lengthAdjust="spacingAndGlyphs"
       font-size="660px"
       textLength="1530"
       y="6210"
       x="14160">2G2</text>
  </g>
  <g
     transform="translate(-2600,-3790)"
     id="g216"
     style="fill:#840000;fill-opacity:0;stroke:#840000;stroke-width:80;stroke-linecap:round;stroke-linejoin:round;stroke-opacity:1">
    <path
       id="path210"
       d="m 13520,5730 30,-20 50,-30 h 110 l 50,30 30,20 20,50 v 40 l -20,80 -290,280 h 310" />
    <path
       id="path212"
       d="m 14290,5710 -50,-30 h -70 l -70,30 -50,40 -30,50 -20,100 v 70 l 20,90 30,50 50,50 70,20 h 40 l 80,-20 20,-30 v -160 h -100" />
    <path
       id="path214"
       d="m 14500,5730 20,-20 50,-30 h 120 l 50,30 20,20 30,50 v 40 l -30,80 -280,280 h 310" />
  </g>
  <g
     transform="translate(-2600,-3790)"
     id="g220"
     style="fill:#840000;fill-opacity:0;stroke:#840000;stroke-width:120;stroke-linecap:round;stroke-linejoin:round;stroke-opacity:1">
    <path
       id="path218"
       d="m 13160,9850 h 2000" />
  </g>
  <g
     transform="translate(-2600,-3790)"
     id="g224"
     style="fill:#008484;fill-opacity:0;stroke:#008484;stroke-width:120;stroke-linecap:round;stroke-linejoin:round;stroke-opacity:1">
    <text
       id="text222"
       opacity="0"
       text-anchor="end"
       lengthAdjust="spacingAndGlyphs"
       font-size="660px"
       textLength="5060"
       y="10100"
       x="12960">DIGITAL_OUT2</text>
  </g>
  <g
     transform="translate(-2600,-3790)"
     id="g256"
     style="fill:#008484;fill-opacity:0;stroke:#008484;stroke-width:80;stroke-linecap:round;stroke-linejoin:round;stroke-opacity:1">
    <path
       id="path226"
       d="m 8060,10070 v -500 h 120 l 70,30 50,40 20,50 20,100 v 70 l -20,90 -20,50 -50,50 -70,20 h -120" />
    <path
       id="path228"
       d="M 8560,10070 V 9570" />
    <path
       id="path230"
       d="m 9060,9600 -50,-30 h -70 l -70,30 -50,40 -20,50 -30,100 v 70 l 30,90 20,50 50,50 70,20 h 50 l 70,-20 20,-30 v -160 h -90" />
    <path
       id="path232"
       d="M 9300,10070 V 9570" />
    <path
       id="path234"
       d="m 9460,9570 h 290" />
    <path
       id="path236"
       d="M 9610,10070 V 9570" />
    <path
       id="path238"
       d="m 9890,9930 h 240" />
    <path
       id="path240"
       d="m 9840,10070 170,-500 170,500" />
    <path
       id="path242"
       d="m 10580,10070 h -240 v -500" />
    <path
       id="path244"
       d="m 10630,10120 h 380" />
    <path
       id="path246"
       d="m 11220,9570 h 100 l 50,30 50,40 20,100 v 160 l -20,100 -50,50 -50,20 h -100 l -40,-20 -50,-50 -20,-100 v -160 l 20,-100 50,-40 40,-30" />
    <path
       id="path248"
       d="m 11650,9570 v 410 l 30,40 20,30 50,20 h 90 l 50,-20 20,-30 30,-40 v -410" />
    <path
       id="path250"
       d="m 12110,9570 h 280" />
    <path
       id="path252"
       d="M 12250,10070 V 9570" />
    <path
       id="path254"
       d="m 12530,9620 30,-20 50,-30 h 110 l 50,30 30,20 20,50 v 40 l -20,80 -290,280 h 310" />
  </g>
  <g
     transform="translate(-2600,-3790)"
     id="g258"
     style="fill:#008484;fill-opacity:0;stroke:#008484;stroke-width:120;stroke-linecap:round;stroke-linejoin:round;stroke-opacity:1" />
  <g
     transform="translate(-2600,-3790)"
     id="g262"
     style="fill:#840000;fill-opacity:0;stroke:#840000;stroke-width:120;stroke-linecap:round;stroke-linejoin:round;stroke-opacity:1">
    <text
       id="text260"
       opacity="0"
       text-anchor="middle"
       lengthAdjust="spacingAndGlyphs"
       font-size="660px"
       textLength="1530"
       y="9710"
       x="14160">2K2</text>
  </g>
  <g
     transform="translate(-2600,-3790)"
     id="g274"
     style="fill:#840000;fill-opacity:0;stroke:#840000;stroke-width:80;stroke-linecap:round;stroke-linejoin:round;stroke-opacity:1">
    <path
       id="path264"
       d="m 13520,9230 30,-20 50,-30 h 110 l 50,30 30,20 20,50 v 40 l -20,80 -290,280 h 310" />
    <path
       id="path266"
       d="M 14020,9680 V 9180" />
    <path
       id="path268"
       d="m 14310,9680 -210,-280" />
    <path
       id="path270"
       d="m 14310,9180 -290,290" />
    <path
       id="path272"
       d="m 14500,9230 20,-20 50,-30 h 120 l 50,30 20,20 30,50 v 40 l -30,80 -280,280 h 310" />
  </g>
  <g
     transform="translate(-2600,-3790)"
     id="g278"
     style="fill:#840000;fill-opacity:0;stroke:#840000;stroke-width:120;stroke-linecap:round;stroke-linejoin:round;stroke-opacity:1">
    <path
       id="path276"
       d="m 13160,12850 h 2000" />
  </g>
  <g
     transform="translate(-2600,-3790)"
     id="g282"
     style="fill:#008484;fill-opacity:0;stroke:#008484;stroke-width:120;stroke-linecap:round;stroke-linejoin:round;stroke-opacity:1">
    <text
       id="text280"
       opacity="0"
       text-anchor="end"
       lengthAdjust="spacingAndGlyphs"
       font-size="660px"
       textLength="4680"
       y="13100"
       x="12960">DIGITAL_GND</text>
  </g>
  <g
     transform="translate(-2600,-3790)"
     id="g310"
     style="fill:#008484;fill-opacity:0;stroke:#008484;stroke-width:80;stroke-linecap:round;stroke-linejoin:round;stroke-opacity:1">
    <path
       id="path284"
       d="m 8440,13070 v -500 h 120 l 70,30 50,40 20,50 20,100 v 70 l -20,90 -20,50 -50,50 -70,20 h -120" />
    <path
       id="path286"
       d="m 8940,13070 v -500" />
    <path
       id="path288"
       d="m 9440,12600 -50,-30 h -70 l -70,30 -50,40 -20,50 -30,100 v 70 l 30,90 20,50 50,50 70,20 h 50 l 70,-20 20,-30 v -160 h -90" />
    <path
       id="path290"
       d="m 9680,13070 v -500" />
    <path
       id="path292"
       d="m 9840,12570 h 290" />
    <path
       id="path294"
       d="m 9990,13070 v -500" />
    <path
       id="path296"
       d="m 10270,12930 h 240" />
    <path
       id="path298"
       d="m 10220,13070 170,-500 170,500" />
    <path
       id="path300"
       d="m 10960,13070 h -240 v -500" />
    <path
       id="path302"
       d="m 11010,13120 h 380" />
    <path
       id="path304"
       d="m 11770,12600 -50,-30 h -70 l -70,30 -50,40 -20,50 -20,100 v 70 l 20,90 20,50 50,50 70,20 h 50 l 70,-20 30,-30 v -160 h -100" />
    <path
       id="path306"
       d="m 12010,13070 v -500 l 290,500 v -500" />
    <path
       id="path308"
       d="m 12530,13070 v -500 h 120 l 70,30 50,40 30,50 20,100 v 70 l -20,90 -30,50 -50,50 -70,20 h -120" />
  </g>
  <g
     transform="translate(-2600,-3790)"
     id="g312"
     style="fill:#008484;fill-opacity:0;stroke:#008484;stroke-width:120;stroke-linecap:round;stroke-linejoin:round;stroke-opacity:1" />
  <g
     transform="translate(-2600,-3790)"
     id="g316"
     style="fill:#840000;fill-opacity:0;stroke:#840000;stroke-width:120;stroke-linecap:round;stroke-linejoin:round;stroke-opacity:1">
    <text
       id="text314"
       opacity="0"
       text-anchor="middle"
       lengthAdjust="spacingAndGlyphs"
       font-size="660px"
       textLength="1410"
       y="12710"
       x="14160">3J2</text>
  </g>
  <g
     transform="translate(-2600,-3790)"
     id="g324"
     style="fill:#840000;fill-opacity:0;stroke:#840000;stroke-width:80;stroke-linecap:round;stroke-linejoin:round;stroke-opacity:1">
    <path
       id="path318"
       d="m 13560,12180 h 310 l -170,190 h 70 l 50,30 30,20 20,50 v 120 l -20,40 -30,30 -50,20 h -140 l -50,-20 -20,-30" />
    <path
       id="path320"
       d="m 14230,12180 v 360 l -30,70 -40,50 -80,20 h -40" />
    <path
       id="path322"
       d="m 14440,12230 20,-20 50,-30 h 120 l 50,30 20,20 30,50 v 40 l -30,80 -280,280 h 310" />
  </g>
  <g
     transform="translate(-2600,-3790)"
     id="g328"
     style="fill:#840000;fill-opacity:0;stroke:#840000;stroke-width:120;stroke-linecap:round;stroke-linejoin:round;stroke-opacity:1">
    <path
       id="path326"
       d="m 13160,11350 h 2000" />
  </g>
  <g
     transform="translate(-2600,-3790)"
     id="g332"
     style="fill:#008484;fill-opacity:0;stroke:#008484;stroke-width:120;stroke-linecap:round;stroke-linejoin:round;stroke-opacity:1">
    <text
       id="text330"
       opacity="0"
       text-anchor="end"
       lengthAdjust="spacingAndGlyphs"
       font-size="660px"
       textLength="5060"
       y="11600"
       x="12960">DIGITAL_OUT3</text>
  </g>
  <g
     transform="translate(-2600,-3790)"
     id="g364"
     style="fill:#008484;fill-opacity:0;stroke:#008484;stroke-width:80;stroke-linecap:round;stroke-linejoin:round;stroke-opacity:1">
    <path
       id="path334"
       d="m 8060,11570 v -500 h 120 l 70,30 50,40 20,50 20,100 v 70 l -20,90 -20,50 -50,50 -70,20 h -120" />
    <path
       id="path336"
       d="m 8560,11570 v -500" />
    <path
       id="path338"
       d="m 9060,11100 -50,-30 h -70 l -70,30 -50,40 -20,50 -30,100 v 70 l 30,90 20,50 50,50 70,20 h 50 l 70,-20 20,-30 v -160 h -90" />
    <path
       id="path340"
       d="m 9300,11570 v -500" />
    <path
       id="path342"
       d="m 9460,11070 h 290" />
    <path
       id="path344"
       d="m 9610,11570 v -500" />
    <path
       id="path346"
       d="m 9890,11430 h 240" />
    <path
       id="path348"
       d="m 9840,11570 170,-500 170,500" />
    <path
       id="path350"
       d="m 10580,11570 h -240 v -500" />
    <path
       id="path352"
       d="m 10630,11620 h 380" />
    <path
       id="path354"
       d="m 11220,11070 h 100 l 50,30 50,40 20,100 v 160 l -20,100 -50,50 -50,20 h -100 l -40,-20 -50,-50 -20,-100 v -160 l 20,-100 50,-40 40,-30" />
    <path
       id="path356"
       d="m 11650,11070 v 410 l 30,40 20,30 50,20 h 90 l 50,-20 20,-30 30,-40 v -410" />
    <path
       id="path358"
       d="m 12110,11070 h 280" />
    <path
       id="path360"
       d="m 12250,11570 v -500" />
    <path
       id="path362"
       d="m 12510,11070 h 310 l -170,190 h 70 l 50,30 30,20 20,50 v 120 l -20,40 -30,30 -50,20 h -140 l -50,-20 -20,-30" />
  </g>
  <g
     transform="translate(-2600,-3790)"
     id="g366"
     style="fill:#008484;fill-opacity:0;stroke:#008484;stroke-width:120;stroke-linecap:round;stroke-linejoin:round;stroke-opacity:1" />
  <g
     transform="translate(-2600,-3790)"
     id="g370"
     style="fill:#840000;fill-opacity:0;stroke:#840000;stroke-width:120;stroke-linecap:round;stroke-linejoin:round;stroke-opacity:1">
    <text
       id="text368"
       opacity="0"
       text-anchor="middle"
       lengthAdjust="spacingAndGlyphs"
       font-size="660px"
       textLength="1530"
       y="11210"
       x="14160">3K2</text>
  </g>
  <g
     transform="translate(-2600,-3790)"
     id="g382"
     style="fill:#840000;fill-opacity:0;stroke:#840000;stroke-width:80;stroke-linecap:round;stroke-linejoin:round;stroke-opacity:1">
    <path
       id="path372"
       d="m 13500,10680 h 310 l -170,190 h 70 l 50,30 30,20 20,50 v 120 l -20,40 -30,30 -50,20 h -140 l -50,-20 -20,-30" />
    <path
       id="path374"
       d="m 14020,11180 v -500" />
    <path
       id="path376"
       d="m 14310,11180 -210,-280" />
    <path
       id="path378"
       d="m 14310,10680 -290,290" />
    <path
       id="path380"
       d="m 14500,10730 20,-20 50,-30 h 120 l 50,30 20,20 30,50 v 40 l -30,80 -280,280 h 310" />
  </g>
  <g
     transform="translate(-2600,-3790)"
     id="g384"
     style="fill:#840000;fill-opacity:0;stroke:#840000;stroke-width:120;stroke-linecap:round;stroke-linejoin:round;stroke-opacity:1" />
  <g
     transform="translate(-2600,-3790)"
     id="g386"
     style="fill:#840084;fill-opacity:0;stroke:#840084;stroke-width:120;stroke-linecap:round;stroke-linejoin:round;stroke-opacity:1" />
  <g
     transform="translate(-2600,-3790)"
     id="g388"
     style="fill:#008484;fill-opacity:0;stroke:#008484;stroke-width:120;stroke-linecap:round;stroke-linejoin:round;stroke-opacity:1" />
</svg>
