<?xml version="1.0" encoding="UTF-8" standalone="no"?>
<svg
   xmlns:dc="http://purl.org/dc/elements/1.1/"
   xmlns:cc="http://creativecommons.org/ns#"
   xmlns:rdf="http://www.w3.org/1999/02/22-rdf-syntax-ns#"
   xmlns:svg="http://www.w3.org/2000/svg"
   xmlns="http://www.w3.org/2000/svg"
   xmlns:sodipodi="http://sodipodi.sourceforge.net/DTD/sodipodi-0.dtd"
   xmlns:inkscape="http://www.inkscape.org/namespaces/inkscape"
   inkscape:version="1.0 (4035a4fb49, 2020-05-01)"
   sodipodi:docname="ADM-CS-EVCC_multipart_contactors.svg"
   id="svg556"
   viewBox="0 0 12619.999 12120"
   height="3.07848cm"
   width="3.2054799cm"
   version="1.1">
  <metadata
     id="metadata562">
    <rdf:RDF>
      <cc:Work
         rdf:about="">
        <dc:format>image/svg+xml</dc:format>
        <dc:type
           rdf:resource="http://purl.org/dc/dcmitype/StillImage" />
      </cc:Work>
    </rdf:RDF>
  </metadata>
  <defs
     id="defs560" />
  <sodipodi:namedview
     inkscape:current-layer="svg556"
     inkscape:window-maximized="0"
     inkscape:window-y="0"
     inkscape:window-x="0"
     inkscape:cy="-5.7938821"
     inkscape:cx="53.424001"
     inkscape:zoom="5.002354"
     showgrid="false"
     id="namedview558"
     inkscape:window-height="480"
     inkscape:window-width="705"
     inkscape:pageshadow="2"
     inkscape:pageopacity="0"
     guidetolerance="10"
     gridtolerance="10"
     objecttolerance="10"
     borderopacity="1"
     bordercolor="#666666"
     pagecolor="#ffffff" />
  <title
     id="title2">SVG Picture created as ADM-CS-EVCC_multipart_contactors.svg date 2020/09/04 16:19:38 </title>
  <desc
     id="desc4">Picture generated by Eeschema-SVG </desc>
  <g
     transform="translate(-2100,-2790)"
     id="g6"
     style="fill:#000000;fill-opacity:1;stroke:#000000;stroke-linecap:round;stroke-linejoin:round;stroke-opacity:1" />
  <g
     transform="translate(-2100,-2790)"
     id="g8"
     style="fill:#840000;fill-opacity:0;stroke:#840000;stroke-width:-10;stroke-linecap:round;stroke-linejoin:round;stroke-opacity:1" />
  <g
     transform="translate(-2100,-2790)"
     id="g10"
     style="fill:#ffffc2;fill-opacity:0;stroke:#ffffc2;stroke-width:-10;stroke-linecap:round;stroke-linejoin:round;stroke-opacity:1" />
  <g
     transform="translate(-2100,-2790)"
     id="g14"
     style="fill:#ffffc2;fill-opacity:0.6;stroke:#ffffc2;stroke-width:0;stroke-linecap:round;stroke-linejoin:round;stroke-opacity:1">
    <rect
       id="rect12"
       rx="0"
       height="12000"
       width="10500"
       y="2850"
       x="2160" />
  </g>
  <g
     transform="translate(-2100,-2790)"
     id="g16"
     style="fill:#840000;fill-opacity:0.6;stroke:#840000;stroke-width:0;stroke-linecap:round;stroke-linejoin:round;stroke-opacity:1" />
  <g
     transform="translate(-2100,-2790)"
     id="g20"
     style="fill:#840000;fill-opacity:0;stroke:#840000;stroke-width:120;stroke-linecap:round;stroke-linejoin:round;stroke-opacity:1">
    <rect
       id="rect18"
       rx="0"
       height="12000"
       width="10500"
       y="2850"
       x="2160" />
  </g>
  <g
     transform="translate(-2100,-2790)"
     id="g54"
     style="fill:#840000;fill-opacity:0;stroke:#840000;stroke-width:100;stroke-linecap:round;stroke-linejoin:round;stroke-opacity:1">
    <g
       id="g24"
       transform="rotate(-90,3180,8850)">
      <text
         id="text22"
         opacity="0"
         text-anchor="middle"
         lengthAdjust="spacingAndGlyphs"
         font-size="800px"
         textLength="5890"
         y="9150"
         x="3180">CONTACTORS</text>
    </g>
    <path
       id="path26"
       d="m 3390,11250 30,40 30,90 v 50 l -30,80 -60,50 -60,30 -110,10 -90,-10 -110,-40 -60,-40 -50,-60 -30,-90 v -60 l 30,-80 20,-30" />
    <path
       id="path28"
       d="m 2850,10810 v -110 l 30,-50 50,-50 120,-20 200,30 110,40 60,60 30,70 v 110 l -30,50 -60,50 -110,20 -200,-30 -120,-40 -50,-60 -30,-70" />
    <path
       id="path30"
       d="m 3450,10380 -600,-80 600,-270 -600,-70" />
    <path
       id="path32"
       d="M 2850,9760 V 9410" />
    <path
       id="path34"
       d="m 3450,9660 -600,-70" />
    <path
       id="path36"
       d="M 3280,9300 V 9010" />
    <path
       id="path38"
       d="m 3450,9380 -600,-280 600,-120" />
    <path
       id="path40"
       d="m 3390,8430 30,30 30,90 v 50 l -30,90 -60,50 -60,20 -110,10 -90,-10 -110,-40 -60,-40 -50,-60 -30,-90 v -60 l 30,-80 20,-30" />
    <path
       id="path42"
       d="M 2850,8190 V 7840" />
    <path
       id="path44"
       d="m 3450,8090 -600,-80" />
    <path
       id="path46"
       d="m 2850,7530 v -120 l 30,-50 50,-50 120,-10 200,20 110,40 60,70 30,60 v 110 l -30,60 -60,50 -110,10 -200,-20 -120,-50 -50,-60 -30,-60" />
    <path
       id="path48"
       d="m 3450,6750 -290,160" />
    <path
       id="path50"
       d="m 3450,7090 -600,-80 v -220 l 30,-60 20,-20 60,-20 90,10 50,30 30,30 30,70 v 220" />
    <path
       id="path52"
       d="m 3420,6510 30,-80 v -140 l -30,-60 -30,-30 -60,-40 -50,-10 -60,30 -30,20 -30,50 -30,110 -30,60 -20,20 -60,20 h -60 l -60,-40 -20,-30 -30,-60 v -140 l 30,-90" />
  </g>
  <g
     transform="translate(-2100,-2790)"
     id="g60"
     style="fill:#840000;fill-opacity:0;stroke:#840000;stroke-width:120;stroke-linecap:round;stroke-linejoin:round;stroke-opacity:1">
    <rect
       id="rect56"
       rx="0"
       height="12000"
       width="10500"
       y="2850"
       x="2160" />
    <path
       id="path58"
       d="m 12660,7350 h 2000" />
  </g>
  <g
     transform="translate(-2100,-2790)"
     id="g64"
     style="fill:#008484;fill-opacity:0;stroke:#008484;stroke-width:120;stroke-linecap:round;stroke-linejoin:round;stroke-opacity:1">
    <text
       id="text62"
       opacity="0"
       text-anchor="end"
       lengthAdjust="spacingAndGlyphs"
       font-size="660px"
       textLength="5890"
       y="7600"
       x="12460">CONT_DC+_NEG</text>
  </g>
  <g
     transform="translate(-2100,-2790)"
     id="g96"
     style="fill:#008484;fill-opacity:0;stroke:#008484;stroke-width:80;stroke-linecap:round;stroke-linejoin:round;stroke-opacity:1">
    <path
       id="path66"
       d="m 7030,7520 -20,30 -70,20 h -50 l -70,-20 -50,-50 -20,-50 -30,-90 v -70 l 30,-100 20,-50 50,-40 70,-30 h 50 l 70,30 20,20" />
    <path
       id="path68"
       d="m 7340,7070 h 100 l 50,30 40,40 30,100 v 160 l -30,100 -40,50 -50,20 h -100 l -40,-20 -50,-50 -30,-100 v -160 l 30,-100 50,-40 40,-30" />
    <path
       id="path70"
       d="m 7770,7570 v -500 l 290,500 v -500" />
    <path
       id="path72"
       d="m 8220,7070 h 290" />
    <path
       id="path74"
       d="M 8370,7570 V 7070" />
    <path
       id="path76"
       d="m 8560,7620 h 380" />
    <path
       id="path78"
       d="m 9060,7570 v -500 h 120 l 70,30 50,40 20,50 20,100 v 70 l -20,90 -20,50 -50,50 -70,20 h -120" />
    <path
       id="path80"
       d="m 9840,7520 -20,30 -70,20 h -50 l -70,-20 -50,-50 -20,-50 -30,-90 v -70 l 30,-100 20,-50 50,-40 70,-30 h 50 l 70,30 20,20" />
    <path
       id="path82"
       d="m 10060,7380 h 380" />
    <path
       id="path84"
       d="M 10250,7570 V 7190" />
    <path
       id="path86"
       d="m 10560,7620 h 380" />
    <path
       id="path88"
       d="m 11060,7570 v -500 l 280,500 v -500" />
    <path
       id="path90"
       d="m 11580,7310 h 170" />
    <path
       id="path92"
       d="m 11820,7570 h -240 v -500 h 240" />
    <path
       id="path94"
       d="m 12300,7100 -50,-30 h -70 l -70,30 -50,40 -30,50 -20,100 v 70 l 20,90 30,50 50,50 70,20 h 40 l 80,-20 20,-30 v -160 h -100" />
  </g>
  <g
     transform="translate(-2100,-2790)"
     id="g98"
     style="fill:#008484;fill-opacity:0;stroke:#008484;stroke-width:120;stroke-linecap:round;stroke-linejoin:round;stroke-opacity:1" />
  <g
     transform="translate(-2100,-2790)"
     id="g102"
     style="fill:#840000;fill-opacity:0;stroke:#840000;stroke-width:120;stroke-linecap:round;stroke-linejoin:round;stroke-opacity:1">
    <text
       id="text100"
       opacity="0"
       text-anchor="middle"
       lengthAdjust="spacingAndGlyphs"
       font-size="660px"
       textLength="1480"
       y="7210"
       x="13660">1E2</text>
  </g>
  <g
     transform="translate(-2100,-2790)"
     id="g114"
     style="fill:#840000;fill-opacity:0;stroke:#840000;stroke-width:80;stroke-linecap:round;stroke-linejoin:round;stroke-opacity:1">
    <path
       id="path104"
       d="m 13330,7180 h -280" />
    <path
       id="path106"
       d="m 13190,7180 v -500 l -50,70 -40,50 -50,20" />
    <path
       id="path108"
       d="m 13550,6920 h 160" />
    <path
       id="path110"
       d="m 13790,7180 h -240 v -500 h 240" />
    <path
       id="path112"
       d="m 13980,6730 20,-20 50,-30 h 120 l 40,30 30,20 20,50 v 40 l -20,80 -290,280 h 310" />
  </g>
  <g
     transform="translate(-2100,-2790)"
     id="g118"
     style="fill:#840000;fill-opacity:0;stroke:#840000;stroke-width:120;stroke-linecap:round;stroke-linejoin:round;stroke-opacity:1">
    <path
       id="path116"
       d="m 12660,12350 h 2000" />
  </g>
  <g
     transform="translate(-2100,-2790)"
     id="g122"
     style="fill:#008484;fill-opacity:0;stroke:#008484;stroke-width:120;stroke-linecap:round;stroke-linejoin:round;stroke-opacity:1">
    <text
       id="text120"
       opacity="0"
       text-anchor="end"
       lengthAdjust="spacingAndGlyphs"
       font-size="660px"
       textLength="5870"
       y="12600"
       x="12460">CONT_DC-_NEG</text>
  </g>
  <g
     transform="translate(-2100,-2790)"
     id="g152"
     style="fill:#008484;fill-opacity:0;stroke:#008484;stroke-width:80;stroke-linecap:round;stroke-linejoin:round;stroke-opacity:1">
    <path
       id="path124"
       d="m 7030,12520 -20,30 -70,20 h -50 l -70,-20 -50,-50 -20,-50 -30,-90 v -70 l 30,-100 20,-50 50,-40 70,-30 h 50 l 70,30 20,20" />
    <path
       id="path126"
       d="m 7340,12070 h 100 l 50,30 40,40 30,100 v 160 l -30,100 -40,50 -50,20 h -100 l -40,-20 -50,-50 -30,-100 v -160 l 30,-100 50,-40 40,-30" />
    <path
       id="path128"
       d="m 7770,12570 v -500 l 290,500 v -500" />
    <path
       id="path130"
       d="m 8220,12070 h 290" />
    <path
       id="path132"
       d="m 8370,12570 v -500" />
    <path
       id="path134"
       d="m 8560,12620 h 380" />
    <path
       id="path136"
       d="m 9060,12570 v -500 h 120 l 70,30 50,40 20,50 20,100 v 70 l -20,90 -20,50 -50,50 -70,20 h -120" />
    <path
       id="path138"
       d="m 9840,12520 -20,30 -70,20 h -50 l -70,-20 -50,-50 -20,-50 -30,-90 v -70 l 30,-100 20,-50 50,-40 70,-30 h 50 l 70,30 20,20" />
    <path
       id="path140"
       d="m 10060,12380 h 380" />
    <path
       id="path142"
       d="m 10560,12620 h 380" />
    <path
       id="path144"
       d="m 11060,12570 v -500 l 280,500 v -500" />
    <path
       id="path146"
       d="m 11580,12310 h 170" />
    <path
       id="path148"
       d="m 11820,12570 h -240 v -500 h 240" />
    <path
       id="path150"
       d="m 12300,12100 -50,-30 h -70 l -70,30 -50,40 -30,50 -20,100 v 70 l 20,90 30,50 50,50 70,20 h 40 l 80,-20 20,-30 v -160 h -100" />
  </g>
  <g
     transform="translate(-2100,-2790)"
     id="g154"
     style="fill:#008484;fill-opacity:0;stroke:#008484;stroke-width:120;stroke-linecap:round;stroke-linejoin:round;stroke-opacity:1" />
  <g
     transform="translate(-2100,-2790)"
     id="g158"
     style="fill:#840000;fill-opacity:0;stroke:#840000;stroke-width:120;stroke-linecap:round;stroke-linejoin:round;stroke-opacity:1">
    <text
       id="text156"
       opacity="0"
       text-anchor="middle"
       lengthAdjust="spacingAndGlyphs"
       font-size="660px"
       textLength="1460"
       y="12210"
       x="13660">1F2</text>
  </g>
  <g
     transform="translate(-2100,-2790)"
     id="g170"
     style="fill:#840000;fill-opacity:0;stroke:#840000;stroke-width:80;stroke-linecap:round;stroke-linejoin:round;stroke-opacity:1">
    <path
       id="path160"
       d="m 13350,12180 h -290" />
    <path
       id="path162"
       d="m 13200,12180 v -500 l -40,70 -50,50 -50,20" />
    <path
       id="path164"
       d="m 13730,11920 h -170" />
    <path
       id="path166"
       d="m 13560,12180 v -500 h 240" />
    <path
       id="path168"
       d="m 13960,11730 30,-20 50,-30 h 120 l 40,30 30,20 20,50 v 40 l -20,80 -290,280 h 310" />
  </g>
  <g
     transform="translate(-2100,-2790)"
     id="g174"
     style="fill:#840000;fill-opacity:0;stroke:#840000;stroke-width:120;stroke-linecap:round;stroke-linejoin:round;stroke-opacity:1">
    <path
       id="path172"
       d="m 12660,3850 h 2000" />
  </g>
  <g
     transform="translate(-2100,-2790)"
     id="g178"
     style="fill:#008484;fill-opacity:0;stroke:#008484;stroke-width:120;stroke-linecap:round;stroke-linejoin:round;stroke-opacity:1">
    <text
       id="text176"
       opacity="0"
       text-anchor="end"
       lengthAdjust="spacingAndGlyphs"
       font-size="660px"
       textLength="7270"
       y="4100"
       x="12460">CONTACTOR_POWER</text>
  </g>
  <g
     transform="translate(-2100,-2790)"
     id="g222"
     style="fill:#008484;fill-opacity:0;stroke:#008484;stroke-width:80;stroke-linecap:round;stroke-linejoin:round;stroke-opacity:1">
    <path
       id="path180"
       d="m 5630,4020 -20,30 -80,20 h -40 l -70,-20 -50,-50 -30,-50 -20,-90 v -70 l 20,-100 30,-50 50,-40 70,-30 h 40 l 80,30 20,20" />
    <path
       id="path182"
       d="m 5940,3570 h 90 l 50,30 50,40 20,100 v 160 l -20,100 -50,50 -50,20 h -90 l -50,-20 -50,-50 -20,-100 v -160 l 20,-100 50,-40 50,-30" />
    <path
       id="path184"
       d="m 6370,4070 v -500 l 280,500 v -500" />
    <path
       id="path186"
       d="m 6820,3570 h 290" />
    <path
       id="path188"
       d="M 6960,4070 V 3570" />
    <path
       id="path190"
       d="m 7250,3930 h 240" />
    <path
       id="path192"
       d="m 7200,4070 170,-500 160,500" />
    <path
       id="path194"
       d="m 7990,4020 -30,30 -70,20 h -50 l -70,-20 -50,-50 -20,-50 -20,-90 v -70 l 20,-100 20,-50 50,-40 70,-30 h 50 l 70,30 30,20" />
    <path
       id="path196"
       d="m 8130,3570 h 290" />
    <path
       id="path198"
       d="M 8270,4070 V 3570" />
    <path
       id="path200"
       d="m 8680,3570 h 90 l 50,30 50,40 20,100 v 160 l -20,100 -50,50 -50,20 h -90 l -50,-20 -50,-50 -20,-100 v -160 l 20,-100 50,-40 50,-30" />
    <path
       id="path202"
       d="M 9390,4070 9220,3830" />
    <path
       id="path204"
       d="m 9110,4070 v -500 h 190 l 40,30 30,20 20,50 v 70 l -20,50 -30,20 -40,20 h -190" />
    <path
       id="path206"
       d="m 9490,4120 h 380" />
    <path
       id="path208"
       d="m 9990,4070 v -500 h 190 l 40,30 30,20 20,50 v 70 l -20,50 -30,20 -40,20 h -190" />
    <path
       id="path210"
       d="m 10580,3570 h 100 l 40,30 50,40 30,100 v 160 l -30,100 -50,50 -40,20 h -100 l -50,-20 -40,-50 -30,-100 v -160 l 30,-100 40,-40 50,-30" />
    <path
       id="path212"
       d="m 10960,3570 120,500 100,-360 90,360 120,-500" />
    <path
       id="path214"
       d="m 11580,3810 h 170" />
    <path
       id="path216"
       d="m 11820,4070 h -240 v -500 h 240" />
    <path
       id="path218"
       d="m 12320,4070 -170,-240" />
    <path
       id="path220"
       d="m 12030,4070 v -500 h 190 l 50,30 30,20 20,50 v 70 l -20,50 -30,20 -50,20 h -190" />
  </g>
  <g
     transform="translate(-2100,-2790)"
     id="g224"
     style="fill:#008484;fill-opacity:0;stroke:#008484;stroke-width:120;stroke-linecap:round;stroke-linejoin:round;stroke-opacity:1" />
  <g
     transform="translate(-2100,-2790)"
     id="g228"
     style="fill:#840000;fill-opacity:0;stroke:#840000;stroke-width:120;stroke-linecap:round;stroke-linejoin:round;stroke-opacity:1">
    <text
       id="text226"
       opacity="0"
       text-anchor="middle"
       lengthAdjust="spacingAndGlyphs"
       font-size="660px"
       textLength="1530"
       y="3710"
       x="13660">2D2</text>
  </g>
  <g
     transform="translate(-2100,-2790)"
     id="g236"
     style="fill:#840000;fill-opacity:0;stroke:#840000;stroke-width:80;stroke-linecap:round;stroke-linejoin:round;stroke-opacity:1">
    <path
       id="path230"
       d="m 13020,3230 30,-20 50,-30 h 110 l 50,30 30,20 20,50 v 40 l -20,80 -290,280 h 310" />
    <path
       id="path232"
       d="m 13520,3680 v -500 h 120 l 70,30 50,40 30,50 20,100 v 70 l -20,90 -30,50 -50,50 -70,20 h -120" />
    <path
       id="path234"
       d="m 14000,3230 20,-20 50,-30 h 120 l 50,30 20,20 30,50 v 40 l -30,80 -280,280 h 310" />
  </g>
  <g
     transform="translate(-2100,-2790)"
     id="g240"
     style="fill:#840000;fill-opacity:0;stroke:#840000;stroke-width:120;stroke-linecap:round;stroke-linejoin:round;stroke-opacity:1">
    <path
       id="path238"
       d="m 12660,8850 h 2000" />
  </g>
  <g
     transform="translate(-2100,-2790)"
     id="g244"
     style="fill:#008484;fill-opacity:0;stroke:#008484;stroke-width:120;stroke-linecap:round;stroke-linejoin:round;stroke-opacity:1">
    <text
       id="text242"
       opacity="0"
       text-anchor="end"
       lengthAdjust="spacingAndGlyphs"
       font-size="660px"
       textLength="5320"
       y="9100"
       x="12460">CONT_DC+_FB</text>
  </g>
  <g
     transform="translate(-2100,-2790)"
     id="g274"
     style="fill:#008484;fill-opacity:0;stroke:#008484;stroke-width:80;stroke-linecap:round;stroke-linejoin:round;stroke-opacity:1">
    <path
       id="path246"
       d="m 7580,9020 -20,30 -70,20 h -50 l -70,-20 -50,-50 -20,-50 -30,-90 v -70 l 30,-100 20,-50 50,-40 70,-30 h 50 l 70,30 20,20" />
    <path
       id="path248"
       d="m 7890,8570 h 100 l 40,30 50,40 30,100 v 160 l -30,100 -50,50 -40,20 h -100 l -50,-20 -40,-50 -30,-100 v -160 l 30,-100 40,-40 50,-30" />
    <path
       id="path250"
       d="m 8320,9070 v -500 l 290,500 v -500" />
    <path
       id="path252"
       d="m 8770,8570 h 290" />
    <path
       id="path254"
       d="M 8920,9070 V 8570" />
    <path
       id="path256"
       d="m 9110,9120 h 380" />
    <path
       id="path258"
       d="m 9610,9070 v -500 h 110 l 80,30 40,40 30,50 20,100 v 70 l -20,90 -30,50 -40,50 -80,20 h -110" />
    <path
       id="path260"
       d="m 10390,9020 -20,30 -70,20 h -50 l -70,-20 -50,-50 -20,-50 -30,-90 v -70 l 30,-100 20,-50 50,-40 70,-30 h 50 l 70,30 20,20" />
    <path
       id="path262"
       d="m 10610,8880 h 380" />
    <path
       id="path264"
       d="M 10800,9070 V 8690" />
    <path
       id="path266"
       d="m 11110,9120 h 380" />
    <path
       id="path268"
       d="m 11770,8810 h -160" />
    <path
       id="path270"
       d="m 11610,9070 v -500 h 230" />
    <path
       id="path272"
       d="m 12200,8810 70,20 30,30 20,40 v 80 l -20,40 -30,30 -50,20 h -190 v -500 h 170 l 50,30 20,20 30,50 v 40 l -30,50 -20,30 -50,20 h -170" />
  </g>
  <g
     transform="translate(-2100,-2790)"
     id="g276"
     style="fill:#008484;fill-opacity:0;stroke:#008484;stroke-width:120;stroke-linecap:round;stroke-linejoin:round;stroke-opacity:1" />
  <g
     transform="translate(-2100,-2790)"
     id="g280"
     style="fill:#840000;fill-opacity:0;stroke:#840000;stroke-width:120;stroke-linecap:round;stroke-linejoin:round;stroke-opacity:1">
    <text
       id="text278"
       opacity="0"
       text-anchor="middle"
       lengthAdjust="spacingAndGlyphs"
       font-size="660px"
       textLength="1480"
       y="8710"
       x="13660">2E2</text>
  </g>
  <g
     transform="translate(-2100,-2790)"
     id="g290"
     style="fill:#840000;fill-opacity:0;stroke:#840000;stroke-width:80;stroke-linecap:round;stroke-linejoin:round;stroke-opacity:1">
    <path
       id="path282"
       d="m 13050,8230 20,-20 50,-30 h 120 l 50,30 20,20 20,50 v 40 l -20,80 -290,280 h 310" />
    <path
       id="path284"
       d="m 13550,8420 h 160" />
    <path
       id="path286"
       d="m 13790,8680 h -240 v -500 h 240" />
    <path
       id="path288"
       d="m 13980,8230 20,-20 50,-30 h 120 l 40,30 30,20 20,50 v 40 l -20,80 -290,280 h 310" />
  </g>
  <g
     transform="translate(-2100,-2790)"
     id="g294"
     style="fill:#840000;fill-opacity:0;stroke:#840000;stroke-width:120;stroke-linecap:round;stroke-linejoin:round;stroke-opacity:1">
    <path
       id="path292"
       d="m 12660,13850 h 2000" />
  </g>
  <g
     transform="translate(-2100,-2790)"
     id="g298"
     style="fill:#008484;fill-opacity:0;stroke:#008484;stroke-width:120;stroke-linecap:round;stroke-linejoin:round;stroke-opacity:1">
    <text
       id="text296"
       opacity="0"
       text-anchor="end"
       lengthAdjust="spacingAndGlyphs"
       font-size="660px"
       textLength="5320"
       y="14100"
       x="12460">CONT_DC-_FB</text>
  </g>
  <g
     transform="translate(-2100,-2790)"
     id="g326"
     style="fill:#008484;fill-opacity:0;stroke:#008484;stroke-width:80;stroke-linecap:round;stroke-linejoin:round;stroke-opacity:1">
    <path
       id="path300"
       d="m 7580,14020 -20,30 -70,20 h -50 l -70,-20 -50,-50 -20,-50 -30,-90 v -70 l 30,-100 20,-50 50,-40 70,-30 h 50 l 70,30 20,20" />
    <path
       id="path302"
       d="m 7890,13570 h 100 l 40,30 50,40 30,100 v 160 l -30,100 -50,50 -40,20 h -100 l -50,-20 -40,-50 -30,-100 v -160 l 30,-100 40,-40 50,-30" />
    <path
       id="path304"
       d="m 8320,14070 v -500 l 290,500 v -500" />
    <path
       id="path306"
       d="m 8770,13570 h 290" />
    <path
       id="path308"
       d="m 8920,14070 v -500" />
    <path
       id="path310"
       d="m 9110,14120 h 380" />
    <path
       id="path312"
       d="m 9610,14070 v -500 h 110 l 80,30 40,40 30,50 20,100 v 70 l -20,90 -30,50 -40,50 -80,20 h -110" />
    <path
       id="path314"
       d="m 10390,14020 -20,30 -70,20 h -50 l -70,-20 -50,-50 -20,-50 -30,-90 v -70 l 30,-100 20,-50 50,-40 70,-30 h 50 l 70,30 20,20" />
    <path
       id="path316"
       d="m 10610,13880 h 380" />
    <path
       id="path318"
       d="m 11110,14120 h 380" />
    <path
       id="path320"
       d="m 11770,13810 h -160" />
    <path
       id="path322"
       d="m 11610,14070 v -500 h 230" />
    <path
       id="path324"
       d="m 12200,13810 70,20 30,30 20,40 v 80 l -20,40 -30,30 -50,20 h -190 v -500 h 170 l 50,30 20,20 30,50 v 40 l -30,50 -20,30 -50,20 h -170" />
  </g>
  <g
     transform="translate(-2100,-2790)"
     id="g328"
     style="fill:#008484;fill-opacity:0;stroke:#008484;stroke-width:120;stroke-linecap:round;stroke-linejoin:round;stroke-opacity:1" />
  <g
     transform="translate(-2100,-2790)"
     id="g332"
     style="fill:#840000;fill-opacity:0;stroke:#840000;stroke-width:120;stroke-linecap:round;stroke-linejoin:round;stroke-opacity:1">
    <text
       id="text330"
       opacity="0"
       text-anchor="middle"
       lengthAdjust="spacingAndGlyphs"
       font-size="660px"
       textLength="1460"
       y="13710"
       x="13660">2F2</text>
  </g>
  <g
     transform="translate(-2100,-2790)"
     id="g342"
     style="fill:#840000;fill-opacity:0;stroke:#840000;stroke-width:80;stroke-linecap:round;stroke-linejoin:round;stroke-opacity:1">
    <path
       id="path334"
       d="m 13060,13230 20,-20 50,-30 h 120 l 50,30 20,20 30,50 v 40 l -30,80 -280,280 h 310" />
    <path
       id="path336"
       d="m 13730,13420 h -170" />
    <path
       id="path338"
       d="m 13560,13680 v -500 h 240" />
    <path
       id="path340"
       d="m 13960,13230 30,-20 50,-30 h 120 l 40,30 30,20 20,50 v 40 l -20,80 -290,280 h 310" />
  </g>
  <g
     transform="translate(-2100,-2790)"
     id="g346"
     style="fill:#840000;fill-opacity:0;stroke:#840000;stroke-width:120;stroke-linecap:round;stroke-linejoin:round;stroke-opacity:1">
    <path
       id="path344"
       d="m 12660,5850 h 2000" />
  </g>
  <g
     transform="translate(-2100,-2790)"
     id="g350"
     style="fill:#008484;fill-opacity:0;stroke:#008484;stroke-width:120;stroke-linecap:round;stroke-linejoin:round;stroke-opacity:1">
    <text
       id="text348"
       opacity="0"
       text-anchor="end"
       lengthAdjust="spacingAndGlyphs"
       font-size="660px"
       textLength="5890"
       y="6100"
       x="12460">CONT_DC+_POS</text>
  </g>
  <g
     transform="translate(-2100,-2790)"
     id="g380"
     style="fill:#008484;fill-opacity:0;stroke:#008484;stroke-width:80;stroke-linecap:round;stroke-linejoin:round;stroke-opacity:1">
    <path
       id="path352"
       d="m 7010,6020 -20,30 -70,20 h -50 l -70,-20 -50,-50 -30,-50 -20,-90 v -70 l 20,-100 30,-50 50,-40 70,-30 h 50 l 70,30 20,20" />
    <path
       id="path354"
       d="m 7320,5570 h 100 l 40,30 50,40 20,100 v 160 l -20,100 -50,50 -40,20 h -100 l -50,-20 -50,-50 -20,-100 v -160 l 20,-100 50,-40 50,-30" />
    <path
       id="path356"
       d="m 7750,6070 v -500 l 280,500 v -500" />
    <path
       id="path358"
       d="m 8200,5570 h 290" />
    <path
       id="path360"
       d="M 8340,6070 V 5570" />
    <path
       id="path362"
       d="m 8530,6120 h 390" />
    <path
       id="path364"
       d="m 9030,6070 v -500 h 120 l 70,30 50,40 30,50 20,100 v 70 l -20,90 -30,50 -50,50 -70,20 h -120" />
    <path
       id="path366"
       d="m 9820,6020 -20,30 -80,20 h -40 l -70,-20 -50,-50 -30,-50 -20,-90 v -70 l 20,-100 30,-50 50,-40 70,-30 h 40 l 80,30 20,20" />
    <path
       id="path368"
       d="m 10030,5880 h 390" />
    <path
       id="path370"
       d="M 10220,6070 V 5690" />
    <path
       id="path372"
       d="m 10530,6120 h 390" />
    <path
       id="path374"
       d="m 11030,6070 v -500 h 190 l 50,30 30,20 20,50 v 70 l -20,50 -30,20 -50,20 h -190" />
    <path
       id="path376"
       d="m 11630,5570 h 90 l 50,30 50,40 20,100 v 160 l -20,100 -50,50 -50,20 h -90 l -50,-20 -50,-50 -20,-100 v -160 l 20,-100 50,-40 50,-30" />
    <path
       id="path378"
       d="m 12030,6050 80,20 h 110 l 50,-20 30,-30 20,-40 v -50 l -20,-50 -30,-20 -50,-30 -90,-20 -50,-20 -20,-30 -30,-50 v -40 l 30,-50 20,-20 50,-30 h 120 l 70,30" />
  </g>
  <g
     transform="translate(-2100,-2790)"
     id="g382"
     style="fill:#008484;fill-opacity:0;stroke:#008484;stroke-width:120;stroke-linecap:round;stroke-linejoin:round;stroke-opacity:1" />
  <g
     transform="translate(-2100,-2790)"
     id="g386"
     style="fill:#840000;fill-opacity:0;stroke:#840000;stroke-width:120;stroke-linecap:round;stroke-linejoin:round;stroke-opacity:1">
    <text
       id="text384"
       opacity="0"
       text-anchor="middle"
       lengthAdjust="spacingAndGlyphs"
       font-size="660px"
       textLength="1530"
       y="5710"
       x="13660">3D2</text>
  </g>
  <g
     transform="translate(-2100,-2790)"
     id="g394"
     style="fill:#840000;fill-opacity:0;stroke:#840000;stroke-width:80;stroke-linecap:round;stroke-linejoin:round;stroke-opacity:1">
    <path
       id="path388"
       d="m 13000,5180 h 310 l -170,190 h 70 l 50,30 30,20 20,50 v 120 l -20,40 -30,30 -50,20 h -140 l -50,-20 -20,-30" />
    <path
       id="path390"
       d="m 13520,5680 v -500 h 120 l 70,30 50,40 30,50 20,100 v 70 l -20,90 -30,50 -50,50 -70,20 h -120" />
    <path
       id="path392"
       d="m 14000,5230 20,-20 50,-30 h 120 l 50,30 20,20 30,50 v 40 l -30,80 -280,280 h 310" />
  </g>
  <g
     transform="translate(-2100,-2790)"
     id="g398"
     style="fill:#840000;fill-opacity:0;stroke:#840000;stroke-width:120;stroke-linecap:round;stroke-linejoin:round;stroke-opacity:1">
    <path
       id="path396"
       d="m 12660,10850 h 2000" />
  </g>
  <g
     transform="translate(-2100,-2790)"
     id="g402"
     style="fill:#008484;fill-opacity:0;stroke:#008484;stroke-width:120;stroke-linecap:round;stroke-linejoin:round;stroke-opacity:1">
    <text
       id="text400"
       opacity="0"
       text-anchor="end"
       lengthAdjust="spacingAndGlyphs"
       font-size="660px"
       textLength="5890"
       y="11100"
       x="12460">CONT_DC-_POS</text>
  </g>
  <g
     transform="translate(-2100,-2790)"
     id="g430"
     style="fill:#008484;fill-opacity:0;stroke:#008484;stroke-width:80;stroke-linecap:round;stroke-linejoin:round;stroke-opacity:1">
    <path
       id="path404"
       d="m 7010,11020 -20,30 -70,20 h -50 l -70,-20 -50,-50 -30,-50 -20,-90 v -70 l 20,-100 30,-50 50,-40 70,-30 h 50 l 70,30 20,20" />
    <path
       id="path406"
       d="m 7320,10570 h 100 l 40,30 50,40 20,100 v 160 l -20,100 -50,50 -40,20 h -100 l -50,-20 -50,-50 -20,-100 v -160 l 20,-100 50,-40 50,-30" />
    <path
       id="path408"
       d="m 7750,11070 v -500 l 280,500 v -500" />
    <path
       id="path410"
       d="m 8200,10570 h 290" />
    <path
       id="path412"
       d="m 8340,11070 v -500" />
    <path
       id="path414"
       d="m 8530,11120 h 390" />
    <path
       id="path416"
       d="m 9030,11070 v -500 h 120 l 70,30 50,40 30,50 20,100 v 70 l -20,90 -30,50 -50,50 -70,20 h -120" />
    <path
       id="path418"
       d="m 9820,11020 -20,30 -80,20 h -40 l -70,-20 -50,-50 -30,-50 -20,-90 v -70 l 20,-100 30,-50 50,-40 70,-30 h 40 l 80,30 20,20" />
    <path
       id="path420"
       d="m 10030,10880 h 390" />
    <path
       id="path422"
       d="m 10530,11120 h 390" />
    <path
       id="path424"
       d="m 11030,11070 v -500 h 190 l 50,30 30,20 20,50 v 70 l -20,50 -30,20 -50,20 h -190" />
    <path
       id="path426"
       d="m 11630,10570 h 90 l 50,30 50,40 20,100 v 160 l -20,100 -50,50 -50,20 h -90 l -50,-20 -50,-50 -20,-100 v -160 l 20,-100 50,-40 50,-30" />
    <path
       id="path428"
       d="m 12030,11050 80,20 h 110 l 50,-20 30,-30 20,-40 v -50 l -20,-50 -30,-20 -50,-30 -90,-20 -50,-20 -20,-30 -30,-50 v -40 l 30,-50 20,-20 50,-30 h 120 l 70,30" />
  </g>
  <g
     transform="translate(-2100,-2790)"
     id="g432"
     style="fill:#008484;fill-opacity:0;stroke:#008484;stroke-width:120;stroke-linecap:round;stroke-linejoin:round;stroke-opacity:1" />
  <g
     transform="translate(-2100,-2790)"
     id="g436"
     style="fill:#840000;fill-opacity:0;stroke:#840000;stroke-width:120;stroke-linecap:round;stroke-linejoin:round;stroke-opacity:1">
    <text
       id="text434"
       opacity="0"
       text-anchor="middle"
       lengthAdjust="spacingAndGlyphs"
       font-size="660px"
       textLength="1480"
       y="10710"
       x="13660">3E2</text>
  </g>
  <g
     transform="translate(-2100,-2790)"
     id="g446"
     style="fill:#840000;fill-opacity:0;stroke:#840000;stroke-width:80;stroke-linecap:round;stroke-linejoin:round;stroke-opacity:1">
    <path
       id="path438"
       d="m 13020,10180 h 310 l -160,190 h 70 l 50,30 20,20 20,50 v 120 l -20,40 -20,30 -50,20 h -140 l -50,-20 -30,-30" />
    <path
       id="path440"
       d="m 13550,10420 h 160" />
    <path
       id="path442"
       d="m 13790,10680 h -240 v -500 h 240" />
    <path
       id="path444"
       d="m 13980,10230 20,-20 50,-30 h 120 l 40,30 30,20 20,50 v 40 l -20,80 -290,280 h 310" />
  </g>
  <g
     transform="translate(-2100,-2790)"
     id="g448"
     style="fill:#840000;fill-opacity:0;stroke:#840000;stroke-width:120;stroke-linecap:round;stroke-linejoin:round;stroke-opacity:1" />
  <g
     transform="translate(-2100,-2790)"
     id="g450"
     style="fill:#840084;fill-opacity:0;stroke:#840084;stroke-width:120;stroke-linecap:round;stroke-linejoin:round;stroke-opacity:1" />
  <g
     transform="translate(-2100,-2790)"
     id="g452"
     style="fill:#008484;fill-opacity:0;stroke:#008484;stroke-width:120;stroke-linecap:round;stroke-linejoin:round;stroke-opacity:1" />
</svg>
