<?xml version="1.0" standalone="no"?>
<!DOCTYPE svg PUBLIC "-//W3C//DTD SVG 20010904//EN"
 "http://www.w3.org/TR/2001/REC-SVG-20010904/DTD/svg10.dtd">
<svg version="1.0" xmlns="http://www.w3.org/2000/svg"
 width="1163.000000pt" height="997.000000pt" viewBox="0 0 1163.000000 997.000000"
 preserveAspectRatio="xMidYMid meet">

<g transform="translate(0.000000,997.000000) scale(0.100000,-0.100000)"
fill="#000000" stroke="none">
<path d="M3975 9494 c-269 -13 -415 -25 -602 -49 -177 -23 -276 -41 -483 -85
-65 -14 -251 -67 -335 -95 -391 -132 -702 -316 -964 -570 -213 -206 -346 -385
-481 -648 -182 -352 -260 -680 -260 -1089 0 -222 12 -337 57 -558 9 -41 18
-86 20 -100 9 -47 82 -295 112 -381 32 -91 118 -311 153 -389 136 -306 292
-605 518 -995 51 -88 100 -173 110 -190 9 -16 61 -104 115 -195 54 -91 119
-201 145 -245 26 -44 83 -141 127 -215 81 -136 140 -238 185 -320 14 -25 70
-124 125 -220 55 -96 111 -195 125 -220 24 -43 44 -79 87 -152 186 -326 413
-697 525 -859 80 -116 115 -166 212 -294 62 -82 120 -159 131 -170 10 -11 40
-47 68 -80 80 -96 292 -310 400 -404 338 -292 687 -477 1070 -566 484 -113
995 -76 1450 105 212 84 483 248 680 411 125 103 364 342 474 474 278 334 628
865 938 1425 48 87 79 143 188 335 97 172 121 214 182 322 24 44 92 161 216
373 27 47 57 99 67 115 9 17 70 120 135 230 118 200 137 233 176 303 12 20 47
82 79 137 31 55 79 141 105 190 27 50 57 105 67 124 29 51 212 418 238 476 12
28 33 74 46 103 13 29 24 55 24 57 0 2 11 28 24 57 43 93 134 356 174 498 144
515 165 907 71 1345 -110 513 -426 1024 -834 1350 -234 187 -533 347 -824 441
-42 13 -89 28 -106 34 -63 20 -235 62 -355 86 -261 51 -504 79 -920 104 -244
15 -3138 10 -3455 -6z m3450 -267 c423 -23 739 -65 1043 -138 120 -29 334 -96
396 -123 17 -8 51 -22 76 -32 237 -97 500 -273 685 -459 229 -229 431 -557
521 -845 80 -256 99 -381 99 -660 -1 -220 -8 -304 -42 -470 -9 -41 -18 -86
-20 -100 -37 -186 -149 -514 -271 -790 -49 -112 -238 -492 -298 -600 -20 -36
-54 -98 -76 -139 -33 -60 -109 -192 -268 -466 -10 -16 -79 -136 -155 -265 -76
-129 -146 -249 -155 -266 -10 -17 -38 -64 -63 -105 -24 -41 -67 -114 -94 -164
-73 -132 -103 -186 -123 -220 -10 -16 -30 -52 -45 -80 -76 -135 -115 -205
-144 -253 -17 -29 -31 -55 -31 -57 0 -2 -14 -28 -31 -57 -18 -29 -40 -68 -50
-86 -39 -67 -60 -103 -79 -138 -259 -457 -577 -922 -821 -1198 -292 -332 -558
-544 -872 -695 -436 -211 -932 -261 -1427 -144 -145 35 -324 100 -430 157
-118 64 -156 86 -230 134 -240 158 -496 398 -731 687 -229 282 -493 683 -790
1203 -45 77 -63 110 -87 152 -14 25 -51 90 -82 145 -32 55 -67 117 -79 138
-11 20 -31 54 -42 75 -12 20 -33 57 -47 82 -60 108 -191 335 -257 445 -39 66
-111 188 -160 270 -48 83 -114 193 -145 245 -69 115 -234 401 -283 490 -19 36
-51 94 -71 130 -51 92 -247 482 -280 560 -16 36 -37 85 -48 109 -57 126 -153
398 -194 547 -20 74 -40 163 -68 309 -18 93 -36 297 -36 415 0 175 27 376 70
530 12 41 25 89 29 105 27 102 133 326 228 483 106 175 324 423 467 530 138
104 167 123 259 176 490 281 1091 410 2027 434 349 9 3051 8 3225 -1z"/>
<path d="M3415 8743 c-309 -10 -649 -121 -924 -300 -529 -344 -851 -937 -851
-1568 0 -503 200 -979 560 -1333 242 -239 550 -410 875 -486 39 -10 79 -19 90
-22 49 -11 277 -34 350 -34 172 0 405 38 590 98 314 101 624 315 852 587 46
56 173 238 173 249 0 3 13 27 28 53 96 165 173 400 208 632 17 112 18 391 3
493 -34 221 -84 389 -174 575 -146 303 -364 555 -640 741 -92 61 -247 146
-310 170 -16 6 -55 21 -85 33 -30 11 -70 25 -87 30 -18 5 -50 14 -70 19 -172
48 -378 70 -588 63z m395 -437 c441 -99 781 -359 1002 -766 163 -301 204 -731
101 -1075 -100 -338 -304 -612 -603 -812 -258 -173 -622 -266 -913 -234 -220
24 -366 65 -537 150 -164 82 -229 129 -386 286 -492 487 -563 1248 -172 1837
81 121 272 313 391 391 190 125 328 180 597 236 73 16 432 6 520 -13z"/>
<path d="M3380 7349 c-154 -26 -279 -130 -340 -283 -30 -75 -33 -214 -6 -291
80 -230 324 -357 547 -284 89 29 138 60 195 122 96 105 132 218 114 362 -30
241 -268 415 -510 374z"/>
<path d="M7790 8739 c-63 -4 -140 -12 -170 -18 -30 -5 -71 -13 -90 -16 -19 -4
-46 -10 -60 -15 -14 -4 -45 -13 -70 -20 -78 -21 -252 -92 -338 -137 -75 -39
-232 -139 -284 -181 -55 -44 -186 -163 -208 -188 -86 -98 -144 -171 -189 -237
-47 -70 -63 -97 -124 -209 -67 -123 -143 -354 -173 -528 -27 -148 -27 -482 0
-630 47 -269 145 -511 297 -736 262 -388 677 -672 1129 -773 25 -5 56 -12 70
-16 58 -13 271 -35 345 -35 72 0 301 22 350 34 11 3 52 12 90 22 324 76 632
246 868 479 294 291 466 619 543 1037 22 117 25 466 5 578 -96 555 -384 1002
-831 1292 -134 87 -348 190 -455 219 -281 75 -452 94 -705 78z m375 -424 c400
-72 721 -272 952 -593 66 -92 157 -267 192 -367 107 -312 106 -653 -1 -960
-104 -300 -304 -553 -595 -754 -57 -39 -229 -120 -319 -150 -108 -36 -204 -56
-351 -72 -170 -19 -387 9 -578 72 -439 146 -788 501 -930 944 -12 38 -19 65
-47 185 -18 76 -17 424 1 510 53 254 142 452 288 643 55 72 190 205 265 263
169 128 394 230 593 268 44 8 89 17 100 19 52 11 356 6 430 -8z"/>
<path d="M7875 7337 c-85 -22 -147 -58 -210 -121 -69 -70 -107 -141 -125 -238
-36 -181 72 -389 243 -469 259 -121 549 16 623 294 53 201 -65 433 -261 511
-81 32 -195 42 -270 23z"/>
<path d="M5280 5450 c-235 -28 -447 -194 -530 -415 -44 -115 -49 -296 -12
-407 75 -226 268 -404 464 -429 37 -5 77 -13 88 -19 30 -16 861 -13 930 4 213
53 372 180 458 369 82 177 65 420 -40 593 -61 102 -171 199 -282 250 -121 55
-129 56 -586 59 -234 2 -454 0 -490 -5z m52 -437 c81 -44 135 -143 125 -228
-16 -143 -148 -241 -285 -212 -166 35 -243 223 -149 365 67 100 203 133 309
75z m967 3 c54 -28 95 -76 116 -137 47 -134 -35 -276 -178 -307 -206 -43 -361
189 -244 366 66 98 199 132 306 78z"/>
<path d="M2924 4937 c-2 -7 -3 -82 -2 -167 l3 -155 87 -3 c71 -2 94 1 126 17
61 31 77 63 77 151 0 90 -21 128 -85 154 -51 20 -198 22 -206 3z m208 -56 c31
-28 33 -33 33 -101 0 -68 -2 -73 -33 -101 -28 -25 -40 -29 -92 -29 l-60 0 0
130 0 130 60 0 c52 0 64 -4 92 -29z"/>
<path d="M3350 4942 c-94 -42 -130 -164 -75 -257 30 -52 75 -75 147 -75 61 0
101 17 106 44 3 16 0 18 -19 11 -13 -4 -49 -10 -80 -12 -52 -4 -60 -2 -90 25
-33 29 -34 33 -34 102 0 69 1 73 34 102 30 27 38 29 90 25 31 -2 67 -8 80 -12
19 -7 22 -5 19 11 -2 10 -14 24 -28 31 -26 13 -124 16 -150 5z"/>
<path d="M7510 4781 l0 -171 88 0 c101 0 144 16 179 69 31 46 32 150 3 198
-33 55 -62 67 -172 71 l-98 4 0 -171z m184 118 c75 -35 73 -207 -3 -239 -15
-6 -52 -10 -82 -8 l-54 3 -3 114 c-1 63 0 121 2 128 7 16 105 18 140 2z"/>
<path d="M7924 4936 c-17 -8 -44 -31 -60 -51 -25 -33 -28 -46 -28 -106 0 -77
15 -106 74 -146 59 -40 189 -26 198 21 3 16 0 18 -19 11 -13 -4 -50 -10 -81
-12 -53 -4 -60 -3 -87 25 -33 33 -47 84 -36 139 3 20 20 49 36 65 27 28 34 29
87 25 31 -2 68 -8 81 -12 19 -7 22 -5 19 11 -8 41 -117 59 -184 30z"/>
<path d="M3755 4898 c-2 -7 -6 -35 -7 -63 l-3 -50 -62 -3 c-54 -3 -63 -6 -63
-22 0 -16 9 -19 63 -22 l62 -3 3 -62 c3 -54 6 -63 22 -63 16 0 19 9 22 63 l3
62 60 5 c44 4 60 9 60 20 0 11 -16 16 -60 20 l-60 5 -5 59 c-5 56 -24 86 -35
54z"/>
<path d="M8175 4750 c-13 -21 11 -31 66 -28 40 2 54 7 54 18 0 19 -109 28
-120 10z"/>
<path d="M4020 4381 c-220 -42 -388 -192 -459 -410 -26 -80 -29 -249 -6 -326
30 -97 78 -178 150 -251 123 -124 243 -175 415 -176 145 -1 227 25 346 108
100 70 179 179 220 304 23 69 26 251 5 325 -51 184 -193 335 -378 402 -73 26
-216 38 -293 24z m207 -358 c123 -58 176 -210 114 -330 -21 -42 -87 -108 -117
-116 -85 -25 -105 -27 -151 -16 -67 17 -127 61 -160 117 -24 41 -28 58 -28
127 0 70 3 85 27 122 71 108 204 149 315 96z"/>
<path d="M7283 4376 c-160 -37 -317 -157 -388 -296 -48 -95 -65 -167 -65 -279
0 -66 6 -125 15 -156 60 -197 216 -352 415 -411 62 -18 257 -22 289 -5 11 6
27 11 35 11 26 0 107 40 172 86 100 70 179 180 220 304 23 69 26 252 5 325
-54 190 -212 353 -398 411 -71 21 -226 27 -300 10z m204 -341 c34 -10 66 -30
96 -58 199 -194 -29 -514 -280 -392 -192 94 -172 374 33 449 51 19 89 19 151
1z"/>
<path d="M4815 4096 c-35 -28 -27 -46 10 -22 l25 16 0 -90 0 -90 -30 0 c-20 0
-30 -5 -30 -15 0 -12 15 -15 76 -15 56 0 75 3 72 13 -3 6 -17 13 -31 15 l-27
3 0 105 c0 117 -7 126 -65 80z"/>
<path d="M5012 4114 c-39 -17 -56 -138 -27 -194 26 -50 94 -54 128 -8 28 38
29 138 0 176 -20 26 -69 39 -101 26z m72 -30 c25 -24 22 -145 -3 -168 -45 -41
-84 6 -78 96 5 81 41 113 81 72z"/>
<path d="M5180 4000 l0 -120 60 0 c32 0 71 5 85 12 43 19 48 84 8 103 l-22 11
21 21 c15 16 19 28 14 47 -8 33 -40 46 -112 46 l-54 0 0 -120z m129 72 c17
-31 -5 -52 -54 -52 -45 0 -45 0 -45 35 0 35 0 35 45 35 32 0 47 -5 54 -18z
m15 -104 c19 -31 -4 -53 -63 -56 l-51 -3 0 41 0 41 51 -3 c36 -2 55 -8 63 -20z"/>
<path d="M5950 4105 c0 -11 11 -15 40 -15 l40 0 0 -105 c0 -87 3 -105 15 -105
12 0 15 18 15 104 l0 105 43 3 c77 6 39 23 -58 26 -80 2 -95 0 -95 -13z"/>
<path d="M6218 4102 c-16 -9 -28 -23 -28 -30 0 -12 5 -11 25 2 l25 16 0 -90 0
-90 -30 0 c-20 0 -30 -5 -30 -15 0 -12 15 -15 75 -15 60 0 75 3 75 15 0 10
-10 15 -30 15 l-30 0 0 105 c0 114 -3 118 -52 87z"/>
<path d="M6402 4104 c-27 -19 -29 -64 -4 -86 9 -9 43 -23 75 -32 50 -14 57
-20 57 -41 0 -17 -8 -29 -24 -36 -30 -14 -95 -3 -103 17 -7 18 -33 18 -33 0 0
-26 42 -46 95 -46 66 0 95 20 95 65 0 39 -25 61 -80 71 -50 9 -70 22 -70 44 0
39 62 52 102 21 34 -27 59 -12 29 18 -26 26 -105 29 -139 5z"/>
<path d="M5432 4054 c-25 -17 -29 -34 -7 -34 8 0 15 5 15 10 0 6 15 10 34 10
25 0 35 -5 39 -19 6 -26 0 -31 -40 -31 -52 0 -73 -15 -73 -53 0 -18 5 -38 12
-45 17 -17 73 -15 89 4 11 14 13 14 21 0 10 -18 48 -22 48 -6 0 6 -4 10 -10
10 -6 0 -10 27 -10 60 0 51 -4 65 -25 85 -28 29 -61 32 -93 9z m83 -106 c-15
-50 -77 -64 -83 -19 -4 29 12 41 56 41 30 0 33 -2 27 -22z"/>
<path d="M5620 4058 c-53 -28 -31 -79 41 -98 33 -9 40 -15 37 -33 -4 -29 -52
-36 -79 -11 -22 20 -38 11 -23 -14 13 -20 84 -28 114 -12 23 12 28 61 8 78 -7
5 -32 15 -56 22 -32 8 -42 16 -40 28 4 22 44 28 74 11 29 -15 44 -4 23 16 -21
21 -70 27 -99 13z"/>
<path d="M5793 4046 c-24 -21 -28 -31 -27 -77 0 -42 5 -56 23 -71 32 -25 93
-24 117 4 19 21 19 21 -6 14 -56 -17 -71 -18 -85 -6 -8 7 -15 23 -15 36 0 23
3 24 65 24 l65 0 -6 28 c-8 35 -48 72 -79 72 -13 0 -37 -11 -52 -24z m91 -22
c11 -29 6 -34 -39 -34 -25 0 -45 4 -45 9 0 28 15 41 45 41 21 0 35 -6 39 -16z"/>
<path d="M5209 3671 c-24 -25 -29 -37 -29 -81 0 -56 20 -104 49 -120 34 -18
106 -12 135 11 14 11 26 27 26 35 0 19 -10 18 -35 -6 -11 -11 -35 -23 -53 -26
-26 -5 -36 -1 -62 24 -68 68 -15 189 73 167 14 -4 31 -13 38 -21 13 -16 39
-19 39 -5 0 24 -54 51 -102 51 -41 0 -54 -5 -79 -29z"/>
<path d="M5463 3638 c-45 -21 -54 -118 -16 -160 22 -24 94 -25 115 0 40 44 29
139 -18 161 -30 13 -52 13 -81 -1z m81 -34 c10 -27 7 -99 -6 -112 -16 -16 -53
-15 -65 1 -17 21 -22 56 -12 92 9 31 14 35 43 35 22 0 36 -6 40 -16z"/>
<path d="M5681 3641 c-7 -5 -22 -6 -32 -4 -18 5 -19 -1 -19 -86 0 -73 3 -91
15 -91 11 0 15 17 17 71 3 75 17 99 52 86 13 -5 16 -21 16 -82 0 -60 3 -75 15
-75 11 0 15 13 15 54 0 79 13 108 48 104 27 -3 27 -4 30 -80 2 -60 6 -78 17
-78 24 0 21 151 -3 173 -23 21 -42 21 -67 3 -17 -12 -22 -12 -39 0 -23 16 -45
18 -65 5z"/>
<path d="M5971 3641 c-7 -5 -22 -6 -32 -4 -18 5 -19 -1 -19 -86 0 -73 3 -91
15 -91 11 0 15 17 17 71 3 75 17 99 52 86 13 -5 16 -21 16 -82 0 -60 3 -75 15
-75 11 0 15 13 15 54 0 79 13 108 48 104 27 -3 27 -4 30 -80 2 -60 6 -78 17
-78 24 0 21 151 -3 173 -23 21 -42 21 -67 3 -17 -12 -22 -12 -39 0 -23 16 -45
18 -65 5z"/>
<path d="M5550 3348 c-265 -55 -435 -142 -601 -307 -150 -150 -233 -297 -295
-522 -26 -93 -26 -397 -1 -488 65 -230 158 -393 308 -536 135 -129 337 -241
494 -274 33 -7 79 -17 102 -22 63 -14 248 -11 333 6 144 27 215 51 330 112
274 144 466 391 547 702 21 82 25 119 25 251 1 136 -3 168 -26 259 -15 58 -42
140 -61 184 -125 288 -409 533 -705 608 -145 37 -346 49 -450 27z m345 -568
c210 -79 355 -285 355 -505 0 -229 -145 -426 -380 -516 -23 -9 -77 -14 -160
-13 -102 1 -135 5 -178 22 -170 67 -292 200 -337 368 -21 76 -21 202 0 278 49
184 197 329 385 381 80 22 236 14 315 -15z"/>
<path d="M3927 3029 c-57 -44 -57 -154 0 -198 38 -31 113 -29 150 3 24 21 26
27 14 38 -11 10 -14 10 -18 0 -8 -20 -63 -44 -89 -38 -41 11 -64 45 -64 96 0
53 19 85 56 94 28 7 84 -10 84 -25 0 -5 9 -9 20 -9 27 0 25 15 -6 39 -36 29
-112 29 -147 0z"/>
<path d="M4150 2930 l0 -120 96 0 c72 0 95 3 92 13 -3 8 -31 13 -81 15 l-77 3
0 39 0 40 71 0 c52 0 70 3 67 13 -3 7 -29 13 -71 15 l-67 3 0 34 0 35 75 0
c60 0 75 3 75 15 0 12 -17 15 -90 15 l-90 0 0 -120z"/>
<path d="M7240 2930 c0 -100 3 -120 15 -120 13 0 15 20 15 120 0 100 -2 120
-15 120 -12 0 -15 -20 -15 -120z"/>
<path d="M7330 2930 l0 -120 63 0 c81 0 121 23 138 80 11 35 10 49 -2 83 -18
54 -61 77 -141 77 l-58 0 0 -120z m148 70 c33 -31 33 -102 -1 -137 -16 -18
-32 -23 -69 -23 l-48 0 0 90 0 90 48 0 c35 0 54 -6 70 -20z"/>
<path d="M5494 1117 c-2 -7 -3 -85 -2 -172 3 -152 4 -160 23 -160 17 0 20 8
23 60 2 33 9 63 15 67 7 4 33 8 59 8 71 0 102 31 101 99 -1 58 -13 78 -60 98
-42 17 -152 18 -159 0z m151 -52 c43 -42 23 -97 -38 -109 -58 -11 -67 -2 -67
70 l0 64 40 0 c30 0 47 -7 65 -25z"/>
<path d="M5765 1108 c-3 -13 -4 -90 -3 -173 l3 -150 110 0 c91 0 110 3 110 15
0 12 -18 16 -87 18 l-88 3 0 64 0 64 83 3 c65 2 82 6 82 18 0 12 -18 16 -80
20 l-80 5 -3 48 -3 47 86 0 c77 0 86 2 83 18 -3 15 -17 17 -105 20 -99 3 -103
2 -108 -20z"/>
</g>
</svg>
