<?xml version="1.0" encoding="UTF-8" standalone="no"?>
<svg
   version="1.1"
   width="14.6558cm"
   height="2.8016198cm"
   viewBox="0 0 57699.999 11030"
   id="svg606"
   xmlns="http://www.w3.org/2000/svg"
   xmlns:svg="http://www.w3.org/2000/svg">
  <defs
     id="defs610" />
  <title
     id="title2">SVG Picture created as LLC_basic_connection-LLC_basic_connection.svg date 2021/12/20 12:10:47 </title>
  <desc
     id="desc4">Picture generated by Eeschema-SVG </desc>
  <g
     style="fill:#000000;fill-opacity:1;stroke:#000000;stroke-linecap:round;stroke-linejoin:round;stroke-opacity:1"
     id="g6"
     transform="translate(-21340,-26010)" />
  <g
     style="fill:#000000;fill-opacity:0;stroke:#000000;stroke-width:0;stroke-linecap:round;stroke-linejoin:round;stroke-opacity:1"
     id="g112"
     transform="translate(-21340,-26010)">
    <g
       id="g8" />
    <g
       style="fill:#840000;fill-opacity:0;stroke:#840000;stroke-width:0;stroke-linecap:round;stroke-linejoin:round;stroke-opacity:1"
       id="g10" />
    <g
       style="fill:#ffffc2;fill-opacity:0;stroke:#ffffc2;stroke-width:0;stroke-linecap:round;stroke-linejoin:round;stroke-opacity:1"
       id="g12" />
    <g
       style="fill:#ffffc2;fill-opacity:0.6;stroke:#ffffc2;stroke-width:0;stroke-linecap:round;stroke-linejoin:round;stroke-opacity:1"
       id="g16">
      <rect
         x="72000"
         y="30000"
         width="7000"
         height="5000"
         rx="0"
         id="rect14" />
    </g>
    <g
       style="fill:#840000;fill-opacity:0.6;stroke:#840000;stroke-width:0;stroke-linecap:round;stroke-linejoin:round;stroke-opacity:1"
       id="g18" />
    <g
       style="fill:#840000;fill-opacity:0;stroke:#840000;stroke-width:80;stroke-linecap:round;stroke-linejoin:round;stroke-opacity:1"
       id="g40">
      <rect
         x="72000"
         y="30000"
         width="7000"
         height="5000"
         rx="0"
         id="rect20" />
      <rect
         x="72000"
         y="30000"
         width="7000"
         height="5000"
         rx="0"
         id="rect22" />
      <path
         style="fill:none;fill-opacity:0;stroke:#840000;stroke-width:80;stroke-linecap:round;stroke-linejoin:round;stroke-opacity:1"
         d="m 77000,32500 h 400"
         id="path24" />
      <path
         style="fill:none;fill-opacity:0;stroke:#840000;stroke-width:80;stroke-linecap:round;stroke-linejoin:round;stroke-opacity:1"
         d="m 76600,32000 v 1000"
         id="path26" />
      <path
         style="fill:none;fill-opacity:0;stroke:#840000;stroke-width:80;stroke-linecap:round;stroke-linejoin:round;stroke-opacity:1"
         d="m 76100,32500 h 300"
         id="path28" />
      <path
         style="fill:none;fill-opacity:0;stroke:#840000;stroke-width:80;stroke-linecap:round;stroke-linejoin:round;stroke-opacity:1"
         d="m 75600,32500 h 300"
         id="path30" />
      <path
         style="fill:none;fill-opacity:0;stroke:#840000;stroke-width:80;stroke-linecap:round;stroke-linejoin:round;stroke-opacity:1"
         d="m 75100,32500 h 300"
         id="path32" />
      <path
         style="fill:none;fill-opacity:0;stroke:#840000;stroke-width:80;stroke-linecap:round;stroke-linejoin:round;stroke-opacity:1"
         d="m 75100,31600 v 1800"
         id="path34" />
      <path
         style="fill:none;fill-opacity:0;stroke:#840000;stroke-width:80;stroke-linecap:round;stroke-linejoin:round;stroke-opacity:1"
         d="m 74700,32500 h -400"
         id="path36" />
      <path
         style="fill:none;fill-opacity:0;stroke:#840000;stroke-width:80;stroke-linecap:round;stroke-linejoin:round;stroke-opacity:1"
         d="m 74700,32000 v 1100"
         id="path38" />
    </g>
    <g
       style="fill:#840000;fill-opacity:0;stroke:#840000;stroke-width:60;stroke-linecap:round;stroke-linejoin:round;stroke-opacity:1"
       id="g44">
      <path
         style="fill:none;fill-opacity:0;stroke:#840000;stroke-width:60;stroke-linecap:round;stroke-linejoin:round;stroke-opacity:1"
         d="m 77000,31600 v 1790"
         id="path42" />
    </g>
    <g
       style="fill:#840000;fill-opacity:0;stroke:#840000;stroke-width:80;stroke-linecap:round;stroke-linejoin:round;stroke-opacity:1"
       id="g48">
      <path
         d="M 72000,31500 H 71000"
         id="path46" />
    </g>
    <g
       style="fill:#008484;fill-opacity:0;stroke:#008484;stroke-width:80;stroke-linecap:round;stroke-linejoin:round;stroke-opacity:1"
       id="g56">
      <text
         x="72200"
         y="31890"
         textLength="1060"
         font-size="1050px"
         lengthAdjust="spacingAndGlyphs"
         text-anchor="start"
         opacity="0"
         id="text50">+</text>
      <path
         d="m 72420,31550 h 610"
         id="path52" />
      <path
         d="m 72720,31850 v -600"
         id="path54" />
    </g>
    <g
       style="fill:#840000;fill-opacity:0;stroke:#840000;stroke-width:80;stroke-linecap:round;stroke-linejoin:round;stroke-opacity:1"
       id="g60">
      <path
         d="M 72000,33500 H 71000"
         id="path58" />
    </g>
    <g
       style="fill:#008484;fill-opacity:0;stroke:#008484;stroke-width:80;stroke-linecap:round;stroke-linejoin:round;stroke-opacity:1"
       id="g110">
      <text
         x="72200"
         y="33890"
         textLength="1060"
         font-size="1050px"
         lengthAdjust="spacingAndGlyphs"
         text-anchor="start"
         opacity="0"
         id="text62">-</text>
      <path
         d="m 72420,33550 h 610"
         id="path64" />
      <text
         x="74910"
         y="29530"
         textLength="4410"
         font-size="660px"
         lengthAdjust="spacingAndGlyphs"
         text-anchor="middle"
         opacity="0"
         id="text66">batterypack</text>
      <path
         d="m 72860,29500 v -500"
         id="path68" />
      <path
         d="m 72860,29190 50,-20 h 90 l 50,20 20,30 30,40 v 150 l -30,40 -20,30 -50,20 h -90 l -50,-20"
         id="path70" />
      <path
         d="m 73520,29500 v -260 l -20,-50 -50,-20 h -90 l -50,20"
         id="path72" />
      <path
         d="m 73520,29480 -40,20 h -120 l -50,-20 -20,-50 v -50 l 20,-50 50,-20 h 120 l 40,-20"
         id="path74" />
      <path
         d="m 73690,29170 h 190"
         id="path76" />
      <path
         d="m 73760,29000 v 430 l 30,50 40,20 h 50"
         id="path78" />
      <path
         d="m 73980,29170 h 190"
         id="path80" />
      <path
         d="m 74050,29000 v 430 l 20,50 50,20 h 50"
         id="path82" />
      <path
         d="m 74520,29480 -40,20 h -100 l -50,-20 -20,-50 v -190 l 20,-50 50,-20 h 100 l 40,20 30,50 v 50 l -240,40"
         id="path84" />
      <path
         d="m 74760,29500 v -330"
         id="path86" />
      <path
         d="m 74760,29260 30,-40 20,-30 50,-20 h 50"
         id="path88" />
      <path
         d="m 75020,29170 120,330"
         id="path90" />
      <path
         d="m 75260,29170 -120,330 -40,120 -30,20 -50,30"
         id="path92" />
      <path
         d="m 75450,29170 v 500"
         id="path94" />
      <path
         d="m 75450,29190 50,-20 h 100 l 40,20 30,30 20,40 v 150 l -20,40 -30,30 -40,20 h -100 l -50,-20"
         id="path96" />
      <path
         d="m 76120,29500 v -260 l -20,-50 -50,-20 h -100 l -40,20"
         id="path98" />
      <path
         d="m 76120,29480 -50,20 h -120 l -40,-20 -30,-50 v -50 l 30,-50 40,-20 h 120 l 50,-20"
         id="path100" />
      <path
         d="m 76570,29480 -50,20 h -90 l -50,-20 -20,-30 -30,-40 v -150 l 30,-40 20,-30 50,-20 h 90 l 50,20"
         id="path102" />
      <path
         d="m 76790,29500 v -500"
         id="path104" />
      <path
         d="m 76830,29310 150,190"
         id="path106" />
      <path
         d="m 76980,29170 -190,190"
         id="path108" />
    </g>
  </g>
  <g
     style="fill:#008484;fill-opacity:0;stroke:#008484;stroke-width:0;stroke-linecap:round;stroke-linejoin:round;stroke-opacity:1"
     id="g296"
     transform="translate(-21340,-26010)">
    <g
       id="g114" />
    <g
       style="fill:#840000;fill-opacity:0;stroke:#840000;stroke-width:0;stroke-linecap:round;stroke-linejoin:round;stroke-opacity:1"
       id="g116" />
    <g
       style="fill:#ffffc2;fill-opacity:0;stroke:#ffffc2;stroke-width:0;stroke-linecap:round;stroke-linejoin:round;stroke-opacity:1"
       id="g118" />
    <g
       style="fill:#ffffc2;fill-opacity:0.6;stroke:#ffffc2;stroke-width:0;stroke-linecap:round;stroke-linejoin:round;stroke-opacity:1"
       id="g122">
      <rect
         x="49500"
         y="29000"
         width="11500"
         height="7000"
         rx="0"
         id="rect120" />
    </g>
    <g
       style="fill:#840000;fill-opacity:0.6;stroke:#840000;stroke-width:0;stroke-linecap:round;stroke-linejoin:round;stroke-opacity:1"
       id="g124" />
    <g
       style="fill:#840000;fill-opacity:0;stroke:#840000;stroke-width:80;stroke-linecap:round;stroke-linejoin:round;stroke-opacity:1"
       id="g212">
      <rect
         x="49500"
         y="29000"
         width="11500"
         height="7000"
         rx="0"
         id="rect126" />
      <text
         x="51000"
         y="29770"
         textLength="2250"
         font-size="660px"
         lengthAdjust="spacingAndGlyphs"
         text-anchor="middle"
         opacity="0"
         id="text128">INPUT</text>
      <path
         d="m 50030,29740 v -500"
         id="path130" />
      <path
         d="m 50270,29740 v -500 l 280,500 v -500"
         id="path132" />
      <path
         d="m 50790,29740 v -500 h 190 l 50,30 20,20 30,50 v 70 l -30,50 -20,20 -50,20 h -190"
         id="path134" />
      <path
         d="m 51290,29240 v 410 l 30,40 20,30 50,20 h 90 l 50,-20 20,-30 30,-40 v -410"
         id="path136" />
      <path
         d="m 51750,29240 h 280"
         id="path138" />
      <path
         d="m 51890,29740 v -500"
         id="path140" />
      <text
         x="59250"
         y="35770"
         textLength="2910"
         font-size="660px"
         lengthAdjust="spacingAndGlyphs"
         text-anchor="middle"
         opacity="0"
         id="text142">OUTPUT</text>
      <path
         d="m 58040,35240 h 100 l 50,30 40,40 30,100 v 160 l -30,100 -40,50 -50,20 h -100 l -40,-20 -50,-50 -30,-100 v -160 l 30,-100 50,-40 40,-30"
         id="path144" />
      <path
         d="m 58470,35240 v 410 l 30,40 20,30 50,20 h 90 l 50,-20 20,-30 30,-40 v -410"
         id="path146" />
      <path
         d="m 58920,35240 h 290"
         id="path148" />
      <path
         d="m 59070,35740 v -500"
         id="path150" />
      <path
         d="m 59380,35740 v -500 h 190 l 40,30 30,20 20,50 v 70 l -20,50 -30,20 -40,20 h -190"
         id="path152" />
      <path
         d="m 59880,35240 v 410 l 20,40 20,30 50,20 h 100 l 40,-20 30,-30 20,-40 v -410"
         id="path154" />
      <path
         d="m 60330,35240 h 280"
         id="path156" />
      <path
         d="m 60470,35740 v -500"
         id="path158" />
      <rect
         x="49500"
         y="29000"
         width="11500"
         height="7000"
         rx="0"
         id="rect160" />
      <path
         style="fill:none;fill-opacity:0;stroke:#840000;stroke-width:80;stroke-linecap:round;stroke-linejoin:round;stroke-opacity:1"
         d="m 50500,32800 h 1000"
         id="path162" />
      <path
         style="fill:none;fill-opacity:0;stroke:#840000;stroke-width:80;stroke-linecap:round;stroke-linejoin:round;stroke-opacity:1"
         d="m 50500,32300 h 200"
         id="path164" />
      <path
         style="fill:none;fill-opacity:0;stroke:#840000;stroke-width:80;stroke-linecap:round;stroke-linejoin:round;stroke-opacity:1"
         d="m 50900,32300 h 200"
         id="path166" />
      <path
         style="fill:none;fill-opacity:0;stroke:#840000;stroke-width:80;stroke-linecap:round;stroke-linejoin:round;stroke-opacity:1"
         d="m 51300,32300 h 200"
         id="path168" />
      <path
         style="fill:none;fill-opacity:0;stroke:#840000;stroke-width:80;stroke-linecap:round;stroke-linejoin:round;stroke-opacity:1"
         d="m 54500,35750 v 250"
         id="path170" />
      <path
         style="fill:none;fill-opacity:0;stroke:#840000;stroke-width:80;stroke-linecap:round;stroke-linejoin:round;stroke-opacity:1"
         d="m 54500,34750 v 750"
         id="path172" />
      <path
         style="fill:none;fill-opacity:0;stroke:#840000;stroke-width:80;stroke-linecap:round;stroke-linejoin:round;stroke-opacity:1"
         d="m 54500,33750 v 750"
         id="path174" />
      <path
         style="fill:none;fill-opacity:0;stroke:#840000;stroke-width:80;stroke-linecap:round;stroke-linejoin:round;stroke-opacity:1"
         d="m 54500,32750 v 750"
         id="path176" />
      <path
         style="fill:none;fill-opacity:0;stroke:#840000;stroke-width:80;stroke-linecap:round;stroke-linejoin:round;stroke-opacity:1"
         d="m 54500,31750 v 750"
         id="path178" />
      <path
         style="fill:none;fill-opacity:0;stroke:#840000;stroke-width:80;stroke-linecap:round;stroke-linejoin:round;stroke-opacity:1"
         d="m 54500,30750 v 750"
         id="path180" />
      <path
         style="fill:none;fill-opacity:0;stroke:#840000;stroke-width:80;stroke-linecap:round;stroke-linejoin:round;stroke-opacity:1"
         d="m 54500,29750 v 750"
         id="path182" />
      <path
         style="fill:none;fill-opacity:0;stroke:#840000;stroke-width:80;stroke-linecap:round;stroke-linejoin:round;stroke-opacity:1"
         d="m 54500,29000 v 500"
         id="path184" />
      <path
         style="fill:none;fill-opacity:0;stroke:#840000;stroke-width:80;stroke-linecap:round;stroke-linejoin:round;stroke-opacity:1"
         d="m 55500,35750 v 250"
         id="path186" />
      <path
         style="fill:none;fill-opacity:0;stroke:#840000;stroke-width:80;stroke-linecap:round;stroke-linejoin:round;stroke-opacity:1"
         d="m 55500,34750 v 750"
         id="path188" />
      <path
         style="fill:none;fill-opacity:0;stroke:#840000;stroke-width:80;stroke-linecap:round;stroke-linejoin:round;stroke-opacity:1"
         d="m 55500,33750 v 750"
         id="path190" />
      <path
         style="fill:none;fill-opacity:0;stroke:#840000;stroke-width:80;stroke-linecap:round;stroke-linejoin:round;stroke-opacity:1"
         d="m 55500,32750 v 750"
         id="path192" />
      <path
         style="fill:none;fill-opacity:0;stroke:#840000;stroke-width:80;stroke-linecap:round;stroke-linejoin:round;stroke-opacity:1"
         d="m 55500,31750 v 750"
         id="path194" />
      <path
         style="fill:none;fill-opacity:0;stroke:#840000;stroke-width:80;stroke-linecap:round;stroke-linejoin:round;stroke-opacity:1"
         d="m 55500,30750 v 750"
         id="path196" />
      <path
         style="fill:none;fill-opacity:0;stroke:#840000;stroke-width:80;stroke-linecap:round;stroke-linejoin:round;stroke-opacity:1"
         d="m 55500,29750 v 750"
         id="path198" />
      <path
         style="fill:none;fill-opacity:0;stroke:#840000;stroke-width:80;stroke-linecap:round;stroke-linejoin:round;stroke-opacity:1"
         d="m 55500,29000 v 500"
         id="path200" />
      <path
         style="fill:none;fill-opacity:0;stroke:#840000;stroke-width:80;stroke-linecap:round;stroke-linejoin:round;stroke-opacity:1"
         d="m 59000,32800 h 1000"
         id="path202" />
      <path
         style="fill:none;fill-opacity:0;stroke:#840000;stroke-width:80;stroke-linecap:round;stroke-linejoin:round;stroke-opacity:1"
         d="m 59000,32300 h 200"
         id="path204" />
      <path
         style="fill:none;fill-opacity:0;stroke:#840000;stroke-width:80;stroke-linecap:round;stroke-linejoin:round;stroke-opacity:1"
         d="m 59400,32300 h 200"
         id="path206" />
      <path
         style="fill:none;fill-opacity:0;stroke:#840000;stroke-width:80;stroke-linecap:round;stroke-linejoin:round;stroke-opacity:1"
         d="m 59800,32300 h 200"
         id="path208" />
      <path
         d="M 49500,31500 H 48500"
         id="path210" />
    </g>
    <g
       style="fill:#008484;fill-opacity:0;stroke:#008484;stroke-width:80;stroke-linecap:round;stroke-linejoin:round;stroke-opacity:1"
       id="g220">
      <text
         x="49700"
         y="31890"
         textLength="1060"
         font-size="1050px"
         lengthAdjust="spacingAndGlyphs"
         text-anchor="start"
         opacity="0"
         id="text214">+</text>
      <path
         d="m 49920,31550 h 610"
         id="path216" />
      <path
         d="m 50220,31850 v -600"
         id="path218" />
    </g>
    <g
       style="fill:#840000;fill-opacity:0;stroke:#840000;stroke-width:80;stroke-linecap:round;stroke-linejoin:round;stroke-opacity:1"
       id="g224">
      <path
         d="M 49500,33500 H 48500"
         id="path222" />
    </g>
    <g
       style="fill:#008484;fill-opacity:0;stroke:#008484;stroke-width:80;stroke-linecap:round;stroke-linejoin:round;stroke-opacity:1"
       id="g230">
      <text
         x="49700"
         y="33890"
         textLength="1060"
         font-size="1050px"
         lengthAdjust="spacingAndGlyphs"
         text-anchor="start"
         opacity="0"
         id="text226">-</text>
      <path
         d="m 49920,33550 h 610"
         id="path228" />
    </g>
    <g
       style="fill:#840000;fill-opacity:0;stroke:#840000;stroke-width:80;stroke-linecap:round;stroke-linejoin:round;stroke-opacity:1"
       id="g234">
      <path
         d="m 61000,31500 h 1000"
         id="path232" />
    </g>
    <g
       style="fill:#008484;fill-opacity:0;stroke:#008484;stroke-width:80;stroke-linecap:round;stroke-linejoin:round;stroke-opacity:1"
       id="g242">
      <text
         x="60800"
         y="31890"
         textLength="1060"
         font-size="1050px"
         lengthAdjust="spacingAndGlyphs"
         text-anchor="end"
         opacity="0"
         id="text236">+</text>
      <path
         d="m 59970,31550 h 600"
         id="path238" />
      <path
         d="m 60270,31850 v -600"
         id="path240" />
    </g>
    <g
       style="fill:#840000;fill-opacity:0;stroke:#840000;stroke-width:80;stroke-linecap:round;stroke-linejoin:round;stroke-opacity:1"
       id="g246">
      <path
         d="m 61000,33500 h 1000"
         id="path244" />
    </g>
    <g
       style="fill:#008484;fill-opacity:0;stroke:#008484;stroke-width:80;stroke-linecap:round;stroke-linejoin:round;stroke-opacity:1"
       id="g252">
      <text
         x="60800"
         y="33890"
         textLength="1060"
         font-size="1050px"
         lengthAdjust="spacingAndGlyphs"
         text-anchor="end"
         opacity="0"
         id="text248">-</text>
      <path
         d="m 59970,33550 h 600"
         id="path250" />
    </g>
    <g
       style="fill:#840000;fill-opacity:0;stroke:#840000;stroke-width:80;stroke-linecap:round;stroke-linejoin:round;stroke-opacity:1"
       id="g256">
      <path
         d="m 55000,36000 v 1000"
         id="path254" />
    </g>
    <g
       style="fill:#008484;fill-opacity:0;stroke:#008484;stroke-width:80;stroke-linecap:round;stroke-linejoin:round;stroke-opacity:1"
       id="g294">
      <g
         transform="rotate(-90,55000,35800)"
         id="g260">
        <text
           x="55000"
           y="36050"
           textLength="1600"
           font-size="660px"
           lengthAdjust="spacingAndGlyphs"
           text-anchor="start"
           opacity="0"
           id="text258">GND</text>
      </g>
      <path
         d="m 54750,35370 -30,50 v 70 l 30,70 40,50 50,30 100,20 h 70 l 90,-20 50,-30 50,-50 20,-70 v -40 l -20,-80 -30,-20 h -160 v 100"
         id="path262" />
      <path
         d="m 55220,35140 h -500 l 500,-290 h -500"
         id="path264" />
      <path
         d="m 55220,34610 h -500 v -120 l 30,-70 40,-50 50,-20 100,-20 h 70 l 90,20 50,20 50,50 20,70 v 120"
         id="path266" />
      <text
         x="55250"
         y="28530"
         textLength="5580"
         font-size="660px"
         lengthAdjust="spacingAndGlyphs"
         text-anchor="middle"
         opacity="0"
         id="text268">ADM-PC-LL25</text>
      <path
         d="m 52590,28360 h 240"
         id="path270" />
      <path
         d="m 52540,28500 170,-500 170,500"
         id="path272" />
      <path
         d="m 53040,28500 v -500 h 120 l 70,30 50,40 20,50 30,100 v 70 l -30,90 -20,50 -50,50 -70,20 h -120"
         id="path274" />
      <path
         d="m 53540,28500 v -500 l 170,360 170,-360 v 500"
         id="path276" />
      <path
         d="m 54110,28310 h 390"
         id="path278" />
      <path
         d="m 54730,28500 v -500 h 190 l 50,30 30,20 20,50 v 70 l -20,50 -30,20 -50,20 h -190"
         id="path280" />
      <path
         d="m 55520,28450 -20,30 -80,20 h -40 l -80,-20 -40,-50 -30,-50 -20,-90 v -70 l 20,-100 30,-50 40,-40 80,-30 h 40 l 80,30 20,20"
         id="path282" />
      <path
         d="m 55730,28310 h 380"
         id="path284" />
      <path
         d="m 56590,28500 h -240 v -500"
         id="path286" />
      <path
         d="m 57000,28500 h -240 v -500"
         id="path288" />
      <path
         d="m 57140,28050 20,-20 50,-30 h 120 l 50,30 20,20 20,50 v 40 l -20,80 -290,280 h 310"
         id="path290" />
      <path
         d="m 57880,28000 h -240 l -30,240 30,-20 50,-30 h 110 l 50,30 30,20 20,50 v 120 l -20,40 -30,30 -50,20 h -110 l -50,-20 -30,-30"
         id="path292" />
    </g>
  </g>
  <g
     style="fill:#008484;fill-opacity:0;stroke:#008484;stroke-width:0;stroke-linecap:round;stroke-linejoin:round;stroke-opacity:1"
     id="g436"
     transform="translate(-21340,-26010)">
    <g
       id="g298" />
    <g
       style="fill:#840000;fill-opacity:0;stroke:#840000;stroke-width:0;stroke-linecap:round;stroke-linejoin:round;stroke-opacity:1"
       id="g300" />
    <g
       style="fill:#ffffc2;fill-opacity:0;stroke:#ffffc2;stroke-width:0;stroke-linecap:round;stroke-linejoin:round;stroke-opacity:1"
       id="g302" />
    <g
       style="fill:#ffffc2;fill-opacity:0.6;stroke:#ffffc2;stroke-width:0;stroke-linecap:round;stroke-linejoin:round;stroke-opacity:1"
       id="g306">
      <rect
         x="30000"
         y="30000"
         width="9500"
         height="5000"
         rx="0"
         id="rect304" />
    </g>
    <g
       style="fill:#840000;fill-opacity:0.6;stroke:#840000;stroke-width:0;stroke-linecap:round;stroke-linejoin:round;stroke-opacity:1"
       id="g308" />
    <g
       style="fill:#840000;fill-opacity:0;stroke:#840000;stroke-width:80;stroke-linecap:round;stroke-linejoin:round;stroke-opacity:1"
       id="g374">
      <rect
         x="30000"
         y="30000"
         width="9500"
         height="5000"
         rx="0"
         id="rect310" />
      <path
         d="m 30901.6,32249.3 a 280,280 0 0 0 496.8,0"
         id="path312" />
      <path
         d="m 31903.1,32248.5 a 290,290 0 0 0 -506.2,0"
         id="path314" />
      <g
         transform="rotate(-90,38260,32500)"
         id="g318">
        <text
           x="38260"
           y="32750"
           textLength="1510"
           font-size="660px"
           lengthAdjust="spacingAndGlyphs"
           text-anchor="middle"
           opacity="0"
           id="text316">OUT</text>
      </g>
      <path
         d="m 37980,33000 v -100 l 30,-50 40,-50 100,-20 h 160 l 100,20 50,50 20,50 v 100 l -20,40 -50,50 -100,20 h -160 l -100,-20 -40,-50 -30,-40"
         id="path320" />
      <path
         d="m 37980,32570 h 410 l 40,-30 30,-20 20,-50 v -90 l -20,-50 -30,-30 -40,-20 h -410"
         id="path322" />
      <path
         d="m 37980,32110 v -280"
         id="path324" />
      <path
         d="m 38480,31970 h -500"
         id="path326" />
      <rect
         x="30000"
         y="30000"
         width="9500"
         height="5000"
         rx="0"
         id="rect328" />
      <path
         style="fill:none;fill-opacity:0;stroke:#840000;stroke-width:80;stroke-linecap:round;stroke-linejoin:round;stroke-opacity:1"
         d="m 37200,31900 v 200"
         id="path330" />
      <path
         style="fill:none;fill-opacity:0;stroke:#840000;stroke-width:80;stroke-linecap:round;stroke-linejoin:round;stroke-opacity:1"
         d="m 36400,33100 800,-1200 -200,100"
         id="path332" />
      <path
         style="fill:none;fill-opacity:0;stroke:#840000;stroke-width:80;stroke-linecap:round;stroke-linejoin:round;stroke-opacity:1"
         d="m 30900,32750 h 1000"
         id="path334" />
      <path
         style="fill:none;fill-opacity:0;stroke:#840000;stroke-width:80;stroke-linecap:round;stroke-linejoin:round;stroke-opacity:1"
         d="m 34250,34500 v 500"
         id="path336" />
      <path
         style="fill:none;fill-opacity:0;stroke:#840000;stroke-width:80;stroke-linecap:round;stroke-linejoin:round;stroke-opacity:1"
         d="m 34250,33750 v 500"
         id="path338" />
      <path
         style="fill:none;fill-opacity:0;stroke:#840000;stroke-width:80;stroke-linecap:round;stroke-linejoin:round;stroke-opacity:1"
         d="m 34250,33000 v 500"
         id="path340" />
      <path
         style="fill:none;fill-opacity:0;stroke:#840000;stroke-width:80;stroke-linecap:round;stroke-linejoin:round;stroke-opacity:1"
         d="m 34250,32250 v 500"
         id="path342" />
      <path
         style="fill:none;fill-opacity:0;stroke:#840000;stroke-width:80;stroke-linecap:round;stroke-linejoin:round;stroke-opacity:1"
         d="m 34250,31500 v 500"
         id="path344" />
      <path
         style="fill:none;fill-opacity:0;stroke:#840000;stroke-width:80;stroke-linecap:round;stroke-linejoin:round;stroke-opacity:1"
         d="m 34250,30750 v 500"
         id="path346" />
      <path
         style="fill:none;fill-opacity:0;stroke:#840000;stroke-width:80;stroke-linecap:round;stroke-linejoin:round;stroke-opacity:1"
         d="m 34250,30000 v 500"
         id="path348" />
      <path
         style="fill:none;fill-opacity:0;stroke:#840000;stroke-width:80;stroke-linecap:round;stroke-linejoin:round;stroke-opacity:1"
         d="m 34750,34500 v 500"
         id="path350" />
      <path
         style="fill:none;fill-opacity:0;stroke:#840000;stroke-width:80;stroke-linecap:round;stroke-linejoin:round;stroke-opacity:1"
         d="m 34750,33750 v 500"
         id="path352" />
      <path
         style="fill:none;fill-opacity:0;stroke:#840000;stroke-width:80;stroke-linecap:round;stroke-linejoin:round;stroke-opacity:1"
         d="m 34750,33000 v 500"
         id="path354" />
      <path
         style="fill:none;fill-opacity:0;stroke:#840000;stroke-width:80;stroke-linecap:round;stroke-linejoin:round;stroke-opacity:1"
         d="m 34750,32250 v 500"
         id="path356" />
      <path
         style="fill:none;fill-opacity:0;stroke:#840000;stroke-width:80;stroke-linecap:round;stroke-linejoin:round;stroke-opacity:1"
         d="m 34750,31500 v 500"
         id="path358" />
      <path
         style="fill:none;fill-opacity:0;stroke:#840000;stroke-width:80;stroke-linecap:round;stroke-linejoin:round;stroke-opacity:1"
         d="m 34750,30750 v 500"
         id="path360" />
      <path
         style="fill:none;fill-opacity:0;stroke:#840000;stroke-width:80;stroke-linecap:round;stroke-linejoin:round;stroke-opacity:1"
         d="m 34750,30000 v 500"
         id="path362" />
      <path
         style="fill:none;fill-opacity:0;stroke:#840000;stroke-width:80;stroke-linecap:round;stroke-linejoin:round;stroke-opacity:1"
         d="m 36250,32800 h 1000"
         id="path364" />
      <path
         style="fill:none;fill-opacity:0;stroke:#840000;stroke-width:80;stroke-linecap:round;stroke-linejoin:round;stroke-opacity:1"
         d="m 36250,32300 h 200"
         id="path366" />
      <path
         style="fill:none;fill-opacity:0;stroke:#840000;stroke-width:80;stroke-linecap:round;stroke-linejoin:round;stroke-opacity:1"
         d="m 36650,32300 h 200"
         id="path368" />
      <path
         style="fill:none;fill-opacity:0;stroke:#840000;stroke-width:80;stroke-linecap:round;stroke-linejoin:round;stroke-opacity:1"
         d="m 37050,32300 h 200"
         id="path370" />
      <path
         d="M 30000,33500 H 29000"
         id="path372" />
    </g>
    <g
       style="fill:#008484;fill-opacity:0;stroke:#008484;stroke-width:80;stroke-linecap:round;stroke-linejoin:round;stroke-opacity:1"
       id="g380">
      <text
         x="30200"
         y="33750"
         textLength="600"
         font-size="660px"
         lengthAdjust="spacingAndGlyphs"
         text-anchor="start"
         opacity="0"
         id="text376">N</text>
      <path
         d="m 30350,33720 v -500 l 290,500 v -500"
         id="path378" />
    </g>
    <g
       style="fill:#840000;fill-opacity:0;stroke:#840000;stroke-width:80;stroke-linecap:round;stroke-linejoin:round;stroke-opacity:1"
       id="g384">
      <path
         d="M 30000,31500 H 29000"
         id="path382" />
    </g>
    <g
       style="fill:#008484;fill-opacity:0;stroke:#008484;stroke-width:80;stroke-linecap:round;stroke-linejoin:round;stroke-opacity:1"
       id="g390">
      <text
         x="30200"
         y="31750"
         textLength="480"
         font-size="660px"
         lengthAdjust="spacingAndGlyphs"
         text-anchor="start"
         opacity="0"
         id="text386">L</text>
      <path
         d="m 30590,31720 h -240 v -500"
         id="path388" />
    </g>
    <g
       style="fill:#840000;fill-opacity:0;stroke:#840000;stroke-width:80;stroke-linecap:round;stroke-linejoin:round;stroke-opacity:1"
       id="g394">
      <path
         d="m 39500,33500 h 1000"
         id="path392" />
    </g>
    <g
       style="fill:#008484;fill-opacity:0;stroke:#008484;stroke-width:80;stroke-linecap:round;stroke-linejoin:round;stroke-opacity:1"
       id="g400">
      <text
         x="39300"
         y="33890"
         textLength="1060"
         font-size="1050px"
         lengthAdjust="spacingAndGlyphs"
         text-anchor="end"
         opacity="0"
         id="text396">-</text>
      <path
         d="m 38470,33550 h 600"
         id="path398" />
    </g>
    <g
       style="fill:#840000;fill-opacity:0;stroke:#840000;stroke-width:80;stroke-linecap:round;stroke-linejoin:round;stroke-opacity:1"
       id="g404">
      <path
         d="m 39500,31500 h 1000"
         id="path402" />
    </g>
    <g
       style="fill:#008484;fill-opacity:0;stroke:#008484;stroke-width:80;stroke-linecap:round;stroke-linejoin:round;stroke-opacity:1"
       id="g434">
      <text
         x="39300"
         y="31890"
         textLength="1060"
         font-size="1050px"
         lengthAdjust="spacingAndGlyphs"
         text-anchor="end"
         opacity="0"
         id="text406">+</text>
      <path
         d="m 38470,31550 h 600"
         id="path408" />
      <path
         d="m 38770,31850 v -600"
         id="path410" />
      <text
         x="34750"
         y="29530"
         textLength="4510"
         font-size="660px"
         lengthAdjust="spacingAndGlyphs"
         text-anchor="middle"
         opacity="0"
         id="text412">AC-DC_PSU</text>
      <path
         d="m 32630,29360 h 230"
         id="path414" />
      <path
         d="m 32580,29500 170,-500 160,500"
         id="path416" />
      <path
         d="m 33360,29450 -20,30 -70,20 h -50 l -70,-20 -50,-50 -20,-50 -30,-90 v -70 l 30,-100 20,-50 50,-40 70,-30 h 50 l 70,30 20,20"
         id="path418" />
      <path
         d="m 33580,29310 h 380"
         id="path420" />
      <path
         d="m 34200,29500 v -500 h 120 l 70,30 50,40 20,50 20,100 v 70 l -20,90 -20,50 -50,50 -70,20 h -120"
         id="path422" />
      <path
         d="m 34980,29450 -20,30 -70,20 h -50 l -70,-20 -50,-50 -20,-50 -30,-90 v -70 l 30,-100 20,-50 50,-40 70,-30 h 50 l 70,30 20,20"
         id="path424" />
      <path
         d="m 35080,29550 h 380"
         id="path426" />
      <path
         d="m 35580,29500 v -500 h 190 l 50,30 20,20 20,50 v 70 l -20,50 -20,20 -50,20 h -190"
         id="path428" />
      <path
         d="m 36050,29480 80,20 h 120 l 40,-20 30,-30 20,-40 v -50 l -20,-50 -30,-20 -40,-30 -100,-20 -50,-20 -20,-30 -30,-50 v -40 l 30,-50 20,-20 50,-30 h 120 l 70,30"
         id="path430" />
      <path
         d="m 36550,29000 v 410 l 30,40 20,30 50,20 h 100 l 40,-20 30,-30 20,-40 v -410"
         id="path432" />
    </g>
  </g>
  <g
     style="fill:#008484;fill-opacity:0;stroke:#008484;stroke-width:0;stroke-linecap:round;stroke-linejoin:round;stroke-opacity:1"
     id="g472"
     transform="translate(-21340,-26010)">
    <g
       id="g438" />
    <g
       style="fill:#840000;fill-opacity:0;stroke:#840000;stroke-width:0;stroke-linecap:round;stroke-linejoin:round;stroke-opacity:1"
       id="g440" />
    <g
       style="fill:#840000;fill-opacity:0;stroke:#840000;stroke-width:80;stroke-linecap:round;stroke-linejoin:round;stroke-opacity:1"
       id="g454">
      <path
         d="m 22000,32501.3 a 750,750 0 0 0 1500,0"
         id="path442" />
      <path
         d="m 25000,32498.7 a 750,750 0 0 0 -1500,0"
         id="path444" />
      <circle
         cx="23500"
         cy="32500"
         r="2120"
         id="circle446" />
      <path
         style="fill:none;fill-opacity:0;stroke:#840000;stroke-width:80;stroke-linecap:round;stroke-linejoin:round;stroke-opacity:1"
         d="m 25050,31000 500,-500 h 1700"
         id="path448" />
      <path
         style="fill:none;fill-opacity:0;stroke:#840000;stroke-width:80;stroke-linecap:round;stroke-linejoin:round;stroke-opacity:1"
         d="m 25100,33950 550,550 h 1600"
         id="path450" />
      <path
         d="m 26500,30500 h 1000"
         id="path452" />
    </g>
    <g
       style="fill:#008484;fill-opacity:0;stroke:#008484;stroke-width:80;stroke-linecap:round;stroke-linejoin:round;stroke-opacity:1"
       id="g460">
      <text
         x="27000"
         y="30380"
         textLength="480"
         font-size="660px"
         lengthAdjust="spacingAndGlyphs"
         text-anchor="middle"
         opacity="0"
         id="text456">L</text>
      <path
         d="m 27150,30350 h -240 v -500"
         id="path458" />
    </g>
    <g
       style="fill:#840000;fill-opacity:0;stroke:#840000;stroke-width:80;stroke-linecap:round;stroke-linejoin:round;stroke-opacity:1"
       id="g464">
      <path
         d="m 26500,34500 h 1000"
         id="path462" />
    </g>
    <g
       style="fill:#008484;fill-opacity:0;stroke:#008484;stroke-width:80;stroke-linecap:round;stroke-linejoin:round;stroke-opacity:1"
       id="g470">
      <text
         x="27000"
         y="34380"
         textLength="600"
         font-size="660px"
         lengthAdjust="spacingAndGlyphs"
         text-anchor="middle"
         opacity="0"
         id="text466">N</text>
      <path
         d="m 26850,34350 v -500 l 290,500 v -500"
         id="path468" />
    </g>
  </g>
  <g
     style="fill:#008484;fill-opacity:0;stroke:#008484;stroke-width:60;stroke-linecap:round;stroke-linejoin:round;stroke-opacity:1"
     id="g474"
     transform="translate(-21340,-26010)" />
  <g
     style="fill:#008400;fill-opacity:0;stroke:#008400;stroke-width:60;stroke-linecap:round;stroke-linejoin:round;stroke-opacity:1"
     id="g492"
     transform="translate(-21340,-26010)">
    <path
       d="m 27500,30500 h 1500"
       id="path476" />
    <path
       d="m 29000,30500 v 1000"
       id="path478" />
    <path
       d="m 27500,34500 h 1500"
       id="path480" />
    <path
       d="M 29000,34500 V 33500"
       id="path482" />
    <path
       d="m 40500,31500 h 8000"
       id="path484" />
    <path
       d="m 40500,33500 h 8000"
       id="path486" />
    <path
       d="m 62000,31500 h 9000"
       id="path488" />
    <path
       d="m 62000,33500 h 9000"
       id="path490" />
  </g>
  <g
     style="fill:#008400;fill-opacity:0;stroke:#008400;stroke-width:80;stroke-linecap:round;stroke-linejoin:round;stroke-opacity:1"
     id="g494"
     transform="translate(-21340,-26010)" />
  <g
     style="fill:#0000c2;fill-opacity:0;stroke:#0000c2;stroke-width:80;stroke-linecap:round;stroke-linejoin:round;stroke-opacity:1"
     id="g604"
     transform="translate(-21340,-26010)">
    <text
       x="43500"
       y="26880"
       textLength="19530"
       font-size="1050px"
       lengthAdjust="spacingAndGlyphs"
       text-anchor="start"
       opacity="0"
       id="text496">ADM-PC-LL25 basic connection</text>
    <path
       d="m 43690,26610 h 370"
       id="path498" />
    <path
       d="m 43610,26840 260,-790 270,790"
       id="path500" />
    <path
       d="m 44400,26840 v -790 h 190 l 110,40 80,70 30,80 40,150 v 110 l -40,150 -30,70 -80,80 -110,40 h -190"
       id="path502" />
    <path
       d="m 45190,26840 v -790 l 260,560 270,-560 v 790"
       id="path504" />
    <path
       d="m 46090,26540 h 610"
       id="path506" />
    <path
       d="m 47070,26840 v -790 h 300 l 80,40 40,30 30,80 v 110 l -30,80 -40,30 -80,40 h -300"
       id="path508" />
    <path
       d="m 48310,26760 -30,40 -120,40 h -70 l -120,-40 -70,-80 -40,-70 -40,-150 v -110 l 40,-150 40,-80 70,-70 120,-40 h 70 l 120,40 30,30"
       id="path510" />
    <path
       d="m 48650,26540 h 600"
       id="path512" />
    <path
       d="m 50010,26840 h -380 v -790"
       id="path514" />
    <path
       d="m 50650,26840 h -380 v -790"
       id="path516" />
    <path
       d="m 50870,26120 40,-30 70,-40 h 190 l 80,40 30,30 40,80 v 70 l -40,120 -450,450 h 490"
       id="path518" />
    <path
       d="m 52040,26050 h -380 l -40,370 40,-30 80,-40 h 180 l 80,40 40,30 30,80 v 190 l -30,70 -40,40 -80,40 h -180 l -80,-40 -40,-40"
       id="path520" />
    <path
       d="m 53020,26840 v -790"
       id="path522" />
    <path
       d="m 53020,26350 70,-40 h 150 l 80,40 30,40 40,70 v 230 l -40,70 -30,40 -80,40 h -150 l -70,-40"
       id="path524" />
    <path
       d="m 54070,26840 v -420 l -40,-70 -70,-40 h -150 l -80,40"
       id="path526" />
    <path
       d="m 54070,26800 -80,40 h -180 l -80,-40 -40,-80 v -70 l 40,-80 80,-30 h 180 l 80,-40"
       id="path528" />
    <path
       d="m 54410,26800 70,40 h 150 l 80,-40 40,-80 v -30 l -40,-80 -80,-40 h -110 l -80,-30 -30,-80 v -40 l 30,-70 80,-40 h 110 l 80,40"
       id="path530" />
    <path
       d="m 55080,26840 v -530"
       id="path532" />
    <path
       d="m 55080,26050 -30,40 30,30 40,-30 -40,-40 v 70"
       id="path534" />
    <path
       d="m 55800,26800 -80,40 h -150 l -70,-40 -40,-40 -40,-70 v -230 l 40,-70 40,-40 70,-40 h 150 l 80,40"
       id="path536" />
    <path
       d="m 57080,26800 -80,40 h -150 l -70,-40 -40,-40 -40,-70 v -230 l 40,-70 40,-40 70,-40 h 150 l 80,40"
       id="path538" />
    <path
       d="m 57530,26840 -80,-40 -30,-40 -40,-70 v -230 l 40,-70 30,-40 80,-40 h 110 l 80,40 40,40 30,70 v 230 l -30,70 -40,40 -80,40 h -110"
       id="path540" />
    <path
       d="m 58130,26310 v 530"
       id="path542" />
    <path
       d="m 58130,26390 40,-40 70,-40 h 120 l 70,40 40,70 v 420"
       id="path544" />
    <path
       d="m 58850,26310 v 530"
       id="path546" />
    <path
       d="m 58850,26390 30,-40 80,-40 h 110 l 80,40 30,70 v 420"
       id="path548" />
    <path
       d="m 59860,26800 -70,40 h -150 l -80,-40 -40,-80 v -300 l 40,-70 80,-40 h 150 l 70,40 40,70 v 80 l -380,70"
       id="path550" />
    <path
       d="m 60580,26800 -80,40 h -150 l -70,-40 -40,-40 -40,-70 v -230 l 40,-70 40,-40 70,-40 h 150 l 80,40"
       id="path552" />
    <path
       d="m 60800,26310 h 300"
       id="path554" />
    <path
       d="m 60920,26050 v 670 l 30,80 80,40 h 70"
       id="path556" />
    <path
       d="m 61370,26840 v -530"
       id="path558" />
    <path
       d="m 61370,26050 -40,40 40,30 30,-30 -30,-40 v 70"
       id="path560" />
    <path
       d="m 61860,26840 -80,-40 -40,-40 -30,-70 v -230 l 30,-70 40,-40 80,-40 h 110 l 70,40 40,40 40,70 v 230 l -40,70 -40,40 -70,40 h -110"
       id="path562" />
    <path
       d="m 62460,26310 v 530"
       id="path564" />
    <path
       d="m 62460,26390 40,-40 70,-40 h 110 l 80,40 40,70 v 420"
       id="path566" />
    <text
       x="41000"
       y="30880"
       textLength="6850"
       font-size="1050px"
       lengthAdjust="spacingAndGlyphs"
       text-anchor="start"
       opacity="0"
       id="text568">650-750 V</text>
    <path
       d="m 41560,30050 h -150 l -70,40 -40,30 -80,120 -30,150 v 300 l 30,70 40,40 80,40 h 150 l 70,-40 40,-40 40,-70 v -190 l -40,-80 -40,-30 -70,-40 h -150 l -80,40 -40,30 -30,80"
       id="path570" />
    <path
       d="m 42350,30050 h -370 l -40,370 40,-30 70,-40 h 190 l 70,40 40,30 40,80 v 190 l -40,70 -40,40 -70,40 h -190 l -70,-40 -40,-40"
       id="path572" />
    <path
       d="m 42880,30050 h 70 l 80,40 40,30 30,80 40,150 v 190 l -40,150 -30,70 -40,40 -80,40 h -70 l -80,-40 -30,-40 -40,-70 -40,-150 v -190 l 40,-150 40,-80 30,-30 80,-40"
       id="path574" />
    <path
       d="m 43480,30540 h 600"
       id="path576" />
    <path
       d="m 44380,30050 h 530 l -340,790"
       id="path578" />
    <path
       d="m 45590,30050 h -380 l -40,370 40,-30 80,-40 h 180 l 80,40 40,30 30,80 v 190 l -30,70 -40,40 -80,40 h -180 l -80,-40 -40,-40"
       id="path580" />
    <path
       d="m 46110,30050 h 80 l 70,40 40,30 40,80 40,150 v 190 l -40,150 -40,70 -40,40 -70,40 h -80 l -70,-40 -40,-40 -40,-70 -30,-150 v -190 l 30,-150 40,-80 40,-30 70,-40"
       id="path582" />
    <path
       d="m 47200,30050 270,790 260,-790"
       id="path584" />
    <text
       x="63000"
       y="30880"
       textLength="6850"
       font-size="1050px"
       lengthAdjust="spacingAndGlyphs"
       text-anchor="start"
       opacity="0"
       id="text586">200-500 V</text>
    <path
       d="m 63190,30120 30,-30 80,-40 h 190 l 70,40 40,30 40,80 v 70 l -40,120 -450,450 h 490"
       id="path588" />
    <path
       d="m 64130,30050 h 70 l 80,40 30,30 40,80 40,150 v 190 l -40,150 -40,70 -30,40 -80,40 h -70 l -80,-40 -40,-40 -30,-70 -40,-150 v -190 l 40,-150 30,-80 40,-30 80,-40"
       id="path590" />
    <path
       d="m 64880,30050 h 70 l 80,40 40,30 30,80 40,150 v 190 l -40,150 -30,70 -40,40 -80,40 h -70 l -80,-40 -30,-40 -40,-70 -40,-150 v -190 l 40,-150 40,-80 30,-30 80,-40"
       id="path592" />
    <path
       d="m 65480,30540 h 600"
       id="path594" />
    <path
       d="m 66830,30050 h -370 l -40,370 40,-30 70,-40 h 190 l 80,40 30,30 40,80 v 190 l -40,70 -30,40 -80,40 h -190 l -70,-40 -40,-40"
       id="path596" />
    <path
       d="m 67360,30050 h 80 l 70,40 40,30 40,80 30,150 v 190 l -30,150 -40,70 -40,40 -70,40 h -80 l -70,-40 -40,-40 -40,-70 -40,-150 v -190 l 40,-150 40,-80 40,-30 70,-40"
       id="path598" />
    <path
       d="m 68110,30050 h 80 l 70,40 40,30 40,80 40,150 v 190 l -40,150 -40,70 -40,40 -70,40 h -80 l -70,-40 -40,-40 -40,-70 -30,-150 v -190 l 30,-150 40,-80 40,-30 70,-40"
       id="path600" />
    <path
       d="m 69200,30050 270,790 260,-790"
       id="path602" />
  </g>
</svg>
